<?xml version="1.0" encoding="UTF-8" standalone="no"?>
<!-- Created with Inkscape (http://www.inkscape.org/) -->

<svg
   xmlns:dc="http://purl.org/dc/elements/1.1/"
   xmlns:cc="http://creativecommons.org/ns#"
   xmlns:rdf="http://www.w3.org/1999/02/22-rdf-syntax-ns#"
   xmlns:svg="http://www.w3.org/2000/svg"
   xmlns="http://www.w3.org/2000/svg"
   xmlns:sodipodi="http://sodipodi.sourceforge.net/DTD/sodipodi-0.dtd"
   xmlns:inkscape="http://www.inkscape.org/namespaces/inkscape"
   width="1920"
   height="1080"
   viewBox="0 0 508.00003 285.75"
   version="1.1"
   id="svg3759"
   inkscape:export-filename="C:\Users\Eric\Documents\GitHub\FoxholeDefense\android\assets\skin\Skin Images\main-panel.png"
   inkscape:export-xdpi="128.491"
   inkscape:export-ydpi="128.491"
   inkscape:version="0.92.0 r15299"
   sodipodi:docname="main-panel.svg">
  <defs
     id="defs3753" />
  <sodipodi:namedview
     id="base"
     pagecolor="#ffffff"
     bordercolor="#666666"
     borderopacity="1.0"
     inkscape:pageopacity="0"
     inkscape:pageshadow="2"
     inkscape:zoom="0.5"
     inkscape:cx="1151.9375"
     inkscape:cy="458.37446"
     inkscape:document-units="mm"
     inkscape:current-layer="layer1"
     showgrid="false"
     inkscape:pagecheckerboard="false"
     inkscape:measure-start="0,0"
     inkscape:measure-end="0,0"
     inkscape:window-width="1920"
     inkscape:window-height="1017"
     inkscape:window-x="-8"
     inkscape:window-y="-8"
     inkscape:window-maximized="1"
     units="px" />
  <metadata
     id="metadata3756">
    <rdf:RDF>
      <cc:Work
         rdf:about="">
        <dc:format>image/svg+xml</dc:format>
        <dc:type
           rdf:resource="http://purl.org/dc/dcmitype/StillImage" />
        <dc:title></dc:title>
      </cc:Work>
    </rdf:RDF>
  </metadata>
  <g
     inkscape:groupmode="layer"
     id="layer2"
     inkscape:label="Layer 2"
     style="display:none"
     transform="translate(0,29.557193)">
    <rect
       style="fill:#000000;fill-opacity:1;stroke:#1d0f00;stroke-width:1.0836246;stroke-opacity:1"
       id="rect4825"
       width="438.51654"
       height="329.46024"
       x="-23.513685"
       y="-25.01062" />
  </g>
  <g
     inkscape:label="Layer 1"
     inkscape:groupmode="layer"
     id="layer1"
     transform="translate(24.399569,-97.652357)"
     style="display:inline">
    <g
       id="g5303"
       transform="matrix(0.40032094,0,0,0.3022397,1011.9529,187.14824)">
      <g
         transform="translate(-6854.0097,-1835.7313)"
         id="g6443">
        <path
           style="fill:#2b2200;fill-opacity:1;stroke:none"
           d="m 5384.4375,1539.6562 c -343.9017,0.6373 -687.7839,5.5503 -1031.6864,5.6146 -6.1935,0.3338 -13.2529,-1.4185 -17.6616,4.0356 -24.9373,21.8715 -47.065,46.725 -69.7457,70.9748 0.1311,134.8872 0.5429,270.1037 -0.1381,404.7811 0.8839,128.3317 1.7448,256.6649 1.7631,385.0002 24.9374,24.125 49.875,48.25 74.8124,72.375 40.8279,-1.3902 81.712,-0.277 122.5625,-0.5847 329.856,0.5132 659.7052,3.2848 989.5625,3.2097 29.0395,-22.8088 54.5775,-49.5154 80.2813,-76 0,-264.4062 0,-528.8125 0,-793.2187 -27.2187,-25.4063 -54.4375,-50.8126 -81.6563,-76.2188 -22.6979,-0.01 -45.3958,0.01 -68.0937,0.031 z"
           id="path5657"
           inkscape:connector-curvature="0" />
        <path
           sodipodi:nodetypes="scccccsccccs"
           inkscape:connector-curvature="0"
           id="path5659"
           d="m 4606.9688,1554.0938 c -147.454,-0.026 -255.2947,0.174 -256.9688,0.8437 -6.4286,-1.4286 -69.2633,58.3482 -73.9062,69.0625 0,129.725 0.4992,259.5983 1.0312,389.5 -0.5319,129.8913 -1.0312,259.7542 -1.0312,389.4688 4.6429,10.7143 67.4776,70.4911 73.9062,69.0624 1.6741,0.6697 109.5148,0.8698 256.9688,0.8438 324.3985,-0.057 840.625,-1.25 840.625,-1.25 l 71.5624,-69.3438 c 0,-259.1979 0,-518.3958 0,-777.5937 l -71.5624,-69.3437 c 0,0 -516.2265,-1.1935 -840.625,-1.25 z"
           style="fill:#66762a;fill-opacity:1;stroke:none" />
        <path
           inkscape:connector-curvature="0"
           id="path5661"
           d="m 4439.1875,1617.5625 c 4.9383,13.5286 9.8637,27.9657 9.125,29.8125 0,4.6428 -68.3992,74.6904 -74.2813,75 -4.1058,0.2161 -21.488,-7.6713 -34.625,-13.9375 0.156,104.2086 0.9615,204.6397 1.75,305.0625 -0.7884,100.413 -1.594,200.8328 -1.75,305.0312 13.137,-6.2662 30.5192,-14.1536 34.625,-13.9374 5.8821,0.3096 74.2813,70.3571 74.2813,75 0.7387,1.8468 -4.1867,16.2838 -9.125,29.8124 l 366.3125,-0.125 17.25,-41.25 h 148.4062 l 20.75,41.1876 374.75,-0.125 c -5.4939,-14.8032 -11.9647,-33.0883 -11.125,-35.1876 0,-4.6428 68.3993,-74.6903 74.2813,-75 3.4528,-0.1818 16.3323,5.3468 28.1563,10.8438 -0.3143,-100.3303 -1.6021,-198.3013 -2.9063,-296.25 1.3043,-97.9591 2.5919,-195.9403 2.9063,-296.2812 -11.8239,5.4969 -24.7035,11.0255 -28.1563,10.8437 -5.882,-0.3096 -74.2813,-70.3572 -74.2813,-75 -0.8397,-2.0992 5.631,-20.3844 11.125,-35.1875 l -374.75,-0.125 -20.75,41.1875 H 4822.75 l -17.25,-41.25 z"
           style="fill:#b7cc6f;fill-opacity:1;stroke:none" />
        <path
           inkscape:connector-curvature="0"
           style="opacity:0.11504427;fill:#859a37;fill-opacity:1;stroke:none"
           d="m 4439.1875,1617.5625 c 4.9383,13.5286 9.8637,27.9657 9.125,29.8125 0,4.6428 -68.3992,74.6904 -74.2813,75 -4.1058,0.2161 -21.488,-7.6713 -34.625,-13.9375 0.156,104.2086 0.9616,204.6397 1.75,305.0625 -0.3397,43.2754 -0.6759,86.6077 -0.9687,130.1875 145.1079,66.1009 341.8462,106.7187 558.5,106.7187 216.3996,0 412.9414,-40.5052 558,-106.4687 -0.4882,-43.6122 -1.0471,-87.0374 -1.625,-130.4375 1.3043,-97.9591 2.5919,-195.9404 2.9063,-296.2812 -11.824,5.4969 -24.7035,11.0255 -28.1563,10.8437 -5.882,-0.3096 -74.2813,-70.3572 -74.2813,-75 -0.8397,-2.0992 5.6311,-20.3844 11.125,-35.1875 l -374.75,-0.125 -20.75,41.1875 H 4822.75 l -17.25,-41.25 z"
           id="path6347" />
        <path
           inkscape:connector-curvature="0"
           style="opacity:0.04807691;fill:#859a37;fill-opacity:1;stroke:none"
           d="m 4439.1875,1617.5625 c 4.9383,13.5286 9.8637,27.9657 9.125,29.8125 0,4.6428 -68.3992,74.6904 -74.2813,75 -4.1058,0.2161 -21.488,-7.6713 -34.625,-13.9375 0.049,32.9433 0.1545,65.4114 0.3126,97.7187 137.2548,44.4942 336.8036,72.5 558.9687,72.5 222.0479,0 421.5018,-27.9842 558.75,-72.4374 0.2408,-29.5075 0.4377,-59.1362 0.5313,-89 -11.824,5.4969 -24.7035,11.0255 -28.1563,10.8437 -5.882,-0.3096 -74.2813,-70.3572 -74.2813,-75 -0.8397,-2.0992 5.6311,-20.3844 11.125,-35.1875 l -374.75,-0.125 -20.75,41.1875 H 4822.75 l -17.25,-41.25 z"
           id="path6342" />
        <path
           style="opacity:0.19026549;fill:#000000;fill-opacity:1;stroke:none"
           d="m 5339.7982,1644.5712 -331.4544,-8.3524 -22.4729,46.9706 -171.2592,4.4044 -21.1385,-51.009 -327.0401,0.7143 8.0937,29.5983 -88.7813,94.6383 -28.058,-11.6652 1.3626,525.2785 24.2532,-9.3378 91.681,94.459 -8.3447,27.7777 326.2221,3.3985 19.5044,-52.4062 175.0625,3.7857 19.1383,37.4465 332.8572,2.9597 -5,-21.7009 75.8355,-90.1766 25.8635,10.2513 0.516,-534.4975 -25.7574,6.5457 -76.2637,-83.3363 z m -571.2357,2.085 22.875,60 204.2813,2.8438 22.8437,-47.125 294.2813,-1.4375 -4.2813,21.4375 101.4375,95.6875 4.2812,471.4375 -17.125,-4.2812 L 5310,2339.5 l 4.2812,22.875 -288.5624,-1.4375 -24.2813,-40 -197.1563,-4.2813 -22.8437,52.8438 -285.7187,-2.8438 5.7187,-24.2812 L 4400,2239.5 l -24.2812,8.5625 v -467.125 l 21.4374,5.7187 105.6876,-102.875 -10,-25.7187 z"
           id="path6158"
           inkscape:connector-curvature="0"
           sodipodi:nodetypes="ccccccccccccccccccccccccccccccccccccccccccccccccc" />
        <path
           sodipodi:nodetypes="ccsccccccccccccccccccccccccccccccccccccccccccccccccccccc"
           inkscape:connector-curvature="0"
           id="path5663"
           d="m 4439.1875,1617.5625 c 4.9383,13.5286 9.8637,27.9657 9.125,29.8125 0,4.6428 -68.3992,74.6904 -74.2813,75 -1.5771,0.083 -5.1234,-1.0245 -9.625,-2.7812 l -19.9062,23.7812 2.1562,270.125 -2.1562,270.0938 19.9062,23.7812 c 4.5016,-1.7568 8.0479,-2.8643 9.625,-2.7812 5.8821,0.3096 74.2813,70.3571 74.2813,75 0.7387,1.8468 -4.1867,16.2838 -9.125,29.8124 l 366.3125,-0.125 17.25,-41.25 h 148.4062 l 20.75,41.1876 374.75,-0.125 c -5.4939,-14.8032 -11.9647,-33.0883 -11.125,-35.1876 0,-4.6428 68.3993,-74.6903 74.2813,-75 3.4528,-0.1817 16.3327,5.3472 28.1563,10.8438 -16.0648,-197.6499 -4.3733,-394.8535 0,-592.5312 -11.8236,5.4965 -24.7035,11.0255 -28.1563,10.8437 -5.882,-0.3096 -74.2813,-70.3572 -74.2813,-75 -0.8397,-2.0992 5.6311,-20.3844 11.125,-35.1875 l -374.75,-0.125 -20.75,41.1875 H 4822.75 l -17.25,-41.25 z m 349.7813,22 21.2187,52.1563 c 59.1093,-0.4049 120.9859,1.0028 178.4063,-4.4688 l 19,-37.0312 328.9062,-3.1876 -5.6875,25.6876 78.4375,86.3437 23.8438,-9.5625 c 0,175.9896 0,351.9792 0,527.9688 l -23.8438,-9.5626 -78.4375,86.3438 5.6875,25.6875 -328.9062,-3.1875 -19,-37.0312 c -57.4204,-5.4716 -119.297,-4.0639 -178.4063,-4.4688 l -21.2187,52.1562 -318.875,-2.7812 8.5624,-26.4375 c 0,0 -91.3348,-91.4909 -94.9062,-95.0625 l -23,9.4375 0.062,-254.5 v -4.5625 -4.5938 l -0.062,-254.5 23,9.4376 c 3.5714,-3.5716 94.9062,-95.0626 94.9062,-95.0626 l -8.5624,-26.4374 z"
           style="fill:#2b2200;fill-opacity:1;stroke:none" />
        <path
           sodipodi:nodetypes="ccccccccccccccccccc"
           inkscape:connector-curvature="0"
           id="path5665"
           d="m 4743.9932,1617.6875 10.2813,3.375 39.75,2 22.8437,60.7187 164.3125,-2.125 22.125,-40.7187 345.6875,-4.2813 -8.5312,31.4063 73.788,79.2542 43.6807,-16.2855 c 0.014,-4.5738 0.02,-9.2271 0.031,-13.8124 -13.3391,1.9616 -28.744,3.7019 -32.1968,5.2879 -5.882,-0.3096 -70.2406,-64.8014 -70.2406,-69.4442 -0.8392,-2.098 5.633,-20.3578 11.125,-35.1563 l -374.75,-0.125 -20.75,41.1563 H 4822.743 l -17.25,-41.2187 z"
           style="fill:#48541e;fill-opacity:1;stroke:none" />
        <path
           id="path5667"
           d="m 4439.1807,1617.5938 c 4.9349,13.5204 9.8632,27.9357 9.125,29.7812 0,4.6428 -68.3992,74.6904 -74.2812,75 -4.1123,0.2165 -21.5437,-7.6979 -34.6875,-13.9688 -1e-4,0.3049 0,0.6008 0,0.9063 l 12.9062,29.9687 27.7813,13.625 87.375,-88.4062 -9.5625,-30 352.125,-1 -5.0938,-15.7812 z"
           style="fill:#48541e;fill-opacity:1;stroke:none"
           inkscape:connector-curvature="0" />
        <path
           id="path5669"
           d="m 4349.2432,1555 c -0.1538,0.036 -0.3208,0.093 -0.5,0.1562 -0.1601,0.056 -0.2869,0.1098 -0.4687,0.1876 -0.1852,0.08 -0.4194,0.1788 -0.625,0.2812 -0.269,0.1318 -0.5393,0.2691 -0.8438,0.4375 -0.029,0.017 -0.064,0.045 -0.094,0.062 -14.6231,8.3756 -66.426,58.1849 -70.625,67.875 0,0.052 0,0.1042 0,0.1562 13.7608,3.2262 21.7187,2.5626 21.7187,2.5626 l 56.9375,-57.1876 -5.4375,-14.5312 c -0.021,0 -0.041,-0.01 -0.062,0 z"
           style="fill:#8ea43b;fill-opacity:1;stroke:none"
           inkscape:connector-curvature="0" />
        <path
           sodipodi:nodetypes="scccccsccc"
           inkscape:connector-curvature="0"
           id="path5671"
           d="m 4606.962,1554.0938 c -147.454,-0.026 -255.2634,0.174 -256.9375,0.8437 -0.1869,-0.042 -0.4395,0 -0.7188,0.062 l 5.4492,14.5454 1083.0865,1.285 8.8393,-15.4866 c -2.0545,0 -515.9678,-1.1935 -839.7187,-1.25 z m -259.3438,1.5624 c -0.444,0.2227 -0.9357,0.4909 -1.4687,0.8126 0.5475,-0.3304 1.0142,-0.5853 1.4687,-0.8126 z"
           style="fill:#a8c04f;fill-opacity:1;stroke:none" />
        <path
           sodipodi:nodetypes="cccccccccccc"
           inkscape:connector-curvature="0"
           id="path5673"
           d="m 5446.6807,1555.3438 -8.8438,15.5 h -0.6874 c 0.2393,0.1632 0.625,0.4374 0.625,0.4374 l 62.9815,61.9165 c 0,0 11.8465,-4.6485 18.4247,-7.7289 v -0.7813 l -71.5625,-69.3437 c 0,0 -0.8102,3e-4 -0.9375,0 z m -1099.0625,0.3124 c -0.4545,0.2274 -0.9212,0.4821 -1.4687,0.8126 0.533,-0.3217 1.0247,-0.5898 1.4687,-0.8126 z"
           style="fill:#8ea43b;fill-opacity:1;stroke:none" />
        <path
           inkscape:connector-curvature="0"
           id="path5675"
           d="m 4276.0938,1624.1562 c 3e-4,129.6682 0.4963,259.5053 1.0312,389.3438 -0.5348,129.8281 -1.0309,259.6548 -1.0312,389.3125 7.6958,-1.8045 13.4984,-2.3637 17.1874,-2.5313 1.2908,-0.3456 5.4376,-1.4687 5.4376,-1.4687 l -0.375,-380.75 v -4.5625 -4.5938 l 0.375,-380.75 c 0,0 -4.1468,-1.123 -5.4376,-1.4687 -3.689,-0.1675 -9.4915,-0.7267 -17.1874,-2.5313 z"
           style="opacity:0.25663715;fill:#000000;fill-opacity:1;stroke:none" />
        <path
           sodipodi:nodetypes="ccccccccccccccccccccc"
           inkscape:connector-curvature="0"
           id="path5677"
           d="m 4351.8682,1554.8125 c -0.569,0.023 -0.9635,0.039 -1.25,0.062 -0.3262,0.021 -0.5381,0.041 -0.5937,0.062 -0.097,-0.022 -0.2193,-0.01 -0.3438,0 -0.092,0.01 -0.207,0.043 -0.3125,0.062 -0.036,0.01 -0.088,-0.01 -0.125,0 -0.3076,0.072 -0.6552,0.1941 -1.0625,0.375 -0.3451,0.1537 -0.7183,0.3394 -1.125,0.5625 l 3.1563,14.375 -52.25,55.5625 -21.5313,-2.5625 c -0.1135,0.2098 -0.2312,0.4422 -0.3125,0.625 l 20.5625,6.2187 1.5102,552.0528 c 4.0406,-13.132 3.5523,-550.7715 3.5523,-550.7715 l 55.8125,-56.5937 205.7264,-4.8833 -203.9764,-3.9293 -7.4062,-11.2187 c -0.013,5e-4 -0.019,-5e-4 -0.031,0 z"
           style="fill:#a6be47;fill-opacity:1;stroke:none" />
        <path
           inkscape:connector-curvature="0"
           id="path5751"
           d="m 4347.625,1555.6562 c -0.444,0.223 -0.9357,0.4907 -1.4688,0.8126 0.5475,-0.3308 1.0143,-0.5852 1.4688,-0.8126 z m 1171.5625,69.8126 c -6.5782,3.0802 -18.4375,7.7187 -18.4375,7.7187 -0.2109,125.3743 -0.793,250.5402 -1.3438,375.7187 h -0.031 c 0.01,1.5311 0.025,3.0628 0.031,4.5938 -0.01,1.5206 -0.025,3.0419 -0.031,4.5625 h 0.031 c 0.5508,125.1786 1.1329,250.3444 1.3438,375.7187 0,0 11.8593,4.6385 18.4375,7.7188 v -383.4375 -9.1563 z M 4346.1562,2470.5 c 0.5475,0.3307 1.0143,0.5851 1.4688,0.8125 -0.444,-0.2229 -0.9357,-0.4907 -1.4688,-0.8125 z"
           style="fill:#48541e;fill-opacity:1;stroke:none" />
        <path
           inkscape:connector-curvature="0"
           id="path5759"
           d="m 4883.3057,1569.505 c 40.7143,-8.5714 355,-2.8571 372.1429,-2.8571 17.1428,0 106.4285,3.5714 106.4285,3.5714 0,0 -273.5714,4.2857 -280,4.2857 -6.4285,0 -198.5714,-5 -198.5714,-5 z"
           style="fill:#a6be47;fill-opacity:1;stroke:none" />
        <path
           id="path5761"
           d="m 4613.0245,1554.0938 c 10.4759,2.1737 21.3437,4.3437 21.3437,4.3437 l 19.6563,4.2813 29.2812,-1.7813 8.2188,4.2813 11.7812,5 -16.0625,8.9374 -17.875,7.8438 0.375,11.4375 0.7188,9.625 15.3437,4.3125 4.6563,-11.0938 12.5,-2.5 1.7812,-9.2812 21.4063,-1.7812 16.0937,10.3437 9.625,-7.5 -2.8437,-11.4063 11.7812,0.3438 11.0625,-3.5625 -6.7812,-7.1563 -20.3438,-6.4062 37.5,-1.8125 -1.7812,5 8.1875,4.3125 3.5937,11.7812 17.8438,4.625 6.7812,-8.9062 11.7813,6.0625 -7.8438,15.3437 8.5625,6.0938 15.7188,-10 c 0,0 7.4955,-1.7901 9.2812,-3.2188 1.7857,-1.4285 -5.7187,-10.7187 -5.7187,-10.7187 l 13.5937,-3.5625 -3.5937,-7.1562 -40.3438,-8.9376 17.5,-4.2812 c 0,0 0.4535,-1.1364 1.0313,-2.7188 -78.1845,-0.092 -155.554,-0.1728 -223.8125,-0.1874 z"
           style="opacity:0.0442478;fill:#803300;fill-opacity:1;stroke:none"
           inkscape:connector-curvature="0" />
        <circle
           r="6.0609155"
           cy="1590.7734"
           cx="24.748737"
           id="path5763"
           style="opacity:0.08653846;fill:#000000;fill-opacity:1;stroke:none"
           transform="translate(4931.1628,6.4285714)" />
        <circle
           r="12.879445"
           cy="1585.9752"
           cx="46.214478"
           transform="translate(4415.3768,8.0812204)"
           id="path5765"
           style="opacity:0.12980772;fill:#000000;fill-opacity:1;stroke:none" />
        <circle
           r="2.2728431"
           cy="1577.894"
           cx="68.942909"
           id="path5767"
           style="opacity:0.12980772;fill:#000000;fill-opacity:1;stroke:none"
           transform="translate(4408.3057)" />
        <path
           sodipodi:nodetypes="cccccccccccccccccccccccccccccccccccccccccccccccccccccccc"
           inkscape:connector-curvature="0"
           id="path5773"
           d="m 5227.3995,1554.9062 14.2812,4.5626 8.5938,4.5312 15.1562,1 8.0625,6.0625 -10.5937,6.5937 c -0.1667,3.5313 -0.3334,7.0625 -0.5,10.5938 -0.3438,2.1875 -0.6875,4.375 -1.0313,6.5625 -9.2604,1.8542 -18.5208,3.7083 -27.7812,5.5625 0,2.8646 0,5.7292 0,8.5938 6.9062,0.5 13.8125,1 20.7187,1.5 1.8542,-2.5209 3.7083,-5.0417 5.5625,-7.5626 2.6875,-0.3437 5.375,-0.6875 8.0625,-1.0312 4.2188,-0.1667 8.4375,-0.3333 12.6563,-0.5 -1.0105,1.8542 -2.0209,3.7083 -3.0313,5.5625 3.0208,0.1667 6.0417,0.3333 9.0625,0.5 2.6979,-4.8854 5.3958,-9.7709 8.0938,-14.6563 -5.2188,-0.5 -10.4375,-1 -15.6563,-1.5 1.1771,-2.6979 2.3542,-5.3958 3.5313,-8.0937 2.3541,0.8438 4.7083,1.6875 7.0625,2.5313 0.177,-2.8646 0.3541,-5.7292 0.5312,-8.5938 5.0417,-0.1667 10.0833,-0.3333 15.125,-0.5 1.6875,3.7083 3.375,7.4167 5.0625,11.125 5.2188,-2.6979 10.4375,-5.3959 15.6563,-8.0938 -2.3542,-1.6771 -4.7084,-3.3541 -7.0625,-5.0312 l 7.0625,-4.5625 30.8125,5.5625 c -2.1875,3.875 -4.375,7.75 -6.5625,11.625 -4.2084,0.6667 -8.4167,1.3333 -12.625,2 1.8541,2.6979 3.7083,5.3959 5.5625,8.0938 6.0625,-1.6875 12.125,-3.3751 18.1875,-5.0626 4.7083,-0.1667 9.4166,-0.3333 14.125,-0.5 0.1666,3.7083 0.3333,7.4167 0.5,11.125 4.552,0.1667 9.1041,0.3333 13.6562,0.5 -1.1875,-3.5417 -2.375,-7.0833 -3.5625,-10.625 2.6979,-2.3541 5.3958,-4.7083 8.0938,-7.0624 1.3437,-3.1979 2.6875,-6.3959 4.0312,-9.5938 -4.0417,-0.5 -8.0833,-1 -12.125,-1.5 l 1.0313,-5.0625 19.6875,-2.0313 8.5937,-7.0624 -15.6562,-1.5 -25.25,1 v 6.5624 l -18.6875,-0.5 -18.1875,-4.0624 10.0937,-3 -2.6875,-3.8438 c -12.8115,-0.028 -15.546,-0.029 -31.375,-0.062 l -12.4062,2.875 2.0312,5.5625 -15.6562,1.5 -0.5,-6.0312 -11.125,-2.5313 c 0,0 0.1451,-0.721 0.2812,-1.4375 -14.325,-0.029 -33.3419,-0.064 -48.9062,-0.094 z"
           style="opacity:0.0442478;fill:#803300;fill-opacity:1;stroke:none" />
        <path
           inkscape:connector-curvature="0"
           style="opacity:0.3539823;fill:#000000;fill-opacity:1;stroke:none"
           d="m 4995.0625,1617.7812 c -0.05,0.038 -0.375,0.2813 -0.375,0.2813 l 9.9687,22.8437 343.375,-4.25 c 8.0481,-8.2071 17.8303,-18.285 18.2813,-18.75 z"
           id="path6388" />
        <path
           inkscape:connector-curvature="0"
           style="opacity:0.3539823;fill:#000000;fill-opacity:1;stroke:none"
           d="m 4439.6875,1617.5938 18.6875,16.9062 339.5625,-0.9688 4.9063,-14.75 -142.7188,-1.125 -220.4375,-0.062 z"
           id="path6386" />
        <path
           inkscape:connector-curvature="0"
           style="opacity:0.40707966;fill:#000000;fill-opacity:1;stroke:none"
           d="m 4822.1562,1658.25 -5.2812,25.5 v 0.031 l 164.3125,-2.125 0.25,-0.4687 -11.375,-22.25 H 4822.75 l -0.2812,-0.6875 h -0.3126 z"
           id="path6372" />
        <path
           sodipodi:nodetypes="ccccccccccccccccccc"
           inkscape:connector-curvature="0"
           id="path5775"
           d="m 4493.1977,1618.0476 c 10.6066,-1.0101 312.098,-2.2728 312.098,-2.2728 0,0 16.5449,36.3117 19.7592,38.8117 3.5714,2.1428 145.7937,1.4898 145.7937,1.4898 l 21.2999,-40.1356 109.5149,2.2549 -101.9134,2.8825 3.5356,19.6979 -9.0914,-16.1624 -19.1929,35.3553 6.0609,21.2132 -10.9025,-20.3256 -146.6813,-0.3825 -6.0609,21.9708 3.0304,-24.4962 -16.6675,-36.3655 -5.0507,11.6168 1.0101,-12.1218 z"
           style="fill:#859a37;fill-opacity:1;stroke:none" />
        <path
           inkscape:connector-curvature="0"
           id="path5779"
           d="m 4339.4062,1708.4375 c 0.1559,104.1901 0.9291,204.6528 1.7188,305.0625 -0.7897,100.3999 -1.5629,200.8513 -1.7188,305.0312 4.633,-2.2099 9.7983,-4.5945 14.7188,-6.7812 v -0.031 c 0.3915,-0.8815 0.625,-1.4063 0.625,-1.4063 l -2.1562,-24.625 v -267.625 -9.1563 -267.625 l 2.1562,-24.625 c 0,0 -0.2335,-0.5247 -0.625,-1.4062 v -0.031 c -4.9205,-2.1868 -10.0858,-4.5714 -14.7188,-6.7813 z"
           style="fill:#48541e;fill-opacity:1;stroke:none" />
        <path
           inkscape:connector-curvature="0"
           style="opacity:0.47345132;fill:#000000;fill-opacity:1;stroke:none"
           d="m 4339.3438,1708.4062 c -2e-4,0.305 0,0.6008 0,0.9063 l 9.2187,21.4063 c 1.6343,3.3081 3.0081,5.9982 4.5,8.9687 l 26.6875,13.0625 c -0.5432,-4.4539 -2.8549,-22.9139 -4.4688,-30.9062 -0.5369,0.307 -0.9742,0.5167 -1.25,0.5312 -4.1122,0.2165 -21.5437,-7.6978 -34.6874,-13.9688 z"
           id="path6399" />
        <path
           inkscape:connector-curvature="0"
           id="path5777"
           d="m 4338.3057,1812.005 -4.2857,-115.7142 39.6428,19.6428 71.4286,-70.7143 -10.3571,-31.7857 145.7143,5 -136.0715,1.0714 14.2857,16.0715 -13.2142,-8.9286 6.0714,21.0714 16.0714,17.1429 -19.6428,-12.8572 -71.7858,71.4286 5,28.9286 -8.5714,-30 -31.4286,-12.8572 z"
           style="fill:#819435;fill-opacity:1;stroke:none" />
        <path
           sodipodi:nodetypes="ccccc"
           inkscape:connector-curvature="0"
           id="path5781"
           d="m 5457.9375,1729.3438 -17.5,2.2812 c 0,187.9063 0,375.8125 0,563.7188 l 17.5,2.2812 c -3.9422,-195.1704 -0.6689,-388.7407 0,-568.2812 z"
           style="fill:#48541e;fill-opacity:1;stroke:none" />
        <path
           inkscape:connector-curvature="0"
           style="opacity:0.47345132;fill:#000000;fill-opacity:1;stroke:none"
           d="m 5456.4375,1717.7188 -8.6563,0.9374 c -0.1319,0.018 -0.2433,0.045 -0.375,0.063 -9.9681,1.3702 -19.1004,2.6072 -21.6562,3.7812 -0.3935,-0.021 -1.0575,-0.3483 -1.9375,-0.9062 -0.2934,0.8117 -6.5928,18.2163 -9.75,25.5312 l 0.1875,0.1875 26.3125,-9.8125 15.875,-19.7812 z"
           id="path6404" />
        <path
           sodipodi:nodetypes="ccccccccccccccccc"
           inkscape:connector-curvature="0"
           id="path5783"
           d="m 5232.0851,1617.0375 141.4214,-3.0305 -14.1422,37.3756 67.1752,68.1853 34.8502,-5.0507 -4.0406,105.0558 -3.5355,-95.9645 -13.5758,14.7085 8.8567,-16.1064 -24.3967,4.0459 -10.668,21.0959 6.4488,-24.754 -63.6397,-66.165 -16.1624,11.3642 13.132,-15.9099 8.5863,-31.3147 z"
           style="fill:#8fa63b;fill-opacity:1;stroke:none" />
        <path
           style="fill:#48541e;fill-opacity:1;stroke:none"
           d="m 4743.9932,2409.2905 10.2813,-3.375 39.75,-2 22.8437,-60.7187 164.3125,2.125 22.125,40.7187 345.6875,4.2813 -8.5312,-31.4063 73.788,-79.2542 43.6807,16.2855 c 0.014,4.5738 0.02,9.2271 0.031,13.8124 -13.3391,-1.9616 -28.744,-3.7019 -32.1968,-5.2879 -5.882,0.3096 -70.2406,64.8014 -70.2406,69.4442 -0.8392,2.098 5.633,20.3578 11.125,35.1563 l -374.75,0.125 -20.75,-41.1563 H 4822.743 l -17.25,41.2187 z"
           id="path5896"
           inkscape:connector-curvature="0"
           sodipodi:nodetypes="ccccccccccccccccccc" />
        <path
           inkscape:connector-curvature="0"
           style="fill:#48541e;fill-opacity:1;stroke:none"
           d="m 4439.1807,2409.3842 c 4.9349,-13.5204 9.8632,-27.9357 9.125,-29.7812 0,-4.6428 -68.3992,-74.6904 -74.2812,-75 -4.1123,-0.2165 -21.5437,7.6979 -34.6875,13.9688 -1e-4,-0.3049 0,-0.6008 0,-0.9063 l 12.9062,-29.9687 27.7813,-13.625 87.375,88.4062 -9.5625,30 352.125,1 -5.0938,15.7812 z"
           id="path5898" />
        <path
           inkscape:connector-curvature="0"
           style="fill:#464f1d;fill-opacity:1;stroke:none"
           d="m 4349.2432,2471.978 c -0.1538,-0.036 -0.3208,-0.093 -0.5,-0.1562 -0.1601,-0.056 -0.2869,-0.1098 -0.4687,-0.1876 -0.1852,-0.08 -0.4194,-0.1788 -0.625,-0.2812 -0.269,-0.1318 -0.5393,-0.2691 -0.8438,-0.4375 -0.029,-0.017 -0.064,-0.045 -0.094,-0.062 -14.6231,-8.3756 -66.426,-58.1849 -70.625,-67.875 0,-0.052 0,-0.1042 0,-0.1562 13.7608,-3.2262 21.7187,-2.5626 21.7187,-2.5626 l 56.9375,57.1876 -5.4375,14.5312 c -0.021,0 -0.041,0.01 -0.062,0 z"
           id="path5900" />
        <path
           style="fill:#282e10;fill-opacity:1;stroke:none"
           d="m 4606.962,2472.8842 c -147.1506,0.3294 -253.1453,1.9441 -256.9375,-0.8437 -0.1869,0.042 -0.4395,0 -0.7188,-0.062 l 5.4492,-14.5454 1083.0865,-1.285 8.8393,15.4866 c -2.0545,0.112 -839.7187,6.2502 -839.7187,1.25 z m -259.3438,-1.5624 c -0.444,-0.2227 -0.9357,-0.4909 -1.4687,-0.8126 0.5475,0.3304 1.0142,0.5853 1.4687,0.8126 z"
           id="path5902"
           inkscape:connector-curvature="0"
           sodipodi:nodetypes="ccccccscccc" />
        <path
           style="fill:#48541e;fill-opacity:1;stroke:none"
           d="m 5446.6807,2471.6342 -8.8438,-15.5 h -0.6874 c 0.2393,-0.1632 0.625,-0.4374 0.625,-0.4374 l 62.9815,-61.9165 c 0,0 11.8465,4.6485 18.4247,7.7289 v 0.7813 l -71.5625,69.3437 c 0,0 -0.8102,-3e-4 -0.9375,0 z m -1099.0625,-0.3124 c -0.4545,-0.2274 -0.9212,-0.4821 -1.4687,-0.8126 0.533,0.3217 1.0247,0.5898 1.4687,0.8126 z"
           id="path5904"
           inkscape:connector-curvature="0"
           sodipodi:nodetypes="cccccccccccc" />
        <path
           style="fill:#a6be47;fill-opacity:1;stroke:none"
           d="m 4351.8682,2472.1655 c -0.569,-0.023 -0.9635,-0.039 -1.25,-0.062 -0.3262,-0.021 -0.5381,-0.041 -0.5937,-0.062 -0.097,0.022 -0.2193,0.01 -0.3438,0 -0.092,-0.01 -0.207,-0.043 -0.3125,-0.062 -0.036,-0.01 -0.088,0.01 -0.125,0 -0.3076,-0.072 -0.6552,-0.1941 -1.0625,-0.375 -0.3451,-0.1537 -0.7183,-0.3394 -1.125,-0.5625 l 3.1563,-14.375 -52.25,-55.5625 -21.5313,2.5625 c -0.1135,-0.2098 -0.2312,-0.4422 -0.3125,-0.625 l 20.5625,-6.2187 1.5102,-136.8801 3.5523,135.5988 55.8125,56.5937 205.7264,4.8833 -203.9764,3.9293 -7.4062,11.2187 c -0.013,-5e-4 -0.019,5e-4 -0.031,0 z"
           id="path5908"
           inkscape:connector-curvature="0"
           sodipodi:nodetypes="ccccccccccccccccccccc" />
        <path
           sodipodi:nodetypes="cscsc"
           style="fill:#a6be47;fill-opacity:1;stroke:none"
           d="m 4883.3057,2457.473 c 42.322,1.3366 346.294,0.5554 363.0515,1.3419 17.9479,0.8423 106.6811,-2.5613 106.6811,-2.5613 0,0 -264.7326,-3.7806 -271.1612,-3.7806 -6.4285,0 -198.5714,5 -198.5714,5 z"
           id="path5987"
           inkscape:connector-curvature="0" />
        <path
           inkscape:connector-curvature="0"
           style="opacity:0.0442478;fill:#803300;fill-opacity:1;stroke:none"
           d="m 4613.0245,2472.8842 c 10.4759,-2.1737 21.3437,-4.3437 21.3437,-4.3437 l 19.6563,-4.2813 29.2812,1.7813 8.2188,-4.2813 11.7812,-5 -16.0625,-8.9374 -17.875,-7.8438 0.375,-11.4375 0.7188,-9.625 15.3437,-4.3125 4.6563,11.0938 12.5,2.5 1.7812,9.2812 21.4063,1.7812 16.0937,-10.3437 9.625,7.5 -2.8437,11.4063 11.7812,-0.3438 11.0625,3.5625 -6.7812,7.1563 -20.3438,6.4062 37.5,1.8125 -1.7812,-5 8.1875,-4.3125 3.5937,-11.7812 17.8438,-4.625 6.7812,8.9062 11.7813,-6.0625 -7.8438,-15.3437 8.5625,-6.0938 15.7188,10 c 0,0 7.4955,1.7901 9.2812,3.2188 1.7857,1.4285 -5.7187,10.7187 -5.7187,10.7187 l 13.5937,3.5625 -3.5937,7.1562 -40.3438,8.9376 17.5,4.2812 c 0,0 0.4535,1.1364 1.0313,2.7188 -78.1845,0.092 -155.554,0.1728 -223.8125,0.1874 z"
           id="path5989" />
        <circle
           r="6.0609155"
           cy="1590.7734"
           cx="24.748737"
           transform="matrix(1,0,0,-1,4408.3057,4026.978)"
           style="opacity:0.2964602;fill:#000000;fill-opacity:1;stroke:none"
           id="path5991" />
        <circle
           r="12.879445"
           cy="1585.9752"
           cx="46.214478"
           style="opacity:0.12980772;fill:#000000;fill-opacity:1;stroke:none"
           id="path5993"
           transform="matrix(1,0,0,-1,4415.3768,4018.8968)" />
        <circle
           r="2.2728431"
           cy="1577.894"
           cx="68.942909"
           transform="matrix(1,0,0,-1,4408.3057,4026.978)"
           style="opacity:0.12980772;fill:#000000;fill-opacity:1;stroke:none"
           id="path5995" />
        <path
           style="opacity:0.12980772;fill:#000000;fill-opacity:1;stroke:none"
           d="m 4502.2499,2436.7096 c 62.8444,16.8391 160.1092,11.6167 160.1092,11.6167 0,0 -75.2564,-3.5355 -98.995,-5.0507 -23.7386,-1.5153 -75.2563,-10.6066 -75.2563,-10.6066 z"
           id="path5997"
           inkscape:connector-curvature="0" />
        <path
           style="opacity:0.12980772;fill:#000000;fill-opacity:1;stroke:none"
           d="m 4545.1814,2431.1537 c 49.4974,-8.0812 107.0761,-7.5761 107.0761,-7.5761 0,0 -42.9314,-2.5254 -60.6091,-2.0203 -17.6777,0.5051 -63.6396,12.1218 -63.6396,12.1218 z"
           id="path5999"
           inkscape:connector-curvature="0" />
        <path
           style="fill:#98b03f;fill-opacity:1;stroke:none"
           d="m 4493.1977,2408.9304 c 10.6066,1.0101 312.098,2.2728 312.098,2.2728 0,0 16.5449,-36.3117 19.7592,-38.8117 3.5714,-2.1428 145.7937,-1.4898 145.7937,-1.4898 l 21.2999,40.1356 109.5149,-2.2549 -101.9134,-2.8825 3.5356,-19.6979 -9.0914,16.1624 -19.1929,-35.3553 6.0609,-21.2132 -10.9025,20.3256 c -48.8938,-7.1451 -97.7875,0.255 -146.6813,0.3825 l -6.0609,-21.9708 3.0304,24.4962 -16.6675,36.3655 -5.0507,-11.6168 1.0101,12.1218 z"
           id="path6003"
           inkscape:connector-curvature="0"
           sodipodi:nodetypes="ccccccccccccccccccc" />
        <path
           style="fill:#a8be4c;fill-opacity:1;stroke:none"
           d="m 4338.3057,2214.973 -4.2857,115.7142 39.6428,-19.6428 71.4286,70.7143 -10.3571,31.7857 145.7143,-5 -136.0715,-1.0714 14.2857,-16.0715 -13.2142,8.9286 6.0714,-21.0714 16.0714,-17.1429 -19.6428,12.8572 -71.7858,-71.4286 5,-28.9286 -8.5714,30 -31.4286,12.8572 z"
           id="path6005"
           inkscape:connector-curvature="0" />
        <path
           style="fill:#a3bd45;fill-opacity:1;stroke:none"
           d="m 5232.0851,2409.9405 141.4214,3.0305 -14.1422,-37.3756 67.1752,-68.1853 34.8502,5.0507 -4.0406,-105.0558 -3.5355,95.9645 -14.6472,-13.6371 7.071,14.1421 -21.7182,-1.0101 -9.5965,-20.2031 5.5559,21.7183 -63.6397,66.165 -16.1624,-11.3642 13.132,15.9099 8.5863,31.3147 z"
           id="path6011"
           inkscape:connector-curvature="0"
           sodipodi:nodetypes="ccccccccccccccccc" />
        <path
           style="fill:#8fa63b;fill-opacity:1;stroke:none"
           d="m 5499.2705,1705.9309 c 0,14.1421 -4.0407,403.556 -3.0305,421.7387 1.0101,18.1827 4.0406,143.9467 4.0406,143.9467 0,0 2.0203,-220.2133 1.0102,-228.2945 -1.0102,-8.0812 -2.0203,-337.3909 -2.0203,-337.3909 z"
           id="path6150"
           inkscape:connector-curvature="0"
           sodipodi:nodetypes="csccc" />
        <path
           style="fill:#8fa63b;fill-opacity:1;stroke:none"
           d="m 5457.1429,1846.6479 c 0,5.7143 -5,190 -5,200 0,10 4.2857,94.2857 4.2857,94.2857 0,0 2.8571,-102.1428 2.1428,-112.8571 -0.7143,-10.7143 -1.4285,-181.4286 -1.4285,-181.4286 z"
           id="path6152"
           inkscape:connector-curvature="0" />
        <path
           style="fill:#8fa63b;fill-opacity:1;stroke:none"
           d="m 4339.6153,1852.403 c 0,13.132 -5.0507,291.9341 -5.0507,301.0255 0,9.0913 5.0507,70.7106 5.0507,70.7106 0,0 3.0305,-246.4772 3.0305,-256.5787 0,-10.1015 -3.0305,-115.1574 -3.0305,-115.1574 z"
           id="path6154"
           inkscape:connector-curvature="0" />
        <ellipse
           ry="8.0812206"
           rx="13.075689"
           cy="1594.8141"
           cx="5057.7773"
           style="opacity:0.13942309;fill:#000000;fill-opacity:1;stroke:none"
           id="path6352"
           transform="matrix(0.49784739,0,0,0.84011747,2458.4588,253.69092)" />
        <circle
           r="10.101525"
           cy="1617.0375"
           cx="4959.8491"
           style="opacity:0.13942309;fill:#000000;fill-opacity:1;stroke:none"
           id="path6354" />
        <circle
           r="7.0710678"
           cy="1590.7734"
           cx="4690.1382"
           style="opacity:0.13942309;fill:#000000;fill-opacity:1;stroke:none"
           id="path6358" />
        <circle
           r="10.357142"
           cy="2332.0051"
           cx="5486.0713"
           style="opacity:0.13942309;fill:#000000;fill-opacity:1;stroke:none"
           id="path6360" />
        <circle
           r="8.9285717"
           cy="2439.1479"
           cx="5358.9287"
           style="opacity:0.13942309;fill:#000000;fill-opacity:1;stroke:none"
           id="path6364" />
        <circle
           r="3.5714285"
           cy="2427.3623"
           cx="5344.2856"
           style="opacity:0.13942309;fill:#000000;fill-opacity:1;stroke:none"
           id="path6366" />
        <path
           inkscape:connector-curvature="0"
           style="opacity:0.66814162;fill:#a8be4c;fill-opacity:1;stroke:none"
           d="m 4458.5,2392.4688 -19,16 c -0.1103,0.3031 -0.2021,0.6038 -0.3125,0.9062 l 365.125,-0.125 -4.6563,-12.5938 -2,-3.2187 z"
           id="path6409" />
        <path
           inkscape:connector-curvature="0"
           style="opacity:0.66814162;fill:#a8be4c;fill-opacity:1;stroke:none"
           d="m 5002.8125,2385.0938 -8.4063,24.0937 372.25,-0.125 c -0.3409,-0.9188 -0.6846,-1.9029 -1.0312,-2.8437 -5.6654,-5.1322 -11.6195,-10.6149 -17.3438,-15.9063 l -344.9687,-4.2813 z"
           id="path6414" />
        <path
           inkscape:connector-curvature="0"
           style="opacity:0.66814162;fill:#a8be4c;fill-opacity:1;stroke:none"
           d="m 4816.9688,2343.1875 5,26.4063 h 0.125 l 0.6562,-1.5626 h 147.6562 l 11.4688,-21.4687 -0.6875,-1.25 z"
           id="path6416" />
        <path
           inkscape:connector-curvature="0"
           style="opacity:0.22566373;fill:#a8be4c;fill-opacity:1;stroke:none"
           d="m 4380.9688,2275 c -2.0511,9.2654 -4.981,22.3328 -6.8126,29.625 5.6123,0.9972 54.9051,50.8118 69.8438,68.8125 l 3.5,3.2187 c 0,0 9.0525,-5.8085 19.3125,-12.3124 l 0.5937,-1.875 z"
           id="path6424" />
        <path
           inkscape:connector-curvature="0"
           style="opacity:0.22566373;fill:#a8be4c;fill-opacity:1;stroke:none"
           d="m 5414.25,2279.6562 -73.7188,79.1563 15.375,14.1563 c 4.2122,-7.62 46.2792,-50.1758 63.25,-64.0938 0.01,-0.011 0.022,-0.021 0.031,-0.031 2.4218,-2.7335 3.8703,-4.527 3.6563,-4.6876 -0.828,-0.6209 -4.7578,-13.3778 -8.0313,-24.2812 l -0.5625,-0.2188 z"
           id="path6432" />
        <circle
           r="5.0507627"
           cy="1692.799"
           cx="4319.4121"
           style="opacity:0.22566373;fill:#a8be4c;fill-opacity:1;stroke:none"
           id="path6437" />
      </g>
      <g
         transform="translate(-6844.7937,-1899.0868)"
         id="g6600">
        <g
           id="g6542"
           transform="matrix(0.76899301,0,0,0.76899301,1009.1745,399.68471)">
          <path
             style="opacity:0.23893804;fill:#000000;fill-opacity:1;stroke:none"
             d="m 4357.9688,1657.1875 c -29.1545,-0.5519 -53.3918,30.2758 -45.9688,58.5 5.533,26.1236 35.2646,43.8491 60.8125,35.2187 24.4565,-7.2875 40.3169,-36.0002 31.5625,-60.4687 -6.2586,-19.4027 -25.7714,-34.076 -46.4062,-33.25 z"
             id="path6540"
             inkscape:connector-curvature="0" />
          <circle
             r="31.071428"
             cy="1709.8622"
             cx="4366.7856"
             transform="matrix(1.1778539,0,0,1.1778539,-784.74817,-310.06103)"
             id="path6507"
             style="fill:#2b2200;fill-opacity:1;stroke:none" />
          <path
             id="path6509"
             d="m 4358.5625,1675.5625 c -13.8832,0 -25.3982,10.0426 -27.75,23.25 h 55.5313 c -2.3519,-13.2074 -13.8981,-23.25 -27.7813,-23.25 z m -27.75,33.1875 c 2.3455,13.2151 13.8613,23.25 27.75,23.25 13.8887,0 25.4358,-10.0349 27.7813,-23.25 z"
             style="fill:#989898;fill-opacity:1;stroke:none"
             inkscape:connector-curvature="0" />
          <path
             sodipodi:nodetypes="ccccccccc"
             inkscape:connector-curvature="0"
             id="path6515"
             d="m 4330.8125,1708.75 c 0.5769,3.2504 1.6965,6.3015 3.2813,9.0625 0.8094,0.4387 1.6056,0.8616 2.4062,1.25 -2.6165,-3.35 -2.7589,-7.7589 -2.7589,-7.7589 h 50.3527 c 0,0 -1.9827,4.0711 -3.0938,7.7947 0.6445,-0.3151 1.2305,-0.6554 1.8125,-0.9688 1.6919,-2.8483 2.9309,-5.9924 3.5313,-9.375 z"
             style="fill:#ffffff;fill-opacity:1;stroke:none" />
          <path
             id="path6520"
             d="m 4336.3125,1686.4688 c -2.7491,3.5386 -4.682,7.75 -5.5,12.3437 h 55.5313 c -0.577,-3.2401 -1.6989,-6.3049 -3.2813,-9.0625 0.2189,2.6724 0.1563,5.8125 0.1563,5.8125 0,0 -48.4018,0.9063 -48.9376,-0.3437 -0.4017,-0.9376 1.2026,-6.1803 2.0313,-8.75 z"
             style="opacity:0.28846154;fill:#000000;fill-opacity:1;stroke:none"
             inkscape:connector-curvature="0" />
          <path
             id="path6525"
             d="m 4358.5625,1675.5625 c -10.6072,0 -19.8444,5.8429 -24.6563,14.5 16.1615,-15.6894 42.4703,-6.6547 49.5313,0.375 -4.7614,-8.8581 -14.1186,-14.875 -24.875,-14.875 z"
             style="opacity:0.53539824;fill:#ffffff;fill-opacity:1;stroke:none"
             inkscape:connector-curvature="0" />
          <path
             id="path6530"
             d="m 4334.0938,1717.8125 c 4.8569,8.4842 13.9872,14.1875 24.4687,14.1875 10.3664,0 19.4388,-5.5757 24.3437,-13.9062 -9.5331,5.1552 -27.7289,11.1457 -48.8124,-0.2813 z"
             style="opacity:0.39380529;fill:#000000;fill-opacity:1;stroke:none"
             inkscape:connector-curvature="0" />
          <circle
             r="2.8571429"
             cy="1716.6479"
             cx="4341.9644"
             id="path6538"
             style="opacity:0.39380529;fill:#000000;fill-opacity:1;stroke:none" />
        </g>
        <circle
           r="0.98214287"
           cy="1721.9158"
           cx="4352.0537"
           style="opacity:0.23893804;fill:#2b2200;fill-opacity:1;stroke:none"
           id="path6552" />
      </g>
      <g
         id="g6562"
         transform="matrix(0.51592087,0.49698497,-0.49698497,0.51592087,-3354.7961,-3266.9329)">
        <path
           style="opacity:0.23893804;fill:#000000;fill-opacity:1;stroke:none"
           d="m 4357.9688,1657.1875 c -29.1545,-0.5519 -53.3918,30.2758 -45.9688,58.5 5.533,26.1236 35.2646,43.8491 60.8125,35.2187 24.4565,-7.2875 40.3169,-36.0002 31.5625,-60.4687 -6.2586,-19.4027 -25.7714,-34.076 -46.4062,-33.25 z"
           id="path6564"
           inkscape:connector-curvature="0" />
        <circle
           r="31.071428"
           cy="1709.8622"
           cx="4366.7856"
           transform="matrix(1.1778539,0,0,1.1778539,-784.74817,-310.06103)"
           id="path6566"
           style="fill:#2b2200;fill-opacity:1;stroke:none" />
        <path
           id="path6568"
           d="m 4358.5625,1675.5625 c -13.8832,0 -25.3982,10.0426 -27.75,23.25 h 55.5313 c -2.3519,-13.2074 -13.8981,-23.25 -27.7813,-23.25 z m -27.75,33.1875 c 2.3455,13.2151 13.8613,23.25 27.75,23.25 13.8887,0 25.4358,-10.0349 27.7813,-23.25 z"
           style="fill:#989898;fill-opacity:1;stroke:none"
           inkscape:connector-curvature="0" />
        <path
           sodipodi:nodetypes="ccccccccc"
           inkscape:connector-curvature="0"
           id="path6570"
           d="m 4330.8125,1708.75 c 0.5769,3.2504 1.6965,6.3015 3.2813,9.0625 0.8094,0.4387 1.6056,0.8616 2.4062,1.25 -2.6165,-3.35 -2.7589,-7.7589 -2.7589,-7.7589 h 50.3527 c 0,0 -1.9827,4.0711 -3.0938,7.7947 0.6445,-0.3151 1.2305,-0.6554 1.8125,-0.9688 1.6919,-2.8483 2.9309,-5.9924 3.5313,-9.375 z"
           style="fill:#ffffff;fill-opacity:1;stroke:none" />
        <path
           id="path6572"
           d="m 4336.3125,1686.4688 c -2.7491,3.5386 -4.682,7.75 -5.5,12.3437 h 55.5313 c -0.577,-3.2401 -1.6989,-6.3049 -3.2813,-9.0625 0.2189,2.6724 0.1563,5.8125 0.1563,5.8125 0,0 -48.4018,0.9063 -48.9376,-0.3437 -0.4017,-0.9376 1.2026,-6.1803 2.0313,-8.75 z"
           style="opacity:0.28846154;fill:#000000;fill-opacity:1;stroke:none"
           inkscape:connector-curvature="0" />
        <path
           id="path6574"
           d="m 4358.5625,1675.5625 c -10.6072,0 -19.8444,5.8429 -24.6563,14.5 16.1615,-15.6894 42.4703,-6.6547 49.5313,0.375 -4.7614,-8.8581 -14.1186,-14.875 -24.875,-14.875 z"
           style="opacity:0.53539824;fill:#ffffff;fill-opacity:1;stroke:none"
           inkscape:connector-curvature="0" />
        <path
           id="path6576"
           d="m 4334.0938,1717.8125 c 4.8569,8.4842 13.9872,14.1875 24.4687,14.1875 10.3664,0 19.4388,-5.5757 24.3437,-13.9062 -9.5331,5.1552 -27.7289,11.1457 -48.8124,-0.2813 z"
           style="opacity:0.39380529;fill:#000000;fill-opacity:1;stroke:none"
           inkscape:connector-curvature="0" />
        <circle
           r="2.8571429"
           cy="1716.6479"
           cx="4341.9644"
           id="path6578"
           style="opacity:0.39380529;fill:#000000;fill-opacity:1;stroke:none" />
      </g>
      <circle
         r="0.98214287"
         cy="1721.9158"
         cx="4352.0537"
         transform="matrix(0.93155298,0,0,0.93155298,-6015.971,-1814.8093)"
         style="opacity:0.23893804;fill:#2b2200;fill-opacity:1;stroke:none"
         id="path6580" />
      <g
         transform="rotate(-14.010541,-6257.0788,24285.139)"
         id="g6612">
        <g
           transform="matrix(0.76899301,0,0,0.76899301,1009.1745,399.68471)"
           id="g6614">
          <path
             inkscape:connector-curvature="0"
             id="path6616"
             d="m 4357.9688,1657.1875 c -29.1545,-0.5519 -53.3918,30.2758 -45.9688,58.5 5.533,26.1236 35.2646,43.8491 60.8125,35.2187 24.4565,-7.2875 40.3169,-36.0002 31.5625,-60.4687 -6.2586,-19.4027 -25.7714,-34.076 -46.4062,-33.25 z"
             style="opacity:0.23893804;fill:#000000;fill-opacity:1;stroke:none" />
          <circle
             r="31.071428"
             cy="1709.8622"
             cx="4366.7856"
             style="fill:#2b2200;fill-opacity:1;stroke:none"
             id="path6618"
             transform="matrix(1.1778539,0,0,1.1778539,-784.74817,-310.06103)" />
          <path
             inkscape:connector-curvature="0"
             style="fill:#989898;fill-opacity:1;stroke:none"
             d="m 4358.5625,1675.5625 c -13.8832,0 -25.3982,10.0426 -27.75,23.25 h 55.5313 c -2.3519,-13.2074 -13.8981,-23.25 -27.7813,-23.25 z m -27.75,33.1875 c 2.3455,13.2151 13.8613,23.25 27.75,23.25 13.8887,0 25.4358,-10.0349 27.7813,-23.25 z"
             id="path6620" />
          <path
             style="fill:#ffffff;fill-opacity:1;stroke:none"
             d="m 4330.8125,1708.75 c 0.5769,3.2504 1.6965,6.3015 3.2813,9.0625 0.8094,0.4387 1.6056,0.8616 2.4062,1.25 -2.6165,-3.35 -2.7589,-7.7589 -2.7589,-7.7589 h 50.3527 c 0,0 -1.9827,4.0711 -3.0938,7.7947 0.6445,-0.3151 1.2305,-0.6554 1.8125,-0.9688 1.6919,-2.8483 2.9309,-5.9924 3.5313,-9.375 z"
             id="path6622"
             inkscape:connector-curvature="0"
             sodipodi:nodetypes="ccccccccc" />
          <path
             inkscape:connector-curvature="0"
             style="opacity:0.28846154;fill:#000000;fill-opacity:1;stroke:none"
             d="m 4336.3125,1686.4688 c -2.7491,3.5386 -4.682,7.75 -5.5,12.3437 h 55.5313 c -0.577,-3.2401 -1.6989,-6.3049 -3.2813,-9.0625 0.2189,2.6724 0.1563,5.8125 0.1563,5.8125 0,0 -48.4018,0.9063 -48.9376,-0.3437 -0.4017,-0.9376 1.2026,-6.1803 2.0313,-8.75 z"
             id="path6625" />
          <path
             inkscape:connector-curvature="0"
             style="opacity:0.53539824;fill:#ffffff;fill-opacity:1;stroke:none"
             d="m 4358.5625,1675.5625 c -10.6072,0 -19.8444,5.8429 -24.6563,14.5 16.1615,-15.6894 42.4703,-6.6547 49.5313,0.375 -4.7614,-8.8581 -14.1186,-14.875 -24.875,-14.875 z"
             id="path6627" />
          <path
             inkscape:connector-curvature="0"
             style="opacity:0.39380529;fill:#000000;fill-opacity:1;stroke:none"
             d="m 4334.0938,1717.8125 c 4.8569,8.4842 13.9872,14.1875 24.4687,14.1875 10.3664,0 19.4388,-5.5757 24.3437,-13.9062 -9.5331,5.1552 -27.7289,11.1457 -48.8124,-0.2813 z"
             id="path6629" />
          <circle
             r="2.8571429"
             cy="1716.6479"
             cx="4341.9644"
             style="opacity:0.39380529;fill:#000000;fill-opacity:1;stroke:none"
             id="path6631" />
        </g>
        <circle
           r="0.98214287"
           cy="1721.9158"
           cx="4352.0537"
           id="path6633"
           style="opacity:0.23893804;fill:#2b2200;fill-opacity:1;stroke:none" />
      </g>
      <g
         transform="matrix(1,0,0,-1,-6844.7937,2260.3516)"
         id="g6635">
        <g
           transform="matrix(0.76899301,0,0,0.76899301,1009.1745,399.68471)"
           id="g6637">
          <path
             inkscape:connector-curvature="0"
             id="path6639"
             d="m 4357.9688,1657.1875 c -29.1545,-0.5519 -53.3918,30.2758 -45.9688,58.5 5.533,26.1236 35.2646,43.8491 60.8125,35.2187 24.4565,-7.2875 40.3169,-36.0002 31.5625,-60.4687 -6.2586,-19.4027 -25.7714,-34.076 -46.4062,-33.25 z"
             style="opacity:0.23893804;fill:#000000;fill-opacity:1;stroke:none" />
          <circle
             r="31.071428"
             cy="1709.8622"
             cx="4366.7856"
             style="fill:#2b2200;fill-opacity:1;stroke:none"
             id="path6642"
             transform="matrix(1.1778539,0,0,1.1778539,-784.74817,-310.06103)" />
          <path
             inkscape:connector-curvature="0"
             style="fill:#989898;fill-opacity:1;stroke:none"
             d="m 4358.5625,1675.5625 c -13.8832,0 -25.3982,10.0426 -27.75,23.25 h 55.5313 c -2.3519,-13.2074 -13.8981,-23.25 -27.7813,-23.25 z m -27.75,33.1875 c 2.3455,13.2151 13.8613,23.25 27.75,23.25 13.8887,0 25.4358,-10.0349 27.7813,-23.25 z"
             id="path6644" />
          <path
             style="fill:#ffffff;fill-opacity:1;stroke:none"
             d="m 4330.8125,1708.75 c 0.5769,3.2504 1.6965,6.3015 3.2813,9.0625 0.8094,0.4387 1.6056,0.8616 2.4062,1.25 -2.6165,-3.35 -2.7589,-7.7589 -2.7589,-7.7589 h 50.3527 c 0,0 -1.9827,4.0711 -3.0938,7.7947 0.6445,-0.3151 1.2305,-0.6554 1.8125,-0.9688 1.6919,-2.8483 2.9309,-5.9924 3.5313,-9.375 z"
             id="path6647"
             inkscape:connector-curvature="0"
             sodipodi:nodetypes="ccccccccc" />
          <path
             inkscape:connector-curvature="0"
             style="opacity:0.28846154;fill:#000000;fill-opacity:1;stroke:none"
             d="m 4336.3125,1686.4688 c -2.7491,3.5386 -4.682,7.75 -5.5,12.3437 h 55.5313 c -0.577,-3.2401 -1.6989,-6.3049 -3.2813,-9.0625 0.2189,2.6724 0.1563,5.8125 0.1563,5.8125 0,0 -48.4018,0.9063 -48.9376,-0.3437 -0.4017,-0.9376 1.2026,-6.1803 2.0313,-8.75 z"
             id="path6649" />
          <path
             inkscape:connector-curvature="0"
             style="opacity:0.53539824;fill:#ffffff;fill-opacity:1;stroke:none"
             d="m 4358.5625,1675.5625 c -10.6072,0 -19.8444,5.8429 -24.6563,14.5 16.1615,-15.6894 42.4703,-6.6547 49.5313,0.375 -4.7614,-8.8581 -14.1186,-14.875 -24.875,-14.875 z"
             id="path6651" />
          <path
             inkscape:connector-curvature="0"
             style="opacity:0.39380529;fill:#000000;fill-opacity:1;stroke:none"
             d="m 4334.0938,1717.8125 c 4.8569,8.4842 13.9872,14.1875 24.4687,14.1875 10.3664,0 19.4388,-5.5757 24.3437,-13.9062 -9.5331,5.1552 -27.7289,11.1457 -48.8124,-0.2813 z"
             id="path6653" />
          <circle
             r="2.8571429"
             cy="1716.6479"
             cx="4341.9644"
             style="opacity:0.39380529;fill:#000000;fill-opacity:1;stroke:none"
             id="path6655" />
        </g>
        <circle
           r="0.98214287"
           cy="1721.9158"
           cx="4352.0537"
           id="path6657"
           style="opacity:0.23893804;fill:#2b2200;fill-opacity:1;stroke:none" />
      </g>
      <g
         transform="matrix(0.51592087,-0.49698497,-0.49698497,-0.51592087,-3354.7961,3628.1977)"
         id="g6659">
        <path
           inkscape:connector-curvature="0"
           id="path6661"
           d="m 4357.9688,1657.1875 c -29.1545,-0.5519 -53.3918,30.2758 -45.9688,58.5 5.533,26.1236 35.2646,43.8491 60.8125,35.2187 24.4565,-7.2875 40.3169,-36.0002 31.5625,-60.4687 -6.2586,-19.4027 -25.7714,-34.076 -46.4062,-33.25 z"
           style="opacity:0.23893804;fill:#000000;fill-opacity:1;stroke:none" />
        <circle
           r="31.071428"
           cy="1709.8622"
           cx="4366.7856"
           style="fill:#2b2200;fill-opacity:1;stroke:none"
           id="path6663"
           transform="matrix(1.1778539,0,0,1.1778539,-784.74817,-310.06103)" />
        <path
           inkscape:connector-curvature="0"
           style="fill:#989898;fill-opacity:1;stroke:none"
           d="m 4358.5625,1675.5625 c -13.8832,0 -25.3982,10.0426 -27.75,23.25 h 55.5313 c -2.3519,-13.2074 -13.8981,-23.25 -27.7813,-23.25 z m -27.75,33.1875 c 2.3455,13.2151 13.8613,23.25 27.75,23.25 13.8887,0 25.4358,-10.0349 27.7813,-23.25 z"
           id="path6665" />
        <path
           style="fill:#ffffff;fill-opacity:1;stroke:none"
           d="m 4330.8125,1708.75 c 0.5769,3.2504 1.6965,6.3015 3.2813,9.0625 0.8094,0.4387 1.6056,0.8616 2.4062,1.25 -2.6165,-3.35 -2.7589,-7.7589 -2.7589,-7.7589 h 50.3527 c 0,0 -1.9827,4.0711 -3.0938,7.7947 0.6445,-0.3151 1.2305,-0.6554 1.8125,-0.9688 1.6919,-2.8483 2.9309,-5.9924 3.5313,-9.375 z"
           id="path6667"
           inkscape:connector-curvature="0"
           sodipodi:nodetypes="ccccccccc" />
        <path
           inkscape:connector-curvature="0"
           style="opacity:0.28846154;fill:#000000;fill-opacity:1;stroke:none"
           d="m 4336.3125,1686.4688 c -2.7491,3.5386 -4.682,7.75 -5.5,12.3437 h 55.5313 c -0.577,-3.2401 -1.6989,-6.3049 -3.2813,-9.0625 0.2189,2.6724 0.1563,5.8125 0.1563,5.8125 0,0 -48.4018,0.9063 -48.9376,-0.3437 -0.4017,-0.9376 1.2026,-6.1803 2.0313,-8.75 z"
           id="path6669" />
        <path
           inkscape:connector-curvature="0"
           style="opacity:0.53539824;fill:#ffffff;fill-opacity:1;stroke:none"
           d="m 4358.5625,1675.5625 c -10.6072,0 -19.8444,5.8429 -24.6563,14.5 16.1615,-15.6894 42.4703,-6.6547 49.5313,0.375 -4.7614,-8.8581 -14.1186,-14.875 -24.875,-14.875 z"
           id="path6671" />
        <path
           inkscape:connector-curvature="0"
           style="opacity:0.39380529;fill:#000000;fill-opacity:1;stroke:none"
           d="m 4334.0938,1717.8125 c 4.8569,8.4842 13.9872,14.1875 24.4687,14.1875 10.3664,0 19.4388,-5.5757 24.3437,-13.9062 -9.5331,5.1552 -27.7289,11.1457 -48.8124,-0.2813 z"
           id="path6673" />
        <circle
           r="2.8571429"
           cy="1716.6479"
           cx="4341.9644"
           style="opacity:0.39380529;fill:#000000;fill-opacity:1;stroke:none"
           id="path6675" />
      </g>
      <g
         id="g6677"
         transform="matrix(0.9702512,0.24210041,0.24210041,-0.9702512,-6065.5828,1153.6524)">
        <g
           id="g6679"
           transform="matrix(0.76899301,0,0,0.76899301,1009.1745,399.68471)">
          <path
             style="opacity:0.23893804;fill:#000000;fill-opacity:1;stroke:none"
             d="m 4357.9688,1657.1875 c -29.1545,-0.5519 -53.3918,30.2758 -45.9688,58.5 5.533,26.1236 35.2646,43.8491 60.8125,35.2187 24.4565,-7.2875 40.3169,-36.0002 31.5625,-60.4687 -6.2586,-19.4027 -25.7714,-34.076 -46.4062,-33.25 z"
             id="path6681"
             inkscape:connector-curvature="0" />
          <circle
             r="31.071428"
             cy="1709.8622"
             cx="4366.7856"
             transform="matrix(1.1778539,0,0,1.1778539,-784.74817,-310.06103)"
             id="path6683"
             style="fill:#2b2200;fill-opacity:1;stroke:none" />
          <path
             id="path6685"
             d="m 4358.5625,1675.5625 c -13.8832,0 -25.3982,10.0426 -27.75,23.25 h 55.5313 c -2.3519,-13.2074 -13.8981,-23.25 -27.7813,-23.25 z m -27.75,33.1875 c 2.3455,13.2151 13.8613,23.25 27.75,23.25 13.8887,0 25.4358,-10.0349 27.7813,-23.25 z"
             style="fill:#989898;fill-opacity:1;stroke:none"
             inkscape:connector-curvature="0" />
          <path
             sodipodi:nodetypes="ccccccccc"
             inkscape:connector-curvature="0"
             id="path6687"
             d="m 4330.8125,1708.75 c 0.5769,3.2504 1.6965,6.3015 3.2813,9.0625 0.8094,0.4387 1.6056,0.8616 2.4062,1.25 -2.6165,-3.35 -2.7589,-7.7589 -2.7589,-7.7589 h 50.3527 c 0,0 -1.9827,4.0711 -3.0938,7.7947 0.6445,-0.3151 1.2305,-0.6554 1.8125,-0.9688 1.6919,-2.8483 2.9309,-5.9924 3.5313,-9.375 z"
             style="fill:#ffffff;fill-opacity:1;stroke:none" />
          <path
             id="path6689"
             d="m 4336.3125,1686.4688 c -2.7491,3.5386 -4.682,7.75 -5.5,12.3437 h 55.5313 c -0.577,-3.2401 -1.6989,-6.3049 -3.2813,-9.0625 0.2189,2.6724 0.1563,5.8125 0.1563,5.8125 0,0 -48.4018,0.9063 -48.9376,-0.3437 -0.4017,-0.9376 1.2026,-6.1803 2.0313,-8.75 z"
             style="opacity:0.28846154;fill:#000000;fill-opacity:1;stroke:none"
             inkscape:connector-curvature="0" />
          <path
             id="path6691"
             d="m 4358.5625,1675.5625 c -10.6072,0 -19.8444,5.8429 -24.6563,14.5 16.1615,-15.6894 42.4703,-6.6547 49.5313,0.375 -4.7614,-8.8581 -14.1186,-14.875 -24.875,-14.875 z"
             style="opacity:0.53539824;fill:#ffffff;fill-opacity:1;stroke:none"
             inkscape:connector-curvature="0" />
          <path
             id="path6693"
             d="m 4334.0938,1717.8125 c 4.8569,8.4842 13.9872,14.1875 24.4687,14.1875 10.3664,0 19.4388,-5.5757 24.3437,-13.9062 -9.5331,5.1552 -27.7289,11.1457 -48.8124,-0.2813 z"
             style="opacity:0.39380529;fill:#000000;fill-opacity:1;stroke:none"
             inkscape:connector-curvature="0" />
          <circle
             r="2.8571429"
             cy="1716.6479"
             cx="4341.9644"
             id="path6695"
             style="opacity:0.39380529;fill:#000000;fill-opacity:1;stroke:none" />
        </g>
        <circle
           r="0.98214287"
           cy="1721.9158"
           cx="4352.0537"
           style="opacity:0.23893804;fill:#2b2200;fill-opacity:1;stroke:none"
           id="path6697" />
      </g>
      <circle
         r="0.98214287"
         cy="1721.9158"
         cx="4352.0537"
         id="path7014"
         style="opacity:0.23893804;fill:#2b2200;fill-opacity:1;stroke:none"
         transform="matrix(0.93155298,0,0,0.93155298,-6015.971,-1814.8093)" />
    </g>
    <g
       id="g7331"
       transform="matrix(0.39087562,0,0,0.25226967,-2069.0381,-36.949784)"
       inkscape:export-filename="C:\Users\Robert\Desktop\military_ui\pngs\buttons\long_button\long_button.png"
       inkscape:export-xdpi="90"
       inkscape:export-ydpi="90">
      <path
         sodipodi:nodetypes="ccccccccc"
         inkscape:connector-curvature="0"
         id="path7254"
         d="m 5586.5807,533.5645 -42.0578,40.46147 -0.8374,122.06443 42.8952,40.48757 h 588.3218 l 42.8952,-40.48757 V 574.02597 l -42.8952,-40.46147 z"
         style="color:#000000;display:inline;overflow:visible;visibility:visible;fill:#2b2200;fill-opacity:1;fill-rule:nonzero;stroke:none;stroke-width:7;marker:none;enable-background:accumulate" />
      <path
         style="color:#000000;display:inline;overflow:visible;visibility:visible;fill:#66762a;fill-opacity:1;fill-rule:nonzero;stroke:none;stroke-width:7;marker:none;enable-background:accumulate"
         d="m 5592.4556,542.00196 -37.9064,36.46762 -0.7548,110.01574 38.6612,36.49115 h 576.572 l 38.6612,-36.49115 V 578.46958 l -38.6612,-36.46762 z"
         id="path7256"
         inkscape:connector-curvature="0"
         sodipodi:nodetypes="ccccccccc" />
      <path
         sodipodi:nodetypes="cccccccc"
         inkscape:connector-curvature="0"
         id="path7293"
         d="m 5557.8438,652.375 -3.875,10.25 -0.1876,25.875 38.6876,36.46875 h 576.5624 L 6207.6875,688.5 v -36.125 z"
         style="color:#000000;display:inline;overflow:visible;visibility:visible;opacity:0.09734515;fill:#000000;fill-opacity:1;fill-rule:nonzero;stroke:none;stroke-width:7;marker:none;enable-background:accumulate" />
      <path
         sodipodi:nodetypes="cccccccccccccccccc"
         inkscape:connector-curvature="0"
         style="color:#000000;display:inline;overflow:visible;visibility:visible;fill:#40491a;fill-opacity:1;fill-rule:nonzero;stroke:none;stroke-width:7;marker:none;enable-background:accumulate"
         d="m 5592.4472,541.99898 -37.9131,36.47762 -0.7505,110.02017 38.6636,36.47762 h 576.5652 l 38.6637,-36.47762 V 578.4766 l -38.6637,-36.47762 z m 6.5255,16.70532 h 563.2531 l 28.745,27.08088 v 95.40301 l -28.745,27.08088 h -562.992 c -9.5816,-9.02696 -19.1632,-18.05392 -28.7449,-27.08088 l 0.7505,-95.66403 c 9.2443,-8.93996 18.489,-17.87991 27.7333,-26.81986 z"
         id="path7258" />
      <path
         style="color:#000000;display:inline;overflow:visible;visibility:visible;opacity:0.84070794;fill:#2f3613;fill-opacity:1;fill-rule:nonzero;stroke:none;stroke-width:7;marker:none;enable-background:accumulate"
         d="m 5600.2453,708.26907 -7.3739,16.70532 h 576.141 l -6.8052,-16.75193 z"
         id="path7260"
         inkscape:connector-curvature="0"
         sodipodi:nodetypes="ccccc" />
      <path
         style="color:#000000;display:inline;overflow:visible;visibility:visible;opacity:0.47345132;fill:#8b9e40;fill-opacity:1;fill-rule:nonzero;stroke:none;stroke-width:7;marker:none;enable-background:accumulate"
         d="m 6168.6862,541.99898 -6.8519,16.70532 h 0.3915 l 28.745,27.08088 16.7053,-7.30858 -38.6637,-36.47762 z"
         id="path7262"
         inkscape:connector-curvature="0"
         sodipodi:nodetypes="ccccccc" />
      <path
         sodipodi:nodetypes="ccccc"
         inkscape:connector-curvature="0"
         style="color:#000000;display:inline;overflow:visible;visibility:visible;fill:#a8c04f;fill-opacity:1;fill-rule:nonzero;stroke:none;stroke-width:7;marker:none;enable-background:accumulate"
         d="m 5592.4472,541.99898 7.1455,16.70532 h 562.2416 l 6.8519,-16.70532 z"
         id="path7264" />
      <path
         sodipodi:nodetypes="cccccc"
         inkscape:connector-curvature="0"
         style="color:#000000;display:inline;overflow:visible;visibility:visible;fill:#8ea33f;fill-opacity:1;fill-rule:nonzero;stroke:none;stroke-width:7;marker:none;enable-background:accumulate"
         d="m 5592.4472,541.99898 -37.4237,35.98821 16.5748,7.17807 c 9.1226,-8.82236 18.2518,-17.6386 27.3744,-26.46096 h 0.62 z"
         id="path7266" />
      <path
         sodipodi:nodetypes="ccccccccc"
         inkscape:connector-curvature="0"
         style="color:#000000;display:inline;overflow:visible;visibility:visible;opacity:0.66814162;fill:#40491a;fill-opacity:1;fill-rule:nonzero;stroke:none;stroke-width:7;marker:none;enable-background:accumulate"
         d="m 5555.0235,577.98719 -0.4894,0.48941 -0.7505,110.02017 0.098,0.0978 16.6073,-7.40646 0.7505,-95.66403 c 0.1216,-0.1176 0.2372,-0.24131 0.3589,-0.35891 l -16.5748,-7.17806 z"
         id="path7268" />
      <path
         sodipodi:nodetypes="ccccccccc"
         inkscape:connector-curvature="0"
         style="color:#000000;display:inline;overflow:visible;visibility:visible;opacity:0.64159324;fill:#40491a;fill-opacity:1;fill-rule:nonzero;stroke:none;stroke-width:7;marker:none;enable-background:accumulate"
         d="m 5570.4889,681.15556 -16.64,7.40646 38.5983,36.41237 h 0.4242 l 7.3739,-16.70532 h -1.0115 c -9.5816,-9.02696 -19.1632,-18.05392 -28.7449,-27.08088 v -0.0326 z"
         id="path7270" />
      <path
         style="color:#000000;display:inline;overflow:visible;visibility:visible;opacity:0.23008848;fill:#40491a;fill-opacity:1;fill-rule:nonzero;stroke:none;stroke-width:7;marker:none;enable-background:accumulate"
         d="m 6190.9708,585.78518 v 95.30513 l 16.6075,7.50434 0.098,-0.0978 V 578.47669 Z"
         id="path7272"
         inkscape:connector-curvature="0"
         sodipodi:nodetypes="cccccc" />
      <path
         sodipodi:nodetypes="ccccccc"
         inkscape:connector-curvature="0"
         style="color:#000000;display:inline;overflow:visible;visibility:visible;opacity:0.84070794;fill:#353d16;fill-opacity:1;fill-rule:nonzero;stroke:none;stroke-width:7;marker:none;enable-background:accumulate"
         d="m 6190.9708,681.09031 v 0.0978 l -28.745,27.08088 6.7866,16.70532 38.5659,-36.37974 -16.6075,-7.50434 z"
         id="path7274" />
      <path
         sodipodi:nodetypes="ccccccccccccccccccc"
         style="color:#000000;display:inline;overflow:visible;visibility:visible;fill:#c9d891;fill-opacity:1;fill-rule:nonzero;stroke:none;stroke-width:7;marker:none;enable-background:accumulate"
         d="m 5554.6404,578.3137 c 2.9003,0.791 14.8974,7.64645 14.8974,7.64645 l 1.582,95.3169 2.6367,-94.65773 26.8944,-25.57605 559.9884,-0.52733 28.4765,25.0487 1.582,39.28691 2.373,-37.70489 14.7656,-8.9648 -16.875,5.27341 -26.8944,-24.25769 4.7461,-16.87492 -9.4922,15.55657 h -558.1426 l -8.1738,-15.55657 4.4824,16.61125 -24.5214,23.99402 z"
         id="path7276"
         inkscape:connector-curvature="0" />
      <path
         style="color:#000000;display:inline;overflow:visible;visibility:visible;fill:#c9d891;fill-opacity:1;fill-rule:nonzero;stroke:none;stroke-width:7;marker:none;enable-background:accumulate"
         d="m 6134.7632,708.02849 25.8761,-1.9664 29.2675,-26.23523 1.582,-29.26743 1.8457,29.26743 13.7109,8.5693 -15.5566,-5.53708 -28.2128,25.83972 5.2734,14.76554 -7.9101,-14.76554 z"
         id="path7278"
         inkscape:connector-curvature="0"
         sodipodi:nodetypes="ccccccccccc" />
    </g>
  </g>
</svg>
