<?xml version="1.0" encoding="UTF-8" standalone="no"?>
<!-- Created with Inkscape (http://www.inkscape.org/) -->

<svg
   xmlns:dc="http://purl.org/dc/elements/1.1/"
   xmlns:cc="http://creativecommons.org/ns#"
   xmlns:rdf="http://www.w3.org/1999/02/22-rdf-syntax-ns#"
   xmlns:svg="http://www.w3.org/2000/svg"
   xmlns="http://www.w3.org/2000/svg"
   xmlns:sodipodi="http://sodipodi.sourceforge.net/DTD/sodipodi-0.dtd"
   xmlns:inkscape="http://www.inkscape.org/namespaces/inkscape"
   width="178.35886mm"
   height="53.713982mm"
   viewBox="0 0 178.35886 53.713982"
   version="1.1"
   id="svg3646"
   inkscape:version="0.92.0 r15299"
   sodipodi:docname="text_button_normal.svg">
  <defs
     id="defs3640" />
  <sodipodi:namedview
     id="base"
     pagecolor="#ffffff"
     bordercolor="#666666"
     borderopacity="1.0"
     inkscape:pageopacity="0.0"
     inkscape:pageshadow="2"
     inkscape:zoom="0.35"
     inkscape:cx="-185.8009"
     inkscape:cy="-52.778987"
     inkscape:document-units="mm"
     inkscape:current-layer="layer1"
     showgrid="false"
     inkscape:window-width="1920"
     inkscape:window-height="1017"
     inkscape:window-x="-8"
     inkscape:window-y="-8"
     inkscape:window-maximized="1" />
  <metadata
     id="metadata3643">
    <rdf:RDF>
      <cc:Work
         rdf:about="">
        <dc:format>image/svg+xml</dc:format>
        <dc:type
           rdf:resource="http://purl.org/dc/dcmitype/StillImage" />
        <dc:title></dc:title>
      </cc:Work>
    </rdf:RDF>
  </metadata>
  <g
     inkscape:label="Layer 1"
     inkscape:groupmode="layer"
     id="layer1"
     transform="translate(-16.65387,-81.154913)">
    <g
       id="g7331"
       transform="matrix(0.26458333,0,0,0.26458333,-1450.1129,-60.017359)"
       inkscape:export-filename="C:\Users\Robert\Desktop\military_ui\pngs\buttons\long_button\long_button.png"
       inkscape:export-xdpi="90"
       inkscape:export-ydpi="90">
      <path
         sodipodi:nodetypes="ccccccccc"
         inkscape:connector-curvature="0"
         id="path7254"
         d="m 5586.5807,533.5645 -42.0578,40.46147 -0.8374,122.06443 42.8952,40.48757 h 588.3218 l 42.8952,-40.48757 V 574.02597 l -42.8952,-40.46147 z"
         style="color:#000000;display:inline;overflow:visible;visibility:visible;fill:#2b2200;fill-opacity:1;fill-rule:nonzero;stroke:none;stroke-width:7;marker:none;enable-background:accumulate" />
      <path
         style="color:#000000;display:inline;overflow:visible;visibility:visible;fill:#66762a;fill-opacity:1;fill-rule:nonzero;stroke:none;stroke-width:7;marker:none;enable-background:accumulate"
         d="m 5592.4556,542.00196 -37.9064,36.46762 -0.7548,110.01574 38.6612,36.49115 h 576.572 l 38.6612,-36.49115 V 578.46958 l -38.6612,-36.46762 z"
         id="path7256"
         inkscape:connector-curvature="0"
         sodipodi:nodetypes="ccccccccc" />
      <path
         sodipodi:nodetypes="cccccccc"
         inkscape:connector-curvature="0"
         id="path7293"
         d="m 5557.8438,652.375 -3.875,10.25 -0.1876,25.875 38.6876,36.46875 h 576.5624 L 6207.6875,688.5 v -36.125 z"
         style="color:#000000;display:inline;overflow:visible;visibility:visible;opacity:0.09734515;fill:#000000;fill-opacity:1;fill-rule:nonzero;stroke:none;stroke-width:7;marker:none;enable-background:accumulate" />
      <path
         sodipodi:nodetypes="cccccccccccccccccc"
         inkscape:connector-curvature="0"
         style="color:#000000;display:inline;overflow:visible;visibility:visible;fill:#40491a;fill-opacity:1;fill-rule:nonzero;stroke:none;stroke-width:7;marker:none;enable-background:accumulate"
         d="m 5592.4472,541.99898 -37.9131,36.47762 -0.7505,110.02017 38.6636,36.47762 h 576.5652 l 38.6637,-36.47762 V 578.4766 l -38.6637,-36.47762 z m 6.5255,16.70532 h 563.2531 l 28.745,27.08088 v 95.40301 l -28.745,27.08088 h -562.992 c -9.5816,-9.02696 -19.1632,-18.05392 -28.7449,-27.08088 l 0.7505,-95.66403 c 9.2443,-8.93996 18.489,-17.87991 27.7333,-26.81986 z"
         id="path7258" />
      <path
         style="color:#000000;display:inline;overflow:visible;visibility:visible;opacity:0.84070794;fill:#2f3613;fill-opacity:1;fill-rule:nonzero;stroke:none;stroke-width:7;marker:none;enable-background:accumulate"
         d="m 5600.2453,708.26907 -7.3739,16.70532 h 576.141 l -6.8052,-16.75193 z"
         id="path7260"
         inkscape:connector-curvature="0"
         sodipodi:nodetypes="ccccc" />
      <path
         style="color:#000000;display:inline;overflow:visible;visibility:visible;opacity:0.47345132;fill:#8b9e40;fill-opacity:1;fill-rule:nonzero;stroke:none;stroke-width:7;marker:none;enable-background:accumulate"
         d="m 6168.6862,541.99898 -6.8519,16.70532 h 0.3915 l 28.745,27.08088 16.7053,-7.30858 -38.6637,-36.47762 z"
         id="path7262"
         inkscape:connector-curvature="0"
         sodipodi:nodetypes="ccccccc" />
      <path
         sodipodi:nodetypes="ccccc"
         inkscape:connector-curvature="0"
         style="color:#000000;display:inline;overflow:visible;visibility:visible;fill:#a8c04f;fill-opacity:1;fill-rule:nonzero;stroke:none;stroke-width:7;marker:none;enable-background:accumulate"
         d="m 5592.4472,541.99898 7.1455,16.70532 h 562.2416 l 6.8519,-16.70532 z"
         id="path7264" />
      <path
         sodipodi:nodetypes="cccccc"
         inkscape:connector-curvature="0"
         style="color:#000000;display:inline;overflow:visible;visibility:visible;fill:#8ea33f;fill-opacity:1;fill-rule:nonzero;stroke:none;stroke-width:7;marker:none;enable-background:accumulate"
         d="m 5592.4472,541.99898 -37.4237,35.98821 16.5748,7.17807 c 9.1226,-8.82236 18.2518,-17.6386 27.3744,-26.46096 h 0.62 z"
         id="path7266" />
      <path
         sodipodi:nodetypes="ccccccccc"
         inkscape:connector-curvature="0"
         style="color:#000000;display:inline;overflow:visible;visibility:visible;opacity:0.66814162;fill:#40491a;fill-opacity:1;fill-rule:nonzero;stroke:none;stroke-width:7;marker:none;enable-background:accumulate"
         d="m 5555.0235,577.98719 -0.4894,0.48941 -0.7505,110.02017 0.098,0.0978 16.6073,-7.40646 0.7505,-95.66403 c 0.1216,-0.1176 0.2372,-0.24131 0.3589,-0.35891 l -16.5748,-7.17806 z"
         id="path7268" />
      <path
         sodipodi:nodetypes="ccccccccc"
         inkscape:connector-curvature="0"
         style="color:#000000;display:inline;overflow:visible;visibility:visible;opacity:0.64159324;fill:#40491a;fill-opacity:1;fill-rule:nonzero;stroke:none;stroke-width:7;marker:none;enable-background:accumulate"
         d="m 5570.4889,681.15556 -16.64,7.40646 38.5983,36.41237 h 0.4242 l 7.3739,-16.70532 h -1.0115 c -9.5816,-9.02696 -19.1632,-18.05392 -28.7449,-27.08088 v -0.0326 z"
         id="path7270" />
      <path
         style="color:#000000;display:inline;overflow:visible;visibility:visible;opacity:0.23008848;fill:#40491a;fill-opacity:1;fill-rule:nonzero;stroke:none;stroke-width:7;marker:none;enable-background:accumulate"
         d="m 6190.9708,585.78518 v 95.30513 l 16.6075,7.50434 0.098,-0.0978 V 578.47669 Z"
         id="path7272"
         inkscape:connector-curvature="0"
         sodipodi:nodetypes="cccccc" />
      <path
         sodipodi:nodetypes="ccccccc"
         inkscape:connector-curvature="0"
         style="color:#000000;display:inline;overflow:visible;visibility:visible;opacity:0.84070794;fill:#353d16;fill-opacity:1;fill-rule:nonzero;stroke:none;stroke-width:7;marker:none;enable-background:accumulate"
         d="m 6190.9708,681.09031 v 0.0978 l -28.745,27.08088 6.7866,16.70532 38.5659,-36.37974 -16.6075,-7.50434 z"
         id="path7274" />
      <path
         sodipodi:nodetypes="ccccccccccccccccccc"
         style="color:#000000;display:inline;overflow:visible;visibility:visible;fill:#c9d891;fill-opacity:1;fill-rule:nonzero;stroke:none;stroke-width:7;marker:none;enable-background:accumulate"
         d="m 5554.6404,578.3137 c 2.9003,0.791 14.8974,7.64645 14.8974,7.64645 l 1.582,95.3169 2.6367,-94.65773 26.8944,-25.57605 559.9884,-0.52733 28.4765,25.0487 1.582,39.28691 2.373,-37.70489 14.7656,-8.9648 -16.875,5.27341 -26.8944,-24.25769 4.7461,-16.87492 -9.4922,15.55657 h -558.1426 l -8.1738,-15.55657 4.4824,16.61125 -24.5214,23.99402 z"
         id="path7276"
         inkscape:connector-curvature="0" />
      <path
         style="color:#000000;display:inline;overflow:visible;visibility:visible;fill:#c9d891;fill-opacity:1;fill-rule:nonzero;stroke:none;stroke-width:7;marker:none;enable-background:accumulate"
         d="m 6134.7632,708.02849 25.8761,-1.9664 29.2675,-26.23523 1.582,-29.26743 1.8457,29.26743 13.7109,8.5693 -15.5566,-5.53708 -28.2128,25.83972 5.2734,14.76554 -7.9101,-14.76554 z"
         id="path7278"
         inkscape:connector-curvature="0"
         sodipodi:nodetypes="ccccccccccc" />
    </g>
  </g>
</svg>
