<?xml version="1.0" encoding="UTF-8" standalone="no"?>
<!-- Created with Inkscape (http://www.inkscape.org/) -->

<svg
   xmlns:dc="http://purl.org/dc/elements/1.1/"
   xmlns:cc="http://creativecommons.org/ns#"
   xmlns:rdf="http://www.w3.org/1999/02/22-rdf-syntax-ns#"
   xmlns:svg="http://www.w3.org/2000/svg"
   xmlns="http://www.w3.org/2000/svg"
   xmlns:sodipodi="http://sodipodi.sourceforge.net/DTD/sodipodi-0.dtd"
   xmlns:inkscape="http://www.inkscape.org/namespaces/inkscape"
   width="233.22159mm"
   height="164.26991mm"
   viewBox="0 0 233.22159 164.26991"
   version="1.1"
   id="svg1767"
   inkscape:version="0.92.0 r15299"
   sodipodi:docname="AirStrike.svg">
  <defs
     id="defs1761" />
  <sodipodi:namedview
     id="base"
     pagecolor="#ffffff"
     bordercolor="#666666"
     borderopacity="1.0"
     inkscape:pageopacity="0.0"
     inkscape:pageshadow="2"
     inkscape:zoom="0.35"
     inkscape:cx="-179.2663"
     inkscape:cy="247.5742"
     inkscape:document-units="mm"
     inkscape:current-layer="layer1"
     showgrid="false"
     inkscape:window-width="1920"
     inkscape:window-height="1017"
     inkscape:window-x="-8"
     inkscape:window-y="-8"
     inkscape:window-maximized="1" />
  <metadata
     id="metadata1764">
    <rdf:RDF>
      <cc:Work
         rdf:about="">
        <dc:format>image/svg+xml</dc:format>
        <dc:type
           rdf:resource="http://purl.org/dc/dcmitype/StillImage" />
        <dc:title></dc:title>
      </cc:Work>
    </rdf:RDF>
  </metadata>
  <g
     inkscape:label="Layer 1"
     inkscape:groupmode="layer"
     id="layer1"
     transform="translate(-14.924922,-50.067421)">
    <g
       id="g11261"
       transform="matrix(0.26458333,0,0,0.26458333,-123.56816,19.477318)"
       inkscape:export-filename="C:\Users\rober\Desktop\f-15\pngs\military_green\military_green_jet_top_down_without_misiles.png"
       inkscape:export-xdpi="120"
       inkscape:export-ydpi="120">
      <g
         transform="matrix(2.9539137,0,0,2.9539137,-1659.2928,94.515758)"
         id="g10836">
        <path
           style="fill:#15180c;fill-opacity:1;stroke:none"
           d="m 738.92857,167.36218 c 1.78572,9.28571 14.45903,11.15809 17.67332,12.58666 3.21428,1.42857 29.49492,-25.84427 29.49492,-25.84427 l -0.6889,-2.33413 7.34463,-5.49763 13.77538,3.07903 1.25,23.97716 -5.73223,29.79079 24.09789,14.20649 5.27448,-4.83306 65.36766,-67.63104 c 0,0 13.57142,-1.42858 18.92857,-2.85715 5.35714,-1.42857 16.78571,-4.64285 16.78571,-4.64285 0,0 23.39286,0.89286 24.64286,-1.07143 0.71429,-1.25 0.44643,-11.60714 0.44643,-11.60714 1.60714,-0.0893 39.99995,-0.26786 44.19641,-0.80358 4.2857,-0.0893 35.9975,-6.77039 35.5447,-9.96936 -0.089,-2.96437 -30.3661,-9.58421 -35.634,-9.76278 -2.94641,0 -37.41068,-2.5 -43.5714,-2.14285 0,0 0.0893,-10.714287 -1.69643,-12.142857 -1.07143,-0.89286 -6.78571,-0.71429 -6.78571,-0.71429 l -17.5,-0.71428 -36.42857,-8.21429 L 840,23.076463 c 0,0 -8.57143,-8.92857 -13.92857,-11.42857 -5.35714,-2.5000001 -20.71429,8.57143 -23.57143,11.42857 -2.85714,2.85715 5.71429,27.5 5.71429,27.5 l -0.9885,25.836845 c 0,0 -9.53954,3.022249 -12.22579,3.448875 -2.05275,0.326014 -3.20452,-0.01629 -3.21429,0 l -4.99628,-5.292148 1.99493,-4.247967 c 0,0 -23.72087,-20.174175 -29.49865,-23.317035 -5.77777,-3.14285 -16.09523,3.92858 -18.57142,7.85715 -2.4762,3.92857 5.44642,29.285709 5.44642,31.071429 0,1.78571 17.76786,8.660717 17.76786,8.660717 l -2.05357,2.14285 V 108.5229 l 1.78571,2.5 0.98215,2.41071 -2.85715,2.5 -0.35714,14.28571 2.14286,1.78572 -12.5,5 -5,1.07142 z"
           id="path10838"
           inkscape:connector-curvature="0"
           sodipodi:nodetypes="cscccccccccsccccccccccccssccscccsssccccccccccc" />
        <path
           style="fill:#ffffff;fill-opacity:0;stroke:none"
           d="m 742.75196,58.395823 c 0.25253,-4.16688 10.66973,-9.47018 12.81631,-9.47018 2.14657,0 5.17703,2.77791 5.17703,2.77791 z"
           id="path10840"
           inkscape:connector-curvature="0" />
        <path
           style="fill:#4a5721;fill-opacity:1;stroke:none"
           d="m 759.48261,54.355203 c 5.36643,7.63928 16.66751,17.48827 17.17259,17.74081 0.50508,0.25254 7.70241,-0.75762 7.70241,-0.75762 l -21.4026,-17.9302 z"
           id="path10842"
           inkscape:connector-curvature="0" />
        <path
           style="fill:#4a5721;fill-opacity:1;stroke:none"
           d="m 777.8125,73.344323 c 1.91964,2.14286 7.85714,9.19643 7.85714,9.19643 l 4.55357,-1.42857 -8.92857,-7.94643 z"
           id="path10844"
           inkscape:connector-curvature="0" />
        <path
           style="fill:#4a5721;fill-opacity:1;stroke:none"
           d="m 743.69897,59.721643 c 2.02031,-0.88388 14.39468,-4.60882 14.39468,-4.60882 l 25.88516,28.22114 c 0,0 -30.55712,1.01015 -32.00921,0.88388 -1.4521,-0.12627 -2.46225,-0.37881 -2.46225,-0.37881 z"
           id="path10846"
           inkscape:connector-curvature="0" />
        <path
           style="fill:#4a5721;fill-opacity:1;stroke:none"
           d="m 751.60714,85.755033 c 1.51786,0.0893 5,-0.80357 5.08929,-0.17857 0.0893,0.625 0,1.69643 0,1.69643 l -3.83929,-0.0893 z"
           id="path10848"
           inkscape:connector-curvature="0" />
        <path
           style="fill:#73862c;fill-opacity:1;stroke:none"
           d="m 758.75,85.308613 c -0.0893,0.98214 0.0893,1.78571 0.0893,1.78571 0,0 6.42857,-0.17857 6.33929,0.26786 -0.0893,0.44643 -0.35715,1.60714 -0.35715,1.60714 l -7.94642,-0.0893 11.25,4.19643 v -3.39285 l 1.33928,-0.26786 v 5.08928 l 19.82143,-2.85714 -16.25,-2.05357 0.71429,-0.625 c 0,0 22.67857,0.98214 22.41071,0.98214 -0.26786,0 0.26786,1.42857 0.26786,1.42857 l 1.60714,0.0893 0.53571,-1.25 8.92858,-3.57143 -0.35715,-1.25 z"
           id="path10850"
           inkscape:connector-curvature="0" />
        <path
           style="fill:#73862c;fill-opacity:1;stroke:none"
           d="m 789.28571,84.147893 c 2.5,-1.16071 12.05358,-3.125 14.55358,-3.83928 2.5,-0.71429 2.5,0 2.5,0 v 4.19642 z"
           id="path10852"
           inkscape:connector-curvature="0" />
        <path
           style="fill:#485027;fill-opacity:1;stroke:none"
           d="m 806.4547,24.492573 c 5.93465,-4.04061 14.64721,-9.47018 17.67767,-10.10152 3.03046,-0.63135 11.23795,8.33375 11.74302,9.09137 0.50508,0.75761 -28.78934,0.88388 -28.78934,0.88388 z"
           id="path10854"
           inkscape:connector-curvature="0" />
        <path
           style="fill:#4e572b;fill-opacity:1;stroke:none"
           d="m 805.875,25.9375 5.0625,25.4375 h 11.46875 L 814.8125,25.9375 Z m 10.09375,0 7.625,25.4375 H 832.875 L 821.4375,25.9375 Z m 4.97321,0 c 1.76776,4.79822 12.52679,25.4375 12.52679,25.4375 l 25.375,0.15625 -23.3125,-25.59375 z M 811,53.375 c -0.12627,1.26269 -0.125,27.0625 -0.125,27.0625 h 11 L 822.5,53.375 Z m 16.625,0 -4.84375,0.0625 c 0,2.02031 0.21875,28.40625 0.21875,28.40625 l -6.5625,0.71875 15.90625,4.4375 -1,-11.125 -3.25,-20.15625 c 0.7781,3.861609 5.01888,24.929381 5.25,27.125 0.25254,2.39911 0.375,4.65625 0.375,4.65625 l 5.4375,1.25 -3,-22.25 4.78125,22.90625 10.96875,0.125 12.5,-5.0625 -5.875,-31.09375 H 834.375 Z m 30.96875,0.252538 c 0.25254,1.76776 7.46875,29.966212 7.46875,29.966212 5.80838,-2.39911 19.6875,-1.65625 19.6875,-1.65625 z"
           id="path10856"
           inkscape:connector-curvature="0"
           sodipodi:nodetypes="cccccccccccccccccccccccccccsccccccccccccc" />
        <path
           style="fill:#6f812a;fill-opacity:1;stroke:none"
           d="m 836.56987,25.818393 c 1.89404,2.39911 50.93013,55.47236 50.93013,55.47236 h 5.35714 l -53.88816,-55.47236 z"
           id="path10858"
           inkscape:connector-curvature="0"
           sodipodi:nodetypes="ccccc" />
        <path
           style="fill:#73862c;fill-opacity:1;stroke:none"
           d="m 808.72754,82.450073 3.78808,0.12627 25.75889,7.82869 -0.18934,18.687807 -3.03046,0.31568 -0.0631,-17.614537 -27.7792,-0.75761 0.25254,-3.03046 2.02031,-0.25254 -0.12627,-3.53553 -1.6415,-0.25254 0.12627,-1.76777 z"
           id="path10860"
           inkscape:connector-curvature="0"
           sodipodi:nodetypes="ccccccccccccc" />
        <path
           inkscape:connector-curvature="0"
           style="fill:#5f6b31;fill-opacity:1;stroke:none"
           d="m 806.0625,92.09375 -11.25,0.09375 c 0,1.42857 -0.0937,16.5 -0.0937,16.5 0,0 5.71161,0.50484 6.03125,0.6875 0.9375,0.53572 1.3125,2.28125 1.3125,2.28125 l 4,-0.46875 v -0.65625 l 27.25,-1.03125 v -0.65625 c 6.04159,-0.36912 18.51277,-1.8077 18.28125,-7.375 -0.034,-4.251199 -12.83777,-5.873957 -18.40625,-6.375 l -0.0312,-1.71875 c 0,0 -4.66108,0.39462 -9.15625,-0.0625 -4.10685,-0.417637 -16.81265,-0.951938 -17.9375,-1 v -0.21875 z m -12.9375,1.34375 -7.3125,0.625 c 0,1.96428 -0.1875,16.6875 -0.1875,16.6875 l 3.125,-0.34375 c 0,0 0.62946,-1.625 1.34375,-1.625 0.71428,0 2.84375,-0.0937 2.84375,-0.0937 l 0.1875,-15.25 z"
           id="path10862" />
        <path
           style="fill:#5f6b31;fill-opacity:1;stroke:none"
           d="m 776.69643,94.594323 c 0.71428,-0.0893 2.67857,-0.44643 2.67857,-0.44643 l -0.35714,16.428567 c 0,0 0.26785,0.80357 0.89285,0.80357 0.625,0 8.66072,-0.17857 8.66072,-0.17857 l -0.0446,2.81251 -22.45536,0.13394 -0.0893,-2.85714 10.625,-0.26786 z"
           id="path10864"
           inkscape:connector-curvature="0"
           sodipodi:nodetypes="cccscccccc" />
        <path
           inkscape:connector-curvature="0"
           style="fill:#829633;fill-opacity:1;stroke:none"
           d="m 765.40625,96.65625 c -0.28159,0 -0.5,0.380357 -0.5,0.875 0,0.494643 0.21841,0.90625 0.5,0.90625 h 8.46875 c 0.28159,0 0.5,-0.411607 0.5,-0.90625 0,-0.494643 -0.21841,-0.875 -0.5,-0.875 z m -0.375,2.9375 c -0.26098,0 -0.46875,0.46241 -0.46875,1.03125 0,0.56884 0.20777,1.03125 0.46875,1.03125 H 774.25 c 0.26098,0 0.46875,-0.46241 0.46875,-1.03125 0,-0.56884 -0.20777,-1.03125 -0.46875,-1.03125 z M 764.875,102.625 c -0.28159,0 -0.5,0.45589 -0.5,1 0,0.54411 0.21841,0.96875 0.5,0.96875 h 9.53125 c 0.28159,0 0.5,-0.42464 0.5,-0.96875 0,-0.54411 -0.21841,-1 -0.5,-1 z m 0.0937,3.03125 c -0.28159,0 -0.5,0.41813 -0.5,0.9375 0,0.51937 0.21841,0.9375 0.5,0.9375 h 9.34375 c 0.28159,0 0.5,-0.41813 0.5,-0.9375 0,-0.51937 -0.21841,-0.9375 -0.5,-0.9375 z"
           id="path10866" />
        <path
           style="fill:#5f6b31;fill-opacity:1;stroke:none"
           d="m 838.65437,90.354573 c 0,0 50.91452,-0.735957 53.23595,1.228329 3.39286,0.714285 1.3112,15.237098 1.3112,15.237098 0,0 0.25254,5.05077 -0.37881,5.3033 -0.63134,0.25254 -54.04316,0.12627 -54.04316,0.12627 l 0.37881,-2.39911 c 0,0 8.08122,1.01015 11.86929,-3.03046 3.78807,-4.04061 2.52538,-7.449867 0,-9.343907 -2.52538,-1.89403 -11.74302,-3.91434 -11.74302,-3.91434 z"
           id="path10868"
           inkscape:connector-curvature="0"
           sodipodi:nodetypes="ccccccsscc" />
        <path
           style="fill:#8aa134;fill-opacity:1;stroke:none"
           d="m 858.22502,88.889793 c 9.47018,-5.68211 25.88516,-4.79822 25.88516,-4.79822 l -0.25254,4.79822 z"
           id="path10870"
           inkscape:connector-curvature="0"
           sodipodi:nodetypes="cccc" />
        <path
           style="fill:#8aa134;fill-opacity:1;stroke:none"
           d="m 886.00421,84.091573 0.1894,4.79822 h 41.06361 l -30.89894,-4.92449 z"
           id="path10872"
           inkscape:connector-curvature="0"
           sodipodi:nodetypes="ccccc" />
        <path
           inkscape:connector-curvature="0"
           style="fill:#47521e;fill-opacity:1;stroke:none"
           d="m 935.28125,90.9375 v 11.34375 h 19 c 0,0 0.45087,-9.56697 0.0937,-10.28125 -0.35714,-0.71429 -8.49553,-0.72321 -9.65625,-0.8125 -1.16071,-0.0893 -7.21875,-0.25 -7.21875,-0.25 h -2.21875 z"
           id="path10874" />
        <path
           inkscape:connector-curvature="0"
           style="fill:#6a7737;fill-opacity:1;stroke:none"
           d="m 904.625,91.34375 1.53125,1.03125 6.96875,0.25 v 7.875 l -7.9375,0.4375 -0.1875,1.34375 h 14.09375 l 0.1875,-10.8125 z"
           id="path10876" />
        <path
           inkscape:connector-curvature="0"
           style="fill:#6a7737;fill-opacity:1;stroke:none"
           d="m 933.40625,91.5625 -12.78125,0.0625 0.25,10.65625 h 12.34375 c 0.44643,0.25946 0.1875,-10.71875 0.1875,-10.71875 z M 929,97.625 l 0.0937,2.40625 -5.53125,0.25 -0.53125,-2.5625 z"
           id="path10878" />
        <path
           inkscape:connector-curvature="0"
           style="fill:#6a7737;fill-opacity:1;stroke:none"
           d="m 904.5625,91.65625 -9.5625,0.4375 0.0937,14.84375 8.65625,0.28125 -0.0937,-7.3125 -3.21875,0.0625 0.0625,-6.53125 4.0625,-0.1875 z"
           id="path10880" />
        <path
           inkscape:connector-curvature="0"
           id="path10882"
           d="m 742.75196,167.08596 c 0.25253,4.16688 10.66973,9.47018 12.81631,9.47018 2.14657,0 5.17703,-2.77791 5.17703,-2.77791 z"
           style="fill:#b1c957;fill-opacity:1;stroke:none" />
        <path
           inkscape:connector-curvature="0"
           id="path10884"
           d="m 759.48261,171.12658 c 5.36643,-7.63928 16.66751,-17.48827 17.17259,-17.74081 0.50508,-0.25254 7.70241,0.75762 7.70241,0.75762 l -21.4026,17.9302 z"
           style="fill:#829633;fill-opacity:1;stroke:none" />
        <path
           inkscape:connector-curvature="0"
           id="path10886"
           d="m 777.8125,152.13746 c 1.91964,-2.14286 7.85714,-9.19643 7.85714,-9.19643 l 4.55357,1.42857 -8.92857,7.94643 z"
           style="fill:#829633;fill-opacity:1;stroke:none" />
        <path
           inkscape:connector-curvature="0"
           id="path10888"
           d="m 743.69897,165.76014 c 2.02031,0.88388 14.39468,4.60882 14.39468,4.60882 l 25.88516,-28.22114 c 0,0 -30.55712,-1.01015 -32.00921,-0.88388 -1.4521,0.12627 -2.46225,0.37881 -2.46225,0.37881 z"
           style="fill:#829633;fill-opacity:1;stroke:none" />
        <path
           inkscape:connector-curvature="0"
           id="path10890"
           d="m 751.60714,139.72675 c 1.51786,-0.0893 5,0.80357 5.08929,0.17857 0.0893,-0.625 0,-1.69643 0,-1.69643 l -3.83929,0.0893 z"
           style="fill:#2f3820;fill-opacity:1;stroke:none" />
        <path
           inkscape:connector-curvature="0"
           id="path10892"
           d="m 758.75,140.17317 c -0.0893,-0.98214 0.0893,-1.78571 0.0893,-1.78571 0,0 6.42857,0.17857 6.33929,-0.26786 -0.0893,-0.44643 -0.35715,-1.60714 -0.35715,-1.60714 l -7.94642,0.0893 11.25,-4.19643 v 3.39285 l 1.33928,0.26786 v -5.08928 l 19.82143,2.85714 -16.25,2.05357 0.71429,0.625 c 0,0 22.67857,-0.98214 22.41071,-0.98214 -0.26786,0 0.26786,-1.42857 0.26786,-1.42857 l 1.60714,-0.0893 0.53571,1.25 8.92858,3.57143 -0.35715,1.25 z"
           style="fill:#2f3820;fill-opacity:1;stroke:none" />
        <path
           inkscape:connector-curvature="0"
           id="path10894"
           d="m 789.28571,141.33389 c 2.5,1.16071 12.05358,3.125 14.55358,3.83928 2.5,0.71429 2.5,0 2.5,0 v -4.19642 z"
           style="fill:#2f3820;fill-opacity:1;stroke:none" />
        <path
           inkscape:connector-curvature="0"
           style="fill:#5f6b31;fill-opacity:1;stroke:none"
           d="m 851.90625,135.96875 -10.96875,0.125 -6.5,26.15625 5.03125,-25.40625 -5.09375,1 c 0,0 -0.0287,2.41339 -0.28125,4.8125 -0.18678,1.77442 -3.44532,14.72758 -5.46875,22.75 l 2.71875,-15.8125 1,-11.09375 -15.90625,4.40625 8.0625,-0.25 c 0,0 -0.3125,28.10469 -0.3125,30.125 h 2.59375 0.59375 4.4375 0.53125 25.875 L 864.40625,141 Z m 13.65625,5.5625 c 0,0 -6.43496,30.20099 -6.6875,31.96875 l 26.875,-29.96875 c 0,0 -14.37912,0.39911 -20.1875,-2 z m -54.6875,2.625 c 0,0 0.77998,27.36231 0.90625,28.625 h 11.0625 L 821.875,145.0625 Z m 0.8125,30.625 -6,24.625 h 8.625 l -0.0312,0.0625 h 4.6875 l 4.53125,-0.0625 h 0.75 13.15625 l 20.8125,-24.625 h -25.5625 l -4.75,12.8125 3.9375,-12.8125 h -7.75 l -8.375,21.09375 7.03125,-21.09375 h -11.0625 z M 806.46875,201 c 5.93465,4.04061 14.62579,9.46241 17.65625,10.09375 3.03046,0.63135 11.24493,-8.33613 11.75,-9.09375 0.50508,-0.75761 -28.78125,-0.875 -28.78125,-0.875 z"
           id="path10896" />
        <path
           sodipodi:nodetypes="ccccc"
           inkscape:connector-curvature="0"
           id="path10898"
           d="M 836.56987,199.66339 C 838.46391,197.26428 887.5,144.19103 887.5,144.19103 h 5.35714 l -53.88816,55.47236 z"
           style="fill:#6f812a;fill-opacity:1;stroke:none" />
        <path
           sodipodi:nodetypes="ccccccccccccc"
           inkscape:connector-curvature="0"
           id="path10900"
           d="m 808.72754,143.03171 3.78808,-0.12627 25.75889,-7.82869 -0.18934,-18.68781 -3.03046,-0.31568 -0.0631,17.61454 -27.7792,0.75761 0.25254,3.03046 2.02031,0.25254 -0.12627,3.53553 -1.6415,0.25254 0.12627,1.76777 z"
           style="fill:#2f3820;fill-opacity:1;stroke:none" />
        <path
           inkscape:connector-curvature="0"
           style="fill:#5f6b31;fill-opacity:1;stroke:none"
           d="m 802.0625,113.84375 c 0,0 -0.375,1.74553 -1.3125,2.28125 -0.31964,0.18266 -6.03125,0.65625 -6.03125,0.65625 0,0 0.0937,15.10268 0.0937,16.53125 l 11.25,0.0625 v -0.1875 c 1.12466,-0.048 13.83062,-0.61361 17.9375,-1.03125 4.49517,-0.45712 9.15625,-1.3125 9.15625,-1.3125 V 129.75 c 6.74262,-0.90362 18.54441,-2.88642 18.4375,-5.75 0.11676,-5.37106 -11.54323,-6.53258 -18.28125,-6.78125 V 116 l -27.25,-1.0625 v -0.65625 l -4,-0.4375 z m -16.4375,0.875 c 0,0 0.1875,14.75447 0.1875,16.71875 l 7.3125,0.625 -0.1875,-15.28125 c 0,0 -2.12947,-0.0937 -2.84375,-0.0937 -0.71429,0 -1.34375,-1.59375 -1.34375,-1.59375 l -3.125,-0.375 z"
           id="path10902" />
        <path
           sodipodi:nodetypes="cccscccccc"
           inkscape:connector-curvature="0"
           id="path10904"
           d="m 776.69643,130.88746 c 0.71428,0.0893 2.67857,0.44643 2.67857,0.44643 l -0.35714,-16.42857 c 0,0 0.26785,-0.80357 0.89285,-0.80357 0.625,0 8.66072,0.17857 8.66072,0.17857 l -0.0446,-2.81251 -22.45536,-0.13394 -0.0893,2.85714 10.625,0.26786 z"
           style="fill:#485125;fill-opacity:1;stroke:none" />
        <path
           inkscape:connector-curvature="0"
           style="fill:#7e9233;fill-opacity:1;stroke:none"
           d="m 764.96875,117.9375 c -0.28159,0 -0.5,0.41813 -0.5,0.9375 0,0.51937 0.21841,0.9375 0.5,0.9375 h 9.34375 c 0.28159,0 0.5,-0.41813 0.5,-0.9375 0,-0.51937 -0.21841,-0.9375 -0.5,-0.9375 z m -0.0937,2.9375 c -0.28159,0 -0.5,0.45589 -0.5,1 0,0.54411 0.21841,0.96875 0.5,0.96875 h 9.53125 c 0.28159,0 0.5,-0.42464 0.5,-0.96875 0,-0.54411 -0.21841,-1 -0.5,-1 z m 0.15625,2.96875 c -0.26098,0 -0.46875,0.46241 -0.46875,1.03125 0,0.56884 0.20777,1 0.46875,1 h 9.21875 c 0.26098,0 0.46875,-0.43116 0.46875,-1 0,-0.56884 -0.20777,-1.03125 -0.46875,-1.03125 z m 0.375,3.21875 c -0.28159,0 -0.5,0.38036 -0.5,0.875 0,0.49464 0.21841,0.90625 0.5,0.90625 h 8.46875 c 0.28159,0 0.5,-0.41161 0.5,-0.90625 0,-0.49464 -0.21841,-0.875 -0.5,-0.875 z"
           id="path10906" />
        <path
           sodipodi:nodetypes="ccccccsscc"
           inkscape:connector-curvature="0"
           id="path10908"
           d="m 838.65437,135.12721 c 0,0 50.37881,0.0217 53.59309,-1.04976 1.96429,-2.14285 0.95406,-15.41567 0.95406,-15.41567 0,0 0.25254,-5.42958 -0.37881,-5.68211 -0.63134,-0.25254 -54.04316,0.12627 -54.04316,0.12627 l 0.50508,2.52538 c 0,0 7.95495,-1.01015 11.74302,3.03046 3.78807,4.04061 2.52538,7.44987 0,9.34391 -2.52538,1.89403 -11.74302,3.91434 -11.74302,3.91434 z"
           style="fill:#5f6b31;fill-opacity:1;stroke:none" />
        <path
           sodipodi:nodetypes="cccc"
           inkscape:connector-curvature="0"
           id="path10910"
           d="m 858.22502,136.59199 c 9.47018,5.68211 25.88516,4.79822 25.88516,4.79822 l -0.25254,-4.79822 z"
           style="fill:#2f3820;fill-opacity:1;stroke:none" />
        <path
           sodipodi:nodetypes="ccccc"
           inkscape:connector-curvature="0"
           id="path10912"
           d="m 886.00421,141.39021 0.1894,-4.79822 h 41.06361 l -30.89894,4.92449 z"
           style="fill:#2f3820;fill-opacity:1;stroke:none" />
        <path
           inkscape:connector-curvature="0"
           style="fill:#6a7737;fill-opacity:1;stroke:none"
           d="m 903.75,118.25 -8.65625,0.3125 -0.0937,15.71875 12.71875,-0.21875 -0.125,-0.0625 h 11.6875 l -0.1875,-10.78125 h -14.09375 l 0.1875,1.34375 7.9375,0.4375 v 7.84375 l -6.96875,0.28125 -0.0312,0.0937 -1.84375,-1 -4.09375,-0.4375 0.25,-5.625 3.21875,-0.1875 0.0937,-7.71875 z"
           id="path10914" />
        <path
           sodipodi:nodetypes="ccccscc"
           inkscape:connector-curvature="0"
           id="path10916"
           d="m 935.26786,133.54817 10e-6,-10.33928 h 19.01786 c 0,0 0.44642,9.55357 0.0893,10.26785 -0.35714,0.71429 -7.76786,0.35715 -8.92858,0.44644 -1.16071,0.0893 -7.94642,-0.37501 -7.94642,-0.37501 z"
           style="fill:#47521e;fill-opacity:1;stroke:none" />
        <path
           sodipodi:nodetypes="ccccccccccc"
           inkscape:connector-curvature="0"
           id="path10918"
           d="m 933.40625,133.92375 -12.76786,-0.0759 0.25,-10.63896 c 0,0 10.62501,0 12.32143,0 0.44643,-0.25946 0.19643,10.71481 0.19643,10.71481 z m -4.39732,-6.08036 0.0937,-2.40625 -5.53125,-0.25 -0.53125,2.5625 z"
           style="fill:#6a7737;fill-opacity:1;stroke:none" />
        <path
           style="fill:#2b6e80;fill-opacity:1;stroke:none"
           d="m 932.10268,107.01339 c -3.38831,0 -6.125,2.70544 -6.125,6.09375 0,3.3883 2.73669,6.125 6.125,6.125 h 10.53125 c 4.08069,-4.44402 2.32841,-10.28748 0.28125,-12.21875 z m 16.6875,0 c 2.12682,2.07019 2.54961,9.08983 -0.5625,12.21875 h 16.5625 c 4.07842,-4.44379 2.29687,-10.28776 0.25,-12.21875 z m 22.15625,0 c 2.12682,2.07019 2.54961,9.08983 -0.5625,12.21875 h 9.9375 c 3.3883,0 6.09375,-2.7367 6.09375,-6.125 0,-3.38831 -2.70545,-6.09375 -6.09375,-6.09375 z"
           id="path10920"
           inkscape:connector-curvature="0" />
        <path
           inkscape:connector-curvature="0"
           style="fill:#5f6b31;fill-opacity:1;stroke:none"
           d="m 944.3125,107 c 2.0488,1.92653 3.83147,7.77164 -0.25,12.21875 h 2.625 C 949.805,116.0923 949.40919,109.07128 947.28125,107 Z m 22.15625,0 c 2.04716,1.93127 3.79944,7.77473 -0.28125,12.21875 h 2.65625 c 3.11211,-3.12892 2.68932,-10.14856 0.5625,-12.21875 z"
           id="path10922" />
        <path
           style="fill:#8aa134;fill-opacity:1;stroke:none"
           d="m 930.98214,104.32646 c 0.53572,-0.17857 46.16072,0.26786 48.48215,0.35715 2.32143,0.0893 6.43398,0.93788 6.43398,0.93788 l 0.0523,1.81821 c 0,0 -4.25414,-1.23824 -5.32557,-1.41681 -1.07143,-0.17857 -50.17857,0 -50.17857,0 z"
           id="path10924"
           inkscape:connector-curvature="0"
           sodipodi:nodetypes="csccscc" />
        <path
           style="fill:#47521e;fill-opacity:1;stroke:none"
           d="m 929.375,120.48718 c 0,0 52.32143,0 53.75,-0.35714 1.42857,-0.35715 2.76786,-1.65179 2.76786,-1.65179 l 0.0223,1.38393 c 0,0 -1.62946,0.98214 -3.23661,1.78571 -1.60714,0.80357 -52.41071,0.26786 -52.41071,0.26786 z"
           id="path10926"
           inkscape:connector-curvature="0"
           sodipodi:nodetypes="csccscc" />
        <path
           style="fill:#47521e;fill-opacity:1;stroke:none"
           d="m 985.625,120.84432 0.0893,1.16072 15.8036,-0.17858 -0.089,-0.98214 z"
           id="path10928"
           inkscape:connector-curvature="0" />
        <path
           style="fill:#6d7e2e;fill-opacity:1;stroke:none"
           d="m 985.89286,118.43361 -0.0893,1.51785 15.53574,-0.0893 0.1785,-12.23214 -15.98209,0.17857 0.35714,1.51785 c 0,0 1.875,1.25 2.14286,3.125 0.26785,1.875 -0.80358,5.17858 -1.33929,5.625 -0.53571,0.44643 -0.80357,0.35715 -0.80357,0.35715 z"
           id="path10930"
           inkscape:connector-curvature="0" />
        <path
           style="fill:#8aa134;fill-opacity:1;stroke:none"
           d="m 985.80357,105.57646 15.44643,0.80358 -0.089,0.89285 -15.35715,0.0893 z"
           id="path10932"
           inkscape:connector-curvature="0" />
        <path
           style="fill:#5f6b31;fill-opacity:1;stroke:none"
           d="m 895.53572,107.98718 c 0,0 8.125,0.35714 7.85714,0.26786 -0.26786,-0.0893 -0.17857,9.28571 -0.17857,9.28571 l -7.85715,0.44643 -0.0893,-1.33929 5.35714,-0.53571 -0.625,-0.89286 h -5.35714 v -5.625 c 0,0 6.69643,0.0893 6.33928,0.0893 -0.35714,0 -0.35714,-0.80357 -0.35714,-0.80357 l -5.26786,0.0893 z"
           id="path10934"
           inkscape:connector-curvature="0" />
        <path
           style="fill:#333a1a;fill-opacity:1;stroke:none"
           d="m 920.88393,103.07589 c -0.53572,0.0893 -15.625,0.28125 -15.625,0.28125 l -0.25,1.59375 c 0,0 15.98214,-0.72321 16.875,-0.1875 0.86786,0.52072 3.5044,1.86151 3.65625,1.9375 -0.52387,0.0174 -1.15625,0.0312 -1.15625,0.0312 l -4.75,-1.25 -14.8125,0.8125 v 2.59375 l 4.8125,0.0937 c 0.26409,2.85302 0.0716,5.18406 0,8.09375 l -4.8125,0.0937 v 2.59375 l 14.8125,0.8125 4.75,-1.25 c 0,0 0.63238,0.0138 1.15625,0.0312 -0.15185,0.076 -2.78839,1.41678 -3.65625,1.9375 -0.89286,0.53571 -16.875,-0.1875 -16.875,-0.1875 l 0.25,1.59375 c 0,0 15.08928,0.19195 15.625,0.28125 0.53571,0.0893 1.70982,-0.90625 2.15625,-0.90625 0.44642,0 6.6875,-0.34375 6.6875,-0.34375 l -0.71875,-2.15625 -0.90625,-0.0625 c 0.38439,0.0337 1.1875,-0.46875 1.1875,-0.46875 0,0 -2.33928,-0.69196 -2.875,-1.40625 -0.51576,-0.68768 -1.16871,-4.31414 -1.21875,-4.59375 0.0409,-0.22914 0.69916,-3.93222 1.21875,-4.625 0.53572,-0.71429 2.875,-1.40625 2.875,-1.40625 0,0 -0.80311,-0.50245 -1.1875,-0.46875 l 0.90625,-0.0625 0.71875,-2.15625 c 0,0 -6.24108,-0.34375 -6.6875,-0.34375 -0.44643,0 -1.62054,-0.99553 -2.15625,-0.90625 z m 4.84375,4.46875 -0.90625,2.3125 -0.0937,3.125 v 0.0937 l 0.0937,3.125 0.90625,2.3125 -1.71875,-1.25 -3.5625,0.1875 0.0937,-2.3125 2.3125,-0.1875 0.28125,-1.6875 h 0.0937 l -0.0312,-0.21875 0.0312,-0.25 h -0.0937 l -0.28125,-1.6875 -2.3125,-0.1875 -0.0937,-2.3125 3.5625,0.1875 z m -7.25,1.4375 c -0.16066,2.76665 -0.0498,5.32723 0,8.09375 l -4.8125,-0.0625 c -0.39383,-3.15764 -0.0788,-4.94694 0,-7.96875 z"
           id="path10936"
           inkscape:connector-curvature="0"
           sodipodi:nodetypes="cccsccccccccccccsccssccccscsccccscccccccccccccccccccccccccc" />
        <path
           style="fill:#495225;fill-opacity:1;stroke:none"
           d="m 1002.8571,106.73718 c 0,0 29.9846,4.82415 30.0893,7.23214 0.1104,2.53715 -28.3928,6.875 -30.0892,7.5 0.6236,-0.20786 0.9999,-13.57738 -1e-4,-14.73214 z"
           id="path10938"
           inkscape:connector-curvature="0"
           sodipodi:nodetypes="cscc" />
        <path
           style="fill:#859938;fill-opacity:1;stroke:none"
           d="m 809.38473,112.79405 c 1.38896,-0.37881 27.14785,-1.89404 27.14785,-1.89404 l 7.47833,1.67213 -7.35206,1.8634 z"
           id="path10940"
           inkscape:connector-curvature="0"
           sodipodi:nodetypes="ccccc" />
        <path
           style="fill:#485125;fill-opacity:1;stroke:none"
           d="m 790.82317,111.40509 c -0.12626,1.76776 0.50508,3.15672 0.50508,3.15672 0,0 8.08122,-0.3788 8.46003,-1.01015 0.37881,-0.63135 0.75761,-1.38896 -0.12627,-1.76777 -0.88388,-0.3788 -8.83884,-0.3788 -8.83884,-0.3788 z"
           id="path10942"
           inkscape:connector-curvature="0" />
        <path
           inkscape:connector-curvature="0"
           style="fill:#ffffff;fill-opacity:0;stroke:none"
           d="m 762.96875,53.40625 -3.5,0.9375 c 3.17035,4.513086 8.38251,9.751141 12.25,13.375 L 764.8125,58.25 l 4.125,2.15625 11.53125,7.6875 z m -4.875,1.71875 c 0,0 -12.38594,3.70987 -14.40625,4.59375 l 5.0625,21 c -0.45278,-8.179851 -1.0625,-19.25 -1.0625,-19.25 l 10.875,-4.09375 15.84375,15.5625 z"
           id="path10944" />
        <path
           inkscape:connector-curvature="0"
           style="fill:#b1c957;fill-opacity:1;stroke:none"
           d="m 749.96875,141.5625 c -0.20992,0.0433 -0.46875,0.0937 -0.46875,0.0937 l -5.8125,24.0938 c 2.02031,0.88388 14.40625,4.625 14.40625,4.625 l 24.5,-26.71875 -23.46875,20.03125 c 0,0 -7.07852,0.48906 -8.59375,-1.53125 -1.3843,-1.84573 -0.85401,-11.27448 -0.5625,-20.59375 z"
           id="path10946" />
        <path
           inkscape:connector-curvature="0"
           style="opacity:0.72596154;fill:#8aa134;fill-opacity:1;stroke:none"
           d="m 802.0625,113.84375 c 0,0 -0.375,1.74553 -1.3125,2.28125 -0.31964,0.18266 -6.03125,0.65625 -6.03125,0.65625 0,0 0.0185,3.11384 0.0312,5.21875 h 56.25 c -2.4439,-3.66906 -11.88775,-4.56721 -17.6875,-4.78125 V 116 l -27.25,-1.0625 v -0.65625 l -4,-0.4375 z m -16.4375,0.875 c 0,0 0.0536,3.95946 0.0937,7.28125 h 7.28125 l -0.0625,-5.21875 c 0,0 -2.12947,-0.0937 -2.84375,-0.0937 -0.71429,0 -1.34375,-1.59375 -1.34375,-1.59375 l -3.125,-0.375 z"
           id="path10948" />
        <path
           inkscape:connector-curvature="0"
           style="opacity:0.80288463;fill:#8aa134;fill-opacity:1;stroke:none"
           d="m 806.0625,92.09375 -11.25,0.09375 c 0,0.768403 -0.0374,4.680841 -0.0625,8.875 h 56.8125 c -0.78716,-3.960631 -12.98054,-5.483365 -18.375,-5.96875 L 833.1563,93.375 c 0,0 -4.66108,0.39462 -9.15625,-0.0625 -4.10685,-0.417637 -16.81265,-0.951938 -17.9375,-1 v -0.21875 z m -12.9375,1.34375 -7.3125,0.625 c 0,0.823988 -0.0554,3.714302 -0.0937,7 h 7.3125 z"
           id="path10950" />
        <path
           inkscape:connector-curvature="0"
           style="opacity:0.24336285;fill:#000000;fill-opacity:1;stroke:none"
           d="m 851.375,124.6875 -56.59375,2.34375 c 0.0168,2.91252 0.0312,5.73845 0.0312,6.28125 l 11.25,0.0625 v -0.1875 c 1.12466,-0.048 13.83062,-0.61361 17.9375,-1.03125 4.49517,-0.45712 9.15625,-1.3125 9.15625,-1.3125 V 129.75 c 6.19099,-0.82969 16.63206,-2.56674 18.21875,-5.0625 z m -58.3125,2.40625 -7.28125,0.28125 c 0.0168,1.5924 0.0312,3.58522 0.0312,4.0625 l 7.3125,0.625 -0.0625,-4.96875 z"
           id="path10952" />
        <path
           inkscape:connector-curvature="0"
           style="opacity:0.23893804;fill:#000000;fill-opacity:1;stroke:none"
           d="M 851.59375,101.875 794.75,105.03125 c -0.007,1.16769 -0.0312,3.65625 -0.0312,3.65625 0,0 5.71161,0.50484 6.03125,0.6875 0.9375,0.53572 1.3125,2.28125 1.3125,2.28125 l 4,-0.46875 v -0.65625 l 27.25,-1.03125 v -0.65625 c 5.88819,-0.35975 17.89023,-1.74522 18.28125,-6.96875 z m -58.625,3.25 -7.28125,0.40625 c -0.0252,2.03939 -0.0625,5.21875 -0.0625,5.21875 l 3.125,-0.34375 c 0,0 0.62946,-1.625 1.34375,-1.625 0.71428,0 2.84375,-0.0937 2.84375,-0.0937 l 0.0312,-3.5625 z"
           id="path10954" />
        <path
           style="opacity:0.23451329;fill:#000000;fill-opacity:1;stroke:none"
           d="m 851.90625,135.96875 -10.96875,0.125 -2.40625,11 c 5.3342,-1.38415 9.91994,-1.83501 13.03125,-1.34375 2.61937,0.41359 6.82591,1.18046 11.53125,2.0625 L 864.40625,141 Z m -11.35714,0.69643 -6.17411,1.17857 c 0,0 -0.0287,2.41339 -0.28125,4.8125 -0.0662,0.62908 -0.6227,3.06343 -1.375,6.21875 1.19236,-0.4217 4.67947,-1.49847 5.82143,-1.83929 z m -8.20536,1.83482 -15.90625,4.40625 8.0625,-0.25 c 0,0 -0.0497,5.68807 -0.0937,9.71875 2.36986,-1.13673 4.69864,-2.15087 6.96875,-3 z m 33.21875,3.03125 c 0,0 -0.6687,4.4173 -1,6.5625 4.79141,0.89787 9.87001,1.83016 14.71875,2.65625 l 6.46875,-7.21875 c 0,0 -14.37912,0.39911 -20.1875,-2 z m -54.6875,2.625 c 0,0 0.2346,8.19329 0.46875,15.875 3.54559,-2.52511 7.20283,-4.73494 10.8125,-6.59375 l -0.28125,-8.375 z"
           id="path10956"
           inkscape:connector-curvature="0"
           sodipodi:nodetypes="cccscccccsccccccccccccccccccc" />
        <ellipse
           ry="0.63134533"
           rx="1.0215383"
           cy="170.87782"
           cx="835.15503"
           style="opacity:0.15384617;fill:#b1c3bf;fill-opacity:1;stroke:none"
           id="path10958" />
        <circle
           r="1.1364216"
           cy="170.24648"
           cx="835.77496"
           style="opacity:0.15384617;fill:#000000;fill-opacity:1;stroke:none"
           id="path10960" />
        <path
           inkscape:connector-curvature="0"
           style="opacity:0.57211537;fill:#a1bc3d;fill-opacity:1;stroke:none"
           d="m 854.875,90.21875 c -8.11111,0.02305 -13.91733,0.107937 -15.21875,0.125 L 890.0625,94.5 c 0,0 1.53632,14.87119 1.03125,15.25 -0.46341,0.34755 -44.3619,1.46095 -52.1875,1.65625 l -0.125,0.84375 c 0,0 53.39991,0.12754 54.03125,-0.125 0.63135,-0.25253 0.375,-5.3125 0.375,-5.3125 0,0 2.08036,-14.504465 -1.3125,-15.21875 -1.45089,-1.227679 -21.8796,-1.41797 -37,-1.375 z m 29.25,22.6875 c -15.28842,0 -45.34375,0.1875 -45.34375,0.1875 L 839.0625,114.5 c 17.28081,-1.30776 50.91111,-0.43361 52.15625,0.5625 1.26269,1.01015 1.50634,17.05742 0.875,17.5625 -0.22119,0.17695 -4.37296,1.0615 -9.21875,2.0625 4.98425,-0.14862 8.59062,-0.36353 9.375,-0.625 1.96429,-2.14285 0.9375,-15.40625 0.9375,-15.40625 0,0 0.25635,-5.43497 -0.375,-5.6875 -0.15783,-0.0631 -3.59136,-0.0625 -8.6875,-0.0625 z"
           id="path10962" />
        <path
           inkscape:connector-curvature="0"
           style="opacity:0.21681417;fill:#ffffff;fill-opacity:1;stroke:none"
           d="m 764.96875,117.9375 c -0.28159,0 -0.5,0.41813 -0.5,0.9375 0,0.51937 0.21841,0.9375 0.5,0.9375 H 766.5 c -0.13746,-0.73839 -0.31987,-1.37762 -0.53125,-1.875 z m -0.0937,2.9375 c -0.28159,0 -0.5,0.45589 -0.5,1 0,0.54411 0.21841,0.96875 0.5,0.96875 h 1.9375 c -0.032,-0.68407 -0.0757,-1.33517 -0.15625,-1.96875 z m 0.15625,2.96875 c -0.26098,0 -0.46875,0.46241 -0.46875,1.03125 0,0.56884 0.20777,1 0.46875,1 h 1.75 c 0.0439,-0.65767 0.0703,-1.33904 0.0625,-2.03125 z m 0.375,3.21875 c -0.28159,0 -0.5,0.38036 -0.5,0.875 0,0.49464 0.21841,0.90625 0.5,0.90625 h 0.9375 c 0.14914,-0.5057 0.25969,-1.12009 0.34375,-1.78125 z"
           id="path10964" />
        <path
           inkscape:connector-curvature="0"
           style="opacity:0.21681417;fill:#ffffff;fill-opacity:1;stroke:none"
           d="m 765.40625,96.65625 c -0.28159,0 -0.5,0.380357 -0.5,0.875 0,0.494643 0.21841,0.90625 0.5,0.90625 h 1.25 c -0.11546,-0.722578 -0.27184,-1.345609 -0.46875,-1.78125 z m -0.375,2.9375 c -0.26098,0 -0.46875,0.46241 -0.46875,1.03125 0,0.56884 0.20777,1.03125 0.46875,1.03125 h 1.8125 c 0.019,-0.72783 0.0215,-1.40929 -0.0312,-2.0625 H 765.0313 Z M 764.875,102.625 c -0.28159,0 -0.5,0.45589 -0.5,1 0,0.54411 0.21841,0.96875 0.5,0.96875 h 1.6875 c 0.11615,-0.64601 0.20191,-1.31504 0.25,-1.96875 z m 0.0937,3.03125 c -0.28159,0 -0.5,0.41813 -0.5,0.9375 0,0.51937 0.21841,0.9375 0.5,0.9375 h 0.71875 c 0.25934,-0.57897 0.48816,-1.21173 0.65625,-1.875 z"
           id="path10966" />
        <path
           inkscape:connector-curvature="0"
           style="opacity:0.3982301;fill:#0d1110;fill-opacity:1;stroke:none"
           d="m 758.75,85.3125 c -0.0893,0.98214 0.0937,1.78125 0.0937,1.78125 0,0 6.43303,-0.16518 6.34375,0.28125 -0.0893,0.44643 -0.375,1.59375 -0.375,1.59375 l -7.9375,-0.09375 11.25,4.1875 v -3.375 l 1.34375,-0.28125 V 94.5 l 18.71875,-2.6875 0.0937,-0.28125 -15.25,-1.9375 0.71875,-0.625 c 0,0 8.45828,0.365342 15.09375,0.65625 l 1.25,-4.25 z"
           id="path10968" />
        <path
           inkscape:connector-curvature="0"
           style="opacity:0.1946903;fill:#a7bd4b;fill-opacity:1;stroke:none"
           d="m 855.9375,53.375 c -8.21986,2.517548 -17.6603,5.075461 -26.90625,7.03125 1.43436,7.147322 4.11956,20.604563 4.3125,22.4375 0.25254,2.39911 0.375,4.65625 0.375,4.65625 l 5.4375,1.25 -3,-22.25 4.78125,22.90625 10.96875,0.125 12.5,-5.0625 -5.8125,-30.84375 -0.0625,-0.25 z m 2.65625,0.25 c 0.25254,1.76776 7.46875,29.96875 7.46875,29.96875 5.80838,-2.39911 19.6875,-1.65625 19.6875,-1.65625 z m -29.75,6.84375 c -2.02589,0.426771 -4.01342,0.797936 -6,1.15625 C 822.90763,70.05937 823,81.84375 823,81.84375 l -6.5625,0.71875 15.90625,4.4375 -1,-11.125 z m -6.53125,1.25 c -3.96143,0.70267 -7.80198,1.258305 -11.40625,1.59375 -0.0283,7.773325 -0.0312,17.125 -0.0312,17.125 h 11 l 0.4375,-18.71875 z"
           id="path10970" />
        <path
           inkscape:connector-curvature="0"
           style="opacity:0.55309735;fill:#8aa134;fill-opacity:1;stroke:none"
           d="m 1002.8438,106.75 c 0.4821,0.55676 0.6561,3.95225 0.625,7.34375 5.1268,-0.20736 19.6269,-0.26558 29.4062,-0.28125 -1.3648,-2.45573 -30.0312,-7.0625 -30.0312,-7.0625 z"
           id="path10972" />
        <path
           inkscape:connector-curvature="0"
           style="opacity:0.34743365;fill:#d6dfdd;fill-opacity:1;stroke:none"
           d="m 932.09375,107 c -2.71837,0 -5.00967,1.74921 -5.8125,4.1875 2.96484,-0.019 9.50911,-0.0336 18.65625,-0.0312 -0.34184,-1.81261 -1.16613,-3.3401 -2.03125,-4.15625 h -10.8125 z m 16.6875,0 c 0.8259,0.80391 1.38899,2.37729 1.59375,4.15625 7.58102,0.004 10.06704,-0.007 16.6875,0 -0.348,-1.81266 -1.16625,-3.34022 -2.03125,-4.15625 z m 22.15625,0 c 0.83062,0.8085 1.39201,2.39575 1.59375,4.1875 4.82458,0.006 13.1354,-6.4e-4 13.59375,0 C 985.33012,108.74921 983.03086,107 980.3125,107 Z"
           id="path10974" />
        <path
           inkscape:connector-curvature="0"
           style="opacity:0.34743365;fill:#000000;fill-opacity:1;stroke:none"
           d="m 985.03125,117 c -0.73061,0.002 -8.50102,0.0202 -13.21875,0.0312 -0.35125,0.83719 -0.83263,1.57936 -1.4375,2.1875 h 9.9375 c 1.90592,0 3.60493,-0.85804 4.71875,-2.21875 z m -18.75,0.0312 c -6.63012,0.014 -9.0577,0.0234 -16.625,0.0312 -0.35006,0.82671 -0.83896,1.55448 -1.4375,2.15625 h 16.5625 c 0.64454,-0.70228 1.12609,-1.43625 1.5,-2.1875 z m -38.84375,0.0312 c 1.12259,1.32225 2.78166,2.15625 4.65625,2.15625 H 942.625 c 0.63761,-0.69438 1.12608,-1.4138 1.5,-2.15625 -6.56063,0.004 -12.73413,0.0156 -16.6875,0 z"
           id="path10976" />
        <path
           inkscape:connector-curvature="0"
           style="opacity:0.71153846;fill:#8aa134;fill-opacity:1;stroke:none"
           d="m 944.3125,107 c 1.157,1.08795 2.23967,3.43269 2.21875,6.0625 h 2.40625 c 0.0915,-2.52935 -0.54189,-4.97781 -1.65625,-6.0625 z m 22.15625,0 c 1.15609,1.09064 2.21692,3.43315 2.1875,6.0625 h 2.4375 c 0.0838,-2.52922 -0.57373,-4.97839 -1.6875,-6.0625 z"
           id="path10978" />
        <path
           inkscape:connector-curvature="0"
           style="opacity:0.34743365;fill:#000000;fill-opacity:1;stroke:none"
           d="m 944.90625,118.15625 c -0.25056,0.3632 -0.52383,0.71392 -0.84375,1.0625 h 2.625 c 0.31294,-0.31384 0.56856,-0.67912 0.8125,-1.0625 z m 22.125,0 c -0.25085,0.36298 -0.52389,0.71416 -0.84375,1.0625 h 2.65625 c 0.3124,-0.31409 0.56949,-0.67895 0.8125,-1.0625 z"
           id="path10980" />
        <path
           inkscape:connector-curvature="0"
           style="opacity:0.34743365;fill:#000000;fill-opacity:1;stroke:none"
           d="m 988,113.96875 c -0.19874,1.76498 -0.90332,3.75277 -1.3125,4.09375 -0.53571,0.44643 -0.78125,0.375 -0.78125,0.375 l -0.0937,1.5 15.53125,-0.0625 0.094,-5.8125 z"
           id="path10982" />
        <path
           inkscape:connector-curvature="0"
           style="opacity:0.77403846;fill:#8aa134;fill-opacity:1;stroke:none"
           d="M 935.28125,90.9375 V 99 l 2.78125,-5.28125 14.25,1.28125 2,6.125 c 0.0786,-1.7711 0.37729,-8.495389 0.0625,-9.125 -0.35714,-0.71429 -8.49553,-0.72321 -9.65625,-0.8125 -1.16071,-0.0893 -7.21875,-0.25 -7.21875,-0.25 z m -30.65625,0.40625 1.53125,1.03125 6.96875,0.25 v 7 c 0.10364,0.373084 0.1875,0.57875 0.1875,0.40625 0,-0.631346 1,-5.6875 1,-5.6875 l 2.90625,-0.75 1.78125,8.46875 0.0937,-0.15625 0.1875,-10.4375 -14.65625,-0.125 z M 933.40625,91.5625 920.625,91.625 920.8125,99 923.28125,94.75 931.25,94.34375 933.4375,100 c 0.0779,-3.136113 -0.0312,-8.4375 -0.0312,-8.4375 z m -28.84375,0.09375 -9.5625,0.4375 0.0937,14.84375 h 0.125 c 0.98687,-4.22483 2.08821,-11.202929 3.3125,-11.9375 0.2562,-0.15372 1.02382,-0.279591 1.96875,-0.375 v -1.1875 l 4.0625,-0.1875 v -1.59375 z"
           id="path10984" />
        <path
           inkscape:connector-curvature="0"
           style="opacity:0.27433627;fill:#000000;fill-opacity:1;stroke:none"
           d="M 895.0625,121.875 895,134.28125 907.71875,134.0625 907.59375,134 h 11.6875 l -0.125,-7.0625 c -1.43717,-0.5513 -2.53443,-1.00159 -2.90625,-1.1875 -0.92601,-0.46301 -2.13373,0.93813 -3.125,2.28125 v 4.8125 l -6.96875,0.28125 -0.0312,0.0937 -1.84375,-1 -1.375,-0.15625 c -1.75165,0.18543 -3.27132,0.2281 -3.96875,-0.0625 -1.84844,-0.77019 -2.93333,-4.0764 -3.875,-10.125 z m 59.15625,1.34375 -3.15625,7.34375 -13.03125,0.5625 -2.75,-2.21875 v 4.65625 H 937.5 c 0,0 6.77679,0.4643 7.9375,0.375 1.16072,-0.0893 8.58036,0.24554 8.9375,-0.46875 0.35712,-0.71428 -0.0937,-10.25 -0.0937,-10.25 h -0.0625 z m -33.4375,4.34375 -0.15625,6.28125 12.78125,0.0937 c 0,0 0.0444,-2.45412 0.0625,-4.8125 -0.45843,0.34182 -1.06301,0.72467 -1.875,1.09375 -1.27514,0.57961 -6.72697,-1.15932 -10.8125,-2.65625 z"
           id="path10986" />
        <path
           inkscape:connector-curvature="0"
           style="opacity:0.21634617;fill:#9fb157;fill-opacity:1;stroke:none"
           d="m 853.375,152.65625 c -5.37808,-0.0505 -11.14019,0.71048 -17.1875,2.5625 l -1.75,7.03125 1.375,-6.90625 c -1.68924,0.52929 -3.39683,1.16453 -5.125,1.875 -0.70955,2.84491 -1.45851,5.79281 -2.0625,8.1875 L 829.96875,157.5 c -1.86769,0.7936 -3.7509,1.69555 -5.65625,2.71875 -0.0634,5.98488 -0.125,11.72001 -0.125,12.5625 h 2.59375 0.59375 4.4375 0.53125 25.875 l 3.75,-19.34375 c -2.72556,-0.46162 -5.5991,-0.7531 -8.59375,-0.78125 z M 863,153.625 c -1.88475,8.90059 -3.97218,18.80527 -4.125,19.875 l 14.9375,-16.65625 C 870.57313,155.49068 866.9491,154.37117 863,153.625 Z m -40.5625,7.625 c -3.55363,2.04405 -7.17114,4.52893 -10.8125,7.46875 0.0676,1.96227 0.1306,3.80601 0.15625,4.0625 h 11.0625 z m -10.75,13.53125 -6,24.625 h 8.625 l -0.0312,0.0625 h 4.6875 l 4.53125,-0.0625 h 0.75 13.15625 l 20.8125,-24.625 h -25.5625 l -4.75,12.8125 3.9375,-12.8125 h -7.75 l -8.375,21.09375 7.03125,-21.09375 h -11.0625 z M 806.46875,201 c 5.93465,4.04061 14.62579,9.46241 17.65625,10.09375 3.03046,0.63135 11.24493,-8.33613 11.75,-9.09375 0.50508,-0.75761 -28.78125,-0.875 -28.78125,-0.875 z"
           id="path10988" />
        <path
           style="fill:#2f3820;fill-opacity:1;stroke:none"
           d="m 758.75,140.17317 c -0.0893,-0.98214 0.0893,-1.78571 0.0893,-1.78571 0,0 6.42857,0.17857 6.33929,-0.26786 -0.0893,-0.44643 -0.35715,-1.60714 -0.35715,-1.60714 l -7.94642,0.0893 11.25,-4.19643 v 3.39285 l 1.33928,0.26786 v -5.08928 l 19.82143,2.85714 -16.25,2.05357 0.71429,0.625 c 0,0 22.67857,-0.98214 22.41071,-0.98214 -0.26786,0 0.26786,-1.42857 0.26786,-1.42857 l 1.60714,-0.0893 0.53571,1.25 8.92858,3.57143 -0.35715,1.25 z"
           id="path10990"
           inkscape:connector-curvature="0" />
        <path
           style="fill:#2f3820;fill-opacity:1;stroke:none"
           d="m 789.28571,141.33389 c 2.5,1.16071 12.05358,3.125 14.55358,3.83928 2.5,0.71429 2.5,0 2.5,0 v -4.19642 z"
           id="path10992"
           inkscape:connector-curvature="0" />
        <path
           style="fill:#2f3820;fill-opacity:1;stroke:none"
           d="m 808.72754,143.03171 3.78808,-0.12627 25.75889,-7.82869 -0.18934,-18.68781 -3.03046,-0.31568 -0.0631,17.61454 -27.7792,0.75761 0.25254,3.03046 2.02031,0.25254 -0.12627,3.53553 -1.6415,0.25254 0.12627,1.76777 z"
           id="path10994"
           inkscape:connector-curvature="0"
           sodipodi:nodetypes="ccccccccccccc" />
        <path
           inkscape:connector-curvature="0"
           id="path10996"
           transform="matrix(0.33853393,0,0,0.33853393,880.44382,-31.996791)"
           d="m -165.46875,136.9375 c -0.30845,0.005 -0.59526,0.0355 -0.875,0.0937 -8.95172,1.86492 -34.68831,17.90814 -52.21875,29.84375 l 1.875,-0.375 c 0,0 5.25164,-0.0216 10.59375,-0.0625 7.40209,-3.80487 36.93956,-19.0222 40.9375,-21.6875 2.68572,-1.79048 16.5802,5.90543 27.5625,12.53125 -7.77076,-8.0539 -21.11415,-20.44281 -27.875,-20.34375 z m -54.8125,34.1875 11.59375,58.15625 c -1.19712,-22.8807 -2.9375,-54.75 -2.9375,-54.75 l 11.28125,-3.40625 z"
           style="fill:#6f812a;fill-opacity:1;stroke:none" />
      </g>
      <path
         style="opacity:0.80288463;fill:#ffffff;fill-opacity:0;stroke:none"
         d="m 735.39105,249.29091 c 0,-18.68782 -5.55584,-71.21576 -5.05076,-73.74114 0.50507,-2.52538 16.66752,-17.17259 22.72843,-21.71828 6.06092,-4.54568 23.23351,-10.6066 26.26397,-10.6066 3.03045,0 34.85026,25.25382 34.85026,25.25382 0,0 19.69797,-33.84011 12.12183,-38.89088 -7.57614,-5.05076 -56.06347,-18.18274 -74.24621,-12.6269 -18.18275,5.55583 -47.98225,27.27411 -50.00255,34.85026 -2.02031,7.57614 -5.55584,70.71068 -0.50508,75.76144 5.05076,5.05076 21.2132,22.22336 21.2132,22.22336 z"
         id="path10998"
         inkscape:connector-curvature="0" />
      <path
         style="opacity:0.80288463;fill:#4a5721;fill-opacity:1;stroke:none"
         d="m 537.17646,267.00504 c -0.71429,-3.21429 1.42857,-9.28572 2.5,-11.07143 1.07142,-1.78571 30.71428,-18.21429 34.28571,-18.57143 3.57143,-0.35714 17.85714,12.14286 17.85714,12.14286 z"
         id="path11000"
         inkscape:connector-curvature="0" />
      <path
         inkscape:connector-curvature="0"
         style="opacity:0.80288463;fill:#6f812a;fill-opacity:1;stroke:none"
         d="m 573.96217,237.375 c -3.57143,0.35714 -33.20983,16.77679 -34.28125,18.5625 -1.07143,1.78571 -3.21429,7.84821 -2.5,11.0625 l 0.21875,-0.0625 c 5.64868,-10.6628 37.67182,-24.57988 40.84375,-23.875 1.52879,0.33973 5.98548,1.97518 10.21875,3.59375 -4.44235,-3.66103 -12.02066,-9.52918 -14.5,-9.28125 z"
         id="path11002" />
    </g>
  </g>
</svg>
