<?xml version="1.0" encoding="utf-8"?>
<!-- Generator: Adobe Illustrator 21.0.0, SVG Export Plug-In . SVG Version: 6.00 Build 0)  -->
<svg version="1.1"
	 id="svg1767" inkscape:version="0.92.0 r15299" sodipodi:docname="AirStrike.svg" xmlns:cc="http://creativecommons.org/ns#" xmlns:dc="http://purl.org/dc/elements/1.1/" xmlns:inkscape="http://www.inkscape.org/namespaces/inkscape" xmlns:rdf="http://www.w3.org/1999/02/22-rdf-syntax-ns#" xmlns:sodipodi="http://sodipodi.sourceforge.net/DTD/sodipodi-0.dtd" xmlns:svg="http://www.w3.org/2000/svg"
	 xmlns="http://www.w3.org/2000/svg" xmlns:xlink="http://www.w3.org/1999/xlink" x="0px" y="0px" viewBox="0 0 756.6 456.5"
	 style="enable-background:new 0 0 756.6 456.5;" xml:space="preserve">
<style type="text/css">
	.st0{fill:#D40000;fill-opacity:0;}
	.st1{opacity:0.6504;fill:url(#path11606_2_);enable-background:new    ;}
	.st2{opacity:0.4027;fill:#FFFF00;enable-background:new    ;}
	.st3{fill:#FFFF00;}
	.st4{opacity:0.75;fill:#FF1200;enable-background:new    ;}
	.st5{opacity:0.2301;fill:#FFFFFF;enable-background:new    ;}
	.st6{opacity:0.2;fill:#FFFF00;enable-background:new    ;}
	.st7{fill:#15180C;}
	.st8{fill:#FFFFFF;fill-opacity:0;}
	.st9{fill:#4A5721;}
	.st10{fill:#73862C;}
	.st11{fill:#485027;}
	.st12{fill:#4E572B;}
	.st13{fill:#6F812A;}
	.st14{fill:#5F6B31;}
	.st15{fill:#829633;}
	.st16{fill:#8AA134;}
	.st17{fill:#47521E;}
	.st18{fill:#6A7737;}
	.st19{fill:#B1C957;}
	.st20{fill:#2F3820;}
	.st21{fill:#485125;}
	.st22{fill:#7E9233;}
	.st23{fill:#2B6E80;}
	.st24{fill:#6D7E2E;}
	.st25{fill:#333A1A;}
	.st26{fill:#495225;}
	.st27{fill:#859938;}
	.st28{opacity:0.726;fill:#8AA134;enable-background:new    ;}
	.st29{opacity:0.8029;fill:#8AA134;enable-background:new    ;}
	.st30{opacity:0.2434;enable-background:new    ;}
	.st31{opacity:0.2389;enable-background:new    ;}
	.st32{opacity:0.2345;enable-background:new    ;}
	.st33{opacity:0.1538;fill:#B1C3BF;enable-background:new    ;}
	.st34{opacity:0.1538;enable-background:new    ;}
	.st35{opacity:0.5721;fill:#A1BC3D;enable-background:new    ;}
	.st36{opacity:0.2168;fill:#FFFFFF;enable-background:new    ;}
	.st37{opacity:0.3982;fill:#0D1110;enable-background:new    ;}
	.st38{opacity:0.1947;fill:#A7BD4B;enable-background:new    ;}
	.st39{opacity:0.5531;fill:#8AA134;enable-background:new    ;}
	.st40{opacity:0.3474;fill:#D6DFDD;enable-background:new    ;}
	.st41{opacity:0.3474;enable-background:new    ;}
	.st42{opacity:0.7115;fill:#8AA134;enable-background:new    ;}
	.st43{opacity:0.774;fill:#8AA134;enable-background:new    ;}
	.st44{opacity:0.2743;enable-background:new    ;}
	.st45{opacity:0.2163;fill:#9FB157;enable-background:new    ;}
	.st46{opacity:0.8029;fill:#4A5721;enable-background:new    ;}
	.st47{opacity:0.8029;fill:#6F812A;enable-background:new    ;}
	.st48{opacity:0.6504;fill:url(#path11606_3_);enable-background:new    ;}
</style>
<sodipodi:namedview  bordercolor="#666666" borderopacity="1.0" id="base" inkscape:current-layer="layer1" inkscape:cx="-179.2663" inkscape:cy="247.5742" inkscape:document-units="mm" inkscape:pageopacity="0.0" inkscape:pageshadow="2" inkscape:window-height="1017" inkscape:window-maximized="1" inkscape:window-width="1920" inkscape:window-x="-8" inkscape:window-y="-8" inkscape:zoom="0.35" pagecolor="#ffffff" showgrid="false">
	</sodipodi:namedview>
<g>
	<g>
		
			<g id="g4763_1_" transform="translate(4658.8235,1119.249)" inkscape:export-filename="C:\Users\rober\Desktop\f-15\pngs\burner\jet_burner_frame_1.png" inkscape:export-xdpi="451.88556" inkscape:export-ydpi="451.88556">
			<g id="g11669_1_" transform="translate(-1125.291,-908.47022)">
				<rect id="rect11665_1_" x="-3533.5" y="10.3" class="st0" width="146" height="49.5"/>
				<g id="g11658_1_" transform="translate(1.4831651,-0.45867436)">
					
						<linearGradient id="path11606_2_" gradientUnits="userSpaceOnUse" x1="-6952.1187" y1="895.7851" x2="-7098.7358" y2="897.8932" gradientTransform="matrix(1 0 0 -1 3564.573 932.2047)">
						<stop  offset="0" style="stop-color:#FFFF00"/>
						<stop  offset="1" style="stop-color:#FFFF00;stop-opacity:0"/>
					</linearGradient>
					<path id="path11606_1_" inkscape:connector-curvature="0" class="st1" d="M-3452.9,11.3c-0.4,0-0.7,0-1.1,0
						c-16.4,0.9-79.9,8.8-80.6,22.6c-0.6,11.4,67.6,27.7,81.2,25.6c12.7-2,24.3-10.7,64.3-9.3V24.9c-0.1-0.2-0.2-0.6-0.2-0.6
						C-3422.8,23.6-3441.6,11.4-3452.9,11.3L-3452.9,11.3z"/>
					<path id="path11592_1_" inkscape:connector-curvature="0" class="st2" d="M-3389,24.4c-45,0.4-145.3,5.3-145.6,10
						c-0.5,6,122.9,14.9,145.6,15.7V24.4L-3389,24.4z"/>
					<path id="path11596_1_" inkscape:connector-curvature="0" sodipodi:nodetypes="cscc" class="st3" d="M-3389,24.9
						c-19.2,2.1-81,10.3-81.2,11.2c-0.5,2.9,67.5,11.9,81.2,13.7V24.9z"/>
					<path id="path11598_1_" inkscape:connector-curvature="0" sodipodi:nodetypes="cscc" class="st4" d="M-3389,31.8
						c-13.7,0.2-31.6,2.7-32.1,6c-0.3,2.4,27.3,5.6,32.1,5.1V31.8z"/>
					<path id="path11624_1_" inkscape:connector-curvature="0" class="st5" d="M-3389,27.2c-21.8,2.5-60.5,7.3-61.3,9.6
						c2.7,3.7,38.5,7.4,61.3,10.6v-0.3c-18-2.7-56.8-9.2-56.6-10.3c1.2-2,41.3-7,56.6-9.1V27.2z"/>
				</g>
			</g>
			<g id="g4618_1_">
				<g id="g4602_1_" transform="translate(1.5625e-5,-5.1562502e-6)">
					<rect id="rect11665-1_1_" x="-4658.8" y="-898.2" class="st0" width="146" height="49.5"/>
				</g>
				
					<path id="path4580_1_" sodipodi:cx="-2082.8572" sodipodi:cy="-333.35211" sodipodi:rx="3.9285715" sodipodi:ry="3.9285715" sodipodi:type="arc" class="st3" d="
					M-4531.4-883.2c0,2.4-2,4.4-4.4,4.4s-4.4-2-4.4-4.4c0-2.4,2-4.4,4.4-4.4C-4533.4-887.6-4531.4-885.6-4531.4-883.2z"/>
				
					<path id="path4616_1_" sodipodi:cx="-2082.8572" sodipodi:cy="-333.35211" sodipodi:rx="3.9285715" sodipodi:ry="3.9285715" sodipodi:type="arc" class="st6" d="
					M-4630.5-877.1c0,1.2-0.9,2.1-2.1,2.1c-1.2,0-2.1-0.9-2.1-2.1c0-1.2,0.9-2.1,2.1-2.1C-4631.4-879.2-4630.5-878.3-4630.5-877.1z"
					/>
			</g>
		</g>
		<g id="g4675_1_" transform="matrix(1,0,0,-1,4658.8235,488.38856)">
			<g id="g4677_1_" transform="translate(1.5625e-5,-5.1562502e-6)">
				<rect id="rect4679_1_" x="-4658.8" y="267.4" class="st0" width="146" height="-49.5"/>
			</g>
			
				<path id="path4689_1_" sodipodi:cx="-2082.8572" sodipodi:cy="-333.35211" sodipodi:rx="3.9285715" sodipodi:ry="3.9285715" sodipodi:type="arc" class="st3" d="
				M-4579.5,230.4c0,1.6-1.3,2.9-2.9,2.9c-1.6,0-2.9-1.3-2.9-2.9c0-1.6,1.3-2.9,2.9-2.9S-4579.5,228.8-4579.5,230.4z"/>
		</g>
	</g>
	<g>
		
			<path id="path10838" inkscape:connector-curvature="0" sodipodi:nodetypes="cscccccccccsccccccccccccssccscccsssccccccccccc" class="st7" d="
			M95.5,345.8c4,20.6,32,24.7,39.2,27.9s65.3-57.3,65.3-57.3l-1.5-5.2l16.3-12.2l30.5,6.8l2.8,53.1l-12.7,66l53.4,31.5l11.7-10.7
			l144.8-149.8c0,0,30.1-3.2,41.9-6.3c11.9-3.2,37.2-10.3,37.2-10.3s51.8,2,54.6-2.4c1.6-2.8,1-25.7,1-25.7
			c3.6-0.2,88.6-0.6,97.9-1.8c9.5-0.2,79.8-15,78.7-22.1c-0.2-6.6-67.3-21.2-78.9-21.6c-6.5,0-82.9-5.5-96.5-4.7
			c0,0,0.2-23.7-3.8-26.9c-2.4-2-15-1.6-15-1.6l-38.8-1.6l-80.7-18.2L319.5,26.1c0,0-19-19.8-30.9-25.3c-11.9-5.5-45.9,19-52.2,25.3
			C230,32.5,249,87.1,249,87.1l-2.2,57.2c0,0-21.1,6.7-27.1,7.6c-4.5,0.7-7.1,0-7.1,0l-11.1-11.7l4.4-9.4c0,0-52.6-44.7-65.4-51.7
			c-12.8-7-35.7,8.7-41.1,17.4s12.1,64.9,12.1,68.8s39.4,19.2,39.4,19.2l-4.5,4.7v26.1l4,5.5l2.2,5.3l-6.3,5.5l-0.8,31.6l4.7,4
			l-27.7,11.1l-11.1,2.4L95.5,345.8z"/>
		<path id="path10840" inkscape:connector-curvature="0" class="st8" d="M104,104.4c0.6-9.2,23.6-21,28.4-21
			c4.8,0,11.5,6.2,11.5,6.2L104,104.4z"/>
		<path id="path10842" inkscape:connector-curvature="0" class="st9" d="M141.1,95.4c11.9,16.9,36.9,38.7,38,39.3
			c1.1,0.6,17.1-1.7,17.1-1.7l-47.4-39.7L141.1,95.4z"/>
		<path id="path10844" inkscape:connector-curvature="0" class="st9" d="M181.7,137.5c4.3,4.7,17.4,20.4,17.4,20.4l10.1-3.2
			l-19.8-17.6L181.7,137.5z"/>
		<path id="path10846" inkscape:connector-curvature="0" class="st9" d="M106.1,107.3c4.5-2,31.9-10.2,31.9-10.2l57.3,62.5
			c0,0-67.7,2.2-70.9,2c-3.2-0.3-5.5-0.8-5.5-0.8L106.1,107.3z"/>
		<path id="path10848" inkscape:connector-curvature="0" class="st9" d="M123.6,165c3.4,0.2,11.1-1.8,11.3-0.4c0.2,1.4,0,3.8,0,3.8
			l-8.5-0.2L123.6,165z"/>
		<path id="path10850" inkscape:connector-curvature="0" class="st10" d="M139.5,164c-0.2,2.2,0.2,4,0.2,4s14.2-0.4,14,0.6
			c-0.2,1-0.8,3.6-0.8,3.6l-17.6-0.2l24.9,9.3v-7.5l3-0.6v11.3l43.9-6.3l-36-4.5l1.6-1.4c0,0,50.2,2.2,49.6,2.2
			c-0.6,0,0.6,3.2,0.6,3.2l3.6,0.2l1.2-2.8l19.8-7.9l-0.8-2.8L139.5,164z"/>
		<path id="path10852" inkscape:connector-curvature="0" class="st10" d="M207.1,161.4c5.5-2.6,26.7-6.9,32.2-8.5
			c5.5-1.6,5.5,0,5.5,0v9.3L207.1,161.4z"/>
		<path id="path10854" inkscape:connector-curvature="0" class="st11" d="M245.1,29.3c13.1-9,32.4-21,39.2-22.4
			c6.7-1.4,24.9,18.5,26,20.1c1.1,1.7-63.8,2-63.8,2L245.1,29.3z"/>
		
			<path id="path10856" inkscape:connector-curvature="0" sodipodi:nodetypes="cccccccccccccccccccccccccccsccccccccccccc" class="st12" d="
			M243.9,32.5l11.2,56.4h25.4l-16.8-56.4H243.9z M266.2,32.5l16.9,56.4h20.6l-25.3-56.4H266.2z M277.2,32.5
			c3.9,10.6,27.8,56.4,27.8,56.4l56.2,0.3l-51.6-56.7H277.2z M255.2,93.3c-0.3,2.8-0.3,60-0.3,60h24.4l1.4-60H255.2z M292,93.3
			l-10.7,0.1c0,4.5,0.5,62.9,0.5,62.9l-14.5,1.6l35.2,9.8l-2.2-24.6l-7.2-44.7c1.7,8.6,11.1,55.2,11.6,60.1
			c0.6,5.3,0.8,10.3,0.8,10.3l12,2.8l-6.6-49.3l10.6,50.7l24.3,0.3l27.7-11.2l-13-68.9H307H292z M360.7,93.8
			c0.6,3.9,16.5,66.4,16.5,66.4c12.9-5.3,43.6-3.7,43.6-3.7L360.7,93.8z"/>
		<path id="path10858" inkscape:connector-curvature="0" sodipodi:nodetypes="ccccc" class="st13" d="M311.9,32.2
			c4.2,5.3,112.8,122.9,112.8,122.9h11.9L317.2,32.2L311.9,32.2z"/>
		<path id="path10860" inkscape:connector-curvature="0" sodipodi:nodetypes="ccccccccccccc" class="st10" d="M250.2,157.7l8.4,0.3
			l57.1,17.3l-0.4,41.4l-6.7,0.7l-0.1-39l-61.5-1.7l0.6-6.7l4.5-0.6l-0.3-7.8l-3.6-0.6l0.3-3.9L250.2,157.7z"/>
		<path id="path10862" inkscape:connector-curvature="0" class="st14" d="M244.3,179l-24.9,0.2c0,3.2-0.2,36.6-0.2,36.6
			s12.7,1.1,13.4,1.5c2.1,1.2,2.9,5.1,2.9,5.1l8.9-1v-1.5l60.4-2.3v-1.5c13.4-0.8,41-4,40.5-16.3c-0.1-9.4-28.4-13-40.8-14.1
			l-0.1-3.8c0,0-10.3,0.9-20.3-0.1c-9.1-0.9-37.2-2.1-39.7-2.2L244.3,179L244.3,179z M215.6,182l-16.2,1.4c0,4.4-0.4,37-0.4,37
			l6.9-0.8c0,0,1.4-3.6,3-3.6s6.3-0.2,6.3-0.2L215.6,182L215.6,182z"/>
		<path id="path10864" inkscape:connector-curvature="0" sodipodi:nodetypes="cccscccccc" class="st14" d="M179.2,184.6
			c1.6-0.2,5.9-1,5.9-1l-0.8,36.4c0,0,0.6,1.8,2,1.8s19.2-0.4,19.2-0.4l-0.1,6.2l-49.7,0.3l-0.2-6.3L179,221L179.2,184.6z"/>
		<path id="path10866" inkscape:connector-curvature="0" class="st15" d="M154.2,189.1c-0.6,0-1.1,0.8-1.1,1.9s0.5,2,1.1,2H173
			c0.6,0,1.1-0.9,1.1-2s-0.5-1.9-1.1-1.9H154.2z M153.4,195.6c-0.6,0-1,1-1,2.3c0,1.3,0.5,2.3,1,2.3h20.4c0.6,0,1-1,1-2.3
			c0-1.3-0.5-2.3-1-2.3H153.4z M153,202.4c-0.6,0-1.1,1-1.1,2.2s0.5,2.1,1.1,2.1h21.1c0.6,0,1.1-0.9,1.1-2.1s-0.5-2.2-1.1-2.2H153z
			 M153.2,209.1c-0.6,0-1.1,0.9-1.1,2.1s0.5,2.1,1.1,2.1h20.7c0.6,0,1.1-0.9,1.1-2.1s-0.5-2.1-1.1-2.1H153.2z"/>
		<path id="path10868" inkscape:connector-curvature="0" sodipodi:nodetypes="ccccccsscc" class="st14" d="M316.5,175.2
			c0,0,112.8-1.6,117.9,2.7c7.5,1.6,2.9,33.8,2.9,33.8s0.6,11.2-0.8,11.7c-1.4,0.6-119.7,0.3-119.7,0.3l0.8-5.3
			c0,0,17.9,2.2,26.3-6.7c8.4-9,5.6-16.5,0-20.7c-5.6-4.2-26-8.7-26-8.7L316.5,175.2z"/>
		<path id="path10870" inkscape:connector-curvature="0" sodipodi:nodetypes="cccc" class="st16" d="M359.8,171.9
			c21-12.6,57.3-10.6,57.3-10.6l-0.6,10.6H359.8z"/>
		<path id="path10872" inkscape:connector-curvature="0" sodipodi:nodetypes="ccccc" class="st16" d="M421.4,161.3l0.4,10.6h91
			L444.3,161L421.4,161.3z"/>
		<path id="path10874" inkscape:connector-curvature="0" class="st17" d="M530.5,176.5v25.1h42.1c0,0,1-21.2,0.2-22.8
			c-0.8-1.6-18.8-1.6-21.4-1.8c-2.6-0.2-16-0.6-16-0.6H530.5L530.5,176.5z"/>
		<path id="path10876" inkscape:connector-curvature="0" class="st18" d="M462.6,177.4l3.4,2.3l15.4,0.6v17.4l-17.6,1l-0.4,3h31.2
			l0.4-24L462.6,177.4z"/>
		<path id="path10878" inkscape:connector-curvature="0" class="st18" d="M526.4,177.9l-28.3,0.1l0.6,23.6H526
			C527,202.2,526.4,177.9,526.4,177.9z M516.6,191.3l0.2,5.3l-12.3,0.6l-1.2-5.7L516.6,191.3z"/>
		<path id="path10880" inkscape:connector-curvature="0" class="st18" d="M462.5,178.1l-21.2,1l0.2,32.9l19.2,0.6l-0.2-16.2
			l-7.1,0.1l0.1-14.5l9-0.4V178.1z"/>
		<path id="path10882" inkscape:connector-curvature="0" class="st19" d="M104,345.2c0.6,9.2,23.6,21,28.4,21
			c4.8,0,11.5-6.2,11.5-6.2L104,345.2z"/>
		<path id="path10884" inkscape:connector-curvature="0" class="st15" d="M141.1,354.1c11.9-16.9,36.9-38.7,38-39.3
			c1.1-0.6,17.1,1.7,17.1,1.7l-47.4,39.7L141.1,354.1z"/>
		<path id="path10886" inkscape:connector-curvature="0" class="st15" d="M181.7,312.1c4.3-4.7,17.4-20.4,17.4-20.4l10.1,3.2
			l-19.8,17.6L181.7,312.1z"/>
		<path id="path10888" inkscape:connector-curvature="0" class="st15" d="M106.1,342.2c4.5,2,31.9,10.2,31.9,10.2l57.3-62.5
			c0,0-67.7-2.2-70.9-2c-3.2,0.3-5.5,0.8-5.5,0.8L106.1,342.2z"/>
		<path id="path10890" inkscape:connector-curvature="0" class="st20" d="M123.6,284.6c3.4-0.2,11.1,1.8,11.3,0.4
			c0.2-1.4,0-3.8,0-3.8l-8.5,0.2L123.6,284.6z"/>
		<path id="path10892" inkscape:connector-curvature="0" class="st20" d="M139.5,285.5c-0.2-2.2,0.2-4,0.2-4s14.2,0.4,14-0.6
			c-0.2-1-0.8-3.6-0.8-3.6l-17.6,0.2l24.9-9.3v7.5l3,0.6v-11.3l43.9,6.3l-36,4.5l1.6,1.4c0,0,50.2-2.2,49.6-2.2
			c-0.6,0,0.6-3.2,0.6-3.2l3.6-0.2l1.2,2.8l19.8,7.9l-0.8,2.8L139.5,285.5z"/>
		<path id="path10894" inkscape:connector-curvature="0" class="st20" d="M207.1,288.1c5.5,2.6,26.7,6.9,32.2,8.5
			c5.5,1.6,5.5,0,5.5,0v-9.3L207.1,288.1z"/>
		<path id="path10896" inkscape:connector-curvature="0" class="st14" d="M345.8,276.2l-24.3,0.3l-14.4,57.9l11.1-56.3l-11.3,2.2
			c0,0-0.1,5.3-0.6,10.7c-0.4,3.9-7.6,32.6-12.1,50.4l6-35l2.2-24.6l-35.2,9.8l17.9-0.6c0,0-0.7,62.3-0.7,66.7h5.7h1.3h9.8h1.2h57.3
			l13.7-70.4L345.8,276.2z M376.1,288.6c0,0-14.3,66.9-14.8,70.8l59.5-66.4C420.8,293,389,293.9,376.1,288.6z M254.9,294.4
			c0,0,1.7,60.6,2,63.4h24.5l-2.1-61.4L254.9,294.4z M256.7,362.2l-13.3,54.6h19.1l-0.1,0.1h10.4l10-0.1h1.7h29.1l46.1-54.6h-56.6
			l-10.5,28.4l8.7-28.4h-17.2L265.7,409l15.6-46.7H256.7L256.7,362.2z M245.2,420.3c13.1,9,32.4,21,39.1,22.4s24.9-18.5,26-20.1
			c1.1-1.7-63.8-1.9-63.8-1.9L245.2,420.3z"/>
		<path id="path10898" inkscape:connector-curvature="0" sodipodi:nodetypes="ccccc" class="st13" d="M311.9,417.3
			c4.2-5.3,112.8-122.9,112.8-122.9h11.9L317.2,417.3H311.9z"/>
		<path id="path10900" inkscape:connector-curvature="0" sodipodi:nodetypes="ccccccccccccc" class="st20" d="M250.2,291.9l8.4-0.3
			l57.1-17.3l-0.4-41.4l-6.7-0.7l-0.1,39l-61.5,1.7l0.6,6.7l4.5,0.6l-0.3,7.8l-3.6,0.6l0.3,3.9L250.2,291.9z"/>
		<path id="path10902" inkscape:connector-curvature="0" class="st14" d="M235.4,227.2c0,0-0.8,3.9-2.9,5.1
			c-0.7,0.4-13.4,1.5-13.4,1.5s0.2,33.5,0.2,36.6l24.9,0.1v-0.4c2.5-0.1,30.6-1.4,39.7-2.3c10-1,20.3-2.9,20.3-2.9v-2.4
			c14.9-2,41.1-6.4,40.8-12.7c0.3-11.9-25.6-14.5-40.5-15V232l-60.4-2.4v-1.5L235.4,227.2L235.4,227.2z M199,229.2
			c0,0,0.4,32.7,0.4,37l16.2,1.4l-0.4-33.9c0,0-4.7-0.2-6.3-0.2s-3-3.5-3-3.5L199,229.2L199,229.2z"/>
		<path id="path10904" inkscape:connector-curvature="0" sodipodi:nodetypes="cccscccccc" class="st21" d="M179.2,265
			c1.6,0.2,5.9,1,5.9,1l-0.8-36.4c0,0,0.6-1.8,2-1.8s19.2,0.4,19.2,0.4l-0.1-6.2l-49.7-0.3l-0.2,6.3l23.5,0.6L179.2,265z"/>
		<path id="path10906" inkscape:connector-curvature="0" class="st22" d="M153.2,236.3c-0.6,0-1.1,0.9-1.1,2.1s0.5,2.1,1.1,2.1h20.7
			c0.6,0,1.1-0.9,1.1-2.1s-0.5-2.1-1.1-2.1H153.2z M153,242.8c-0.6,0-1.1,1-1.1,2.2c0,1.2,0.5,2.1,1.1,2.1h21.1
			c0.6,0,1.1-0.9,1.1-2.1c0-1.2-0.5-2.2-1.1-2.2H153z M153.4,249.4c-0.6,0-1,1-1,2.3c0,1.3,0.5,2.2,1,2.2h20.4c0.6,0,1-1,1-2.2
			c0-1.3-0.5-2.3-1-2.3H153.4z M154.2,256.5c-0.6,0-1.1,0.8-1.1,1.9s0.5,2,1.1,2H173c0.6,0,1.1-0.9,1.1-2s-0.5-1.9-1.1-1.9H154.2z"
			/>
		<path id="path10908" inkscape:connector-curvature="0" sodipodi:nodetypes="ccccccsscc" class="st14" d="M316.5,274.4
			c0,0,111.6,0,118.7-2.3c4.4-4.7,2.1-34.2,2.1-34.2s0.6-12-0.8-12.6c-1.4-0.6-119.7,0.3-119.7,0.3l1.1,5.6c0,0,17.6-2.2,26,6.7
			s5.6,16.5,0,20.7c-5.6,4.2-26,8.7-26,8.7L316.5,274.4z"/>
		<path id="path10910" inkscape:connector-curvature="0" sodipodi:nodetypes="cccc" class="st20" d="M359.8,277.6
			c21,12.6,57.3,10.6,57.3,10.6l-0.6-10.6H359.8z"/>
		<path id="path10912" inkscape:connector-curvature="0" sodipodi:nodetypes="ccccc" class="st20" d="M421.4,288.2l0.4-10.6h91
			l-68.5,10.9L421.4,288.2z"/>
		<path id="path10914" inkscape:connector-curvature="0" class="st18" d="M460.7,237l-19.2,0.7l-0.2,34.8l28.2-0.5l-0.3-0.1h25.9
			l-0.4-23.9h-31.2l0.4,3l17.6,1v17.4l-15.4,0.6l-0.1,0.2l-4.1-2.2l-9.1-1l0.6-12.5l7.1-0.4L460.7,237L460.7,237z"/>
		<path id="path10916" inkscape:connector-curvature="0" sodipodi:nodetypes="ccccscc" class="st17" d="M530.5,270.9V248h42.1
			c0,0,1,21.2,0.2,22.7c-0.8,1.6-17.2,0.8-19.8,1s-17.6-0.8-17.6-0.8H530.5z"/>
		<path id="path10918" inkscape:connector-curvature="0" sodipodi:nodetypes="ccccccccccc" class="st18" d="M526.4,271.7l-28.3-0.2
			l0.6-23.6c0,0,23.5,0,27.3,0C526.9,247.4,526.4,271.7,526.4,271.7L526.4,271.7z M516.7,258.2l0.2-5.3l-12.3-0.6l-1.2,5.7
			L516.7,258.2z"/>
		<path id="path10920" inkscape:connector-curvature="0" class="st23" d="M523.5,212.1c-7.5,0-13.6,6-13.6,13.5
			c0,7.5,6.1,13.6,13.6,13.6h23.3c9-9.8,5.2-22.8,0.6-27.1H523.5z M560.5,212.1c4.7,4.6,5.6,20.1-1.2,27.1h36.7
			c9-9.8,5.1-22.8,0.6-27.1H560.5z M609.6,212.1c4.7,4.6,5.6,20.1-1.2,27.1h22c7.5,0,13.5-6.1,13.5-13.6c0-7.5-6-13.5-13.5-13.5
			H609.6z"/>
		<path id="path10922" inkscape:connector-curvature="0" class="st14" d="M550.6,212.1c4.5,4.3,8.5,17.2-0.6,27.1h5.8
			c6.9-6.9,6-22.5,1.3-27.1H550.6z M599.6,212.1c4.5,4.3,8.4,17.2-0.6,27.1h5.9c6.9-6.9,6-22.5,1.2-27.1H599.6z"/>
		<path id="path10924" inkscape:connector-curvature="0" sodipodi:nodetypes="csccscc" class="st16" d="M521,206.1
			c1.2-0.4,102.3,0.6,107.4,0.8c5.1,0.2,14.3,2.1,14.3,2.1l0.1,4c0,0-9.4-2.7-11.8-3.1c-2.4-0.4-111.2,0-111.2,0L521,206.1z"/>
		<path id="path10926" inkscape:connector-curvature="0" sodipodi:nodetypes="csccscc" class="st17" d="M517.5,241.9
			c0,0,115.9,0,119.1-0.8c3.2-0.8,6.1-3.7,6.1-3.7l0,3.1c0,0-3.6,2.2-7.2,4c-3.6,1.8-116.1,0.6-116.1,0.6L517.5,241.9z"/>
		<path id="path10928" inkscape:connector-curvature="0" class="st17" d="M642.1,242.7l0.2,2.6l35-0.4l-0.2-2.2H642.1z"/>
		<path id="path10930" inkscape:connector-curvature="0" class="st24" d="M642.7,237.4l-0.2,3.4l34.4-0.2l0.4-27.1l-35.4,0.4
			l0.8,3.4c0,0,4.2,2.8,4.7,6.9c0.6,4.2-1.8,11.5-3,12.5C643.3,237.6,642.7,237.4,642.7,237.4L642.7,237.4z"/>
		<path id="path10932" inkscape:connector-curvature="0" class="st16" d="M642.5,208.9l34.2,1.8l-0.2,2l-34,0.2L642.5,208.9z"/>
		<path id="path10934" inkscape:connector-curvature="0" class="st14" d="M442.5,214.2c0,0,18,0.8,17.4,0.6
			c-0.6-0.2-0.4,20.6-0.4,20.6l-17.4,1l-0.2-3l11.9-1.2l-1.4-2h-11.9v-12.5c0,0,14.8,0.2,14,0.2s-0.8-1.8-0.8-1.8l-11.7,0.2
			L442.5,214.2z"/>
		
			<path id="path10936" inkscape:connector-curvature="0" sodipodi:nodetypes="cccsccccccccccccsccssccccscsccccscccccccccccccccccccccccccc" class="st25" d="
			M498.7,203.4c-1.2,0.2-34.6,0.6-34.6,0.6l-0.6,3.5c0,0,35.4-1.6,37.4-0.4c1.9,1.2,7.8,4.1,8.1,4.3c-1.2,0-2.6,0.1-2.6,0.1
			l-10.5-2.8l-32.8,1.8v5.7l10.7,0.2c0.6,6.3,0.2,11.5,0,17.9l-10.7,0.2v5.7l32.8,1.8l10.5-2.8c0,0,1.4,0,2.6,0.1
			c-0.3,0.2-6.2,3.1-8.1,4.3c-2,1.2-37.4-0.4-37.4-0.4l0.6,3.5c0,0,33.4,0.4,34.6,0.6s3.8-2,4.8-2c1,0,14.8-0.8,14.8-0.8l-1.6-4.8
			l-2-0.1c0.9,0.1,2.6-1,2.6-1s-5.2-1.5-6.4-3.1c-1.1-1.5-2.6-9.6-2.7-10.2c0.1-0.5,1.5-8.7,2.7-10.2c1.2-1.6,6.4-3.1,6.4-3.1
			s-1.8-1.1-2.6-1l2-0.1l1.6-4.8c0,0-13.8-0.8-14.8-0.8C502.4,205.4,499.8,203.2,498.7,203.4L498.7,203.4z M509.4,213.3l-2,5.1
			l-0.2,6.9v0.2l0.2,6.9l2,5.1l-3.8-2.8l-7.9,0.4l0.2-5.1l5.1-0.4l0.6-3.7h0.2l-0.1-0.5l0.1-0.6h-0.2l-0.6-3.7l-5.1-0.4l-0.2-5.1
			l7.9,0.4L509.4,213.3z M493.3,216.4c-0.4,6.1-0.1,11.8,0,17.9l-10.7-0.1c-0.9-7-0.2-11,0-17.7L493.3,216.4z"/>
		<path id="path10938" inkscape:connector-curvature="0" sodipodi:nodetypes="cscc" class="st26" d="M680.3,211.5
			c0,0,66.4,10.7,66.7,16c0.2,5.6-62.9,15.2-66.7,16.6C681.6,243.6,682.5,214,680.3,211.5z"/>
		<path id="path10940" inkscape:connector-curvature="0" sodipodi:nodetypes="ccccc" class="st27" d="M251.6,224.9
			c3.1-0.8,60.1-4.2,60.1-4.2l16.6,3.7l-16.3,4.1L251.6,224.9z"/>
		<path id="path10942" inkscape:connector-curvature="0" class="st21" d="M210.5,221.8c-0.3,3.9,1.1,7,1.1,7s17.9-0.8,18.7-2.2
			s1.7-3.1-0.3-3.9C228.1,221.8,210.5,221.8,210.5,221.8L210.5,221.8z"/>
		<path id="path10944" inkscape:connector-curvature="0" class="st8" d="M148.8,93.3l-7.8,2.1c7,10,18.6,21.6,27.1,29.6l-15.3-21
			l9.1,4.8l25.5,17L148.8,93.3z M138,97.1c0,0-27.4,8.2-31.9,10.2l11.2,46.5c-1-18.1-2.4-42.6-2.4-42.6l24.1-9.1l35.1,34.5L138,97.1
			z"/>
		<path id="path10946" inkscape:connector-curvature="0" class="st19" d="M120,288.6c-0.5,0.1-1,0.2-1,0.2l-12.9,53.4
			c4.5,2,31.9,10.2,31.9,10.2l54.3-59.2l-52,44.4c0,0-15.7,1.1-19-3.4C118.2,330.2,119.4,309.3,120,288.6z"/>
		<path id="path10948" inkscape:connector-curvature="0" class="st28" d="M235.4,227.2c0,0-0.8,3.9-2.9,5.1
			c-0.7,0.4-13.4,1.5-13.4,1.5s0,6.9,0.1,11.6h124.6c-5.4-8.1-26.3-10.1-39.2-10.6V232l-60.4-2.4v-1.5L235.4,227.2L235.4,227.2z
			 M199,229.2c0,0,0.1,8.8,0.2,16.1h16.1l-0.1-11.6c0,0-4.7-0.2-6.3-0.2s-3-3.5-3-3.5L199,229.2L199,229.2z"/>
		<path id="path10950" inkscape:connector-curvature="0" class="st29" d="M244.3,179l-24.9,0.2c0,1.7-0.1,10.4-0.1,19.7h125.9
			c-1.7-8.8-28.8-12.1-40.7-13.2l-0.1-3.8c0,0-10.3,0.9-20.3-0.1c-9.1-0.9-37.2-2.1-39.7-2.2L244.3,179L244.3,179z M215.6,182
			l-16.2,1.4c0,1.8-0.1,8.2-0.2,15.5h16.2L215.6,182z"/>
		<path id="path10952" inkscape:connector-curvature="0" class="st30" d="M344.7,251.2l-125.4,5.2c0,6.5,0.1,12.7,0.1,13.9l24.9,0.1
			v-0.4c2.5-0.1,30.6-1.4,39.7-2.3c10-1,20.3-2.9,20.3-2.9v-2.4C318,260.6,341.1,256.8,344.7,251.2L344.7,251.2z M215.5,256.6
			l-16.1,0.6c0,3.5,0.1,7.9,0.1,9l16.2,1.4L215.5,256.6L215.5,256.6z"/>
		<path id="path10954" inkscape:connector-curvature="0" class="st31" d="M345.1,200.7l-125.9,7c0,2.6-0.1,8.1-0.1,8.1
			s12.7,1.1,13.4,1.5c2.1,1.2,2.9,5.1,2.9,5.1l8.9-1v-1.5l60.4-2.3v-1.5C317.7,215.3,344.3,212.3,345.1,200.7L345.1,200.7z
			 M215.3,207.9l-16.1,0.9c-0.1,4.5-0.1,11.6-0.1,11.6l6.9-0.8c0,0,1.4-3.6,3-3.6s6.3-0.2,6.3-0.2L215.3,207.9L215.3,207.9z"/>
		<path id="path10956" inkscape:connector-curvature="0" sodipodi:nodetypes="cccscccccsccccccccccccccccccc" class="st32" d="
			M345.8,276.2l-24.3,0.3l-5.3,24.4c11.8-3.1,22-4.1,28.9-3c5.8,0.9,15.1,2.6,25.5,4.6l2.9-15.1L345.8,276.2z M320.7,277.8
			l-13.7,2.6c0,0-0.1,5.3-0.6,10.7c-0.1,1.4-1.4,6.8-3,13.8c2.6-0.9,10.4-3.3,12.9-4.1L320.7,277.8z M302.5,281.8l-35.2,9.8
			l17.9-0.6c0,0-0.1,12.6-0.2,21.5c5.3-2.5,10.4-4.8,15.4-6.6L302.5,281.8z M376.1,288.6c0,0-1.5,9.8-2.2,14.5
			c10.6,2,21.9,4.1,32.6,5.9l14.3-16C420.8,293,389,293.9,376.1,288.6z M254.9,294.4c0,0,0.5,18.2,1,35.2c7.9-5.6,16-10.5,24-14.6
			l-0.6-18.6L254.9,294.4z"/>
		<ellipse id="path10958" class="st33" cx="308.7" cy="353.6" rx="2.3" ry="1.4"/>
		<circle id="path10960" class="st34" cx="310.1" cy="352.2" r="2.5"/>
		<path id="path10962" inkscape:connector-curvature="0" class="st35" d="M352.4,174.9c-18,0.1-30.8,0.2-33.7,0.3l111.7,9.2
			c0,0,3.4,32.9,2.3,33.8c-1,0.8-98.3,3.2-115.6,3.7l-0.3,1.9c0,0,118.3,0.3,119.7-0.3c1.4-0.6,0.8-11.8,0.8-11.8s4.6-32.1-2.9-33.7
			C431.2,175.2,385.9,174.8,352.4,174.9z M417.2,225.1c-33.9,0-100.5,0.4-100.5,0.4l0.6,3.1c38.3-2.9,112.8-1,115.5,1.2
			c2.8,2.2,3.3,37.8,1.9,38.9c-0.5,0.4-9.7,2.4-20.4,4.6c11-0.3,19-0.8,20.8-1.4c4.4-4.7,2.1-34.1,2.1-34.1s0.6-12-0.8-12.6
			C436.1,225.1,428.5,225.1,417.2,225.1z"/>
		<path id="path10964" inkscape:connector-curvature="0" class="st36" d="M153.2,236.3c-0.6,0-1.1,0.9-1.1,2.1s0.5,2.1,1.1,2.1h3.4
			c-0.3-1.6-0.7-3.1-1.2-4.2H153.2z M153,242.8c-0.6,0-1.1,1-1.1,2.2c0,1.2,0.5,2.1,1.1,2.1h4.3c-0.1-1.5-0.2-3-0.3-4.4H153z
			 M153.4,249.4c-0.6,0-1,1-1,2.3c0,1.3,0.5,2.2,1,2.2h3.9c0.1-1.5,0.2-3,0.1-4.5H153.4z M154.2,256.5c-0.6,0-1.1,0.8-1.1,1.9
			s0.5,2,1.1,2h2.1c0.3-1.1,0.6-2.5,0.8-3.9H154.2z"/>
		<path id="path10966" inkscape:connector-curvature="0" class="st36" d="M154.2,189.1c-0.6,0-1.1,0.8-1.1,1.9s0.5,2,1.1,2h2.8
			c-0.3-1.6-0.6-3-1-3.9H154.2z M153.4,195.6c-0.6,0-1,1-1,2.3c0,1.3,0.5,2.3,1,2.3h4c0-1.6,0-3.1-0.1-4.6H153.4L153.4,195.6z
			 M153,202.4c-0.6,0-1.1,1-1.1,2.2s0.5,2.1,1.1,2.1h3.7c0.3-1.4,0.4-2.9,0.6-4.4H153z M153.2,209.1c-0.6,0-1.1,0.9-1.1,2.1
			s0.5,2.1,1.1,2.1h1.6c0.6-1.3,1.1-2.7,1.5-4.2H153.2z"/>
		<path id="path10968" inkscape:connector-curvature="0" class="st37" d="M139.5,164c-0.2,2.2,0.2,3.9,0.2,3.9s14.3-0.4,14.1,0.6
			c-0.2,1-0.8,3.5-0.8,3.5l-17.6-0.2l24.9,9.3v-7.5l3-0.6v11.3l41.5-6l0.2-0.6l-33.8-4.3l1.6-1.4c0,0,18.7,0.8,33.4,1.5l2.8-9.4
			L139.5,164z"/>
		<path id="path10970" inkscape:connector-curvature="0" class="st38" d="M354.8,93.3c-18.2,5.6-39.1,11.2-59.6,15.6
			c3.2,15.8,9.1,45.6,9.6,49.7c0.6,5.3,0.8,10.3,0.8,10.3l12,2.8l-6.6-49.3l10.6,50.7l24.3,0.3l27.7-11.2l-12.9-68.3l-0.1-0.6H354.8
			z M360.7,93.8c0.6,3.9,16.5,66.4,16.5,66.4c12.9-5.3,43.6-3.7,43.6-3.7L360.7,93.8z M294.7,109c-4.5,0.9-8.9,1.8-13.3,2.6
			c0.1,18.7,0.3,44.8,0.3,44.8l-14.5,1.6l35.2,9.8l-2.2-24.6L294.7,109z M280.3,111.7c-8.8,1.6-17.3,2.8-25.3,3.5
			c-0.1,17.2-0.1,37.9-0.1,37.9h24.4L280.3,111.7L280.3,111.7z"/>
		<path id="path10972" inkscape:connector-curvature="0" class="st39" d="M680.2,211.5c1.1,1.2,1.5,8.8,1.4,16.3
			c11.4-0.5,43.5-0.6,65.1-0.6C743.7,221.7,680.2,211.5,680.2,211.5z"/>
		<path id="path10974" inkscape:connector-curvature="0" class="st40" d="M523.5,212.1c-6,0-11.1,3.9-12.9,9.3
			c6.6,0,21.1-0.1,41.3-0.1c-0.8-4-2.6-7.4-4.5-9.2L523.5,212.1L523.5,212.1z M560.5,212.1c1.8,1.8,3.1,5.3,3.5,9.2
			c16.8,0,22.3,0,37,0c-0.8-4-2.6-7.4-4.5-9.2H560.5z M609.5,212.1c1.8,1.8,3.1,5.3,3.5,9.3c10.7,0,29.1,0,30.1,0
			c-1.8-5.4-6.9-9.3-12.9-9.3H609.5z"/>
		<path id="path10976" inkscape:connector-curvature="0" class="st41" d="M640.8,234.2c-1.6,0-18.8,0-29.3,0.1
			c-0.8,1.9-1.8,3.5-3.2,4.8h22C634.5,239.1,638.3,237.2,640.8,234.2L640.8,234.2z M599.2,234.3c-14.7,0-20.1,0.1-36.8,0.1
			c-0.8,1.8-1.9,3.4-3.2,4.8h36.7C597.3,237.6,598.4,235.9,599.2,234.3L599.2,234.3z M513.2,234.3c2.5,2.9,6.2,4.8,10.3,4.8h23.3
			c1.4-1.5,2.5-3.1,3.3-4.8C535.6,234.4,521.9,234.4,513.2,234.3z"/>
		<path id="path10978" inkscape:connector-curvature="0" class="st42" d="M550.6,212.1c2.6,2.4,5,7.6,4.9,13.4h5.3
			c0.2-5.6-1.2-11-3.7-13.4H550.6z M599.6,212.1c2.6,2.4,4.9,7.6,4.8,13.4h5.4c0.2-5.6-1.3-11-3.7-13.4H599.6z"/>
		<path id="path10980" inkscape:connector-curvature="0" class="st41" d="M551.9,236.8c-0.6,0.8-1.2,1.6-1.9,2.4h5.8
			c0.7-0.7,1.3-1.5,1.8-2.4H551.9z M600.9,236.8c-0.6,0.8-1.2,1.6-1.9,2.4h5.9c0.7-0.7,1.3-1.5,1.8-2.4H600.9z"/>
		<path id="path10982" inkscape:connector-curvature="0" class="st41" d="M647.3,227.5c-0.4,3.9-2,8.3-2.9,9.1
			c-1.2,1-1.7,0.8-1.7,0.8l-0.2,3.3l34.4-0.1l0.2-12.9L647.3,227.5z"/>
		<path id="path10984" inkscape:connector-curvature="0" class="st43" d="M530.5,176.5v17.9l6.2-11.7l31.6,2.8l4.4,13.6
			c0.2-3.9,0.8-18.8,0.1-20.2c-0.8-1.6-18.8-1.6-21.4-1.8c-2.6-0.2-16-0.6-16-0.6H530.5z M462.6,177.4l3.4,2.3l15.4,0.6v15.5
			c0.2,0.8,0.4,1.3,0.4,0.9c0-1.4,2.2-12.6,2.2-12.6l6.4-1.7l3.9,18.8l0.2-0.3l0.4-23.1L462.6,177.4L462.6,177.4z M526.4,177.9
			l-28.3,0.1l0.4,16.3l5.5-9.4l17.7-0.9l4.8,12.5C526.6,189.6,526.4,177.9,526.4,177.9L526.4,177.9z M462.5,178.1l-21.2,1l0.2,32.9
			h0.3c2.2-9.4,4.6-24.8,7.3-26.4c0.6-0.3,2.3-0.6,4.4-0.8V182l9-0.4L462.5,178.1L462.5,178.1z"/>
		<path id="path10986" inkscape:connector-curvature="0" class="st44" d="M441.4,245l-0.1,27.5l28.2-0.5l-0.3-0.1h25.9l-0.3-15.6
			c-3.2-1.2-5.6-2.2-6.4-2.6c-2.1-1-4.7,2.1-6.9,5.1v10.7l-15.4,0.6l-0.1,0.2l-4.1-2.2l-3-0.3c-3.9,0.4-7.2,0.5-8.8-0.1
			C445.9,265.7,443.5,258.4,441.4,245L441.4,245z M572.5,248l-7,16.3l-28.9,1.2l-6.1-4.9v10.3h4.9c0,0,15,1,17.6,0.8
			c2.6-0.2,19,0.5,19.8-1c0.8-1.6-0.2-22.7-0.2-22.7H572.5L572.5,248z M498.4,257.6l-0.3,13.9l28.3,0.2c0,0,0.1-5.4,0.1-10.7
			c-1,0.8-2.4,1.6-4.2,2.4C519.6,264.8,507.5,260.9,498.4,257.6L498.4,257.6z"/>
		<path id="path10988" inkscape:connector-curvature="0" class="st45" d="M349.1,313.2c-11.9-0.1-24.7,1.6-38.1,5.7l-3.9,15.6
			l3-15.3c-3.7,1.2-7.5,2.6-11.4,4.2c-1.6,6.3-3.2,12.8-4.6,18.1l3-17.5c-4.1,1.8-8.3,3.8-12.5,6c-0.1,13.3-0.3,26-0.3,27.8h5.7h1.3
			h9.8h1.2h57.3l8.3-42.9C362.1,313.9,355.7,313.3,349.1,313.2z M370.4,315.3c-4.2,19.7-8.8,41.7-9.1,44l33.1-36.9
			C387.2,319.5,379.2,317,370.4,315.3z M280.5,332.2c-7.9,4.5-15.9,10-24,16.5c0.1,4.3,0.3,8.4,0.3,9h24.5L280.5,332.2z
			 M256.7,362.2l-13.3,54.6h19.1l-0.1,0.1h10.4l10-0.1h1.7h29.1l46.1-54.6h-56.6l-10.5,28.4l8.7-28.4h-17.2L265.7,409l15.6-46.7
			H256.7L256.7,362.2z M245.2,420.3c13.1,9,32.4,21,39.1,22.4s24.9-18.5,26-20.1c1.1-1.7-63.8-1.9-63.8-1.9L245.2,420.3z"/>
		<path id="path10990" inkscape:connector-curvature="0" class="st20" d="M139.5,285.5c-0.2-2.2,0.2-4,0.2-4s14.2,0.4,14-0.6
			c-0.2-1-0.8-3.6-0.8-3.6l-17.6,0.2l24.9-9.3v7.5l3,0.6v-11.3l43.9,6.3l-36,4.5l1.6,1.4c0,0,50.2-2.2,49.6-2.2
			c-0.6,0,0.6-3.2,0.6-3.2l3.6-0.2l1.2,2.8l19.8,7.9l-0.8,2.8L139.5,285.5z"/>
		<path id="path10992" inkscape:connector-curvature="0" class="st20" d="M207.1,288.1c5.5,2.6,26.7,6.9,32.2,8.5
			c5.5,1.6,5.5,0,5.5,0v-9.3L207.1,288.1z"/>
		<path id="path10996" inkscape:connector-curvature="0" class="st13" d="M285,6.8c-0.2,0-0.4,0-0.7,0.1c-6.7,1.4-26,13.4-39.2,22.4
			l1.4-0.3c0,0,3.9,0,7.9,0c5.6-2.9,27.7-14.3,30.7-16.3c2-1.3,12.4,4.4,20.7,9.4C300,16,290,6.7,285,6.8L285,6.8z M243.8,32.5
			l8.7,43.6c-0.9-17.2-2.2-41.1-2.2-41.1l8.5-2.6H243.8z"/>
		<path id="path11000" inkscape:connector-curvature="0" class="st46" d="M105.8,104.4c-0.5-2.4,1.1-7,1.9-8.3
			c0.8-1.3,23-13.7,25.7-13.9c2.7-0.3,13.4,9.1,13.4,9.1L105.8,104.4z"/>
		<path id="path11002" inkscape:connector-curvature="0" class="st47" d="M133.4,82.1c-2.7,0.3-24.9,12.6-25.7,13.9
			s-2.4,5.9-1.9,8.3l0.2,0c4.2-8,28.3-18.4,30.6-17.9c1.1,0.3,4.5,1.5,7.7,2.7C141,86.4,135.3,82,133.4,82.1z"/>
	</g>
	<g>
		
			<g id="g4763" transform="translate(4658.8235,1119.249)" inkscape:export-filename="C:\Users\rober\Desktop\f-15\pngs\burner\jet_burner_frame_1.png" inkscape:export-xdpi="451.88556" inkscape:export-ydpi="451.88556">
			<g id="g11669" transform="translate(-1125.291,-908.47022)">
				<rect id="rect11665" x="-3533.2" y="-35" class="st0" width="146" height="49.5"/>
				<g id="g11658" transform="translate(1.4831651,-0.45867436)">
					
						<linearGradient id="path11606_3_" gradientUnits="userSpaceOnUse" x1="-6951.7852" y1="940.9934" x2="-7098.4023" y2="943.1016" gradientTransform="matrix(1 0 0 -1 3564.573 932.2047)">
						<stop  offset="0" style="stop-color:#FFFF00"/>
						<stop  offset="1" style="stop-color:#FFFF00;stop-opacity:0"/>
					</linearGradient>
					<path id="path11606" inkscape:connector-curvature="0" class="st48" d="M-3452.6-33.9c-0.4,0-0.7,0-1.1,0
						c-16.4,0.9-79.9,8.8-80.6,22.6c-0.6,11.4,67.6,27.7,81.2,25.6c12.7-2,24.3-10.7,64.3-9.3v-25.3c-0.1-0.2-0.2-0.6-0.2-0.6
						C-3422.4-21.6-3441.2-33.8-3452.6-33.9L-3452.6-33.9z"/>
					<path id="path11592" inkscape:connector-curvature="0" class="st2" d="M-3388.7-20.8c-45,0.4-145.3,5.3-145.6,10
						c-0.5,6,122.9,14.9,145.6,15.7L-3388.7-20.8L-3388.7-20.8z"/>
					<path id="path11596" inkscape:connector-curvature="0" sodipodi:nodetypes="cscc" class="st3" d="M-3388.7-20.3
						c-19.2,2.1-81,10.3-81.2,11.2c-0.5,2.9,67.5,11.9,81.2,13.7V-20.3z"/>
					<path id="path11598" inkscape:connector-curvature="0" sodipodi:nodetypes="cscc" class="st4" d="M-3388.7-13.4
						c-13.7,0.2-31.6,2.7-32.1,6c-0.3,2.4,27.3,5.6,32.1,5.1V-13.4z"/>
					<path id="path11624" inkscape:connector-curvature="0" class="st5" d="M-3388.7-18c-21.8,2.5-60.5,7.3-61.3,9.6
						c2.7,3.7,38.5,7.4,61.3,10.6V2c-18-2.7-56.8-9.2-56.6-10.3c1.2-2,41.3-7,56.6-9.1V-18z"/>
				</g>
			</g>
			<g id="g4618">
				<g id="g4602" transform="translate(1.5625e-5,-5.1562502e-6)">
					<rect id="rect11665-1" x="-4658.5" y="-943.4" class="st0" width="146" height="49.5"/>
				</g>
				
					<path id="path4580" sodipodi:cx="-2082.8572" sodipodi:cy="-333.35211" sodipodi:rx="3.9285715" sodipodi:ry="3.9285715" sodipodi:type="arc" class="st3" d="
					M-4531.1-928.4c0,2.4-2,4.4-4.4,4.4c-2.4,0-4.4-2-4.4-4.4c0-2.4,2-4.4,4.4-4.4C-4533-932.8-4531.1-930.8-4531.1-928.4z"/>
				
					<path id="path4616" sodipodi:cx="-2082.8572" sodipodi:cy="-333.35211" sodipodi:rx="3.9285715" sodipodi:ry="3.9285715" sodipodi:type="arc" class="st6" d="
					M-4630.2-922.3c0,1.2-0.9,2.1-2.1,2.1s-2.1-0.9-2.1-2.1c0-1.2,0.9-2.1,2.1-2.1S-4630.2-923.5-4630.2-922.3z"/>
			</g>
		</g>
		<g id="g4675" transform="matrix(1,0,0,-1,4658.8235,488.38856)">
			<g id="g4677" transform="translate(1.5625e-5,-5.1562502e-6)">
				<rect id="rect4679" x="-4658.5" y="312.6" class="st0" width="146" height="-49.5"/>
			</g>
			
				<path id="path4689" sodipodi:cx="-2082.8572" sodipodi:cy="-333.35211" sodipodi:rx="3.9285715" sodipodi:ry="3.9285715" sodipodi:type="arc" class="st3" d="
				M-4579.2,275.7c0,1.6-1.3,2.9-2.9,2.9s-2.9-1.3-2.9-2.9c0-1.6,1.3-2.9,2.9-2.9S-4579.2,274-4579.2,275.7z"/>
		</g>
	</g>
</g>
</svg>
