<?xml version="1.0" encoding="UTF-8" standalone="no"?>
<svg
   xmlns:dc="http://purl.org/dc/elements/1.1/"
   xmlns:cc="http://creativecommons.org/ns#"
   xmlns:rdf="http://www.w3.org/1999/02/22-rdf-syntax-ns#"
   xmlns:svg="http://www.w3.org/2000/svg"
   xmlns="http://www.w3.org/2000/svg"
   xmlns:sodipodi="http://sodipodi.sourceforge.net/DTD/sodipodi-0.dtd"
   xmlns:inkscape="http://www.inkscape.org/namespaces/inkscape"
   height="24"
   version="1.1"
   width="24"
   id="svg32"
   sodipodi:docname="map_icon.svg"
   inkscape:export-filename="C:\Users\Eric\Documents\GitHub\FoxholeDefense\files\assets\level_select\hi\map_icon.png"
   inkscape:export-xdpi="921.59998"
   inkscape:export-ydpi="921.59998"
   inkscape:version="0.92.0 r15299">
  <metadata
     id="metadata38">
    <rdf:RDF>
      <cc:Work
         rdf:about="">
        <dc:format>image/svg+xml</dc:format>
        <dc:type
           rdf:resource="http://purl.org/dc/dcmitype/StillImage" />
      </cc:Work>
    </rdf:RDF>
  </metadata>
  <defs
     id="defs36" />
  <sodipodi:namedview
     pagecolor="#ffffff"
     bordercolor="#666666"
     borderopacity="1"
     objecttolerance="10"
     gridtolerance="10"
     guidetolerance="10"
     inkscape:pageopacity="0"
     inkscape:pageshadow="2"
     inkscape:window-width="1920"
     inkscape:window-height="1017"
     id="namedview34"
     showgrid="false"
     inkscape:zoom="9.8333333"
     inkscape:cx="12"
     inkscape:cy="12"
     inkscape:window-x="-8"
     inkscape:window-y="-8"
     inkscape:window-maximized="1"
     inkscape:current-layer="svg32" />
  <g
     transform="translate(0 -1028.4)"
     id="g30">
    <path
       d="m8 1030.4 8 1v19l-8-1z"
       fill="#ecf0f1"
       id="path2" />
    <path
       d="m2 1031.4 6-1v19l-6 1z"
       fill="#bdc3c7"
       id="path4" />
    <path
       d="m16 1031.4 6-1v19l-6 1z"
       fill="#bdc3c7"
       id="path6" />
    <path
       d="m3 1032.4 5-1v17l-5 1z"
       fill="#27ae60"
       id="path8" />
    <path
       d="m8 1031.4 8 1v17l-8-1z"
       fill="#2ecc71"
       id="path10" />
    <path
       d="m21 1048.4-5 1v-17l5-1z"
       fill="#27ae60"
       id="path12" />
    <path
       d="m5.6875 1031.8-2.3125 0.5 4.625 4.9v-2.9l-2.3125-2.5z"
       fill="#f39c12"
       id="path14" />
    <path
       d="m21 1046.4-5 1v-6l5-3z"
       fill="#f39c12"
       id="path16" />
    <path
       d="m21 1048.4-5 1v-6l5-3z"
       fill="#2980b9"
       id="path18" />
    <path
       d="m8 1042.4 8-1v6l-8-1z"
       fill="#f1c40f"
       id="path20" />
    <path
       d="m8 1044.4 8-1v6l-8-1z"
       fill="#3498db"
       id="path22" />
    <path
       d="m3 1045.4 5-3v4l-5 1z"
       fill="#f39c12"
       id="path24" />
    <path
       d="m3 1047.4 5-3v4l-5 1z"
       fill="#2980b9"
       id="path26" />
    <path
       d="m8 8.8008v-2.8985l4 8.6597h-1.469z"
       fill="#f1c40f"
       transform="translate(0 1028.4)"
       id="path28" />
  </g>
</svg>
