<?xml version="1.0" encoding="utf-8"?>
<!-- Generator: Adobe Illustrator 21.0.0, SVG Export Plug-In . SVG Version: 6.00 Build 0)  -->
<svg version="1.1" id="Layer_1" xmlns="http://www.w3.org/2000/svg" xmlns:xlink="http://www.w3.org/1999/xlink" x="0px" y="0px"
	 viewBox="0 0 1366 768" style="enable-background:new 0 0 1366 768;" xml:space="preserve">
<style type="text/css">
	.st0{fill:#8DC435;}
	.st1{fill:url(#SVGID_1_);}
	.st2{fill:url(#SVGID_2_);}
	.st3{fill:url(#SVGID_3_);}
	.st4{fill:url(#SVGID_4_);}
	.st5{fill:url(#SVGID_5_);}
	.st6{fill:url(#SVGID_6_);}
	.st7{fill:url(#SVGID_7_);}
	.st8{fill:url(#SVGID_8_);}
	.st9{fill:#B2A17D;}
	.st10{fill:url(#SVGID_9_);}
	.st11{fill:url(#SVGID_10_);}
	.st12{fill:url(#SVGID_11_);}
	.st13{fill:url(#SVGID_12_);}
	.st14{fill:url(#SVGID_13_);}
	.st15{fill:url(#SVGID_14_);}
	.st16{fill:url(#SVGID_15_);}
	.st17{fill:url(#SVGID_16_);}
	.st18{fill:url(#SVGID_17_);}
	.st19{fill:url(#SVGID_18_);}
	.st20{fill:url(#SVGID_19_);}
	.st21{fill:url(#SVGID_20_);}
	.st22{fill:url(#SVGID_21_);}
	.st23{fill:url(#SVGID_22_);}
	.st24{fill:url(#SVGID_23_);}
	.st25{fill:url(#SVGID_24_);}
	.st26{fill:url(#SVGID_25_);}
	.st27{fill:url(#SVGID_26_);}
	.st28{fill:url(#SVGID_27_);}
	.st29{fill:url(#SVGID_28_);}
	.st30{fill:url(#SVGID_29_);}
	.st31{fill:url(#SVGID_30_);}
	.st32{fill:url(#SVGID_31_);}
	.st33{fill:url(#SVGID_32_);}
	.st34{fill:url(#SVGID_33_);}
	.st35{fill:url(#SVGID_34_);}
	.st36{fill:url(#SVGID_35_);}
	.st37{fill:url(#SVGID_36_);}
	.st38{fill:url(#SVGID_37_);}
	.st39{fill:url(#SVGID_38_);}
	.st40{fill:url(#SVGID_39_);}
	.st41{fill:url(#SVGID_40_);}
	.st42{fill:url(#SVGID_41_);}
	.st43{fill:url(#SVGID_42_);}
	.st44{fill:url(#SVGID_43_);}
	.st45{fill:url(#SVGID_44_);}
	.st46{fill:url(#SVGID_45_);}
	.st47{fill:url(#SVGID_46_);}
	.st48{fill:url(#SVGID_47_);}
	.st49{fill:url(#SVGID_48_);}
	.st50{fill:url(#SVGID_49_);}
	.st51{fill:url(#SVGID_50_);}
	.st52{fill:url(#SVGID_51_);}
	.st53{fill:url(#SVGID_52_);}
	.st54{fill:url(#SVGID_53_);}
	.st55{fill:url(#SVGID_54_);}
	.st56{fill:url(#SVGID_55_);}
	.st57{fill:url(#SVGID_56_);}
	.st58{fill:url(#SVGID_57_);}
	.st59{fill:url(#SVGID_58_);}
	.st60{fill:url(#SVGID_59_);}
	.st61{fill:url(#SVGID_60_);}
	.st62{fill:url(#SVGID_61_);}
	.st63{fill:url(#SVGID_62_);}
	.st64{fill:url(#SVGID_63_);}
	.st65{fill:url(#SVGID_64_);}
	.st66{fill:url(#SVGID_65_);}
	.st67{fill:url(#SVGID_66_);}
	.st68{fill:url(#SVGID_67_);}
	.st69{fill:url(#SVGID_68_);}
	.st70{fill:url(#SVGID_69_);}
	.st71{fill:url(#SVGID_70_);}
	.st72{fill:url(#SVGID_71_);}
	.st73{fill:url(#SVGID_72_);}
	.st74{fill:url(#SVGID_73_);}
	.st75{fill:url(#SVGID_74_);}
	.st76{fill:url(#SVGID_75_);}
	.st77{fill:url(#SVGID_76_);}
	.st78{fill:url(#SVGID_77_);}
	.st79{fill:url(#SVGID_78_);}
	.st80{fill:url(#SVGID_79_);}
	.st81{fill:url(#SVGID_80_);}
	.st82{fill:url(#SVGID_81_);}
	.st83{fill:url(#SVGID_82_);}
	.st84{fill:url(#SVGID_83_);}
	.st85{fill:url(#SVGID_84_);}
	.st86{fill:url(#SVGID_85_);}
	.st87{fill:url(#SVGID_86_);}
	.st88{fill:url(#SVGID_87_);}
	.st89{fill:url(#SVGID_88_);}
	.st90{fill:url(#SVGID_89_);}
</style>
<g>
	<path class="st0" d="M128,64v64H64V64H128"/>
	
		<linearGradient id="SVGID_1_" gradientUnits="userSpaceOnUse" x1="-819.2" y1="73.425" x2="819.2" y2="73.425" gradientTransform="matrix(0 -6.286621e-03 -6.317139e-03 0 94.2516 73.4)">
		<stop  offset="0" style="stop-color:#8DC435"/>
		<stop  offset="1" style="stop-color:#81B829"/>
	</linearGradient>
	<path class="st1" d="M86.3,68.3l3.8,4l3.1-3.2l-0.8,6l3.3-0.8l-2.5,4.3h-8.8l-1.1-2.8l3,0.8V68.3"/>
	
		<linearGradient id="SVGID_2_" gradientUnits="userSpaceOnUse" x1="-819.2" y1="74.275" x2="819.2" y2="74.275" gradientTransform="matrix(0 -7.308960e-03 -6.622314e-03 0 100.6359 74.2)">
		<stop  offset="0" style="stop-color:#8DC435"/>
		<stop  offset="1" style="stop-color:#82B92A"/>
	</linearGradient>
	<path class="st2" d="M113.4,78.6l2.3-1l-0.7,2.1h-13.1l-1.8-3.6l3.4,0.8l-1.6-8.1l4.8,6l3.3-2.5l0.5,4.1l3.5-2.1L113.4,78.6"/>
	
		<linearGradient id="SVGID_3_" gradientUnits="userSpaceOnUse" x1="-819.2" y1="85.075" x2="819.2" y2="85.075" gradientTransform="matrix(0 -6.286621e-03 -6.317139e-03 0 125.7516 85.05)">
		<stop  offset="0" style="stop-color:#8DC435"/>
		<stop  offset="1" style="stop-color:#81B829"/>
	</linearGradient>
	<path class="st3" d="M123.8,86.8l3.3-0.8l-2.5,4.3h-8.8l-1.1-2.8l3,0.8v-8.3l3.8,4l3.1-3.2L123.8,86.8"/>
	
		<linearGradient id="SVGID_4_" gradientUnits="userSpaceOnUse" x1="-819.2" y1="104.675" x2="819.2" y2="104.675" gradientTransform="matrix(0 -7.308960e-03 -6.622314e-03 0 112.3859 104.6)">
		<stop  offset="0" style="stop-color:#8DC435"/>
		<stop  offset="1" style="stop-color:#82B92A"/>
	</linearGradient>
	<path class="st4" d="M115.3,107.3l-1.6-8.1l4.8,6l3.3-2.5l0.5,4.1l3.5-2.1l-0.5,4.3l2.3-1l-0.7,2.1h-13.1l-1.8-3.6L115.3,107.3"/>
	
		<linearGradient id="SVGID_5_" gradientUnits="userSpaceOnUse" x1="-819.2" y1="120.025" x2="819.2" y2="120.025" gradientTransform="matrix(0 -7.308960e-03 -6.622314e-03 0 99.3859 119.95)">
		<stop  offset="0" style="stop-color:#8DC435"/>
		<stop  offset="1" style="stop-color:#82B92A"/>
	</linearGradient>
	<path class="st5" d="M114.4,123.3l-0.7,2.1h-13.1l-1.8-3.6l3.4,0.8l-1.6-8.1l4.8,6l3.3-2.5l0.5,4.1l3.5-2.1l-0.5,4.3L114.4,123.3"
		/>
	
		<linearGradient id="SVGID_6_" gradientUnits="userSpaceOnUse" x1="-819.2" y1="100.175" x2="819.2" y2="100.175" gradientTransform="matrix(0 -6.286621e-03 -6.317139e-03 0 94.9016 100.15)">
		<stop  offset="0" style="stop-color:#8DC435"/>
		<stop  offset="1" style="stop-color:#81B829"/>
	</linearGradient>
	<path class="st6" d="M93.8,95.8l-0.8,6l3.3-0.8l-2.5,4.3h-8.8l-1-2.8l3,0.8V95l3.8,4L93.8,95.8"/>
	
		<linearGradient id="SVGID_7_" gradientUnits="userSpaceOnUse" x1="-819.2" y1="83.275" x2="819.2" y2="83.275" gradientTransform="matrix(0 -7.308960e-03 -6.622314e-03 0 64.8859 83.2)">
		<stop  offset="0" style="stop-color:#8DC435"/>
		<stop  offset="1" style="stop-color:#82B92A"/>
	</linearGradient>
	<path class="st7" d="M74.7,85.4l3.5-2.1l-0.5,4.3l2.3-1l-0.7,2.1H66.2l-1.8-3.6l3.4,0.8l-1.6-8.1l4.8,6l3.3-2.5L74.7,85.4"/>
	
		<linearGradient id="SVGID_8_" gradientUnits="userSpaceOnUse" x1="-819.2" y1="113.325" x2="819.2" y2="113.325" gradientTransform="matrix(0 -6.286621e-03 -6.317139e-03 0 77.4016 113.3)">
		<stop  offset="0" style="stop-color:#8DC435"/>
		<stop  offset="1" style="stop-color:#81B829"/>
	</linearGradient>
	<path class="st8" d="M78.8,114.3l-2.5,4.3h-8.8l-1-2.8l3,0.8v-8.3l3.8,4l3.1-3.2l-0.8,6L78.8,114.3"/>
</g>
<g>
	<path class="st9" d="M9.3,64H5.6c-2.1-4.3-3.4-8.5-4-12.6c-0.3-2.2-0.3-4.5-0.1-6.7c0.2-1.5,0.4-3,0.8-4.5l0.2-0.7
		C3.2,37,4.2,34.5,5.6,32l1.3-2.9l0.3-0.6c1.6-3.4,3.3-6.5,5.1-9.3C16.4,12.7,21.6,8.9,28,7.8c2.4-0.4,5.5-0.4,9.2,0
		c9.4,3.3,18.4,2.6,26.8-2.2v3.7c-8.2,3.5-17,4.1-26.2,1.8c-13-2.3-22.3,4.4-28.1,20l-0.1,0.4L9.3,32c-1,2.5-1.8,5-2.3,7.5l-0.2,0.7
		l-0.6,4.5C6,47,6,49.2,6.3,51.4C6.7,55.5,7.7,59.7,9.3,64"/>
	<path class="st0" d="M9.3,64c-1.6-4.3-2.6-8.5-3-12.6C6,49.2,6,47,6.2,44.8l0.6-4.5l0.2-0.7C7.4,37,8.2,34.5,9.3,32l0.3-0.6L9.6,31
		c5.8-15.6,15.2-22.3,28.1-20c9.2,2.3,18,1.7,26.2-1.8V64H9.3"/>
	
		<linearGradient id="SVGID_9_" gradientUnits="userSpaceOnUse" x1="-819.2" y1="21.075" x2="819.2" y2="21.075" gradientTransform="matrix(0 -6.286621e-03 -6.317139e-03 0 61.7516 21.05)">
		<stop  offset="0" style="stop-color:#8DC435"/>
		<stop  offset="1" style="stop-color:#81B829"/>
	</linearGradient>
	<path class="st10" d="M59.8,22.8l3.3-0.8l-2.5,4.3h-8.8l-1-2.9l3,0.8v-8.3l3.8,4l3.1-3.1L59.8,22.8"/>
	
		<linearGradient id="SVGID_10_" gradientUnits="userSpaceOnUse" x1="-819.2" y1="36.175" x2="819.2" y2="36.175" gradientTransform="matrix(0 -6.286621e-03 -6.317139e-03 0 30.9016 36.15)">
		<stop  offset="0" style="stop-color:#8DC435"/>
		<stop  offset="1" style="stop-color:#81B829"/>
	</linearGradient>
	<path class="st11" d="M22.9,39.3V31l3.8,4l3.1-3.1l-0.8,6l3.3-0.8l-2.5,4.3H21l-1.1-2.8L22.9,39.3"/>
	
		<linearGradient id="SVGID_11_" gradientUnits="userSpaceOnUse" x1="-819.2" y1="40.675" x2="819.2" y2="40.675" gradientTransform="matrix(0 -7.308960e-03 -6.622314e-03 0 48.3859 40.6)">
		<stop  offset="0" style="stop-color:#8DC435"/>
		<stop  offset="1" style="stop-color:#82B92A"/>
	</linearGradient>
	<path class="st12" d="M61.2,45l2.3-1l-0.7,2.1h-13L48,42.5l3.3,0.8l-1.6-8.1l4.8,6l3.3-2.5l0.5,4.1l3.5-2.1L61.2,45"/>
	
		<linearGradient id="SVGID_12_" gradientUnits="userSpaceOnUse" x1="-819.2" y1="56.025" x2="819.2" y2="56.025" gradientTransform="matrix(0 -7.308960e-03 -6.622314e-03 0 35.3859 55.95)">
		<stop  offset="0" style="stop-color:#8DC435"/>
		<stop  offset="1" style="stop-color:#82B92A"/>
	</linearGradient>
	<path class="st13" d="M35,57.8l3.3,0.9l-1.6-8.1l4.8,6l3.3-2.5l0.5,4.1l3.5-2.1l-0.5,4.3l2.3-1l-0.7,2.1h-13L35,57.8"/>
</g>
<g>
	
		<linearGradient id="SVGID_13_" gradientUnits="userSpaceOnUse" x1="-819.2" y1="21.075" x2="819.2" y2="21.075" gradientTransform="matrix(0 -6.286621e-03 -6.317139e-03 0 125.7516 21.05)">
		<stop  offset="0" style="stop-color:#8DC435"/>
		<stop  offset="1" style="stop-color:#81B829"/>
	</linearGradient>
	<path class="st14" d="M121.5,19.9l3.1-3.1l-0.8,6l3.3-0.8l-2.5,4.3h-8.8l-1.1-2.9l3,0.8v-8.3L121.5,19.9"/>
	
		<linearGradient id="SVGID_14_" gradientUnits="userSpaceOnUse" x1="-819.2" y1="19.275" x2="819.2" y2="19.275" gradientTransform="matrix(0 -7.308960e-03 -6.622314e-03 0 64.8859 19.2)">
		<stop  offset="0" style="stop-color:#8DC435"/>
		<stop  offset="1" style="stop-color:#82B92A"/>
	</linearGradient>
	<path class="st15" d="M74.7,21.5l3.5-2.1l-0.5,4.3l2.3-1l-0.7,2.1H66.2l-1.8-3.6l3.4,0.9l-1.6-8.1l4.8,6l3.3-2.5L74.7,21.5"/>
	
		<linearGradient id="SVGID_15_" gradientUnits="userSpaceOnUse" x1="-819.2" y1="36.175" x2="819.2" y2="36.175" gradientTransform="matrix(0 -6.286621e-03 -6.317139e-03 0 94.9016 36.15)">
		<stop  offset="0" style="stop-color:#8DC435"/>
		<stop  offset="1" style="stop-color:#81B829"/>
	</linearGradient>
	<path class="st16" d="M86.9,31l3.8,4l3.1-3.1l-0.8,6l3.3-0.8l-2.5,4.3h-8.8l-1-2.8l3,0.8V31"/>
	
		<linearGradient id="SVGID_16_" gradientUnits="userSpaceOnUse" x1="-819.2" y1="56.025" x2="819.2" y2="56.025" gradientTransform="matrix(0 -7.308960e-03 -6.622314e-03 0 99.3859 55.95)">
		<stop  offset="0" style="stop-color:#8DC435"/>
		<stop  offset="1" style="stop-color:#82B92A"/>
	</linearGradient>
	<path class="st17" d="M98.9,57.8l3.4,0.9l-1.6-8.1l4.8,6l3.3-2.5l0.5,4.1l3.5-2.1l-0.5,4.3l2.3-1l-0.7,2.1h-13.1L98.9,57.8"/>
	
		<linearGradient id="SVGID_17_" gradientUnits="userSpaceOnUse" x1="-819.2" y1="49.325" x2="819.2" y2="49.325" gradientTransform="matrix(0 -6.286621e-03 -6.317139e-03 0 77.4016 49.3)">
		<stop  offset="0" style="stop-color:#8DC435"/>
		<stop  offset="1" style="stop-color:#81B829"/>
	</linearGradient>
	<path class="st18" d="M76.3,45l-0.8,6l3.3-0.8l-2.5,4.3h-8.8l-1-2.8l3,0.8v-8.3l3.8,4L76.3,45"/>
	
		<linearGradient id="SVGID_18_" gradientUnits="userSpaceOnUse" x1="-819.2" y1="40.675" x2="819.2" y2="40.675" gradientTransform="matrix(0 -7.308960e-03 -6.622314e-03 0 112.3859 40.6)">
		<stop  offset="0" style="stop-color:#8DC435"/>
		<stop  offset="1" style="stop-color:#82B92A"/>
	</linearGradient>
	<path class="st19" d="M127.4,44l-0.7,2.1h-13.1l-1.8-3.6l3.4,0.8l-1.6-8.1l4.8,6l3.3-2.5l0.5,4.1l3.5-2.1l-0.5,4.3L127.4,44"/>
	<path class="st9" d="M64,9.3V5.6c4.3-2.1,8.5-3.4,12.6-4c2.2-0.3,4.4-0.3,6.7-0.1l4.6,0.8l0.6,0.2C91,3.2,93.5,4.2,96,5.6
		c11.4,5.7,22.1,5.7,32,0v3.7c-9.9,4.2-20.6,4.2-32,0c-2.5-1-5-1.8-7.6-2.3l-0.6-0.2l-4.6-0.6C81,6,78.8,6,76.6,6.3
		C72.5,6.7,68.3,7.7,64,9.3"/>
	<path class="st0" d="M64,9.3c4.3-1.6,8.5-2.6,12.6-3C78.8,6,81,6,83.3,6.2l4.6,0.6l0.6,0.2C91,7.4,93.5,8.2,96,9.3
		c11.4,4.2,22.1,4.2,32,0V64H64V9.3"/>
	
		<linearGradient id="SVGID_19_" gradientUnits="userSpaceOnUse" x1="-819.2" y1="21.075" x2="819.2" y2="21.075" gradientTransform="matrix(0 -6.286621e-03 -6.317139e-03 0 125.7516 21.05)">
		<stop  offset="0" style="stop-color:#8DC435"/>
		<stop  offset="1" style="stop-color:#81B829"/>
	</linearGradient>
	<path class="st20" d="M121.5,19.9l3.1-3.1l-0.8,6l3.3-0.8l-2.5,4.3h-8.8l-1.1-2.9l3,0.8v-8.3L121.5,19.9"/>
	
		<linearGradient id="SVGID_20_" gradientUnits="userSpaceOnUse" x1="-819.2" y1="19.275" x2="819.2" y2="19.275" gradientTransform="matrix(0 -7.308960e-03 -6.622314e-03 0 64.8859 19.2)">
		<stop  offset="0" style="stop-color:#8DC435"/>
		<stop  offset="1" style="stop-color:#82B92A"/>
	</linearGradient>
	<path class="st21" d="M74.7,21.5l3.5-2.1l-0.5,4.3l2.3-1l-0.7,2.1H66.2l-1.8-3.6l3.4,0.9l-1.6-8.1l4.8,6l3.3-2.5L74.7,21.5"/>
	
		<linearGradient id="SVGID_21_" gradientUnits="userSpaceOnUse" x1="-819.2" y1="36.175" x2="819.2" y2="36.175" gradientTransform="matrix(0 -6.286621e-03 -6.317139e-03 0 94.9016 36.15)">
		<stop  offset="0" style="stop-color:#8DC435"/>
		<stop  offset="1" style="stop-color:#81B829"/>
	</linearGradient>
	<path class="st22" d="M90.7,35l3.1-3.1l-0.8,6l3.3-0.8l-2.5,4.3h-8.8l-1-2.8l3,0.8V31L90.7,35"/>
	
		<linearGradient id="SVGID_22_" gradientUnits="userSpaceOnUse" x1="-819.2" y1="56.025" x2="819.2" y2="56.025" gradientTransform="matrix(0 -7.308960e-03 -6.622314e-03 0 99.3859 55.95)">
		<stop  offset="0" style="stop-color:#8DC435"/>
		<stop  offset="1" style="stop-color:#82B92A"/>
	</linearGradient>
	<path class="st23" d="M98.9,57.8l3.4,0.9l-1.6-8.1l4.8,6l3.3-2.5l0.5,4.1l3.5-2.1l-0.5,4.3l2.3-1l-0.7,2.1h-13.1L98.9,57.8"/>
	
		<linearGradient id="SVGID_23_" gradientUnits="userSpaceOnUse" x1="-819.2" y1="49.325" x2="819.2" y2="49.325" gradientTransform="matrix(0 -6.286621e-03 -6.317139e-03 0 77.4016 49.3)">
		<stop  offset="0" style="stop-color:#8DC435"/>
		<stop  offset="1" style="stop-color:#81B829"/>
	</linearGradient>
	<path class="st24" d="M76.3,45l-0.8,6l3.3-0.8l-2.5,4.3h-8.8l-1-2.8l3,0.8v-8.3l3.8,4L76.3,45"/>
	
		<linearGradient id="SVGID_24_" gradientUnits="userSpaceOnUse" x1="-819.2" y1="40.675" x2="819.2" y2="40.675" gradientTransform="matrix(0 -7.308960e-03 -6.622314e-03 0 112.3859 40.6)">
		<stop  offset="0" style="stop-color:#8DC435"/>
		<stop  offset="1" style="stop-color:#82B92A"/>
	</linearGradient>
	<path class="st25" d="M126.8,46.1h-13.1l-1.8-3.6l3.4,0.8l-1.6-8.1l4.8,6l3.3-2.5l0.5,4.1l3.5-2.1l-0.5,4.3l2.3-1L126.8,46.1"/>
</g>
<g>
	<path class="st9" d="M128,9.3V5.6c4.3-2.1,8.5-3.4,12.6-4c2.2-0.3,4.4-0.3,6.6-0.1l4.6,0.8l0.6,0.2c2.6,0.7,5.1,1.8,7.6,3.1l2,1
		l4.6,1.9c2.7,1.1,5.1,2.4,7.3,3.9c5.9,4,9.4,9.1,10.4,15.1c0.5,3.3,0.4,6.9-0.5,10.8c-3,9.1-2.1,17.7,2.5,25.8h-3.6
		c-3.2-7.6-3.9-15.6-2.3-24l0.3-1.4c2.5-13-3.7-22.5-18.5-28.5L160,9.3l-2-0.8l-5.6-1.6l-0.6-0.2l-4.6-0.6c-2.2-0.1-4.4-0.1-6.6,0.1
		C136.5,6.7,132.3,7.7,128,9.3"/>
	<path class="st0" d="M128,9.3c4.3-1.6,8.5-2.6,12.6-3c2.2-0.2,4.4-0.2,6.6-0.1l4.6,0.6l0.6,0.2l5.6,1.6l2,0.8l2.3,0.8
		c14.8,6,21,15.5,18.5,28.5l-0.3,1.4c-1.7,8.4-0.9,16.4,2.3,24H128V9.3"/>
	
		<linearGradient id="SVGID_25_" gradientUnits="userSpaceOnUse" x1="-819.2" y1="36.175" x2="819.2" y2="36.175" gradientTransform="matrix(0 -6.286621e-03 -6.317139e-03 0 158.9016 36.15)">
		<stop  offset="0" style="stop-color:#8DC435"/>
		<stop  offset="1" style="stop-color:#81B829"/>
	</linearGradient>
	<path class="st26" d="M150.9,31l3.8,4l3.1-3.1l-0.8,6l3.3-0.8l-2.5,4.3h-8.8l-1.1-2.8l3,0.8V31"/>
	
		<linearGradient id="SVGID_26_" gradientUnits="userSpaceOnUse" x1="-819.2" y1="19.275" x2="819.2" y2="19.275" gradientTransform="matrix(0 -7.308960e-03 -6.622314e-03 0 128.8859 19.2)">
		<stop  offset="0" style="stop-color:#8DC435"/>
		<stop  offset="1" style="stop-color:#82B92A"/>
	</linearGradient>
	<path class="st27" d="M138.7,21.5l3.5-2.1l-0.5,4.3l2.3-1l-0.7,2.1h-13.1l-1.8-3.6l3.4,0.9l-1.6-8.1l4.8,6l3.3-2.5L138.7,21.5"/>
	
		<linearGradient id="SVGID_27_" gradientUnits="userSpaceOnUse" x1="-819.2" y1="37.675" x2="819.2" y2="37.675" gradientTransform="matrix(0 -7.308960e-03 -6.622314e-03 0 162.3859 37.6)">
		<stop  offset="0" style="stop-color:#8DC435"/>
		<stop  offset="1" style="stop-color:#82B92A"/>
	</linearGradient>
	<path class="st28" d="M171.7,35.8l0.5,4.1l3.5-2.1l-0.5,4.3l2.3-1l-0.7,2.1h-13.1l-1.8-3.6l3.4,0.8l-1.6-8.1l4.8,6L171.7,35.8"/>
	
		<linearGradient id="SVGID_28_" gradientUnits="userSpaceOnUse" x1="-819.2" y1="56.025" x2="819.2" y2="56.025" gradientTransform="matrix(0 -7.308960e-03 -6.622314e-03 0 163.3859 55.95)">
		<stop  offset="0" style="stop-color:#8DC435"/>
		<stop  offset="1" style="stop-color:#82B92A"/>
	</linearGradient>
	<path class="st29" d="M166.3,58.7l-1.6-8.1l4.8,6l3.3-2.5l0.5,4.1l3.5-2.1l-0.5,4.3l2.3-1l-0.7,2.1h-13.1l-1.8-3.6L166.3,58.7"/>
	
		<linearGradient id="SVGID_29_" gradientUnits="userSpaceOnUse" x1="-819.2" y1="49.325" x2="819.2" y2="49.325" gradientTransform="matrix(0 -6.286621e-03 -6.317139e-03 0 141.4016 49.3)">
		<stop  offset="0" style="stop-color:#8DC435"/>
		<stop  offset="1" style="stop-color:#81B829"/>
	</linearGradient>
	<path class="st30" d="M133.4,44.2l3.8,4l3.1-3.2l-0.8,6l3.3-0.8l-2.5,4.3h-8.8l-1.1-2.8l3,0.8V44.2"/>
</g>
<g>
	<path class="st9" d="M182.8,128c-4.2-9.9-4.2-20.6,0-32c1-2.5,1.8-5,2.4-7.6l0.1-0.6l0.6-4.6c0.1-2.2,0.1-4.4-0.1-6.7
		c-0.4-4.1-1.4-8.3-3-12.6h3.6c2.1,4.3,3.4,8.5,4,12.6c0.3,2.2,0.3,4.4,0.2,6.7l-0.8,4.6l-0.2,0.6c-0.7,2.6-1.8,5.1-3.2,7.6
		c-5.7,11.4-5.7,22.1,0,32H182.8"/>
	<path class="st0" d="M182.8,128H128V64h54.8c1.6,4.3,2.6,8.5,3,12.6c0.2,2.2,0.2,4.4,0.1,6.7l-0.6,4.6l-0.1,0.6
		c-0.5,2.6-1.3,5.1-2.4,7.6C178.6,107.4,178.6,118.1,182.8,128"/>
	
		<linearGradient id="SVGID_30_" gradientUnits="userSpaceOnUse" x1="-819.2" y1="73.425" x2="819.2" y2="73.425" gradientTransform="matrix(0 -6.286621e-03 -6.317139e-03 0 158.2516 73.4)">
		<stop  offset="0" style="stop-color:#8DC435"/>
		<stop  offset="1" style="stop-color:#81B829"/>
	</linearGradient>
	<path class="st31" d="M147.3,75.8l3,0.8v-8.3l3.8,4l3.1-3.2l-0.8,6l3.3-0.8l-2.5,4.3h-8.8L147.3,75.8"/>
	
		<linearGradient id="SVGID_31_" gradientUnits="userSpaceOnUse" x1="-819.2" y1="74.275" x2="819.2" y2="74.275" gradientTransform="matrix(0 -7.308960e-03 -6.622314e-03 0 164.6359 74.2)">
		<stop  offset="0" style="stop-color:#8DC435"/>
		<stop  offset="1" style="stop-color:#82B92A"/>
	</linearGradient>
	<path class="st32" d="M167.6,76.9l-1.6-8.1l4.8,6l3.3-2.5l0.5,4.1l3.5-2.1l-0.5,4.3l2.3-1l-0.7,2.1h-13.1l-1.8-3.6L167.6,76.9"/>
	
		<linearGradient id="SVGID_32_" gradientUnits="userSpaceOnUse" x1="-819.2" y1="120.025" x2="819.2" y2="120.025" gradientTransform="matrix(0 -7.308960e-03 -6.622314e-03 0 163.3859 119.95)">
		<stop  offset="0" style="stop-color:#8DC435"/>
		<stop  offset="1" style="stop-color:#82B92A"/>
	</linearGradient>
	<path class="st33" d="M173.2,122.2l3.5-2.1l-0.5,4.3l2.3-1l-0.7,2.1h-13.1l-1.8-3.6l3.4,0.8l-1.6-8.1l4.8,6l3.3-2.5L173.2,122.2"/>
	
		<linearGradient id="SVGID_33_" gradientUnits="userSpaceOnUse" x1="-819.2" y1="100.175" x2="819.2" y2="100.175" gradientTransform="matrix(0 -6.286621e-03 -6.317139e-03 0 158.9016 100.15)">
		<stop  offset="0" style="stop-color:#8DC435"/>
		<stop  offset="1" style="stop-color:#81B829"/>
	</linearGradient>
	<path class="st34" d="M160.3,101.1l-2.5,4.3h-8.8l-1.1-2.8l3,0.8V95l3.8,4l3.1-3.2l-0.8,6L160.3,101.1"/>
	
		<linearGradient id="SVGID_34_" gradientUnits="userSpaceOnUse" x1="-819.2" y1="83.275" x2="819.2" y2="83.275" gradientTransform="matrix(0 -7.308960e-03 -6.622314e-03 0 128.8859 83.2)">
		<stop  offset="0" style="stop-color:#8DC435"/>
		<stop  offset="1" style="stop-color:#82B92A"/>
	</linearGradient>
	<path class="st35" d="M138.7,85.4l3.5-2.1l-0.5,4.3l2.3-1l-0.7,2.1h-13.1l-1.8-3.6l3.4,0.8l-1.6-8.1l4.8,6l3.3-2.5L138.7,85.4"/>
	
		<linearGradient id="SVGID_35_" gradientUnits="userSpaceOnUse" x1="-819.2" y1="113.325" x2="819.2" y2="113.325" gradientTransform="matrix(0 -6.286621e-03 -6.317139e-03 0 141.4016 113.3)">
		<stop  offset="0" style="stop-color:#8DC435"/>
		<stop  offset="1" style="stop-color:#81B829"/>
	</linearGradient>
	<path class="st36" d="M137.1,112.2l3.1-3.2l-0.8,6l3.3-0.8l-2.5,4.3h-8.8l-1.1-2.8l3,0.8v-8.3L137.1,112.2"/>
</g>
<g>
	<path class="st9" d="M182.8,128h3.6c2.1,4.3,3.4,8.5,4,12.6c0.3,2.2,0.3,4.4,0.2,6.6l-0.8,4.6l-0.2,0.6c-0.7,2.6-1.8,5.1-3.2,7.6
		l-1.3,2.9l-0.3,0.6c-1.6,3.4-3.3,6.6-5.1,9.4c-4.1,6.5-9.4,10.3-15.8,11.4c-2.4,0.4-5.4,0.4-9.1,0c-9.4-3.3-18.4-2.6-26.8,2.2v-3.6
		c8.2-3.5,17-4.1,26.2-1.8c13,2.3,22.4-4.4,28.2-19.9l0.1-0.4l0.3-0.6c1-2.5,1.8-5,2.4-7.6l0.1-0.6l0.6-4.6c0.1-2.2,0.1-4.4-0.1-6.6
		C185.3,136.5,184.3,132.3,182.8,128"/>
	<path class="st0" d="M182.8,128c1.6,4.3,2.6,8.5,3,12.6c0.2,2.2,0.2,4.4,0.1,6.6l-0.6,4.6l-0.1,0.6c-0.5,2.6-1.3,5.1-2.4,7.6
		l-0.3,0.6l-0.1,0.4c-5.8,15.6-15.2,22.3-28.2,19.9c-9.2-2.3-18-1.7-26.2,1.8V128H182.8"/>
	
		<linearGradient id="SVGID_36_" gradientUnits="userSpaceOnUse" x1="-819.2" y1="138.275" x2="819.2" y2="138.275" gradientTransform="matrix(0 -7.308960e-03 -6.622314e-03 0 164.6359 138.2)">
		<stop  offset="0" style="stop-color:#8DC435"/>
		<stop  offset="1" style="stop-color:#82B92A"/>
	</linearGradient>
	<path class="st37" d="M165.9,132.9l4.8,6l3.3-2.5l0.5,4.1l3.5-2.1l-0.5,4.3l2.3-1l-0.7,2.1h-13.1l-1.8-3.6l3.4,0.8L165.9,132.9"/>
	
		<linearGradient id="SVGID_37_" gradientUnits="userSpaceOnUse" x1="-819.2" y1="137.425" x2="819.2" y2="137.425" gradientTransform="matrix(0 -6.286621e-03 -6.317139e-03 0 158.2516 137.4)">
		<stop  offset="0" style="stop-color:#8DC435"/>
		<stop  offset="1" style="stop-color:#81B829"/>
	</linearGradient>
	<path class="st38" d="M157.1,133.1l-0.8,6l3.3-0.8l-2.5,4.3h-8.8l-1.1-2.9l3,0.8v-8.3l3.8,4L157.1,133.1"/>
	
		<linearGradient id="SVGID_38_" gradientUnits="userSpaceOnUse" x1="-819.2" y1="167.325" x2="819.2" y2="167.325" gradientTransform="matrix(0 -6.286621e-03 -6.317139e-03 0 151.4016 167.3)">
		<stop  offset="0" style="stop-color:#8DC435"/>
		<stop  offset="1" style="stop-color:#81B829"/>
	</linearGradient>
	<path class="st39" d="M147.1,166.1l3.1-3.1l-0.8,6l3.3-0.8l-2.5,4.3h-8.8l-1.1-2.9l3,0.8v-8.3L147.1,166.1"/>
	
		<linearGradient id="SVGID_39_" gradientUnits="userSpaceOnUse" x1="-819.2" y1="147.275" x2="819.2" y2="147.275" gradientTransform="matrix(0 -7.308960e-03 -6.622314e-03 0 128.8859 147.2)">
		<stop  offset="0" style="stop-color:#8DC435"/>
		<stop  offset="1" style="stop-color:#82B92A"/>
	</linearGradient>
	<path class="st40" d="M138.7,149.4l3.5-2.1l-0.5,4.3l2.3-1l-0.7,2.1h-13.1l-1.8-3.6l3.4,0.8l-1.6-8.1l4.8,6l3.3-2.5L138.7,149.4"/>
	
		<linearGradient id="SVGID_40_" gradientUnits="userSpaceOnUse" x1="-819.2" y1="154.175" x2="819.2" y2="154.175" gradientTransform="matrix(0 -6.286621e-03 -6.317139e-03 0 178.9016 154.15)">
		<stop  offset="0" style="stop-color:#8DC435"/>
		<stop  offset="1" style="stop-color:#81B829"/>
	</linearGradient>
	<path class="st41" d="M170.9,157.3V149l3.8,4l3.1-3.1l-0.8,6l3.3-0.8l-2.5,4.3h-8.8l-1.1-2.9L170.9,157.3"/>
</g>
<g>
	<path class="st0" d="M64,182.8V128h64v54.8c-4.3,1.6-8.5,2.6-12.6,3c-2.2,0.2-4.4,0.2-6.7,0.1l-4.6-0.6l-0.6-0.1
		c-2.6-0.5-5.1-1.3-7.6-2.4C84.6,178.6,73.9,178.6,64,182.8"/>
	<path class="st9" d="M64,182.8c9.9-4.2,20.6-4.2,32,0c2.5,1,5,1.8,7.6,2.4l0.6,0.1l4.6,0.6c2.2,0.1,4.4,0.1,6.7-0.1
		c4.1-0.4,8.3-1.4,12.6-3v3.6c-4.3,2.1-8.5,3.4-12.6,4c-2.2,0.3-4.4,0.3-6.7,0.2l-4.6-0.8l-0.6-0.2c-2.6-0.7-5.1-1.8-7.6-3.2
		c-11.4-5.7-22.1-5.7-32,0V182.8"/>
	
		<linearGradient id="SVGID_41_" gradientUnits="userSpaceOnUse" x1="-819.2" y1="137.425" x2="819.2" y2="137.425" gradientTransform="matrix(0 -6.286621e-03 -6.317139e-03 0 94.2516 137.4)">
		<stop  offset="0" style="stop-color:#8DC435"/>
		<stop  offset="1" style="stop-color:#81B829"/>
	</linearGradient>
	<path class="st42" d="M83.3,139.8l3,0.8v-8.3l3.8,4l3.1-3.1l-0.8,6l3.3-0.8l-2.5,4.3h-8.8L83.3,139.8"/>
	
		<linearGradient id="SVGID_42_" gradientUnits="userSpaceOnUse" x1="-819.2" y1="147.275" x2="819.2" y2="147.275" gradientTransform="matrix(0 -7.308960e-03 -6.622314e-03 0 64.8859 147.2)">
		<stop  offset="0" style="stop-color:#8DC435"/>
		<stop  offset="1" style="stop-color:#82B92A"/>
	</linearGradient>
	<path class="st43" d="M74.7,149.4l3.5-2.1l-0.5,4.3l2.3-1l-0.7,2.1H66.2l-1.8-3.6l3.4,0.8l-1.6-8.1l4.8,6l3.3-2.5L74.7,149.4"/>
	
		<linearGradient id="SVGID_43_" gradientUnits="userSpaceOnUse" x1="-819.2" y1="164.175" x2="819.2" y2="164.175" gradientTransform="matrix(0 -6.286621e-03 -6.317139e-03 0 94.9016 164.15)">
		<stop  offset="0" style="stop-color:#8DC435"/>
		<stop  offset="1" style="stop-color:#81B829"/>
	</linearGradient>
	<path class="st44" d="M86.9,159l3.8,4l3.1-3.1l-0.8,6l3.3-0.8l-2.5,4.3h-8.8l-1-2.9l3,0.8V159"/>
	
		<linearGradient id="SVGID_44_" gradientUnits="userSpaceOnUse" x1="-819.2" y1="138.275" x2="819.2" y2="138.275" gradientTransform="matrix(0 -7.308960e-03 -6.622314e-03 0 100.6359 138.2)">
		<stop  offset="0" style="stop-color:#8DC435"/>
		<stop  offset="1" style="stop-color:#82B92A"/>
	</linearGradient>
	<path class="st45" d="M115.7,141.6l-0.7,2.1h-13.1l-1.8-3.6l3.4,0.8l-1.6-8.1l4.8,6l3.3-2.5l0.5,4.1l3.5-2.1l-0.5,4.3L115.7,141.6"
		/>
	
		<linearGradient id="SVGID_45_" gradientUnits="userSpaceOnUse" x1="-819.2" y1="149.075" x2="819.2" y2="149.075" gradientTransform="matrix(0 -6.286621e-03 -6.317139e-03 0 125.7516 149.05)">
		<stop  offset="0" style="stop-color:#8DC435"/>
		<stop  offset="1" style="stop-color:#81B829"/>
	</linearGradient>
	<path class="st46" d="M117.8,152.1v-8.3l3.8,4l3.1-3.1l-0.8,6l3.3-0.8l-2.5,4.3h-8.8l-1.1-2.9L117.8,152.1"/>
	
		<linearGradient id="SVGID_46_" gradientUnits="userSpaceOnUse" x1="-819.2" y1="168.675" x2="819.2" y2="168.675" gradientTransform="matrix(0 -7.308960e-03 -6.622314e-03 0 112.3859 168.6)">
		<stop  offset="0" style="stop-color:#8DC435"/>
		<stop  offset="1" style="stop-color:#82B92A"/>
	</linearGradient>
	<path class="st47" d="M111.9,170.5l3.4,0.9l-1.6-8.1l4.8,6l3.3-2.5l0.5,4.1l3.5-2.1l-0.5,4.3l2.3-1l-0.7,2.1h-13.1L111.9,170.5"/>
</g>
<g>
	<path class="st0" d="M9.3,128H64v54.8c-4.3,1.6-8.5,2.6-12.6,3c-2.2,0.2-4.5,0.2-6.7,0.1l-4.5-0.6l-0.7-0.1
		c-1.9-0.4-3.7-0.9-5.5-1.6l-2-0.8l-2.3-0.8c-14.8-6-21-15.5-18.5-28.6l0.3-1.4C13.2,143.6,12.4,135.6,9.3,128"/>
	<path class="st9" d="M9.3,128c3.2,7.6,3.9,15.6,2.3,24l-0.3,1.4c-2.5,13,3.7,22.6,18.5,28.6l2.3,0.8l2,0.8c1.8,0.7,3.7,1.2,5.5,1.6
		l0.7,0.1l4.5,0.6c2.2,0.1,4.4,0.1,6.7-0.1c4.1-0.4,8.3-1.4,12.6-3v3.6c-4.3,2.1-8.5,3.4-12.6,4c-2.2,0.3-4.5,0.3-6.7,0.2l-4.5-0.8
		l-0.7-0.2c-2.6-0.7-5.1-1.8-7.5-3.2l-2-0.9l-4.6-1.9c-2.7-1.1-5.1-2.4-7.4-3.9c-5.9-4-9.4-9.1-10.4-15.1c-0.5-3.3-0.4-6.9,0.5-10.8
		c3-9.1,2.1-17.7-2.5-25.9H9.3"/>
	
		<linearGradient id="SVGID_47_" gradientUnits="userSpaceOnUse" x1="-819.2" y1="137.425" x2="819.2" y2="137.425" gradientTransform="matrix(0 -6.286621e-03 -6.317139e-03 0 30.2516 137.4)">
		<stop  offset="0" style="stop-color:#8DC435"/>
		<stop  offset="1" style="stop-color:#81B829"/>
	</linearGradient>
	<path class="st48" d="M26,136.3l3.1-3.1l-0.8,6l3.3-0.8l-2.5,4.3h-8.8l-1-2.9l3,0.8v-8.3L26,136.3"/>
	
		<linearGradient id="SVGID_48_" gradientUnits="userSpaceOnUse" x1="-819.2" y1="164.175" x2="819.2" y2="164.175" gradientTransform="matrix(0 -6.286621e-03 -6.317139e-03 0 30.9016 164.15)">
		<stop  offset="0" style="stop-color:#8DC435"/>
		<stop  offset="1" style="stop-color:#81B829"/>
	</linearGradient>
	<path class="st49" d="M22.9,167.3V159l3.8,4l3.1-3.1l-0.8,6l3.3-0.8l-2.5,4.3H21l-1.1-2.9L22.9,167.3"/>
	
		<linearGradient id="SVGID_49_" gradientUnits="userSpaceOnUse" x1="-819.2" y1="138.275" x2="819.2" y2="138.275" gradientTransform="matrix(0 -7.308960e-03 -6.622314e-03 0 36.6359 138.2)">
		<stop  offset="0" style="stop-color:#8DC435"/>
		<stop  offset="1" style="stop-color:#82B92A"/>
	</linearGradient>
	<path class="st50" d="M39.5,140.9l-1.6-8.1l4.8,6l3.3-2.5l0.5,4.1l3.5-2.1l-0.5,4.3l2.3-1l-0.7,2.1H38l-1.8-3.6L39.5,140.9"/>
	
		<linearGradient id="SVGID_50_" gradientUnits="userSpaceOnUse" x1="-819.2" y1="149.075" x2="819.2" y2="149.075" gradientTransform="matrix(0 -6.286621e-03 -6.317139e-03 0 61.7516 149.05)">
		<stop  offset="0" style="stop-color:#8DC435"/>
		<stop  offset="1" style="stop-color:#81B829"/>
	</linearGradient>
	<path class="st51" d="M50.8,151.4l3,0.8v-8.3l3.8,4l3.1-3.1l-0.8,6l3.3-0.8l-2.5,4.3h-8.8L50.8,151.4"/>
	
		<linearGradient id="SVGID_51_" gradientUnits="userSpaceOnUse" x1="-819.2" y1="168.675" x2="819.2" y2="168.675" gradientTransform="matrix(0 -7.308960e-03 -6.622314e-03 0 48.3859 168.6)">
		<stop  offset="0" style="stop-color:#8DC435"/>
		<stop  offset="1" style="stop-color:#82B92A"/>
	</linearGradient>
	<path class="st52" d="M62.8,174.1h-13l-1.8-3.6l3.3,0.9l-1.6-8.1l4.8,6l3.3-2.5l0.5,4.1l3.5-2.1l-0.5,4.3l2.3-1L62.8,174.1"/>
</g>
<g>
	<path class="st9" d="M9.3,128H5.6c-2.1-4.3-3.4-8.5-4-12.6c-0.3-2.2-0.3-4.4-0.1-6.7c0.2-1.5,0.4-3.1,0.8-4.6l0.2-0.6
		c0.7-2.6,1.8-5.1,3.1-7.6c5.7-11.4,5.7-22.1,0-32h3.7c4.2,9.9,4.2,20.6,0,32c-1,2.5-1.8,5-2.3,7.6l-0.2,0.6l-0.6,4.6
		C6,111,6,113.2,6.3,115.4C6.7,119.5,7.7,123.7,9.3,128"/>
	<path class="st0" d="M9.3,128c-1.6-4.3-2.6-8.5-3-12.6C6,113.2,6,111,6.2,108.8l0.6-4.6l0.2-0.6c0.5-2.6,1.3-5.1,2.3-7.6
		c4.2-11.4,4.2-22.1,0-32H64v64H9.3"/>
	
		<linearGradient id="SVGID_52_" gradientUnits="userSpaceOnUse" x1="-819.2" y1="73.425" x2="819.2" y2="73.425" gradientTransform="matrix(0 -6.286621e-03 -6.317139e-03 0 30.2516 73.4)">
		<stop  offset="0" style="stop-color:#8DC435"/>
		<stop  offset="1" style="stop-color:#81B829"/>
	</linearGradient>
	<path class="st53" d="M22.3,68.3l3.8,4l3.1-3.2l-0.8,6l3.3-0.8l-2.5,4.3h-8.8l-1-2.8l3,0.8V68.3"/>
	
		<linearGradient id="SVGID_53_" gradientUnits="userSpaceOnUse" x1="-819.2" y1="74.275" x2="819.2" y2="74.275" gradientTransform="matrix(0 -7.308960e-03 -6.622314e-03 0 36.6359 74.2)">
		<stop  offset="0" style="stop-color:#8DC435"/>
		<stop  offset="1" style="stop-color:#82B92A"/>
	</linearGradient>
	<path class="st54" d="M38,68.8l4.8,6l3.3-2.5l0.5,4.1l3.5-2.1l-0.5,4.3l2.3-1L51,79.7H38l-1.8-3.6l3.3,0.8L38,68.8"/>
	
		<linearGradient id="SVGID_54_" gradientUnits="userSpaceOnUse" x1="-819.2" y1="85.075" x2="819.2" y2="85.075" gradientTransform="matrix(0 -6.286621e-03 -6.317139e-03 0 61.7516 85.05)">
		<stop  offset="0" style="stop-color:#8DC435"/>
		<stop  offset="1" style="stop-color:#81B829"/>
	</linearGradient>
	<path class="st55" d="M60.6,80.8l-0.8,6l3.3-0.8l-2.5,4.3h-8.8l-1-2.8l3,0.8v-8.3l3.8,4L60.6,80.8"/>
	
		<linearGradient id="SVGID_55_" gradientUnits="userSpaceOnUse" x1="-819.2" y1="104.675" x2="819.2" y2="104.675" gradientTransform="matrix(0 -7.308960e-03 -6.622314e-03 0 48.3859 104.6)">
		<stop  offset="0" style="stop-color:#8DC435"/>
		<stop  offset="1" style="stop-color:#82B92A"/>
	</linearGradient>
	<path class="st56" d="M48,106.5l3.3,0.8l-1.6-8.1l4.8,6l3.3-2.5l0.5,4.1l3.5-2.1l-0.5,4.3l2.3-1l-0.7,2.1h-13L48,106.5"/>
	
		<linearGradient id="SVGID_56_" gradientUnits="userSpaceOnUse" x1="-819.2" y1="120.025" x2="819.2" y2="120.025" gradientTransform="matrix(0 -7.308960e-03 -6.622314e-03 0 35.3859 119.95)">
		<stop  offset="0" style="stop-color:#8DC435"/>
		<stop  offset="1" style="stop-color:#82B92A"/>
	</linearGradient>
	<path class="st57" d="M38.3,122.7l-1.6-8.1l4.8,6l3.3-2.5l0.5,4.1l3.5-2.1l-0.5,4.3l2.3-1l-0.7,2.1h-13l-1.8-3.6L38.3,122.7"/>
	
		<linearGradient id="SVGID_57_" gradientUnits="userSpaceOnUse" x1="-819.2" y1="100.175" x2="819.2" y2="100.175" gradientTransform="matrix(0 -6.286621e-03 -6.317139e-03 0 30.9016 100.15)">
		<stop  offset="0" style="stop-color:#8DC435"/>
		<stop  offset="1" style="stop-color:#81B829"/>
	</linearGradient>
	<path class="st58" d="M22.9,95l3.8,4l3.1-3.2l-0.8,6l3.3-0.8l-2.5,4.3H21l-1.1-2.8l3,0.8V95"/>
</g>
<g>
	<path class="st9" d="M250.4,64h-3.6c-1.1-3.4,2-6.5,9.3-9.3v3.7C251.8,60.6,250,62.4,250.4,64"/>
	<path class="st0" d="M246.8,64H192V0h64v54.8C248.7,57.5,245.7,60.6,246.8,64"/>
	
		<linearGradient id="SVGID_58_" gradientUnits="userSpaceOnUse" x1="-819.2" y1="21.075" x2="819.2" y2="21.075" gradientTransform="matrix(0 -6.286621e-03 -6.317139e-03 0 253.7516 21.05)">
		<stop  offset="0" style="stop-color:#8DC435"/>
		<stop  offset="1" style="stop-color:#81B829"/>
	</linearGradient>
	<path class="st59" d="M252.6,26.3h-8.8l-1.1-2.9l3,0.8v-8.3l3.8,4l3.1-3.1l-0.8,6l3.3-0.8L252.6,26.3"/>
	
		<linearGradient id="SVGID_59_" gradientUnits="userSpaceOnUse" x1="-819.2" y1="10.275" x2="819.2" y2="10.275" gradientTransform="matrix(0 -7.308960e-03 -6.622314e-03 0 228.6359 10.2)">
		<stop  offset="0" style="stop-color:#8DC435"/>
		<stop  offset="1" style="stop-color:#82B92A"/>
	</linearGradient>
	<path class="st60" d="M241.9,10.4l-0.5,4.3l2.3-1l-0.7,2.1h-13.1l-1.8-3.6l3.4,0.8l-1.6-8.1l4.8,6l3.3-2.5l0.5,4.1L241.9,10.4"/>
	
		<linearGradient id="SVGID_60_" gradientUnits="userSpaceOnUse" x1="-819.2" y1="9.425" x2="819.2" y2="9.425" gradientTransform="matrix(0 -6.286621e-03 -6.317139e-03 0 222.2516 9.4)">
		<stop  offset="0" style="stop-color:#8DC435"/>
		<stop  offset="1" style="stop-color:#81B829"/>
	</linearGradient>
	<path class="st61" d="M218,8.3l3.1-3.2l-0.8,6l3.3-0.8l-2.5,4.3h-8.8l-1.1-2.9l3,0.8V4.3L218,8.3"/>
	
		<linearGradient id="SVGID_61_" gradientUnits="userSpaceOnUse" x1="-819.2" y1="19.275" x2="819.2" y2="19.275" gradientTransform="matrix(0 -7.308960e-03 -6.622314e-03 0 192.8859 19.2)">
		<stop  offset="0" style="stop-color:#8DC435"/>
		<stop  offset="1" style="stop-color:#82B92A"/>
	</linearGradient>
	<path class="st62" d="M207.9,22.6l-0.7,2.1h-13.1l-1.8-3.6l3.4,0.9l-1.6-8.1l4.8,6l3.3-2.5l0.5,4.1l3.5-2.1l-0.5,4.3L207.9,22.6"/>
	
		<linearGradient id="SVGID_62_" gradientUnits="userSpaceOnUse" x1="-819.2" y1="36.175" x2="819.2" y2="36.175" gradientTransform="matrix(0 -6.286621e-03 -6.317139e-03 0 222.9016 36.15)">
		<stop  offset="0" style="stop-color:#8DC435"/>
		<stop  offset="1" style="stop-color:#81B829"/>
	</linearGradient>
	<path class="st63" d="M221,37.8l3.3-0.8l-2.5,4.3h-8.8l-1.1-2.8l3,0.8V31l3.8,4l3.1-3.1L221,37.8"/>
	
		<linearGradient id="SVGID_63_" gradientUnits="userSpaceOnUse" x1="-819.2" y1="40.675" x2="819.2" y2="40.675" gradientTransform="matrix(0 -7.308960e-03 -6.622314e-03 0 240.3859 40.6)">
		<stop  offset="0" style="stop-color:#8DC435"/>
		<stop  offset="1" style="stop-color:#82B92A"/>
	</linearGradient>
	<path class="st64" d="M243.3,43.3l-1.6-8.1l4.8,6l3.3-2.5l0.5,4.1l3.5-2.1l-0.5,4.3l2.3-1l-0.7,2.1h-13.1l-1.8-3.6L243.3,43.3"/>
	
		<linearGradient id="SVGID_64_" gradientUnits="userSpaceOnUse" x1="-819.2" y1="56.025" x2="819.2" y2="56.025" gradientTransform="matrix(0 -7.308960e-03 -6.622314e-03 0 227.3859 55.95)">
		<stop  offset="0" style="stop-color:#8DC435"/>
		<stop  offset="1" style="stop-color:#82B92A"/>
	</linearGradient>
	<path class="st65" d="M230.3,58.7l-1.6-8.1l4.8,6l3.3-2.5l0.5,4.1l3.5-2.1l-0.5,4.3l2.3-1l-0.7,2.1h-13.1l-1.8-3.6L230.3,58.7"/>
	
		<linearGradient id="SVGID_65_" gradientUnits="userSpaceOnUse" x1="-819.2" y1="49.325" x2="819.2" y2="49.325" gradientTransform="matrix(0 -6.286621e-03 -6.317139e-03 0 205.4016 49.3)">
		<stop  offset="0" style="stop-color:#8DC435"/>
		<stop  offset="1" style="stop-color:#81B829"/>
	</linearGradient>
	<path class="st66" d="M204.3,54.5h-8.8l-1.1-2.8l3,0.8v-8.3l3.8,4l3.1-3.2l-0.8,6l3.3-0.8L204.3,54.5"/>
</g>
<g>
	<path class="st0" d="M256,54.8V0h64v64h-54.8C262.5,56.8,259.4,53.7,256,54.8"/>
	<path class="st9" d="M261.6,64c-2.1-4.4-4-6.3-5.6-5.6v-3.7c3.4-1,6.5,2,9.3,9.3H261.6"/>
	
		<linearGradient id="SVGID_66_" gradientUnits="userSpaceOnUse" x1="-819.2" y1="21.075" x2="819.2" y2="21.075" gradientTransform="matrix(0 -6.286621e-03 -6.317139e-03 0 317.7516 21.05)">
		<stop  offset="0" style="stop-color:#8DC435"/>
		<stop  offset="1" style="stop-color:#81B829"/>
	</linearGradient>
	<path class="st67" d="M316.6,26.3h-8.8l-1-2.9l3,0.8v-8.3l3.8,4l3.1-3.1l-0.8,6l3.3-0.8L316.6,26.3"/>
	
		<linearGradient id="SVGID_67_" gradientUnits="userSpaceOnUse" x1="-819.2" y1="10.275" x2="819.2" y2="10.275" gradientTransform="matrix(0 -7.308960e-03 -6.622314e-03 0 292.6359 10.2)">
		<stop  offset="0" style="stop-color:#8DC435"/>
		<stop  offset="1" style="stop-color:#82B92A"/>
	</linearGradient>
	<path class="st68" d="M302,8.4l0.5,4.1l3.5-2.1l-0.5,4.3l2.3-1l-0.7,2.1h-13l-1.8-3.6l3.3,0.8L294,4.8l4.8,6L302,8.4"/>
	
		<linearGradient id="SVGID_68_" gradientUnits="userSpaceOnUse" x1="-819.2" y1="9.425" x2="819.2" y2="9.425" gradientTransform="matrix(0 -6.286621e-03 -6.317139e-03 0 286.2516 9.4)">
		<stop  offset="0" style="stop-color:#8DC435"/>
		<stop  offset="1" style="stop-color:#81B829"/>
	</linearGradient>
	<path class="st69" d="M275.3,11.8l3,0.8V4.3l3.8,4l3.1-3.2l-0.8,6l3.3-0.8l-2.5,4.3h-8.8L275.3,11.8"/>
	
		<linearGradient id="SVGID_69_" gradientUnits="userSpaceOnUse" x1="-819.2" y1="36.175" x2="819.2" y2="36.175" gradientTransform="matrix(0 -6.286621e-03 -6.317139e-03 0 286.9016 36.15)">
		<stop  offset="0" style="stop-color:#8DC435"/>
		<stop  offset="1" style="stop-color:#81B829"/>
	</linearGradient>
	<path class="st70" d="M288.3,37.1l-2.5,4.3H277l-1.1-2.8l3,0.8V31l3.8,4l3.1-3.1l-0.8,6L288.3,37.1"/>
	
		<linearGradient id="SVGID_70_" gradientUnits="userSpaceOnUse" x1="-819.2" y1="40.675" x2="819.2" y2="40.675" gradientTransform="matrix(0 -7.308960e-03 -6.622314e-03 0 304.3859 40.6)">
		<stop  offset="0" style="stop-color:#8DC435"/>
		<stop  offset="1" style="stop-color:#82B92A"/>
	</linearGradient>
	<path class="st71" d="M307.3,43.3l-1.6-8.1l4.8,6l3.3-2.5l0.5,4.1l3.5-2.1l-0.5,4.3l2.3-1l-0.7,2.1h-13l-1.8-3.6L307.3,43.3"/>
	
		<linearGradient id="SVGID_71_" gradientUnits="userSpaceOnUse" x1="-819.2" y1="56.025" x2="819.2" y2="56.025" gradientTransform="matrix(0 -7.308960e-03 -6.622314e-03 0 291.3859 55.95)">
		<stop  offset="0" style="stop-color:#8DC435"/>
		<stop  offset="1" style="stop-color:#82B92A"/>
	</linearGradient>
	<path class="st72" d="M305.8,61.5h-13l-1.8-3.6l3.3,0.9l-1.6-8.1l4.8,6l3.3-2.5l0.5,4.1l3.5-2.1l-0.5,4.3l2.3-1L305.8,61.5"/>
	
		<linearGradient id="SVGID_72_" gradientUnits="userSpaceOnUse" x1="-819.2" y1="19.275" x2="819.2" y2="19.275" gradientTransform="matrix(0 -7.308960e-03 -6.622314e-03 0 256.8859 19.2)">
		<stop  offset="0" style="stop-color:#8DC435"/>
		<stop  offset="1" style="stop-color:#82B92A"/>
	</linearGradient>
	<path class="st73" d="M270.2,19.4l-0.5,4.3l2.3-1l-0.7,2.1h-13l-1.8-3.6l3.3,0.9l-1.6-8.1l4.8,6l3.3-2.5l0.5,4.1L270.2,19.4"/>
	
		<linearGradient id="SVGID_73_" gradientUnits="userSpaceOnUse" x1="-819.2" y1="49.325" x2="819.2" y2="49.325" gradientTransform="matrix(0 -6.286621e-03 -6.317139e-03 0 269.4016 49.3)">
		<stop  offset="0" style="stop-color:#8DC435"/>
		<stop  offset="1" style="stop-color:#81B829"/>
	</linearGradient>
	<path class="st74" d="M268.3,45l-0.8,6l3.3-0.8l-2.5,4.3h-8.8l-1.1-2.8l3,0.8v-8.3l3.8,4L268.3,45"/>
</g>
<g>
	<path class="st0" d="M265.3,64H320v64h-64V73.3C263.1,70.2,266.2,67.1,265.3,64"/>
	<path class="st9" d="M256,69.6c4.6-2.3,6.5-4.2,5.6-5.6h3.6c0.9,3.1-2.1,6.2-9.3,9.3V69.6"/>
	
		<linearGradient id="SVGID_74_" gradientUnits="userSpaceOnUse" x1="-819.2" y1="73.425" x2="819.2" y2="73.425" gradientTransform="matrix(0 -6.286621e-03 -6.317139e-03 0 286.2516 73.4)">
		<stop  offset="0" style="stop-color:#8DC435"/>
		<stop  offset="1" style="stop-color:#81B829"/>
	</linearGradient>
	<path class="st75" d="M278.3,76.5v-8.3l3.8,4l3.1-3.2l-0.8,6l3.3-0.8l-2.5,4.3h-8.8l-1-2.8L278.3,76.5"/>
	
		<linearGradient id="SVGID_75_" gradientUnits="userSpaceOnUse" x1="-819.2" y1="74.275" x2="819.2" y2="74.275" gradientTransform="matrix(0 -7.308960e-03 -6.622314e-03 0 292.6359 74.2)">
		<stop  offset="0" style="stop-color:#8DC435"/>
		<stop  offset="1" style="stop-color:#82B92A"/>
	</linearGradient>
	<path class="st76" d="M307.7,77.6l-0.7,2.1h-13l-1.8-3.6l3.3,0.8l-1.6-8.1l4.8,6l3.3-2.5l0.5,4.1l3.5-2.1l-0.5,4.3L307.7,77.6"/>
	
		<linearGradient id="SVGID_76_" gradientUnits="userSpaceOnUse" x1="-819.2" y1="104.675" x2="819.2" y2="104.675" gradientTransform="matrix(0 -7.308960e-03 -6.622314e-03 0 304.3859 104.6)">
		<stop  offset="0" style="stop-color:#8DC435"/>
		<stop  offset="1" style="stop-color:#82B92A"/>
	</linearGradient>
	<path class="st77" d="M318.8,110.1h-13l-1.8-3.6l3.3,0.8l-1.6-8.1l4.8,6l3.3-2.5l0.5,4.1l3.5-2.1l-0.5,4.3l2.3-1L318.8,110.1"/>
	
		<linearGradient id="SVGID_77_" gradientUnits="userSpaceOnUse" x1="-819.2" y1="85.075" x2="819.2" y2="85.075" gradientTransform="matrix(0 -6.286621e-03 -6.317139e-03 0 317.7516 85.05)">
		<stop  offset="0" style="stop-color:#8DC435"/>
		<stop  offset="1" style="stop-color:#81B829"/>
	</linearGradient>
	<path class="st78" d="M316.6,90.3h-8.8l-1-2.8l3,0.8v-8.3l3.8,4l3.1-3.2l-0.8,6l3.3-0.8L316.6,90.3"/>
	
		<linearGradient id="SVGID_78_" gradientUnits="userSpaceOnUse" x1="-819.2" y1="100.175" x2="819.2" y2="100.175" gradientTransform="matrix(0 -6.286621e-03 -6.317139e-03 0 286.9016 100.15)">
		<stop  offset="0" style="stop-color:#8DC435"/>
		<stop  offset="1" style="stop-color:#81B829"/>
	</linearGradient>
	<path class="st79" d="M285.8,95.8l-0.8,6l3.3-0.8l-2.5,4.3H277l-1.1-2.8l3,0.8V95l3.8,4L285.8,95.8"/>
	
		<linearGradient id="SVGID_79_" gradientUnits="userSpaceOnUse" x1="-819.2" y1="120.025" x2="819.2" y2="120.025" gradientTransform="matrix(0 -7.308960e-03 -6.622314e-03 0 291.3859 119.95)">
		<stop  offset="0" style="stop-color:#8DC435"/>
		<stop  offset="1" style="stop-color:#82B92A"/>
	</linearGradient>
	<path class="st80" d="M291,121.8l3.3,0.8l-1.6-8.1l4.8,6l3.3-2.5l0.5,4.1l3.5-2.1l-0.5,4.3l2.3-1l-0.7,2.1h-13L291,121.8"/>
	
		<linearGradient id="SVGID_80_" gradientUnits="userSpaceOnUse" x1="-819.2" y1="83.275" x2="819.2" y2="83.275" gradientTransform="matrix(0 -7.308960e-03 -6.622314e-03 0 256.8859 83.2)">
		<stop  offset="0" style="stop-color:#8DC435"/>
		<stop  offset="1" style="stop-color:#82B92A"/>
	</linearGradient>
	<path class="st81" d="M270.2,83.3l-0.5,4.3l2.3-1l-0.7,2.1h-13l-1.8-3.6l3.3,0.8l-1.6-8.1l4.8,6l3.3-2.5l0.5,4.1L270.2,83.3"/>
	
		<linearGradient id="SVGID_81_" gradientUnits="userSpaceOnUse" x1="-819.2" y1="113.325" x2="819.2" y2="113.325" gradientTransform="matrix(0 -6.286621e-03 -6.317139e-03 0 269.4016 113.3)">
		<stop  offset="0" style="stop-color:#8DC435"/>
		<stop  offset="1" style="stop-color:#81B829"/>
	</linearGradient>
	<path class="st82" d="M268.3,109l-0.8,6l3.3-0.8l-2.5,4.3h-8.8l-1.1-2.8l3,0.8v-8.3l3.8,4L268.3,109"/>
</g>
<g>
	<path class="st9" d="M246.8,64h3.6c2.5,4.5,4.4,6.3,5.6,5.6v3.7C253,74.2,249.9,71.1,246.8,64"/>
	<path class="st0" d="M246.8,64c3.1,7.1,6.2,10.2,9.3,9.3V128h-64V64H246.8"/>
	
		<linearGradient id="SVGID_82_" gradientUnits="userSpaceOnUse" x1="-819.2" y1="73.425" x2="819.2" y2="73.425" gradientTransform="matrix(0 -6.286621e-03 -6.317139e-03 0 222.2516 73.4)">
		<stop  offset="0" style="stop-color:#8DC435"/>
		<stop  offset="1" style="stop-color:#81B829"/>
	</linearGradient>
	<path class="st83" d="M212.3,78.6l-1.1-2.8l3,0.8v-8.3l3.8,4l3.1-3.2l-0.8,6l3.3-0.8l-2.5,4.3H212.3"/>
	
		<linearGradient id="SVGID_83_" gradientUnits="userSpaceOnUse" x1="-819.2" y1="74.275" x2="819.2" y2="74.275" gradientTransform="matrix(0 -7.308960e-03 -6.622314e-03 0 228.6359 74.2)">
		<stop  offset="0" style="stop-color:#8DC435"/>
		<stop  offset="1" style="stop-color:#82B92A"/>
	</linearGradient>
	<path class="st84" d="M241.9,74.3l-0.5,4.3l2.3-1l-0.7,2.1h-13.1l-1.8-3.6l3.4,0.8l-1.6-8.1l4.8,6l3.3-2.5l0.5,4.1L241.9,74.3"/>
	
		<linearGradient id="SVGID_84_" gradientUnits="userSpaceOnUse" x1="-819.2" y1="83.275" x2="819.2" y2="83.275" gradientTransform="matrix(0 -7.308960e-03 -6.622314e-03 0 192.8859 83.2)">
		<stop  offset="0" style="stop-color:#8DC435"/>
		<stop  offset="1" style="stop-color:#82B92A"/>
	</linearGradient>
	<path class="st85" d="M192.4,85.1l3.4,0.8l-1.6-8.1l4.8,6l3.3-2.5l0.5,4.1l3.5-2.1l-0.5,4.3l2.3-1l-0.7,2.1h-13.1L192.4,85.1"/>
	
		<linearGradient id="SVGID_85_" gradientUnits="userSpaceOnUse" x1="-819.2" y1="113.325" x2="819.2" y2="113.325" gradientTransform="matrix(0 -6.286621e-03 -6.317139e-03 0 205.4016 113.3)">
		<stop  offset="0" style="stop-color:#8DC435"/>
		<stop  offset="1" style="stop-color:#81B829"/>
	</linearGradient>
	<path class="st86" d="M197.4,116.4v-8.3l3.8,4l3.1-3.2l-0.8,6l3.3-0.8l-2.5,4.3h-8.8l-1.1-2.8L197.4,116.4"/>
	
		<linearGradient id="SVGID_86_" gradientUnits="userSpaceOnUse" x1="-819.2" y1="85.075" x2="819.2" y2="85.075" gradientTransform="matrix(0 -6.286621e-03 -6.317139e-03 0 253.7516 85.05)">
		<stop  offset="0" style="stop-color:#8DC435"/>
		<stop  offset="1" style="stop-color:#81B829"/>
	</linearGradient>
	<path class="st87" d="M249.5,83.9l3.1-3.2l-0.8,6l3.3-0.8l-2.5,4.3h-8.8l-1.1-2.8l3,0.8v-8.3L249.5,83.9"/>
	
		<linearGradient id="SVGID_87_" gradientUnits="userSpaceOnUse" x1="-819.2" y1="104.675" x2="819.2" y2="104.675" gradientTransform="matrix(0 -7.308960e-03 -6.622314e-03 0 240.3859 104.6)">
		<stop  offset="0" style="stop-color:#8DC435"/>
		<stop  offset="1" style="stop-color:#82B92A"/>
	</linearGradient>
	<path class="st88" d="M254.8,110.1h-13.1l-1.8-3.6l3.4,0.8l-1.6-8.1l4.8,6l3.3-2.5l0.5,4.1l3.5-2.1l-0.5,4.3l2.3-1L254.8,110.1"/>
	
		<linearGradient id="SVGID_88_" gradientUnits="userSpaceOnUse" x1="-819.2" y1="100.175" x2="819.2" y2="100.175" gradientTransform="matrix(0 -6.286621e-03 -6.317139e-03 0 222.9016 100.15)">
		<stop  offset="0" style="stop-color:#8DC435"/>
		<stop  offset="1" style="stop-color:#81B829"/>
	</linearGradient>
	<path class="st89" d="M221.8,95.8l-0.8,6l3.3-0.8l-2.5,4.3h-8.8l-1.1-2.8l3,0.8V95l3.8,4L221.8,95.8"/>
	
		<linearGradient id="SVGID_89_" gradientUnits="userSpaceOnUse" x1="-819.2" y1="120.025" x2="819.2" y2="120.025" gradientTransform="matrix(0 -7.308960e-03 -6.622314e-03 0 227.3859 119.95)">
		<stop  offset="0" style="stop-color:#8DC435"/>
		<stop  offset="1" style="stop-color:#82B92A"/>
	</linearGradient>
	<path class="st90" d="M226.9,121.8l3.4,0.8l-1.6-8.1l4.8,6l3.3-2.5l0.5,4.1l3.5-2.1l-0.5,4.3l2.3-1l-0.7,2.1h-13.1L226.9,121.8"/>
</g>
</svg>
