<?xml version="1.0" encoding="UTF-8" standalone="no"?>
<!-- Created with Inkscape (http://www.inkscape.org/) -->

<svg
   xmlns:dc="http://purl.org/dc/elements/1.1/"
   xmlns:cc="http://creativecommons.org/ns#"
   xmlns:rdf="http://www.w3.org/1999/02/22-rdf-syntax-ns#"
   xmlns:svg="http://www.w3.org/2000/svg"
   xmlns="http://www.w3.org/2000/svg"
   xmlns:sodipodi="http://sodipodi.sourceforge.net/DTD/sodipodi-0.dtd"
   xmlns:inkscape="http://www.inkscape.org/namespaces/inkscape"
   width="124.26855mm"
   height="124.26854mm"
   viewBox="0 0 124.26855 124.26854"
   version="1.1"
   id="svg5539"
   inkscape:version="0.92.0 r15299"
   sodipodi:docname="check.svg">
  <defs
     id="defs5533" />
  <sodipodi:namedview
     id="base"
     pagecolor="#ffffff"
     bordercolor="#666666"
     borderopacity="1.0"
     inkscape:pageopacity="0.0"
     inkscape:pageshadow="2"
     inkscape:zoom="0.061871843"
     inkscape:cx="5646.2054"
     inkscape:cy="-428.18099"
     inkscape:document-units="mm"
     inkscape:current-layer="layer1"
     showgrid="false"
     inkscape:window-width="1920"
     inkscape:window-height="1017"
     inkscape:window-x="-8"
     inkscape:window-y="-8"
     inkscape:window-maximized="1" />
  <metadata
     id="metadata5536">
    <rdf:RDF>
      <cc:Work
         rdf:about="">
        <dc:format>image/svg+xml</dc:format>
        <dc:type
           rdf:resource="http://purl.org/dc/dcmitype/StillImage" />
        <dc:title></dc:title>
      </cc:Work>
    </rdf:RDF>
  </metadata>
  <g
     inkscape:label="Layer 1"
     inkscape:groupmode="layer"
     id="layer1"
     transform="translate(-31.580164,-89.733578)">
    <path
       inkscape:connector-curvature="0"
       style="fill:#999999;stroke:none;stroke-width:3.50053287"
       d="m 137.64585,107.93604 q 18.20286,18.20273 18.20286,43.93168 0,25.72895 -18.20286,43.93168 -18.20273,18.20272 -43.931677,18.20272 -25.728951,0 -43.931679,-18.20272 h -0.17464 q -18.02769,-18.20273 -18.02769,-43.93168 0,-25.72895 18.02769,-43.93168 l 0.17464,-0.17464 q 18.202728,-18.027822 43.931679,-18.027822 25.728947,0 43.931677,18.027822 v 0.17464 M 93.714173,96.734291 q -22.753443,0 -39.030888,16.102409 -16.10254,16.27758 -16.10254,39.03102 0,22.92848 16.10254,39.03089 16.102408,16.10254 39.030888,16.10254 22.753447,0 38.855987,-16.10254 l 0.17464,-0.17464 q 16.1024,-16.10241 16.1024,-38.85585 0,-22.92848 -16.1024,-39.03102 Q 116.64226,96.734688 93.713776,96.734688"
       id="path612" />
    <path
       inkscape:connector-curvature="0"
       style="fill:#ffffff;stroke:none;stroke-width:3.50053287"
       d="m 93.714173,96.734291 q 22.928477,0 39.031017,16.102409 16.10241,16.10254 16.10241,39.03102 0,22.75344 -16.10241,38.85585 l -0.17464,0.17464 q -16.10254,16.10254 -38.85598,16.10254 -22.928481,0 -39.030888,-16.10254 -16.10254,-16.10241 -16.10254,-39.03089 0,-22.75344 16.10254,-39.03102 Q 70.961127,96.733894 93.71457,96.733894 m 0,7.001106 q -19.952972,0 -34.13023,14.00209 -14.002088,14.17713 -14.002088,34.13023 0,19.95297 14.002088,33.95519 14.177258,14.17713 34.13023,14.17713 19.9531,0 33.95519,-14.17713 14.17713,-14.00222 14.17713,-33.95519 0,-19.9531 -14.17713,-34.13023 Q 113.66767,103.735 93.71457,103.735"
       id="path614" />
    <path
       inkscape:connector-curvature="0"
       style="fill:#eeeeee;stroke:none;stroke-width:3.50053287"
       d="m 93.714173,103.7354 q 19.953107,0 33.955197,14.00209 14.17712,14.17712 14.17712,34.13023 0,19.95297 -14.17712,33.95519 -14.00209,14.17713 -33.955197,14.17713 -19.952972,0 -34.13023,-14.17713 -14.002088,-14.00222 -14.002088,-33.95519 0,-19.95311 14.002088,-34.13023 14.177258,-14.00209 34.13023,-14.00209"
       id="path616" />
    <path
       inkscape:connector-curvature="0"
       style="fill:#66762a;fill-opacity:1;stroke:none;stroke-width:5.23373699"
       d="m 93.714179,195.046 q -18.056351,0 -30.617322,-12.82266 -12.56097,-12.56097 -12.56097,-30.35562 0,-17.79483 12.56097,-30.61731 12.560971,-12.56097 30.617322,-12.56097 17.794831,0 30.355801,12.56097 12.82248,12.82248 12.82248,30.61731 0,17.79465 -12.82248,30.35562 Q 111.50901,195.046 93.714179,195.046"
       id="path642" />
  </g>
</svg>
