<?xml version="1.0" encoding="UTF-8" standalone="no"?>
<!-- Created with Inkscape (http://www.inkscape.org/) -->

<svg
   xmlns:dc="http://purl.org/dc/elements/1.1/"
   xmlns:cc="http://creativecommons.org/ns#"
   xmlns:rdf="http://www.w3.org/1999/02/22-rdf-syntax-ns#"
   xmlns:svg="http://www.w3.org/2000/svg"
   xmlns="http://www.w3.org/2000/svg"
   xmlns:sodipodi="http://sodipodi.sourceforge.net/DTD/sodipodi-0.dtd"
   xmlns:inkscape="http://www.inkscape.org/namespaces/inkscape"
   width="169.33334mm"
   height="297.67374mm"
   viewBox="0 0 169.33334 297.67374"
   version="1.1"
   id="svg13197"
   inkscape:export-filename="C:\Users\Eric\Documents\GitHub\FoxholeDefense\files\assets\skin\hi\enlist-disabled.png"
   inkscape:export-xdpi="96"
   inkscape:export-ydpi="96"
   inkscape:version="0.92.0 r15299"
   sodipodi:docname="enlist-button-disabled.svg">
  <defs
     id="defs13191" />
  <sodipodi:namedview
     id="base"
     pagecolor="#ffffff"
     bordercolor="#666666"
     borderopacity="1.0"
     inkscape:pageopacity="0.0"
     inkscape:pageshadow="2"
     inkscape:zoom="0.35"
     inkscape:cx="-1533.9108"
     inkscape:cy="674.52542"
     inkscape:document-units="mm"
     inkscape:current-layer="g8384"
     showgrid="false"
     inkscape:window-width="1920"
     inkscape:window-height="1017"
     inkscape:window-x="-8"
     inkscape:window-y="-8"
     inkscape:window-maximized="1" />
  <metadata
     id="metadata13194">
    <rdf:RDF>
      <cc:Work
         rdf:about="">
        <dc:format>image/svg+xml</dc:format>
        <dc:type
           rdf:resource="http://purl.org/dc/dcmitype/StillImage" />
        <dc:title />
      </cc:Work>
    </rdf:RDF>
  </metadata>
  <g
     inkscape:label="Layer 1"
     inkscape:groupmode="layer"
     id="layer1"
     transform="translate(-24.19047,1.515466)">
    <g
       transform="matrix(0,0.26615001,-0.26615001,0,-491.39819,1034.6836)"
       id="g8384"
       inkscape:export-filename="C:\Users\Robert\Desktop\military_ui\pngs\panels\small_screen_retangular_military_panel_640px_by_1125.png"
       inkscape:export-xdpi="90"
       inkscape:export-ydpi="90">
      <g
         id="g4626"
         transform="matrix(0.51996948,0,0,0.56249998,-1332.0109,-847.52975)">
        <path
           sodipodi:nodetypes="ccccccccccc"
           inkscape:connector-curvature="0"
           id="path8386"
           d="m -2847.63,-2573.4414 c -323.3719,-0.1192 -638.4715,4.9965 -961.8434,4.8777 l -15.9869,0.281 c -7.9885,1.1096 -67.8293,66.8079 -67.8293,66.8079 0.4219,233.2386 0.019,247.9105 0,492.2954 0,0 59.8408,65.6983 67.8293,66.8079 l 15.9869,0.2809 c 323.3719,-0.1187 638.4715,4.997 961.8434,4.8778 l 72.7838,-67.9826 c 0,-243.4211 0,-256.8423 0,-500.2634 z"
           style="fill:#3c3c3c;fill-opacity:1;stroke:none" />
        <path
           sodipodi:nodetypes="ccccccccccccccccsccccsc"
           inkscape:connector-curvature="0"
           id="path8388"
           d="m -3591.352,-2558.9613 c -120.6912,-0.021 -211.1,0.1422 -224.1229,0.6385 -0.01,2e-4 -0.019,-3e-4 -0.025,0 -0.4412,0.017 -0.8388,0.033 -1.0982,0.05 -0.2808,0.019 -0.4734,0.031 -0.5362,0.05 -0.01,0 -0.018,0 -0.025,0 -0.1765,-0.039 -0.3938,-0.011 -0.6639,0.05 -0.3917,0.091 -0.9087,0.3226 -1.4813,0.6129 -0.1457,0.072 -0.2793,0.1194 -0.4342,0.2043 -12.1108,6.6336 -56.6384,49.3388 -62.0066,59.1974 h -0.05 c -0.1,0.1844 -0.2096,0.4012 -0.2808,0.5619 h 0.025 c -0.01,0.015 -0.019,0.036 -0.025,0.05 0.5928,230.7111 0.015,242.8558 0,484.4298 4.0796,9.4147 59.2692,61.934 64.9179,60.6786 1.4711,0.5885 96.2401,0.7635 225.8084,0.7406 285.0499,-0.049 738.6655,-1.0981 738.6655,-1.0981 l 62.8749,-60.934 c 0,-237.7348 0,-245.4694 0,-483.204 l -62.8749,-60.9341 c 0,0 -453.6156,-1.0485 -738.6655,-1.0981 z"
           style="fill:#5f5f5f;fill-opacity:1;stroke:none" />
        <path
           sodipodi:nodetypes="ccccccccccsccsccc"
           inkscape:connector-curvature="0"
           id="path8390"
           d="m -3756.2774,-2529.5158 8.4277,30.0839 c 0,4.6846 -63.1394,75.3573 -68.5701,75.6696 -3.7905,0.218 -19.8453,-7.7235 -31.9737,-14.046 13.3551,194.9241 0.7218,164.1001 0,364.9623 12.1284,-6.3224 28.1832,-14.2639 31.9737,-14.046 5.4307,0.3124 68.5701,70.9851 68.5701,75.6697 0.6817,1.8632 -3.8686,16.434 -8.4277,30.0839 l 856.2687,-0.332 c -5.0724,-14.9359 -11.0416,-33.3801 -10.2664,-35.498 0,-4.6845 63.1396,-75.3572 68.5699,-75.6696 3.1879,-0.1834 11.6763,11.4723 22.5927,17.0186 -13.0699,-189.141 2.1512,-173.9709 3.4053,-353.3271 -10.9164,5.5462 -22.8101,11.1137 -25.998,10.9303 -5.4303,-0.3124 -68.5699,-70.9851 -68.5699,-75.6696 l 10.2664,-35.4981 z"
           style="fill:#a0a0a0;fill-opacity:1;stroke:none" />
        <path
           inkscape:connector-curvature="0"
           id="path8392"
           transform="matrix(0,-0.99411356,0.99411356,0,-6396.8487,513.79606)"
           d="m 2601.9688,2563.5312 c 6.3598,12.2003 14.3441,28.3746 14.125,32.1876 -0.3143,5.4628 -71.4127,68.9687 -76.125,68.9687 -1.8743,0.6857 -16.5193,-3.8827 -30.25,-8.4687 l 0.062,203.9687 c 85.623,15.9209 178.2615,24.625 274.9688,24.625 97.2923,0 190.4518,-8.8042 276.5,-24.9063 l 0.094,-203.6874 -30.2813,8.4687 c -4.7123,0 -75.8109,-63.5059 -76.125,-68.9687 -0.2193,-3.813 7.7963,-19.9873 14.1563,-32.1876 -50.3243,3.448 -85.657,5.1641 -113.8438,5.8126 l -3.2188,6.25 h -137.8124 l -3.8438,-10.0938 c -27.4937,-0.9785 -61.6642,-1.8008 -108.4062,-1.9688 z"
           style="opacity:0.07000002;fill:#ffffff;fill-opacity:1;stroke:none" />
        <path
           sodipodi:nodetypes="cccccccccccccccccccccccccccccccccc"
           inkscape:connector-curvature="0"
           id="path8394"
           d="m -3731.1224,-2509.596 7.4828,29.854 -75.7862,93.8362 -32.0869,-10.0966 c -4.6894,163.2814 -4.3743,112.1458 -4e-4,281.3506 l 32.0247,-8.2452 75.8484,91.9847 -7.4828,29.8541 806.3162,-7.3294 -4.7757,-25.9979 59.8869,-67.1398 31.9738,2.5028 c 0.8187,-180.8849 1.6996,-131.8201 0,-312.6092 l -34.3087,1.0435 -57.552,-65.6806 4.7757,-25.9979 z m 781.442,23.8526 -1.6236,20.4634 78.1012,87.775 16.4156,-4.6519 1.1675,252.4923 -10.9851,-5.1624 -87.034,88.2854 3.9584,21.6308 -757.0531,2.9113 9.2194,-25.9468 -90.8198,-94.1396 -25.357,1.053 c -0.165,-152.8518 -1.1724,-76.9543 -2.3346,-229.756 l 24.2395,3.5296 88.4348,-97.7836 -8.0518,-29.4492 z"
           style="opacity:0.19026549;fill:#000000;fill-opacity:1;stroke:none" />
        <path
           sodipodi:nodetypes="ccccccccccccccsccscccccccccccccccccccccc"
           inkscape:connector-curvature="0"
           id="path8396"
           d="m -3756.2774,-2529.5158 8.4277,30.0839 c 0,4.6846 -63.1394,75.3573 -68.5701,75.6696 -1.456,0.084 -4.7313,-1.0367 -8.8872,-2.8092 l -18.3876,24.0058 c 4.2345,174.7268 0.8165,119.6932 0,294.4771 l 24.5167,27.5083 c 4.156,-1.7725 7.4313,-2.8928 8.8873,-2.8092 5.4305,0.3123 62.4409,67.4826 62.4409,72.1672 0.6817,1.8632 -3.8686,16.434 -8.4277,30.0839 l 338.2017,-0.1278 172.8167,-4.7501 c 116.536,-6.0112 230.1222,3.6052 345.2503,4.5459 -5.0722,-14.9359 -11.0416,-33.3801 -10.2664,-35.498 0,-4.6845 60.8155,-65.4228 66.246,-65.7353 3.1877,-0.1833 12.2958,3.1144 23.2117,8.6602 -5.8897,-195.6431 -1.2281,-178.3348 2.7862,-364.8374 -10.916,5.5458 -25.1451,9.6544 -28.3328,9.471 -5.4305,-0.3123 -63.9111,-59.5914 -63.9111,-64.2759 l 10.2664,-35.4981 z m 828.4321,29.7519 -5.2609,25.8957 67.7418,75.7426 24.3488,-8.1941 c 2.1282,177.3183 0.3599,124.6604 0,301.9852 l -22.0138,-9.6533 -70.0768,77.2017 5.2609,25.8957 -302.2201,1.7822 -203.2821,1.4914 -294.4038,1.4765 7.9168,-26.6873 c 0,0 -78.1949,-88.8154 -81.4922,-92.419 l -27.3769,6.0233 c 0.01,-167.4025 0.1193,-104.8051 0,-272.2077 l 27.439,7.8747 c 3.2973,-3.6036 81.4301,-94.2703 81.4301,-94.2703 l -7.9168,-26.6874 z"
           style="fill:#2b2200;fill-opacity:1;stroke:none" />
        <path
           id="path8398"
           d="m -3149.7188,-2530.8438 c -147.9214,-0.025 -263.9861,0.5258 -352.9062,1.4688 l -253.6562,-0.094 c 4.556,13.6414 9.1191,28.1693 8.4374,30.0313 0,4.6844 -63.1632,75.3753 -68.5937,75.6875 -3.7965,0.2185 -19.8964,-7.7667 -32.0313,-14.0938 -10e-5,0.3077 0,0.5981 0,0.9063 l 11.9063,30.25 31.8437,12.0937 74.5,-87.5624 -8.8437,-30.25 133.0937,-0.4376 c 159.2077,4.1895 433.2045,5.7253 693.1876,-1 l -11.5313,35.0313 63.0937,67.3125 27.5313,-6.5 c 1.6175,-4.4568 13.1466,-14.3148 13.1563,-18.3438 -11.7212,1.7236 -25.2473,3.2627 -28.2813,4.6563 -5.1686,-0.272 -61.4375,-57.2329 -61.4375,-61.3125 -0.7374,-1.8436 8.1741,-24.309 13,-37.3125 -92.8274,-0.34 -176.792,-0.5185 -252.4688,-0.5313 z"
           style="fill:#5f5f5f;fill-opacity:1;stroke:none"
           inkscape:connector-curvature="0" />
        <path
           sodipodi:nodetypes="ccccccccccccc"
           id="path8400"
           d="m -3817.8128,-2558.1641 c -0.1352,0.032 -0.282,0.081 -0.4394,0.1372 -0.1407,0.049 -0.2521,0.097 -0.4119,0.1649 -0.1627,0.071 -0.3685,0.1571 -0.5492,0.247 -0.2363,0.1159 -0.4739,0.2365 -0.7414,0.3845 -0.025,0.015 -0.056,0.039 -0.083,0.054 -12.8494,7.3598 -58.3688,51.1273 -62.0584,59.642 v 0.1373 l 13.5749,6.0167 55.5405,-54.0159 -4.778,-12.7685 c -0.019,0 -0.036,-0.01 -0.054,0 z"
           style="fill:#6e6e6e;fill-opacity:1;stroke:none"
           inkscape:connector-curvature="0" />
        <path
           sodipodi:nodetypes="ccccccscccc"
           inkscape:connector-curvature="0"
           id="path8402"
           d="m -3591.3545,-2558.9604 c -129.5684,-0.023 -224.3009,0.1529 -225.7718,0.7414 -0.1643,-0.037 -0.3863,0 -0.6317,0.054 l 4.7883,12.7811 955.7977,-2.9571 3.6811,-9.5219 c -1.8054,0 -453.3827,-1.0486 -737.8636,-1.0984 z m -227.8863,1.3729 c -0.3902,0.1956 -0.8222,0.4313 -1.2906,0.714 0.4811,-0.2903 0.8912,-0.5142 1.2906,-0.714 z"
           style="fill:#787878;fill-opacity:1;stroke:none" />
        <path
           sodipodi:nodetypes="cccccccccccc"
           inkscape:connector-curvature="0"
           id="path8404"
           d="m -2853.4909,-2557.862 -3.6849,9.5337 h -0.6042 c 0.2103,0.1435 0.5493,0.3844 0.5493,0.3844 l 58.6855,57.6668 c 0,0 2.9799,-3.2591 8.7602,-5.9658 v -0.6866 l -62.8822,-60.9325 c 0,0 -0.712,2e-4 -0.8237,0 z m -965.7499,0.2745 c -0.3994,0.1999 -0.8095,0.4236 -1.2906,0.714 0.4684,-0.2827 0.9004,-0.5183 1.2906,-0.714 z"
           style="fill:#6e6e6e;fill-opacity:1;stroke:none" />
        <path
           sodipodi:nodetypes="cccccc"
           inkscape:connector-curvature="0"
           id="path8406"
           d="m -3882.0783,-2497.3888 c 0.5928,230.6082 0.015,242.657 0,484.1234 6.7623,-1.5857 7.4736,-4.9934 10.715,-5.1405 1.1343,-0.3037 4.7756,-1.2769 4.7756,-1.2769 -1.5536,-235.7088 -9.3624,-235.9885 -1.9331,-471.6972 z"
           style="opacity:0.25663715;fill:#000000;fill-opacity:1;stroke:none" />
        <path
           sodipodi:nodetypes="ccccccccccc"
           inkscape:connector-curvature="0"
           id="path8408"
           d="m -3819.229,-2557.5822 c -0.3901,0.1959 -0.8338,0.4322 -1.3025,0.715 0.4812,-0.2906 0.9031,-0.5152 1.3025,-0.715 z m 1029.443,61.3426 c -5.7804,2.7066 -8.7596,5.9504 -8.7596,5.9504 3.1289,230.2153 -0.1721,231.8025 0,469.9242 0,0 2.9792,3.2438 8.7596,5.9503 0,-237.275 0,-244.5499 0,-481.8249 z m -1030.7455,542.4525 c 0.4812,0.2907 0.9031,0.5153 1.3025,0.715 -0.3901,-0.1958 -0.8338,-0.4321 -1.3025,-0.715 z"
           style="fill:#5f5f5f;fill-opacity:1;stroke:none" />
        <path
           inkscape:connector-curvature="0"
           id="path8410"
           d="m -3368.4461,-2546.8632 c 41.7609,-1.9595 331.8553,-1.0659 346.9188,-1.0659 15.0635,0 95.1701,-0.9893 95.1701,-0.9893 0,0 -240.8716,3.5155 -246.5204,3.5155 -5.6488,0 -167.9136,0.3968 -167.9136,0.3968 z"
           style="fill:#a0a0a0;fill-opacity:1;stroke:none"
           sodipodi:nodetypes="cscscc" />
        <circle
           transform="matrix(0.87870324,0,0,0.87870324,-3765.9145,-3924.5476)"
           id="path8412"
           style="opacity:0.12980772;fill:#000000;fill-opacity:1;stroke:none"
           cx="68.942909"
           cy="1577.894"
           r="2.2728431" />
        <path
           id="path8414"
           d="m -3149.7188,-2530.8438 c -147.9213,-0.025 -263.9861,0.5258 -352.9062,1.4688 l -49.6875,-0.031 -203.5,-0.063 17.25,17.0626 132.5937,-0.4376 c 159.2077,4.1895 433.2045,5.7254 693.1876,-1 l -0.5313,1.5626 15.2187,-15.7813 c 0.2647,-0.706 0.5985,-1.589 0.8438,-2.25 -92.8274,-0.34 -176.7919,-0.5185 -252.4688,-0.5313 z"
           style="opacity:0.3539823;fill:#000000;fill-opacity:1;stroke:none"
           inkscape:connector-curvature="0" />
        <path
           sodipodi:nodetypes="cccccccccccc"
           inkscape:connector-curvature="0"
           id="path8416"
           d="m -3848.3935,-2437.8083 c 5.5796,197.2992 1.6393,166.6581 -3e-4,364.9623 4.2773,-2.2297 9.0435,-4.6377 13.5864,-6.8442 v -0.025 c 0.3613,-0.8893 0.5617,-1.4046 0.5617,-1.4046 l -1.9663,-24.8486 c 0.5187,-173.7082 2.6185,-131.3124 -3e-4,-298.7164 l 1.9664,-24.8486 c 0,0 -0.2004,-0.5153 -0.5618,-1.4047 v -0.025 c -4.5428,-2.2064 -9.3091,-4.6144 -13.5863,-6.8442 z"
           style="fill:#5f5f5f;fill-opacity:1;stroke:none" />
        <path
           inkscape:connector-curvature="0"
           style="opacity:0.47345132;fill:#000000;fill-opacity:1;stroke:none"
           d="m -3848.4563,-2437.8461 c -1e-4,0.3077 0,0.6063 0,0.9145 l 8.5112,21.5981 c 1.5087,3.3378 2.7771,6.0519 4.1546,9.0491 l 30.83,11.5285 c -0.5015,-4.4938 -8.8272,-21.4683 -10.317,-29.5321 -0.4957,0.3097 -0.8994,0.5212 -1.1542,0.5358 -3.7965,0.2185 -19.8898,-7.7667 -32.0246,-14.0939 z"
           id="path8418"
           sodipodi:nodetypes="cccccccc" />
        <path
           sodipodi:nodetypes="ccccc"
           inkscape:connector-curvature="0"
           id="path8420"
           d="m -2815.7328,-2440.0557 -18.413,22.0905 c 2.7633,185.0769 0.4914,140.1892 0,325.2762 l 14.5949,19.0979 c -9.4114,-195.7972 -1.0223,-176.9208 3.8181,-366.4646 z"
           style="fill:#5f5f5f;fill-opacity:1;stroke:none" />
        <path
           sodipodi:nodetypes="ccccccccccccc"
           style="opacity:0.47345132;fill:#000000;fill-opacity:1;stroke:none"
           d="m -2820.5195,-2436.1477 -5.5673,0.5874 c -4.1274,0.5731 -8.2494,1.1284 -11.8496,1.6599 -0.8601,0.1316 -4.114,-1.2052 -4.8888,-1.0762 -3.1291,0.5211 -5.5232,1.0428 -6.5889,1.5323 -0.1202,-0.01 -0.284,-0.058 -0.4596,-0.1276 -0.5167,0.1453 -0.9667,0.2661 -1.277,0.4085 -0.1049,-0.01 -0.237,-0.05 -0.383,-0.1021 -1.175,2.7036 -6.9566,15.4648 -9.7556,21.8861 l 0.025,0.025 27.5922,-6.6617 c 1.5924,-4.3876 12.7945,-13.9899 13.1521,-18.1322 z"
           id="path8422"
           inkscape:connector-curvature="0" />
        <circle
           transform="matrix(0.87870324,0,0,0.87870324,-7639.507,-3924.5476)"
           style="opacity:0.13942309;fill:#000000;fill-opacity:1;stroke:none"
           id="path8424"
           cx="4690.1382"
           cy="1590.7734"
           r="7.0710678" />
        <path
           sodipodi:nodetypes="ccccccccc"
           inkscape:connector-curvature="0"
           id="path8426"
           d="m -2858.9375,-2100.75 -64.5313,69.9375 10.6876,34 c -602.4667,-4.8254 -744.6038,12.7925 15.5312,16.5 -4.8259,-13.0034 -9.1917,-40.0146 -8.4543,-41.8582 0,-4.0796 51.7232,-56.4947 56.8918,-56.7668 3.034,1.3936 16.5601,2.9013 28.2813,4.625 -0.01,-4.0292 -11.5388,-13.8868 -13.1563,-18.3437 z"
           style="fill:#5f5f5f;fill-opacity:1;stroke:none" />
        <path
           sodipodi:nodetypes="cccccccccccc"
           inkscape:connector-curvature="0"
           style="fill:#5f5f5f;fill-opacity:1;stroke:none"
           d="m -3756.2835,-1981.1748 c 4.556,-13.6415 9.106,-28.186 8.4244,-30.048 0,-4.6845 -57.0191,-71.8575 -62.4495,-72.1698 -3.7967,-0.2185 -26.019,4.2645 -38.1538,10.5915 -1e-4,-0.3076 0,-0.6061 0,-0.9144 l 11.9154,-30.2372 31.7777,-10.2448 74.5383,85.6962 -8.8284,30.2689 325.0931,1.0088 -4.7027,15.9227 z"
           id="path8428" />
        <path
           sodipodi:nodetypes="ccccccccccccc"
           inkscape:connector-curvature="0"
           style="fill:#5a5a5a;fill-opacity:1;stroke:none"
           d="m -3817.8128,-1952.483 c -0.1352,-0.032 -0.282,-0.082 -0.4394,-0.1373 -0.1407,-0.049 -0.2521,-0.097 -0.4119,-0.1648 -0.1627,-0.071 -0.3685,-0.1571 -0.5492,-0.2471 -0.2363,-0.1158 -0.4739,-0.2365 -0.7414,-0.3844 -0.025,-0.015 -0.056,-0.039 -0.083,-0.054 -12.8494,-7.3596 -58.3688,-51.1273 -62.0584,-59.6419 0,-0.045 0,-0.092 0,-0.1373 12.0915,-2.8349 14.7062,-5.1704 14.7062,-5.1704 l 54.4092,53.1695 -4.778,12.7687 c -0.019,0 -0.036,0.01 -0.054,0 z"
           id="path8430" />
        <path
           style="opacity:0.43805315;fill:#000000;fill-opacity:1;stroke:none"
           d="m -3817.1263,-1952.4281 -0.6317,-0.054 4.7883,-12.7811 955.7977,2.9569 3.6811,9.522 c -319.4972,6.977 -641.496,3.948 -963.6354,0.3562 z m -2.1145,-0.6315 -1.2906,-0.714 z"
           id="path8432"
           inkscape:connector-curvature="0"
           sodipodi:nodetypes="ccccccccc" />
        <path
           style="fill:#5f5f5f;fill-opacity:1;stroke:none"
           d="m -2853.4909,-1952.7851 -3.6849,-9.5338 h -0.6042 c 0.2103,-0.1433 0.5493,-0.3843 0.5493,-0.3843 l 58.6855,-57.6668 c 0,0 2.9799,3.259 8.7602,5.9659 v 0.6865 l -62.8822,60.9325 c 0,0 -0.712,-3e-4 -0.8237,0 z m -965.7499,-0.2745 c -0.3994,-0.1998 -0.8095,-0.4236 -1.2906,-0.714 0.4684,0.2826 0.9004,0.5182 1.2906,0.714 z"
           id="path8434"
           inkscape:connector-curvature="0"
           sodipodi:nodetypes="cccccccccccc" />
        <path
           sodipodi:nodetypes="cccccccc"
           id="path8436"
           d="m -3848.4563,-2072.8011 c -1e-4,-0.3077 0,-0.6061 0,-0.9144 l 8.5112,-21.5981 c 1.5087,-3.3377 2.7771,-6.0519 4.1546,-9.0491 l 30.7678,-9.6771 c -0.5015,4.4938 -2.6358,23.1192 -4.1256,31.1831 -0.4958,-0.3097 -0.8995,-0.5214 -1.1543,-0.5359 -3.7964,-0.2185 -26.0189,4.2644 -38.1537,10.5915 z"
           style="opacity:0.47345132;fill:#000000;fill-opacity:1;stroke:none"
           inkscape:connector-curvature="0" />
        <path
           sodipodi:nodetypes="cccccc"
           id="path8438"
           d="m -3755.8157,-1981.1748 17.253,-17.0576 825.1944,1.1947 0.9994,15.8 -843.4468,0.062 z"
           style="fill:#787878;fill-opacity:1;stroke:none"
           inkscape:connector-curvature="0" />
        <path
           sodipodi:nodetypes="cccccccccccccccccccccccccccccccccccccc"
           inkscape:connector-curvature="0"
           id="path8440"
           d="m -3868.3998,-2112.6197 0.035,91.1821 -13.7139,8.3765 c 0.072,0.1606 0.1812,0.3774 0.2808,0.5619 l 14.5568,-5.1843 50.2846,51.7402 -2.7837,12.6415 c 0.3574,0.196 0.6928,0.3501 0.9961,0.4852 0.3578,0.1589 0.6489,0.2687 0.9194,0.332 0.032,0.01 0.096,-0.01 0.1276,0 0.093,0.016 0.2,0.042 0.281,0.05 0.1093,0.01 0.1956,0.019 0.2808,0 0.049,0.019 0.2497,0.033 0.5364,0.05 0.2516,0.02 0.5981,0.031 1.0982,0.05 0.01,4e-4 0.014,-4e-4 0.025,0 l 6.5122,-9.8577 117.731,-3.0391 -119.2889,-4.6991 -53.4002,-52.6341 -3.7214,-82.2296 z m 21.9987,-82.2458 -6.9723,134.2779 42.7252,-16.3152 59.8104,67.8512 -7.8913,29.5987 132.875,-2.5794 -125.6221,-1.0726 13.1776,-16.2166 -12.2071,9.0148 5.6184,-21.2732 14.8376,-17.2893 -18.1321,12.9733 -60.1423,-68.5662 4.5968,-29.1901 -7.7892,28.7304 -36.6572,10.6245 z"
           style="fill:#a0a0a0;fill-opacity:1;stroke:none" />
        <path
           sodipodi:nodetypes="ccccc"
           inkscape:connector-curvature="0"
           id="path8442"
           d="m -2976.3533,-1981.1831 -264.9343,-1.4826 c -643.8127,-0.8683 -0.4443,-10.855 328.269,-14.1211 7.3679,8.2226 12.2782,14.8305 12.6924,15.2973 -25.2578,0.056 -50.6299,0.1708 -76.0271,0.3064 z"
           style="fill:#787878;fill-opacity:1;stroke:none" />
        <path
           sodipodi:nodetypes="ccccccccccccc"
           inkscape:connector-curvature="0"
           id="path8444"
           d="m -2820.5195,-2074.4993 -5.5673,-0.5875 c -4.1274,-0.5731 -8.2494,-1.1284 -11.8496,-1.66 -0.8601,-0.1314 -1.7791,-0.254 -2.5539,-0.383 -3.1291,-0.5211 -5.5232,-1.0428 -6.5889,-1.5323 -0.1203,0.01 -0.2839,0.058 -0.4596,0.1276 -0.5167,-0.1453 -0.9667,-0.2661 -1.277,-0.4086 -0.1049,0.01 -0.237,0.05 -0.383,0.1022 -1.175,-2.7036 -6.9567,-15.4648 -9.7556,-21.8862 l 0.025,-0.025 25.2573,8.1211 c 1.5924,4.3875 12.7945,13.9899 13.1521,18.1321 z"
           style="opacity:0.47345132;fill:#000000;fill-opacity:1;stroke:none" />
        <path
           style="fill:#a0a0a0;fill-opacity:1;stroke:none"
           d="m -3024.2486,-1980.6135 130.5649,3.0577 -9.0161,-43.7714 55.6429,-52.8122 28.1505,1.5876 -3.2084,-108.91 0.2382,103.2455 -12.5336,-14.8403 8.1768,16.2508 -22.5237,-4.0821 -10.141,-19.7527 6.2456,23.4435 c -22.249,20.2545 -32.9029,28.4394 -52.3787,50.7737 l -18.9623,-5.4051 16.1645,9.9916 3.8865,37.6563 z"
           id="path8446"
           inkscape:connector-curvature="0"
           sodipodi:nodetypes="ccccccccccccccccc" />
        <path
           sodipodi:nodetypes="ccccc"
           style="opacity:0.23893804;fill:#000000;fill-opacity:1;stroke:none"
           d="m -2832.4726,-2512.9468 c -12.068,-12.0737 -34.8075,-8.92 -43.141,5.9948 -8.2772,13.2615 -2.9408,32.8102 11.3359,39.5477 13.2712,6.8604 31.6199,1.1962 37.8666,-12.6759 5.2416,-10.7224 2.9741,-24.8341 -6.0615,-32.8666 z"
           id="path8448"
           inkscape:connector-curvature="0" />
        <circle
           transform="matrix(0.49660829,0.47838122,-0.47838122,0.49660829,-4201.7605,-5431.077)"
           id="path8450"
           style="fill:#2b2200;fill-opacity:1;stroke:none"
           cx="4366.7856"
           cy="1709.8622"
           r="31.071428" />
        <path
           sodipodi:nodetypes="cccccscc"
           id="path8452"
           d="m -2839.6852,-2504.9584 c -5.8535,-5.6386 -14.7872,-6.0812 -21.1428,-1.4679 l 23.413,22.5539 c 4.3726,-6.5238 3.5832,-15.4473 -2.2702,-21.086 z m -25.1789,2.7221 c -4.3784,6.5243 -3.5988,15.4324 2.257,21.0732 5.8558,5.6409 14.7999,6.0997 21.1561,1.4805 z"
           style="fill:#989898;fill-opacity:1;stroke:none"
           inkscape:connector-curvature="0" />
        <path
           sodipodi:nodetypes="ccccccccc"
           inkscape:connector-curvature="0"
           id="path8454"
           d="m -2864.8641,-2502.2363 c -1.077,1.6046 -1.8441,3.3458 -2.2973,5.1536 0.1631,0.5137 0.3271,1.0153 0.5068,1.5043 0.2574,-2.4752 1.988,-4.3919 1.988,-4.3919 l 21.2298,20.4506 c 0,0 -2.4894,0.9112 -4.4702,2.0299 0.3997,0.1289 0.7851,0.2234 1.1577,0.3276 1.8701,-0.5137 3.6695,-1.3361 5.2965,-2.5184 z"
           style="fill:#ffffff;fill-opacity:1;stroke:none" />
        <path
           sodipodi:nodetypes="ccccccc"
           id="path8456"
           d="m -2853.4958,-2509.3968 c -2.5963,0.3754 -5.1217,1.366 -7.3322,2.9705 l 23.413,22.5539 c 1.0728,-1.6004 1.8446,-3.3483 2.2973,-5.1536 -0.993,1.2156 -2.2947,2.5141 -2.2947,2.5141 0,0 -20.7754,-19.276 -20.4936,-20.0207 0.2114,-0.5585 3.0171,-2.1173 4.4102,-2.8642 z"
           style="opacity:0.28846154;fill:#000000;fill-opacity:1;stroke:none"
           inkscape:connector-curvature="0" />
        <path
           sodipodi:nodetypes="cccc"
           id="path8458"
           d="m -2839.6852,-2504.9584 c -4.4722,-4.308 -10.7399,-5.5962 -16.2847,-3.9005 13.1861,-0.05 20.6092,14.4434 20.7312,20.275 1.5901,-5.6686 0.089,-12.0057 -4.4465,-16.3745 z"
           style="opacity:0.53539824;fill:#ffffff;fill-opacity:1;stroke:none"
           inkscape:connector-curvature="0" />
        <path
           sodipodi:nodetypes="cccc"
           id="path8460"
           d="m -2867.1614,-2497.0827 c -1.3981,5.5497 0.1352,11.6626 4.5543,15.9196 4.3707,4.2102 10.4604,5.5442 15.9118,4.024 -6.1131,-1.6984 -16.2179,-6.5628 -20.4661,-19.9436 z"
           style="opacity:0.39380529;fill:#000000;fill-opacity:1;stroke:none"
           inkscape:connector-curvature="0" />
        <circle
           transform="matrix(0.4216213,0.40614648,-0.40614648,0.4216213,-3996.8241,-4981.6261)"
           id="path8462"
           style="opacity:0.39380529;fill:#000000;fill-opacity:1;stroke:none"
           cx="4341.9644"
           cy="1716.6479"
           r="2.8571429" />
        <path
           sodipodi:nodetypes="ccccc"
           style="opacity:0.23893804;fill:#000000;fill-opacity:1;stroke:none"
           d="m -3822.2055,-2515.601 c -16.4188,4.6722 -24.7229,26.0749 -15.7441,40.6103 7.5616,13.6822 27.2379,18.5274 40.0685,9.3297 12.4489,-8.259 16.4237,-27.0463 7.3412,-39.2512 -6.8196,-9.7949 -20.2525,-14.677 -31.6656,-10.6888 z"
           id="path8464"
           inkscape:connector-curvature="0" />
        <circle
           transform="matrix(0.65952071,-0.20124814,0.20124814,0.65952071,-7037.9128,-2738.4461)"
           id="path8466"
           style="fill:#2b2200;fill-opacity:1;stroke:none"
           cx="4366.7856"
           cy="1709.8622"
           r="31.071428" />
        <path
           sodipodi:nodetypes="sccscscc"
           id="path8468"
           d="m -3818.7334,-2505.4137 c -7.7738,2.3721 -12.5055,9.9627 -11.5657,17.7598 l 31.0939,-9.488 c -3.5736,-6.9935 -11.7545,-10.6439 -19.5282,-8.2718 z m -9.8678,23.3242 c 3.5713,6.9988 11.7339,10.6501 19.5107,8.2771 7.7768,-2.373 12.5278,-9.9649 11.5832,-17.7652 z"
           style="fill:#989898;fill-opacity:1;stroke:none"
           inkscape:connector-curvature="0" />
        <path
           sodipodi:nodetypes="ccccccccc"
           inkscape:connector-curvature="0"
           id="path8470"
           d="m -3828.6012,-2482.0895 c 0.8783,1.7215 2.0265,3.2385 3.3858,4.5137 0.5282,0.1074 1.0462,0.2081 1.5608,0.2888 -2.0375,-1.4287 -2.8704,-3.8731 -2.8704,-3.8731 l 28.1942,-8.6032 c 0,0 -0.4147,2.6183 -0.4006,4.8931 0.307,-0.2865 0.577,-0.5772 0.8494,-0.8521 0.4607,-1.8839 0.6172,-3.8562 0.3755,-5.8528 z"
           style="fill:#ffffff;fill-opacity:1;stroke:none" />
        <path
           sodipodi:nodetypes="cccccsc"
           id="path8472"
           d="m -3829.3285,-2495.5052 c -0.9347,2.451 -1.2975,5.1394 -0.9706,7.8513 l 31.0939,-9.488 c -0.8767,-1.7156 -2.0286,-3.2401 -3.3858,-4.5139 0.5791,1.459 1.0807,3.228 1.0807,3.228 0,0 -26.947,8.7774 -27.4606,8.169 -0.3852,-0.4563 -0.3826,-3.666 -0.3576,-5.2464 z"
           style="opacity:0.28846154;fill:#000000;fill-opacity:1;stroke:none"
           inkscape:connector-curvature="0" />
        <path
           sodipodi:nodetypes="sccs"
           id="path8474"
           d="m -3818.7334,-2505.4137 c -5.9394,1.8123 -10.1133,6.6622 -11.3285,12.3318 6.3687,-11.5464 22.6436,-10.9827 27.7984,-8.2529 -4.1796,-4.1464 -10.4471,-5.9167 -16.4699,-4.0789 z"
           style="opacity:0.53539824;fill:#ffffff;fill-opacity:1;stroke:none"
           inkscape:connector-curvature="0" />
        <path
           sodipodi:nodetypes="cccc"
           id="path8476"
           d="m -3825.2154,-2477.5758 c 4.1691,3.9209 10.256,5.5543 16.1249,3.7634 5.8044,-1.7713 9.9317,-6.4433 11.2548,-11.946 -4.4571,4.5154 -13.6219,10.9786 -27.3797,8.1826 z"
           style="opacity:0.39380529;fill:#000000;fill-opacity:1;stroke:none"
           inkscape:connector-curvature="0" />
        <circle
           transform="matrix(0.55993423,-0.17086002,0.17086002,0.55993423,-6545.5284,-2698.9144)"
           id="path8478"
           style="opacity:0.39380529;fill:#000000;fill-opacity:1;stroke:none"
           cx="4341.9644"
           cy="1716.6479"
           r="2.8571429" />
        <g
           transform="translate(5.7142857,-225.71429)"
           id="g8480">
          <path
             inkscape:connector-curvature="0"
             id="path8482"
             d="m -3793.0356,-1771.6679 c 12.7611,-11.3386 10.9474,-34.2241 -3.4527,-43.4185 -12.7527,-9.0412 -32.5811,-4.8613 -40.1447,8.9954 -7.6274,12.8457 -3.0499,31.4952 10.4316,38.5452 10.3965,5.8619 24.6169,4.4265 33.1658,-4.1221 z"
             style="opacity:0.23893804;fill:#000000;fill-opacity:1;stroke:none" />
          <circle
             style="fill:#2b2200;fill-opacity:1;stroke:none"
             id="path8484"
             transform="matrix(-0.50670142,0.46767729,-0.46767729,-0.50670142,-799.57487,-2967.3377)"
             cx="4366.7856"
             cy="1709.8622"
             r="31.071428" />
          <path
             inkscape:connector-curvature="0"
             style="fill:#989898;fill-opacity:1;stroke:none"
             d="m -3800.587,-1779.337 c 5.9724,-5.5123 6.9386,-14.4048 2.7063,-21.0203 l -23.8891,22.0492 c 6.2559,4.7479 15.2104,4.4836 21.1828,-1.0289 z m -1.2395,-25.2953 c -6.2563,-4.7537 -15.1947,-4.4982 -21.1695,1.0166 -5.9748,5.5145 -6.9578,14.4163 -2.7197,21.0327 z"
             id="path8486" />
          <path
             style="fill:#ffffff;fill-opacity:1;stroke:none"
             d="m -3801.8265,-1804.6323 c -1.5389,-1.1692 -3.232,-2.0372 -5.01,-2.5956 -0.5224,0.1325 -1.0328,0.2668 -1.5314,0.4176 2.4556,0.4023 4.2675,2.2423 4.2675,2.2423 l -21.6613,19.993 c 0,0 -0.7635,-2.5386 -1.7639,-4.5815 -0.1522,0.3914 -0.2692,0.7704 -0.3951,1.1364 0.403,1.8971 1.1185,3.7416 2.2032,5.4351 z"
             id="path8488"
             inkscape:connector-curvature="0"
             sodipodi:nodetypes="ccccccccc" />
          <path
             inkscape:connector-curvature="0"
             style="opacity:0.28846154;fill:#000000;fill-opacity:1;stroke:none"
             d="m -3795.3457,-1792.8632 c -0.2224,-2.6138 -1.063,-5.1931 -2.535,-7.4941 l -23.8891,22.0492 c 1.5346,1.1649 3.2342,2.0378 5.01,2.5958 -1.1554,-1.0628 -2.3753,-2.4384 -2.3753,-2.4384 0,0 20.4621,-19.6083 21.189,-19.2833 0.5451,0.2439 1.9366,3.1362 2.6004,4.5708 z"
             id="path8490" />
          <path
             inkscape:connector-curvature="0"
             style="opacity:0.53539824;fill:#ffffff;fill-opacity:1;stroke:none"
             d="m -3800.587,-1779.337 c 4.5631,-4.2116 6.2169,-10.3929 4.8496,-16.0277 -0.723,13.1665 -15.6281,19.726 -21.4569,19.5055 5.5655,1.9202 11.98,0.7932 16.6073,-3.4778 z"
             id="path8492" />
          <path
             inkscape:connector-curvature="0"
             style="opacity:0.39380529;fill:#000000;fill-opacity:1;stroke:none"
             d="m -3806.8365,-1807.2279 c -5.4582,-1.7215 -11.6504,-0.5497 -16.1595,3.6122 -4.4595,4.1159 -6.1484,10.1169 -4.9509,15.648 2.0542,-6.0028 7.5033,-15.8047 21.1104,-19.2602 z"
             id="path8494" />
          <circle
             style="opacity:0.39380529;fill:#000000;fill-opacity:1;stroke:none"
             id="path8496"
             transform="matrix(-0.43019039,0.39705884,-0.39705884,-0.43019039,-1260.2784,-2789.1318)"
             cx="4341.9644"
             cy="1716.6479"
             r="2.8571429" />
        </g>
        <g
           transform="translate(0,-225.71429)"
           id="g8498">
          <path
             inkscape:connector-curvature="0"
             id="path8500"
             d="m -2827.1053,-1791.0762 c -0.3588,-14.9265 -16.662,-26.6472 -30.937,-22.2292 -13.242,3.405 -21.6558,19.0043 -16.6789,31.8836 4.2658,12.3506 19.3028,19.8326 31.6272,14.8162 9.788,-3.6283 16.8652,-13.933 15.9887,-24.4706 z"
             style="opacity:0.23893804;fill:#000000;fill-opacity:1;stroke:none" />
          <circle
             style="fill:#2b2200;fill-opacity:1;stroke:none"
             id="path8502"
             transform="matrix(0.02590385,0.60253941,-0.60253941,0.02590385,-1933.8462,-4465.1337)"
             cx="4366.7856"
             cy="1709.8622"
             r="31.071428" />
          <path
             inkscape:connector-curvature="0"
             style="fill:#989898;fill-opacity:1;stroke:none"
             d="m -2836.492,-1790.3684 c -0.3053,-7.1021 -5.696,-12.7718 -12.504,-13.6844 l 1.2213,28.4074 c 6.7045,-1.4936 11.588,-7.621 11.2827,-14.723 z m -17.5876,-13.4659 c -6.7087,1.4906 -11.5889,7.6022 -11.2835,14.7071 0.3055,7.1048 5.6929,12.7911 12.5047,13.7004 z"
             id="path8504" />
          <path
             style="fill:#ffffff;fill-opacity:1;stroke:none"
             d="m -2854.0796,-1803.8343 c -1.6501,0.3667 -3.1863,1.0064 -4.5638,1.8779 -0.2066,0.4237 -0.4055,0.8402 -0.5866,1.2584 1.6562,-1.4122 3.9085,-1.582 3.9085,-1.582 l 1.1073,25.7582 c 0,0 -2.1262,-0.9246 -4.0554,-1.4112 0.1753,0.3229 0.3623,0.6152 0.5354,0.9059 1.4943,0.8029 3.1299,1.3676 4.8735,1.6004 z"
             id="path8506"
             inkscape:connector-curvature="0"
             sodipodi:nodetypes="ccccccccc" />
          <path
             inkscape:connector-curvature="0"
             style="opacity:0.28846154;fill:#000000;fill-opacity:1;stroke:none"
             d="m -2842.5605,-1801.5108 c -1.8708,-1.3284 -4.0676,-2.2246 -6.4355,-2.542 l 1.2213,28.4074 c 1.6448,-0.3665 3.1878,-1.0077 4.5638,-1.8779 -1.3623,0.1707 -2.97,0.2078 -2.97,0.2078 0,0 -1.5281,-24.7403 -0.9004,-25.0419 0.4708,-0.2262 3.1879,0.4792 4.5208,0.8466 z"
             id="path8508" />
          <path
             inkscape:connector-curvature="0"
             style="opacity:0.53539824;fill:#ffffff;fill-opacity:1;stroke:none"
             d="m -2836.492,-1790.3684 c -0.2334,-5.4262 -3.4254,-10.0231 -7.9598,-12.2942 8.3813,7.9224 4.3381,21.5796 0.8975,25.3462 4.4267,-2.6304 7.2988,-7.5495 7.0623,-13.052 z"
             id="path8510" />
          <path
             inkscape:connector-curvature="0"
             style="opacity:0.39380529;fill:#000000;fill-opacity:1;stroke:none"
             d="m -2858.6434,-1801.9564 c -4.2334,2.6712 -6.9502,7.4673 -6.7197,12.8292 0.228,5.303 3.2799,9.8214 7.6493,12.1472 -2.8469,-4.7633 -6.3115,-13.9397 -0.9296,-24.9764 z"
             id="path8512" />
          <circle
             style="opacity:0.39380529;fill:#000000;fill-opacity:1;stroke:none"
             id="path8514"
             transform="matrix(0.02199241,0.511557,-0.511557,0.02199241,-2075.2017,-4056.8713)"
             cx="4341.9644"
             cy="1716.6479"
             r="2.8571429" />
        </g>
        <path
           sodipodi:nodetypes="sscscs"
           inkscape:connector-curvature="0"
           id="path8516"
           d="m -2798.8412,-2310.5038 c -0.9455,17.5253 -0.5837,175.7025 -0.5837,185.0422 0,9.3396 1.7512,32.6888 1.7512,32.6888 0,0 1.1674,-95.7316 0.5837,-101.5689 -0.5837,-5.8373 0,-148.6212 0,-148.6212 z"
           style="fill:#a0a0a0;fill-opacity:1;stroke:none" />
        <circle
           transform="matrix(0.81722085,0,0,0.81722085,1536.0978,-2066.484)"
           id="path8518"
           style="opacity:0.07000002;fill:#000000;fill-opacity:1;stroke:none"
           cx="-6597.8569"
           cy="-494.06638"
           r="8.5714283" />
        <path
           sodipodi:nodetypes="cccccccsccc"
           inkscape:connector-curvature="0"
           id="path8520"
           d="m -3872.7368,-2299.8988 0.5837,-186.6909 -10.5072,-11.6745 14.5933,1.7511 51.3682,-49.617 -1.1675,-12.842 7.0048,9.3396 c 0,0 327.472,2.335 325.1371,2.9187 -2.3348,0.5837 -326.3046,2.9187 -326.3046,2.9187 l -54.6181,54.8084 z"
           style="fill:#a0a0a0;fill-opacity:1;stroke:none" />
        <path
           sodipodi:nodetypes="ccccccccccc"
           inkscape:connector-curvature="0"
           id="path8522"
           d="m -3022.8272,-2547.2975 162.8605,-1.1675 5.8373,-8.7559 -1.1675,9.3397 55.4543,54.2868 9.9234,-4.0861 -7.0048,9.3396 -0.5836,137.1764 -5.2537,-136.5927 -57.2054,-56.0379 z"
           style="fill:#a0a0a0;fill-opacity:1;stroke:none" />
        <path
           inkscape:connector-curvature="0"
           id="path8524"
           d="m -3845.7143,-2349.7807 -6.4286,-95 36.0715,16.7857 66.7857,-72.5 -8.5714,-29.6428 141.0714,0.7143 -135.7143,2.5 8.2143,28.2142 14.2857,16.7858 -18.5714,-12.5 -64.2857,71.7857 8.2142,28.2143 -12.1428,-26.7858 -29.2857,-14.2857 z"
           style="fill:#a0a0a0;fill-opacity:1;stroke:none" />
        <path
           inkscape:connector-curvature="0"
           id="path8526"
           d="m -3104.7038,-2530.6489 c 2.0203,-0.5051 207.5863,1.0102 207.5863,1.0102 l -10.6066,37.3756 57.0736,57.5787 34.8503,-4.0406 -16.6675,20.203 8.0812,-13.637 -24.7488,3.5355 -11.6167,14.6472 6.0609,-17.6776 -55.5584,-57.5787 -12.6269,8.5863 10.6066,-13.132 10.1015,-27.2741 -8.5863,7.071 9.0914,-12.1218 z"
           style="fill:#a0a0a0;fill-opacity:1;stroke:none" />
      </g>
    </g>
  </g>
</svg>
