<?xml version="1.0" encoding="UTF-8" standalone="no"?>
<!-- Created with Inkscape (http://www.inkscape.org/) -->

<svg
   xmlns:dc="http://purl.org/dc/elements/1.1/"
   xmlns:cc="http://creativecommons.org/ns#"
   xmlns:rdf="http://www.w3.org/1999/02/22-rdf-syntax-ns#"
   xmlns:svg="http://www.w3.org/2000/svg"
   xmlns="http://www.w3.org/2000/svg"
   xmlns:sodipodi="http://sodipodi.sourceforge.net/DTD/sodipodi-0.dtd"
   xmlns:inkscape="http://www.inkscape.org/namespaces/inkscape"
   width="54.193699mm"
   height="53.713982mm"
   viewBox="0 0 54.193699 53.713982"
   version="1.1"
   id="svg6787"
   inkscape:version="0.92.0 r15299"
   sodipodi:docname="normal.svg"
   inkscape:export-filename="C:\Users\Eric\Documents\GitHub\lastdefenders\files\Military GUI\buttons\normal.png"
   inkscape:export-xdpi="45.868877"
   inkscape:export-ydpi="45.868877">
  <defs
     id="defs6781" />
  <sodipodi:namedview
     id="base"
     pagecolor="#ffffff"
     bordercolor="#666666"
     borderopacity="1.0"
     inkscape:pageopacity="0.0"
     inkscape:pageshadow="2"
     inkscape:zoom="1.4"
     inkscape:cx="-206.86113"
     inkscape:cy="118.42922"
     inkscape:document-units="mm"
     inkscape:current-layer="layer1"
     showgrid="false"
     inkscape:window-width="1920"
     inkscape:window-height="1017"
     inkscape:window-x="-8"
     inkscape:window-y="-8"
     inkscape:window-maximized="1" />
  <metadata
     id="metadata6784">
    <rdf:RDF>
      <cc:Work
         rdf:about="">
        <dc:format>image/svg+xml</dc:format>
        <dc:type
           rdf:resource="http://purl.org/dc/dcmitype/StillImage" />
        <dc:title />
      </cc:Work>
    </rdf:RDF>
  </metadata>
  <g
     inkscape:label="Layer 1"
     inkscape:groupmode="layer"
     id="layer1"
     transform="translate(-9.9448526,-82.666819)">
    <g
       transform="matrix(0.27624675,0,0,0.27624675,-1531.7408,-59.992978)"
       id="g7541">
      <path
         sodipodi:nodetypes="ccccccccc"
         inkscape:connector-curvature="0"
         id="path7543"
         d="m 5621.9124,516.42163 -40.2821,38.75315 -0.8021,116.91074 41.0842,38.77815 h 114.0102 l 41.0842,-38.77815 V 555.17478 l -41.0842,-38.75315 z"
         style="color:#000000;display:inline;overflow:visible;visibility:visible;fill:#2b2200;fill-opacity:1;fill-rule:nonzero;stroke:none;stroke-width:7;marker:none;enable-background:accumulate" />
      <path
         style="color:#000000;display:inline;overflow:visible;visibility:visible;fill:#66762a;fill-opacity:1;fill-rule:nonzero;stroke:none;stroke-width:7;marker:none;enable-background:accumulate"
         d="m 5627.5392,524.50285 -36.3059,34.92792 -0.723,105.37077 37.0289,34.95045 h 102.7566 l 37.0289,-34.95045 V 559.43077 l -37.0289,-34.92792 z"
         id="path7545"
         inkscape:connector-curvature="0"
         sodipodi:nodetypes="ccccccccc" />
      <path
         inkscape:connector-curvature="0"
         style="color:#000000;display:inline;overflow:visible;visibility:visible;fill:#40491a;fill-opacity:1;fill-rule:nonzero;stroke:none;stroke-width:7;marker:none;enable-background:accumulate"
         d="m 5627.5312,524.5 -36.3124,34.9375 -0.7188,105.375 37.0312,34.9375 h 102.75 l 37.0313,-34.9375 V 559.4375 L 5730.2812,524.5 Z m 6.25,16 h 90 l 27.5313,25.9375 v 91.375 l -27.5313,25.9375 h -89.75 c -9.177,-8.64583 -18.3541,-17.29167 -27.5312,-25.9375 l 0.7188,-91.625 c 8.854,-8.5625 17.7084,-17.125 26.5624,-25.6875 z"
         id="path7547" />
      <path
         style="color:#000000;display:inline;overflow:visible;visibility:visible;opacity:0.84070794;fill:#2f3613;fill-opacity:1;fill-rule:nonzero;stroke:none;stroke-width:7;marker:none;enable-background:accumulate"
         d="m 5635,683.75 -7.0625,16 h 102.3437 l -6.5179,-16.04464 z"
         id="path7549"
         inkscape:connector-curvature="0"
         sodipodi:nodetypes="ccccc" />
      <path
         style="color:#000000;display:inline;overflow:visible;visibility:visible;opacity:0.47345132;fill:#8b9e40;fill-opacity:1;fill-rule:nonzero;stroke:none;stroke-width:7;marker:none;enable-background:accumulate"
         d="m 5729.9688,524.5 -6.5626,16 h 0.375 l 27.5313,25.9375 16,-7 -37.0313,-34.9375 z"
         id="path7551"
         inkscape:connector-curvature="0"
         sodipodi:nodetypes="ccccccc" />
      <path
         inkscape:connector-curvature="0"
         style="color:#000000;display:inline;overflow:visible;visibility:visible;fill:#a8c04f;fill-opacity:1;fill-rule:nonzero;stroke:none;stroke-width:7;marker:none;enable-background:accumulate"
         d="m 5627.5312,524.5 6.8438,16 h 89.0312 l 6.5626,-16 z"
         id="path7553" />
      <path
         inkscape:connector-curvature="0"
         style="color:#000000;display:inline;overflow:visible;visibility:visible;fill:#8ea33f;fill-opacity:1;fill-rule:nonzero;stroke:none;stroke-width:7;marker:none;enable-background:accumulate"
         d="m 5627.5312,524.5 -35.8437,34.46875 15.875,6.875 c 8.7375,-8.44987 17.4812,-16.89388 26.2187,-25.34375 h 0.5938 z"
         id="path7555" />
      <path
         inkscape:connector-curvature="0"
         style="color:#000000;display:inline;overflow:visible;visibility:visible;opacity:0.66814162;fill:#40491a;fill-opacity:1;fill-rule:nonzero;stroke:none;stroke-width:7;marker:none;enable-background:accumulate"
         d="m 5591.6875,558.96875 -0.4687,0.46875 -0.7188,105.375 0.094,0.0937 15.9062,-7.09375 0.7188,-91.625 c 0.1164,-0.11263 0.2272,-0.23112 0.3437,-0.34375 l -15.875,-6.875 z"
         id="path7557" />
      <path
         inkscape:connector-curvature="0"
         style="color:#000000;display:inline;overflow:visible;visibility:visible;opacity:0.64159324;fill:#40491a;fill-opacity:1;fill-rule:nonzero;stroke:none;stroke-width:7;marker:none;enable-background:accumulate"
         d="m 5606.5,657.78125 -15.9375,7.09375 36.9687,34.875 h 0.4063 l 7.0625,-16 h -0.9688 c -9.177,-8.64583 -18.3541,-17.29167 -27.5312,-25.9375 v -0.0312 z"
         id="path7559" />
      <path
         style="color:#000000;display:inline;overflow:visible;visibility:visible;opacity:0.23008848;fill:#40491a;fill-opacity:1;fill-rule:nonzero;stroke:none;stroke-width:7;marker:none;enable-background:accumulate"
         d="m 5751.3125,566.4375 v 91.28125 l 15.9063,7.1875 0.094,-0.0937 v -105.375 z"
         id="path7561"
         inkscape:connector-curvature="0"
         sodipodi:nodetypes="cccccc" />
      <path
         inkscape:connector-curvature="0"
         style="color:#000000;display:inline;overflow:visible;visibility:visible;opacity:0.84070794;fill:#353d16;fill-opacity:1;fill-rule:nonzero;stroke:none;stroke-width:7;marker:none;enable-background:accumulate"
         d="m 5751.3125,657.71875 v 0.0937 l -27.5313,25.9375 6.5,16 36.9376,-34.84375 -15.9063,-7.1875 z"
         id="path7563" />
      <path
         style="color:#000000;display:inline;overflow:visible;visibility:visible;fill:#c9d891;fill-opacity:1;fill-rule:nonzero;stroke:none;stroke-width:7;marker:none;enable-background:accumulate"
         d="m 5591.3206,559.28147 c 2.7779,0.75761 14.2684,7.32361 14.2684,7.32361 l 1.5152,91.29253 2.5254,-90.66119 25.7589,-24.4962 86.8731,-0.50507 27.2742,23.99112 1.5152,37.62818 2.2728,-36.11295 14.1422,-8.5863 -16.1625,5.05076 -25.7589,-23.2335 4.5457,-16.16245 -9.0914,14.89976 h -85.1053 l -7.8287,-14.89976 4.2932,15.90991 -23.4861,22.98097 z"
         id="path7565"
         inkscape:connector-curvature="0" />
      <path
         style="color:#000000;display:inline;overflow:visible;visibility:visible;fill:#c9d891;fill-opacity:1;fill-rule:nonzero;stroke:none;stroke-width:7;marker:none;enable-background:accumulate"
         d="m 5673.7743,683.2777 48.4873,-1.6415 28.0318,-25.12755 1.5152,-28.03173 1.7678,28.03173 13.132,8.20749 -14.8998,-5.3033 -27.0216,24.74874 5.0508,14.14213 -7.5762,-14.14213 z"
         id="path7567"
         inkscape:connector-curvature="0" />
    </g>
  </g>
</svg>
