<?xml version="1.0" encoding="UTF-8" standalone="no"?>
<!-- Created with Inkscape (http://www.inkscape.org/) -->

<svg
   xmlns:dc="http://purl.org/dc/elements/1.1/"
   xmlns:cc="http://creativecommons.org/ns#"
   xmlns:rdf="http://www.w3.org/1999/02/22-rdf-syntax-ns#"
   xmlns:svg="http://www.w3.org/2000/svg"
   xmlns="http://www.w3.org/2000/svg"
   xmlns:sodipodi="http://sodipodi.sourceforge.net/DTD/sodipodi-0.dtd"
   xmlns:inkscape="http://www.inkscape.org/namespaces/inkscape"
   width="54.193699mm"
   height="53.713982mm"
   viewBox="0 0 54.193699 53.713982"
   version="1.1"
   id="svg6787"
   inkscape:version="0.92.0 r15299"
   sodipodi:docname="red.svg"
   inkscape:export-filename="C:\Users\Eric\Documents\GitHub\FoxholeDefense\files\Military GUI\buttons\red.png"
   inkscape:export-xdpi="45.868877"
   inkscape:export-ydpi="45.868877">
  <defs
     id="defs6781" />
  <sodipodi:namedview
     id="base"
     pagecolor="#ffffff"
     bordercolor="#666666"
     borderopacity="1.0"
     inkscape:pageopacity="0.0"
     inkscape:pageshadow="2"
     inkscape:zoom="0.7"
     inkscape:cx="-386.16621"
     inkscape:cy="-161.28793"
     inkscape:document-units="mm"
     inkscape:current-layer="layer1"
     showgrid="false"
     inkscape:window-width="1920"
     inkscape:window-height="1017"
     inkscape:window-x="-8"
     inkscape:window-y="-8"
     inkscape:window-maximized="1" />
  <metadata
     id="metadata6784">
    <rdf:RDF>
      <cc:Work
         rdf:about="">
        <dc:format>image/svg+xml</dc:format>
        <dc:type
           rdf:resource="http://purl.org/dc/dcmitype/StillImage" />
        <dc:title></dc:title>
      </cc:Work>
    </rdf:RDF>
  </metadata>
  <g
     inkscape:label="Layer 1"
     inkscape:groupmode="layer"
     id="layer1"
     transform="translate(-9.9448526,-82.666819)">
    <path
       style="color:#000000;display:inline;overflow:visible;visibility:visible;fill:#2b2200;fill-opacity:1;fill-rule:nonzero;stroke:none;stroke-width:1.93372726;marker:none;enable-background:accumulate"
       d="M 21.294229,82.666819 10.16643,93.372251 9.9448526,125.66846 21.294229,136.3808 H 52.789177 L 64.138553,125.66846 V 93.372251 L 52.789177,82.666819 Z"
       id="path7543"
       inkscape:connector-curvature="0"
       sodipodi:nodetypes="ccccccccc" />
    <path
       sodipodi:nodetypes="ccccccccc"
       inkscape:connector-curvature="0"
       id="path7545"
       d="m 22.848614,84.89923 -10.029386,9.648724 -0.199727,29.108336 10.229113,9.65495 h 28.386177 l 10.229114,-9.65495 V 94.547954 L 51.234791,84.89923 Z"
       style="color:#000000;display:inline;overflow:visible;visibility:visible;fill:#b50600;fill-opacity:1;fill-rule:nonzero;stroke:none;stroke-width:1.93372726;marker:none;enable-background:accumulate" />
    <path
       id="path7547"
       d="m 22.846405,84.898442 -10.031183,9.651371 -0.198566,29.109497 10.229749,9.65138 h 28.384353 l 10.229776,-9.65138 V 94.549813 L 51.230758,84.898442 Z m 1.726542,4.419948 h 24.862207 l 7.605432,7.16515 v 25.24205 l -7.605432,7.16515 H 24.642008 c -2.535116,-2.38839 -5.07026,-4.77677 -7.605404,-7.16515 L 17.23517,96.414479 c 2.445889,-2.365363 4.891888,-4.730726 7.337777,-7.096089 z"
       style="color:#000000;display:inline;overflow:visible;visibility:visible;fill:#d0000c;fill-opacity:1;fill-rule:nonzero;stroke:none;stroke-width:1.93372726;marker:none;enable-background:accumulate"
       inkscape:connector-curvature="0" />
    <path
       sodipodi:nodetypes="ccccc"
       inkscape:connector-curvature="0"
       id="path7549"
       d="m 24.909636,128.89074 -1.950992,4.41995 h 28.272114 l -1.800549,-4.43228 z"
       style="color:#000000;display:inline;overflow:visible;visibility:visible;opacity:0.84070794;fill:#810008;fill-opacity:1;fill-rule:nonzero;stroke:none;stroke-width:1.93372726;marker:none;enable-background:accumulate" />
    <path
       id="path7553"
       d="m 22.846405,84.898442 1.890577,4.419948 h 24.59458 l 1.812897,-4.419948 z"
       style="color:#000000;display:inline;overflow:visible;visibility:visible;fill:#ff0900;fill-opacity:1;fill-rule:nonzero;stroke:none;stroke-width:1.93372726;marker:none;enable-background:accumulate"
       inkscape:connector-curvature="0" />
    <path
       id="path7555"
       d="m 22.846405,84.898442 -9.901706,9.521881 4.385417,1.899196 c 2.413706,-2.334249 4.829125,-4.666879 7.242831,-7.001129 h 0.164035 z"
       style="color:#000000;display:inline;overflow:visible;visibility:visible;fill:#ff0900;fill-opacity:1;fill-rule:nonzero;stroke:none;stroke-width:1.93372726;marker:none;enable-background:accumulate"
       inkscape:connector-curvature="0" />
    <path
       id="path7557"
       d="m 12.944699,94.420323 -0.129477,0.12949 -0.198566,29.109497 0.02597,0.0259 4.394036,-1.95963 0.198566,-25.311105 c 0.03215,-0.03111 0.06276,-0.06385 0.09495,-0.09496 l -4.385417,-1.899196 z"
       style="color:#000000;display:inline;overflow:visible;visibility:visible;opacity:0.66814162;fill:#d0000c;fill-opacity:1;fill-rule:nonzero;stroke:none;stroke-width:1.93372726;marker:none;enable-background:accumulate"
       inkscape:connector-curvature="0" />
    <path
       id="path7559"
       d="m 17.036604,121.71695 -4.402683,1.95963 10.212484,9.63411 h 0.112239 l 1.950992,-4.41995 h -0.267628 c -2.535116,-2.38839 -5.07026,-4.77677 -7.605404,-7.16515 v -0.009 z"
       style="color:#000000;display:inline;overflow:visible;visibility:visible;opacity:0.64159324;fill:#d0000c;fill-opacity:1;fill-rule:nonzero;stroke:none;stroke-width:1.93372726;marker:none;enable-background:accumulate"
       inkscape:connector-curvature="0" />
    <path
       sodipodi:nodetypes="cccccc"
       inkscape:connector-curvature="0"
       id="path7561"
       d="m 57.040586,96.48354 v 25.21615 l 4.394064,1.98552 0.02597,-0.0259 V 94.549827 Z"
       style="color:#000000;display:inline;overflow:visible;visibility:visible;opacity:0.23008848;fill:#d0000c;fill-opacity:1;fill-rule:nonzero;stroke:none;stroke-width:1.93372726;marker:none;enable-background:accumulate" />
    <path
       id="path7563"
       d="m 57.040586,121.69969 v 0.0259 l -7.605432,7.16515 1.795604,4.41995 10.203892,-9.62547 -4.394064,-1.98552 z"
       style="color:#000000;display:inline;overflow:visible;visibility:visible;opacity:0.84070794;fill:#810008;fill-opacity:1;fill-rule:nonzero;stroke:none;stroke-width:1.93372726;marker:none;enable-background:accumulate"
       inkscape:connector-curvature="0" />
    <path
       inkscape:connector-curvature="0"
       id="path7565"
       d="m 12.843344,94.50671 c 0.767386,0.209288 3.941599,2.023124 3.941599,2.023124 l 0.418569,25.219266 0.697634,-25.04486 7.115812,-6.766996 23.998412,-0.139524 7.534409,6.627469 0.418569,10.394661 0.627853,-9.976084 3.906737,-2.371937 -4.464838,1.395256 -7.115812,-6.418179 1.255735,-4.464824 -2.51147,4.11601 H 25.15649 l -2.162653,-4.11601 1.185983,4.395061 -6.487959,6.348418 z"
       style="color:#000000;display:inline;overflow:visible;visibility:visible;fill:#ff9d8d;fill-opacity:1;fill-rule:nonzero;stroke:none;stroke-width:1.93372726;marker:none;enable-background:accumulate" />
    <path
       inkscape:connector-curvature="0"
       id="path7567"
       d="m 35.620911,128.76027 13.394459,-0.45346 7.743693,-6.94141 0.418569,-7.74367 0.488349,7.74367 3.627673,2.2673 -4.116022,-1.46502 -7.464629,6.83675 1.395267,3.90672 -2.0929,-3.90672 z"
       style="color:#000000;display:inline;overflow:visible;visibility:visible;fill:#ff9d8d;fill-opacity:1;fill-rule:nonzero;stroke:none;stroke-width:1.93372726;marker:none;enable-background:accumulate" />
  </g>
</svg>
