<?xml version="1.0" encoding="UTF-8" standalone="no"?>
<!-- Created with Inkscape (http://www.inkscape.org/) -->

<svg
   xmlns:dc="http://purl.org/dc/elements/1.1/"
   xmlns:cc="http://creativecommons.org/ns#"
   xmlns:rdf="http://www.w3.org/1999/02/22-rdf-syntax-ns#"
   xmlns:svg="http://www.w3.org/2000/svg"
   xmlns="http://www.w3.org/2000/svg"
   xmlns:sodipodi="http://sodipodi.sourceforge.net/DTD/sodipodi-0.dtd"
   xmlns:inkscape="http://www.inkscape.org/namespaces/inkscape"
   width="178.35886mm"
   height="53.713982mm"
   viewBox="0 0 178.35886 53.713982"
   version="1.1"
   id="svg3646"
   inkscape:version="0.92.0 r15299"
   sodipodi:docname="text_button_press.svg"
   inkscape:export-filename="C:\Users\Eric\Documents\GitHub\FoxholeDefense\files\Military GUI\buttons\text_button_press.png"
   inkscape:export-xdpi="21.361429"
   inkscape:export-ydpi="21.361429">
  <defs
     id="defs3640" />
  <sodipodi:namedview
     id="base"
     pagecolor="#ffffff"
     bordercolor="#666666"
     borderopacity="1.0"
     inkscape:pageopacity="0.0"
     inkscape:pageshadow="2"
     inkscape:zoom="0.49497475"
     inkscape:cx="-166.49873"
     inkscape:cy="-196.1569"
     inkscape:document-units="mm"
     inkscape:current-layer="layer1"
     showgrid="false"
     inkscape:window-width="958"
     inkscape:window-height="1008"
     inkscape:window-x="-7"
     inkscape:window-y="0"
     inkscape:window-maximized="0" />
  <metadata
     id="metadata3643">
    <rdf:RDF>
      <cc:Work
         rdf:about="">
        <dc:format>image/svg+xml</dc:format>
        <dc:type
           rdf:resource="http://purl.org/dc/dcmitype/StillImage" />
        <dc:title />
      </cc:Work>
    </rdf:RDF>
  </metadata>
  <g
     inkscape:label="Layer 1"
     inkscape:groupmode="layer"
     id="layer1"
     transform="translate(-16.65387,-81.154913)">
    <path
       style="color:#000000;display:inline;overflow:visible;visibility:visible;fill:#2b2200;fill-opacity:1;fill-rule:nonzero;stroke:none;stroke-width:1.85208333;marker:none;enable-background:accumulate"
       d="M 28.003225,81.154913 16.875432,91.860344 16.65387,124.15656 28.003225,134.86889 H 183.66337 l 11.34935,-10.71233 V 91.860344 L 183.66337,81.154913 Z"
       id="path7254"
       inkscape:connector-curvature="0"
       sodipodi:nodetypes="ccccccccc" />
    <path
       sodipodi:nodetypes="ccccccccc"
       inkscape:connector-curvature="0"
       id="path7256"
       d="m 29.557626,83.387324 -10.029402,9.648725 -0.199708,29.108331 10.22911,9.65495 H 182.10897 l 10.2291,-9.65495 V 93.036049 l -10.2291,-9.648725 z"
       style="color:#000000;display:inline;overflow:visible;visibility:visible;fill:#2a3676;fill-opacity:1;fill-rule:nonzero;stroke:none;stroke-width:1.85208333;marker:none;enable-background:accumulate" />
    <path
       style="color:#000000;display:inline;overflow:visible;visibility:visible;opacity:0.09734515;fill:#000000;fill-opacity:1;fill-rule:nonzero;stroke:none;stroke-width:1.85208333;marker:none;enable-background:accumulate"
       d="m 20.39992,112.59019 -1.02526,2.71198 -0.04964,6.84609 10.236094,9.64903 H 182.10992 l 10.22781,-9.64903 v -9.55807 z"
       id="path7293"
       inkscape:connector-curvature="0"
       sodipodi:nodetypes="cccccccc" />
    <path
       id="path7258"
       d="m 29.555403,83.386536 -10.031174,9.65137 -0.19857,29.109504 10.229744,9.65137 H 182.10494 l 10.22977,-9.65137 V 93.037906 l -10.22977,-9.65137 z m 1.726539,4.419949 H 180.30932 l 7.60545,7.16515 v 25.242045 l -7.60545,7.16515 H 31.351024 c -2.535131,-2.38838 -5.070263,-4.77677 -7.605421,-7.16515 l 0.19857,-25.311107 c 2.445887,-2.365364 4.891881,-4.730726 7.337769,-7.096088 z"
       style="color:#000000;display:inline;overflow:visible;visibility:visible;fill:#1a2549;fill-opacity:1;fill-rule:nonzero;stroke:none;stroke-width:1.85208333;marker:none;enable-background:accumulate"
       inkscape:connector-curvature="0"
       sodipodi:nodetypes="cccccccccccccccccc" />
    <path
       sodipodi:nodetypes="ccccc"
       inkscape:connector-curvature="0"
       id="path7260"
       d="m 31.61865,127.37883 -1.951011,4.41995 H 182.10494 l -1.80054,-4.43228 z"
       style="color:#000000;display:inline;overflow:visible;visibility:visible;opacity:0.84070794;fill:#131636;fill-opacity:1;fill-rule:nonzero;stroke:none;stroke-width:1.85208333;marker:none;enable-background:accumulate" />
    <path
       id="path7264"
       d="m 29.555403,83.386536 1.89058,4.419949 H 180.20574 l 1.8129,-4.419949 z"
       style="color:#000000;display:inline;overflow:visible;visibility:visible;fill:#3f5ba3;fill-opacity:1;fill-rule:nonzero;stroke:none;stroke-width:1.85208333;marker:none;enable-background:accumulate"
       inkscape:connector-curvature="0"
       sodipodi:nodetypes="ccccc" />
    <path
       id="path7266"
       d="m 29.555403,83.386536 -9.901687,9.52188 4.385416,1.899198 c 2.413688,-2.334249 4.829122,-4.666879 7.24281,-7.001129 h 0.164041 z"
       style="color:#000000;display:inline;overflow:visible;visibility:visible;fill:#3f5ba3;fill-opacity:1;fill-rule:nonzero;stroke:none;stroke-width:1.85208333;marker:none;enable-background:accumulate"
       inkscape:connector-curvature="0"
       sodipodi:nodetypes="cccccc" />
    <path
       id="path7268"
       d="m 19.653716,92.908416 -0.129487,0.12949 -0.19857,29.109504 0.02593,0.0259 4.394015,-1.95963 0.19857,-25.311108 c 0.03217,-0.03111 0.06276,-0.06385 0.09496,-0.09496 l -4.385416,-1.899195 z"
       style="color:#000000;display:inline;overflow:visible;visibility:visible;opacity:0.66814162;fill:#1a2549;fill-opacity:1;fill-rule:nonzero;stroke:none;stroke-width:1.85208333;marker:none;enable-background:accumulate"
       inkscape:connector-curvature="0"
       sodipodi:nodetypes="ccccccccc" />
    <path
       id="path7270"
       d="m 23.745603,120.20505 -4.402667,1.95962 10.212467,9.63411 h 0.112236 l 1.951011,-4.41995 h -0.267626 c -2.535131,-2.38838 -5.070263,-4.77677 -7.605421,-7.16515 v -0.009 z"
       style="color:#000000;display:inline;overflow:visible;visibility:visible;opacity:0.64159324;fill:#1a2549;fill-opacity:1;fill-rule:nonzero;stroke:none;stroke-width:1.85208333;marker:none;enable-background:accumulate"
       inkscape:connector-curvature="0"
       sodipodi:nodetypes="ccccccccc" />
    <path
       sodipodi:nodetypes="cccccc"
       inkscape:connector-curvature="0"
       id="path7272"
       d="m 187.91477,94.971635 v 25.216145 l 4.39407,1.98553 0.0259,-0.0259 v -29.1095 z"
       style="color:#000000;display:inline;overflow:visible;visibility:visible;opacity:0.23008848;fill:#1a2549;fill-opacity:1;fill-rule:nonzero;stroke:none;stroke-width:1.85208333;marker:none;enable-background:accumulate" />
    <path
       id="path7274"
       d="m 187.91477,120.18778 v 0.0259 l -7.60545,7.16515 1.79562,4.41995 10.2039,-9.62547 z"
       style="color:#000000;display:inline;overflow:visible;visibility:visible;opacity:0.84070794;fill:#131636;fill-opacity:1;fill-rule:nonzero;stroke:none;stroke-width:1.85208333;marker:none;enable-background:accumulate"
       inkscape:connector-curvature="0"
       sodipodi:nodetypes="ccccccc" />
    <path
       inkscape:connector-curvature="0"
       id="path7276"
       d="m 19.552354,92.994806 c 0.767371,0.209285 3.941604,2.023123 3.941604,2.023123 l 0.418571,25.219261 0.697626,-25.044856 7.11581,-6.766996 148.163595,-0.139523 7.53441,6.627468 0.41857,10.394657 0.62786,-9.97608 3.90673,-2.371937 -4.46485,1.395256 -7.11581,-6.41818 1.25574,-4.464823 -2.51148,4.116009 H 31.865507 l -2.162652,-4.116009 1.185969,4.39506 -6.487954,6.348418 z"
       style="color:#000000;display:inline;overflow:visible;visibility:visible;fill:#b6caff;fill-opacity:1;fill-rule:nonzero;stroke:none;stroke-width:1.85208333;marker:none;enable-background:accumulate"
       sodipodi:nodetypes="ccccccccccccccccccc" />
    <path
       sodipodi:nodetypes="ccccccccccc"
       inkscape:connector-curvature="0"
       id="path7278"
       d="m 173.04318,127.31518 6.84638,-0.52028 7.74369,-6.9414 0.41857,-7.74368 0.48835,7.74368 3.62767,2.26729 -4.11602,-1.46502 -7.46463,6.83676 1.39525,3.90672 -2.09288,-3.90672 z"
       style="color:#000000;display:inline;overflow:visible;visibility:visible;fill:#b6caff;fill-opacity:1;fill-rule:nonzero;stroke:none;stroke-width:1.85208333;marker:none;enable-background:accumulate" />
  </g>
</svg>
