<?xml version="1.0" encoding="UTF-8" standalone="no"?>
<!-- Created with Inkscape (http://www.inkscape.org/) -->

<svg
   xmlns:dc="http://purl.org/dc/elements/1.1/"
   xmlns:cc="http://creativecommons.org/ns#"
   xmlns:rdf="http://www.w3.org/1999/02/22-rdf-syntax-ns#"
   xmlns:svg="http://www.w3.org/2000/svg"
   xmlns="http://www.w3.org/2000/svg"
   xmlns:sodipodi="http://sodipodi.sourceforge.net/DTD/sodipodi-0.dtd"
   xmlns:inkscape="http://www.inkscape.org/namespaces/inkscape"
   width="64.201721mm"
   height="13.861665mm"
   viewBox="0 0 64.201721 13.861665"
   version="1.1"
   id="svg2706"
   inkscape:version="0.92.0 r15299"
   sodipodi:docname="rocket.svg">
  <defs
     id="defs2700" />
  <sodipodi:namedview
     id="base"
     pagecolor="#ffffff"
     bordercolor="#666666"
     borderopacity="1.0"
     inkscape:pageopacity="0.0"
     inkscape:pageshadow="2"
     inkscape:zoom="0.35"
     inkscape:cx="-341.53105"
     inkscape:cy="-53.804705"
     inkscape:document-units="mm"
     inkscape:current-layer="layer1"
     showgrid="false"
     inkscape:window-width="1920"
     inkscape:window-height="1017"
     inkscape:window-x="-8"
     inkscape:window-y="-8"
     inkscape:window-maximized="1" />
  <metadata
     id="metadata2703">
    <rdf:RDF>
      <cc:Work
         rdf:about="">
        <dc:format>image/svg+xml</dc:format>
        <dc:type
           rdf:resource="http://purl.org/dc/dcmitype/StillImage" />
        <dc:title></dc:title>
      </cc:Work>
    </rdf:RDF>
  </metadata>
  <g
     inkscape:label="Layer 1"
     inkscape:groupmode="layer"
     id="layer1"
     transform="translate(-57.857472,-120.73584)">
    <g
       transform="matrix(0.42420469,0,0,0.42420469,59.039269,-255.29969)"
       id="g6148"
       inkscape:export-filename="C:\Users\rober\Desktop\f-15\pngs\military_green\military_green_jet_ssmall_misile.png"
       inkscape:export-xdpi="120"
       inkscape:export-ydpi="120">
      <path
         style="fill:#000000;fill-opacity:1;stroke:none"
         d="M -1.2774331,897.00507 H 127.706 c 2.27284,-0.12627 19.39567,4.21315 19.33253,6.10719 0.31568,2.0203 -17.12282,6.03566 -19.33253,6.03566 H -1.2774331 c -0.2815878,0 -1.5082812,-1.04148 -1.5082812,-2.33516 v -7.47253 c 0,-1.29368 1.2266934,-2.33516 1.5082812,-2.33516 z"
         id="path6150"
         inkscape:connector-curvature="0"
         sodipodi:nodetypes="scccssss" />
      <path
         sodipodi:nodetypes="scccssss"
         inkscape:connector-curvature="0"
         id="path6152"
         d="m -1.151164,895.48984 c 0,0 116.218664,-0.25254 126.698994,0.37881 7.36221,0 23.06907,5.34957 23.00593,7.24361 0.31568,2.0203 -11.06191,7.17208 -20.72149,7.29835 L -1.2774331,909.14792 c -0.2815743,-0.003 -1.5264543,-1.04161 -1.5082812,-2.33516 l 0.1262691,-8.98776 c 0.018173,-1.29355 1.2267043,-2.33268 1.5082812,-2.33516 z"
         style="fill:#15180c;fill-opacity:1;stroke:none" />
      <path
         inkscape:connector-curvature="0"
         style="fill:#5f6b31;fill-opacity:1;stroke:none"
         d="m 1.9375,898.625 c -0.2815832,-0.002 -1.4276229,1.02085 -1.5,2.3125 L 0.25,904.125 c -0.0723771,1.29165 1.2184167,2.34175 1.5,2.34375 l 20.03125,0.125 v -7.875 z m 23.25,0.125 v 7.84375 l 62.6875,0.375 v -7.875 z m 66.46875,0.375 v 7.84375 l 28.5625,0.1875 v -7.875 z M 123.5,899.28125 v 7.875 l 4.21875,0.0312 c 2.20971,0 15.34693,-1.69845 15.03125,-3.71875 0.0631,-1.89404 -13.47716,-4.28252 -15.75,-4.15625 z"
         id="path6154" />
      <path
         style="fill:#15180c;fill-opacity:1;stroke:none"
         d="M 21.027151,898.53561 9.6000386,886.44831 H -0.49143622 l 1.03882829,11.96207 z"
         id="path6156"
         inkscape:connector-curvature="0"
         sodipodi:nodetypes="ccccc" />
      <path
         inkscape:connector-curvature="0"
         id="path6158"
         d="M 21.027151,907.48209 9.6000386,919.12514 H -0.49143622 l 1.03882829,-11.51782 z"
         style="fill:#15180c;fill-opacity:1;stroke:none"
         sodipodi:nodetypes="ccccc" />
      <path
         inkscape:connector-curvature="0"
         id="path6160"
         d="M 86.741437,898.53561 75.314324,886.44831 H 65.22285 l 1.038828,11.96207 z"
         style="fill:#15180c;fill-opacity:1;stroke:none"
         sodipodi:nodetypes="ccccc" />
      <path
         style="fill:#15180c;fill-opacity:1;stroke:none"
         d="M 86.741437,907.48209 75.314324,919.12514 H 65.22285 l 1.038828,-11.51782 z"
         id="path6162"
         inkscape:connector-curvature="0"
         sodipodi:nodetypes="ccccc" />
      <path
         inkscape:connector-curvature="0"
         style="opacity:0.79646014;fill:#8ba91d;fill-opacity:1;stroke:none"
         d="m 1.9375,898.625 c -0.2815832,-0.002 -1.4276229,1.02085 -1.5,2.3125 l -0.03125,0.71875 h 21.375 v -2.9375 z m 23.25,0.125 v 2.90625 H 87.875 v -2.5625 z m 66.46875,0.375 v 2.53125 h 28.5625 v -2.375 z M 123.5,899.28125 v 2.375 h 16.1875 C 135.56769,900.32952 128.57537,899.22498 127,899.3125 l -3.5,-0.0312 z"
         id="path6164" />
      <path
         inkscape:connector-curvature="0"
         style="opacity:0.13716814;fill:#000000;fill-opacity:1;stroke:none"
         d="M 0.3125,902.90625 0.25,904.125 c -0.0723771,1.29165 1.2184167,2.34175 1.5,2.34375 l 20.03125,0.125 v -3.6875 z m 24.875,0 v 3.6875 l 62.6875,0.375 v -4.0625 z m 66.46875,0 v 4.0625 l 28.5625,0.1875 v -4.25 z m 31.84375,0 v 4.25 l 4.21875,0.0312 c 2.20971,0 15.34693,-1.69845 15.03125,-3.71875 0.006,-0.18246 -0.15082,-0.37355 -0.375,-0.5625 H 123.5 Z"
         id="path6166" />
      <path
         style="fill:#15180c;fill-opacity:1;stroke:none"
         d="m 63.950957,901.14154 c 7.336267,-0.71125 14.672534,-0.71732 22.008801,0 0.455408,0.0445 0.825957,0.59732 0.825957,1.33929 0,0.74196 -0.373967,1.26797 -0.825957,1.33928 -7.336267,1.15736 -14.672534,0.72592 -22.008801,0 -0.455356,-0.0451 -0.825957,-0.59732 -0.825957,-1.33928 0,-0.74197 0.370512,-1.29513 0.825957,-1.33929 z"
         id="path6168"
         inkscape:connector-curvature="0"
         sodipodi:nodetypes="sssssss" />
      <path
         style="fill:#15180c;fill-opacity:1;stroke:none"
         d="m 2.9725311,900.96558 c 5.3645695,-0.72854 10.9310949,-0.44729 16.5308309,0 0.456127,0.0364 0.825957,0.67579 0.825957,1.51523 0,0.83943 -0.374489,1.44068 -0.825957,1.51522 -5.510277,0.90977 -11.0205539,1.22326 -16.5308309,0 -0.4467051,-0.0992 -0.8259568,-0.67579 -0.8259568,-1.51522 0,-0.83944 0.3725388,-1.45365 0.8259568,-1.51523 z"
         id="path6170"
         inkscape:connector-curvature="0"
         sodipodi:nodetypes="sssssss" />
    </g>
  </g>
</svg>
