<?xml version="1.0" encoding="UTF-8" standalone="no"?>
<!-- Created with Inkscape (http://www.inkscape.org/) -->

<svg
   xmlns:dc="http://purl.org/dc/elements/1.1/"
   xmlns:cc="http://creativecommons.org/ns#"
   xmlns:rdf="http://www.w3.org/1999/02/22-rdf-syntax-ns#"
   xmlns:svg="http://www.w3.org/2000/svg"
   xmlns="http://www.w3.org/2000/svg"
   xmlns:sodipodi="http://sodipodi.sourceforge.net/DTD/sodipodi-0.dtd"
   xmlns:inkscape="http://www.inkscape.org/namespaces/inkscape"
   width="210mm"
   height="297mm"
   viewBox="0 0 210 297"
   version="1.1"
   id="svg3648"
   inkscape:version="0.92.0 r15299"
   sodipodi:docname="slider-knob.svg">
  <defs
     id="defs3642" />
  <sodipodi:namedview
     id="base"
     pagecolor="#ffffff"
     bordercolor="#666666"
     borderopacity="1.0"
     inkscape:pageopacity="0.0"
     inkscape:pageshadow="2"
     inkscape:zoom="0.7"
     inkscape:cx="28.044163"
     inkscape:cy="487.92592"
     inkscape:document-units="mm"
     inkscape:current-layer="layer1"
     showgrid="false"
     inkscape:window-width="1920"
     inkscape:window-height="1017"
     inkscape:window-x="-8"
     inkscape:window-y="-8"
     inkscape:window-maximized="1" />
  <metadata
     id="metadata3645">
    <rdf:RDF>
      <cc:Work
         rdf:about="">
        <dc:format>image/svg+xml</dc:format>
        <dc:type
           rdf:resource="http://purl.org/dc/dcmitype/StillImage" />
        <dc:title></dc:title>
      </cc:Work>
    </rdf:RDF>
  </metadata>
  <g
     inkscape:label="Layer 1"
     inkscape:groupmode="layer"
     id="layer1">
    <g
       id="g10800"
       transform="matrix(0.10453979,0,0,0.16858407,-102.42145,255.75511)"
       inkscape:export-filename="C:\Users\Robert\Desktop\military_ui\pngs\slider_bar\military_ui_slider_grabber.png"
       inkscape:export-xdpi="90"
       inkscape:export-ydpi="90">
      <g
         transform="translate(-67.142857)"
         id="g10781">
        <path
           inkscape:connector-curvature="0"
           id="path10623"
           d="m 1424,-595.71875 c 0.034,19.6875 0.034,39.375 0,59.0625 9.1458,8.98958 18.2917,17.97917 27.4375,26.96875 65.2292,0 130.4583,0 195.6875,0 9.1458,-8.98958 18.2917,-17.97917 27.4375,-26.96875 -0.034,-19.6875 -0.034,-39.375 0,-59.0625 -9.1458,-8.98958 -18.2917,-17.97917 -27.4375,-26.96875 -65.2292,0 -130.4583,0 -195.6875,0 -9.1458,8.98958 -18.2917,17.97917 -27.4375,26.96875 z"
           style="color:#000000;display:inline;overflow:visible;visibility:visible;fill:#2b2200;fill-opacity:1;fill-rule:nonzero;stroke:none;stroke-width:7;marker:none;enable-background:accumulate" />
        <path
           sodipodi:nodetypes="ccccccccc"
           inkscape:connector-curvature="0"
           id="path10639"
           d="m 1459.2239,-610.9622 -23.3422,21.94172 0.5087,47.18765 21.816,23.46788 180.4143,-0.50872 24.3596,-23.97661 v -47.69633 l -26.9032,-22.95919 z"
           style="color:#000000;display:inline;overflow:visible;visibility:visible;fill:#66762a;fill-opacity:1;fill-rule:nonzero;stroke:none;stroke-width:7;marker:none;enable-background:accumulate" />
        <path
           inkscape:connector-curvature="0"
           style="color:#000000;display:inline;overflow:visible;visibility:visible;opacity:0.1017699;fill:#000000;fill-opacity:1;fill-rule:nonzero;stroke:none;stroke-width:7;marker:none;enable-background:accumulate"
           d="m 1636.0625,-613.5 -59.1563,0.84375 L 1550,-608 v 86.0625 l 93.4688,-1.71875 19.5,-19.1875 v -47.6875 z"
           id="path10776" />
        <path
           style="color:#000000;display:inline;overflow:visible;visibility:visible;fill:#000000;fill-opacity:1;fill-rule:nonzero;stroke:none;stroke-width:7;marker:none;enable-background:accumulate"
           d="m 1636.0848,-613.5058 -176.8514,2.53725 -23.3473,21.94507 0.5119,47.18412 21.8116,23.48078 180.4124,-0.5119 24.3488,-23.97043 v -47.69602 z m -6.3654,15.66869 c 6.3336,4.31451 11.6928,9.89705 17.5828,14.68939 v 32.98437 c -4.0801,5.63667 -10.3612,10.34543 -15.2904,15.62418 l -166.2795,0.51189 c -5.015,-3.61802 -9.0327,-9.52679 -13.6656,-14.02169 -0.167,-11.13577 -0.3449,-22.27151 -0.5119,-33.40724 3.6202,-5.06412 9.5399,-9.15529 14.044,-13.84365 z"
           id="path10641"
           inkscape:connector-curvature="0" />
        <path
           inkscape:connector-curvature="0"
           style="color:#000000;display:inline;overflow:visible;visibility:visible;fill:#8ea33f;fill-opacity:1;fill-rule:nonzero;stroke:none;stroke-width:7;marker:none;enable-background:accumulate"
           d="m 1459.2188,-610.96875 -23.3438,21.9375 c 1.5029,0.3747 9.1091,3.97572 15.9062,7.25 3.6369,-4.92186 9.4008,-8.93901 13.8126,-13.53125 l 1.4687,-0.0312 -7.8437,-15.625 z"
           id="path10668" />
        <path
           inkscape:connector-curvature="0"
           style="color:#000000;display:inline;overflow:visible;visibility:visible;fill:#40491a;fill-opacity:1;fill-rule:nonzero;stroke:none;stroke-width:7;marker:none;enable-background:accumulate"
           d="m 1435.875,-589 0.5312,47.15625 0.3438,0.34375 15.3125,-7.03125 c -0.165,-10.97955 -0.3353,-21.95799 -0.5,-32.9375 0.074,-0.10383 0.1426,-0.20948 0.2187,-0.3125 -6.7183,-3.23667 -14.37,-6.8324 -15.9062,-7.21875 z"
           id="path10670" />
        <path
           inkscape:connector-curvature="0"
           style="color:#000000;display:inline;overflow:visible;visibility:visible;fill:#40491a;fill-opacity:1;fill-rule:nonzero;stroke:none;stroke-width:7;marker:none;enable-background:accumulate"
           d="m 1452.0625,-548.53125 -15.3125,7.03125 20.8438,22.46875 7.9374,-15.125 c -4.9289,-3.62867 -8.8931,-9.4669 -13.4687,-13.90625 0,-0.15622 0,-0.31253 0,-0.46875 z"
           id="path10672" />
        <path
           inkscape:connector-curvature="0"
           style="color:#000000;display:inline;overflow:visible;visibility:visible;fill:#323914;fill-opacity:1;fill-rule:nonzero;stroke:none;stroke-width:7;marker:none;enable-background:accumulate"
           d="m 1631.9688,-534.53125 -166.25,0.5 c -0.062,-0.0447 -0.1259,-0.0796 -0.1876,-0.125 l -7.9374,15.125 0.625,0.6875 180.4062,-0.53125 0.2812,-0.28125 z"
           id="path10674" />
        <path
           inkscape:connector-curvature="0"
           style="color:#000000;display:inline;overflow:visible;visibility:visible;fill:#373f17;fill-opacity:1;fill-rule:nonzero;stroke:none;stroke-width:7;marker:none;enable-background:accumulate"
           d="m 1647.3125,-551.15625 v 1 c -4.0801,5.63667 -10.3833,10.34625 -15.3125,15.625 h -0.031 l 6.9374,15.375 24.0626,-23.6875 v -0.59375 l -15.6563,-7.71875 z"
           id="path10676" />
        <path
           inkscape:connector-curvature="0"
           style="color:#000000;display:inline;overflow:visible;visibility:visible;fill:#40491a;fill-opacity:1;fill-rule:nonzero;stroke:none;stroke-width:7;marker:none;enable-background:accumulate"
           d="m 1662.9688,-590.09375 -15.6563,7.75 v 31.1875 l 15.6563,7.71875 z"
           id="path10678" />
        <path
           inkscape:connector-curvature="0"
           style="color:#000000;display:inline;overflow:visible;visibility:visible;fill:#64712c;fill-opacity:1;fill-rule:nonzero;stroke:none;stroke-width:7;marker:none;enable-background:accumulate"
           d="m 1636.2812,-613.34375 -7.125,15.5 h 0.5626 c 6.3335,4.31451 11.7037,9.89516 17.5937,14.6875 v 0.8125 l 15.6563,-7.75 v -0.4375 z"
           id="path10680" />
        <path
           inkscape:connector-curvature="0"
           style="color:#000000;display:inline;overflow:visible;visibility:visible;fill:#a8c04f;fill-opacity:1;fill-rule:nonzero;stroke:none;stroke-width:7;marker:none;enable-background:accumulate"
           d="m 1636.0938,-613.5 -176.875,2.53125 7.8437,15.625 162.0937,-2.5 7.125,-15.5 z"
           id="path10682" />
        <path
           style="color:#000000;display:inline;overflow:visible;visibility:visible;fill:#bacc6f;fill-opacity:1;fill-rule:nonzero;stroke:none;stroke-width:7;marker:none;enable-background:accumulate"
           d="m 1436.6071,-541.03068 13.3929,-9.10714 -0.8929,-31.25 -12.6786,-7.5 13.2144,4.46428 14.6428,-11.60714 -4.8215,-13.92857 7.3215,12.32143 h 133.75 l -134.1071,3.39286 -14.4643,13.57142 1.25,31.60715 11.6071,13.75 43.9286,1.07143 -42.6786,0.89285 -8.2143,15.35715 5.3572,-15.53572 -12.5,-13.39286 z"
           id="path10765"
           inkscape:connector-curvature="0"
           sodipodi:nodetypes="ccccccccccccccccccc" />
        <path
           style="color:#000000;display:inline;overflow:visible;visibility:visible;fill:#bacc6f;fill-opacity:1;fill-rule:nonzero;stroke:none;stroke-width:7;marker:none;enable-background:accumulate"
           d="m 1591.4286,-534.42354 39.8214,-1.42857 14.8214,-14.82143 -0.1785,-31.96428 -17.1429,-15.17857 -35.1786,0.71428 35.1786,-2.32143 7.5,-13.75 -5.3571,14.10715 15.7142,14.10714 15.8929,-5.17857 -13.5714,8.03571 -0.3572,30.17857 13.2143,8.03572 -14.1071,-5.71429 -14.2857,15.17857 5.5357,15.17858 -8.0357,-14.82143 z"
           id="path10767"
           inkscape:connector-curvature="0" />
        <path
           style="color:#000000;display:inline;overflow:visible;visibility:visible;fill:#394217;fill-opacity:1;fill-rule:nonzero;stroke:none;stroke-width:7;marker:none;enable-background:accumulate"
           d="m 1528.7188,-590.0119 c -3.2796,0 -5.9063,2.62669 -5.9063,5.90625 v 35.6369 c 0,3.27956 2.6267,5.9375 5.9063,5.9375 h 2.5624 c 3.2796,0 5.9063,-2.65794 5.9063,-5.9375 v -35.6369 c 0,-3.27956 -2.6267,-5.90625 -5.9063,-5.90625 z m 19.5624,0 c -3.2795,0 -5.9062,2.62669 -5.9062,5.90625 v 35.6369 c 0,3.27956 2.6267,5.9375 5.9062,5.9375 h 2.5626 c 3.2795,0 5.9374,-2.65794 5.9374,-5.9375 v -35.6369 c 0,-3.27956 -2.6579,-5.90625 -5.9374,-5.90625 z m 19.5938,0 c -3.2796,0 -5.9375,2.62669 -5.9375,5.90625 v 35.6369 c 0,3.27956 2.6579,5.9375 5.9375,5.9375 h 2.5625 c 3.2796,0 5.9063,-2.65794 5.9063,-5.9375 v -35.6369 c 0,-3.27956 -2.6267,-5.90625 -5.9063,-5.90625 z"
           id="rect10769"
           inkscape:connector-curvature="0"
           sodipodi:nodetypes="sssssssssssssssssssssssssss" />
      </g>
    </g>
  </g>
</svg>
