<?xml version="1.0" encoding="UTF-8" standalone="no"?>
<!-- Created with Inkscape (http://www.inkscape.org/) -->

<svg
   xmlns:dc="http://purl.org/dc/elements/1.1/"
   xmlns:cc="http://creativecommons.org/ns#"
   xmlns:rdf="http://www.w3.org/1999/02/22-rdf-syntax-ns#"
   xmlns:svg="http://www.w3.org/2000/svg"
   xmlns="http://www.w3.org/2000/svg"
   xmlns:sodipodi="http://sodipodi.sourceforge.net/DTD/sodipodi-0.dtd"
   xmlns:inkscape="http://www.inkscape.org/namespaces/inkscape"
   width="508mm"
   height="285.75mm"
   viewBox="0 0 508 285.75"
   version="1.1"
   id="svg19518"
   inkscape:version="0.92.0 r15299"
   sodipodi:docname="main-panel-no-header.svg">
  <defs
     id="defs19512" />
  <sodipodi:namedview
     id="base"
     pagecolor="#ffffff"
     bordercolor="#666666"
     borderopacity="1.0"
     inkscape:pageopacity="0.0"
     inkscape:pageshadow="2"
     inkscape:zoom="0.35"
     inkscape:cx="150.90179"
     inkscape:cy="335.10362"
     inkscape:document-units="mm"
     inkscape:current-layer="layer1"
     showgrid="false"
     inkscape:window-width="1920"
     inkscape:window-height="1017"
     inkscape:window-x="-8"
     inkscape:window-y="-8"
     inkscape:window-maximized="1" />
  <metadata
     id="metadata19515">
    <rdf:RDF>
      <cc:Work
         rdf:about="">
        <dc:format>image/svg+xml</dc:format>
        <dc:type
           rdf:resource="http://purl.org/dc/dcmitype/StillImage" />
        <dc:title />
      </cc:Work>
    </rdf:RDF>
  </metadata>
  <g
     inkscape:label="Layer 1"
     inkscape:groupmode="layer"
     id="layer1"
     transform="translate(201.32193,48.253835)">
    <g
       id="g7243"
       transform="matrix(0.37227195,0,0,0.27060404,2271.2045,119.07282)"
       inkscape:export-filename="C:\Users\Robert\Desktop\military_ui\pngs\panels\large_screen_rectanglar_military_panel_1985px_by_1536.png"
       inkscape:export-xdpi="128.49051"
       inkscape:export-ydpi="128.49051">
      <g
         transform="translate(-2537.346,-344.53082)"
         id="g7131">
        <path
           style="fill:#2b2200;fill-opacity:1;stroke:none"
           d="m -2900.9375,-273.78125 c -373.1913,0.74493 -746.3838,5.96838 -1119.5625,6.125 -8.5252,0.48668 -12.8645,9.34013 -19.3125,13.78125 -22.6803,21.11186 -43.3639,44.26388 -64.5625,66.90625 0.4702,294.09355 0.045,588.18753 0,882.28125 25.9919,27.26427 50.4179,56.37302 79.875,79.875 9.6629,2.07237 19.6702,0.0501 29.4375,0.94346 389.1338,0.10922 778.2405,6.08954 1167.375,6.02529 29.3232,-27.33104 58.6106,-54.70162 87.9063,-82.0625 0,-297.28125 -1e-4,-594.5625 0,-891.84375 -29.2957,-27.36085 -58.5831,-54.7315 -87.9063,-82.0625 -24.4167,-0.006 -48.8333,0.004 -73.25,0.0312 z"
           id="path6701"
           inkscape:connector-curvature="0" />
        <path
           style="fill:#66762a;fill-opacity:1;stroke:none"
           d="m -3736.9062,-258.09375 c -147.6849,-0.0261 -258.3145,0.17393 -274.25,0.78125 -0.01,3e-4 -0.023,-3e-4 -0.031,0 -0.5399,0.0207 -1.0264,0.0408 -1.3437,0.0625 -0.3437,0.0235 -0.5793,0.0378 -0.6563,0.0625 -0.01,-0.002 -0.022,0.002 -0.031,0 -0.216,-0.048 -0.4818,-0.0144 -0.8124,0.0625 -0.4792,0.11144 -1.1119,0.39485 -1.8126,0.75 -0.1782,0.0869 -0.3418,0.14612 -0.5312,0.25 -14.8195,8.11728 -69.3062,60.37387 -75.875,72.4375 h -0.062 c -0.122,0.22558 -0.2565,0.49095 -0.3437,0.6875 h 0.031 c -0.01,0.0184 -0.023,0.0443 -0.031,0.0625 0.7254,282.311937 0.019,578.61459 0,874.21875 4.992,11.52037 72.5253,75.78608 79.4374,74.25 1.8001,0.72008 117.765,0.93425 276.3126,0.90625 348.804,-0.0607 903.875,-1.34375 903.875,-1.34375 l 76.9374,-74.5625 c 0,-290.90625 0,-581.8125 0,-872.71875 l -76.9374,-74.5625 c 0,0 -555.071,-1.283 -903.875,-1.34375 z"
           id="path6703"
           inkscape:connector-curvature="0"
           sodipodi:nodetypes="ccccccccccccccccsccccsc" />
        <path
           style="fill:#b7cc6f;fill-opacity:1;stroke:none"
           d="m -3938.7188,-222.0625 c 5.5789,16.70278 11.1469,34.53247 10.3126,36.8125 0,5.73218 -77.2611,92.211612 -83.9063,92.59375 -4.6383,0.266873 -24.2839,-9.45109 -39.125,-17.1875 16.3421,238.52064 0.8833,482.2444 0,728.03125 14.8411,-7.73641 34.4867,-17.45437 39.125,-17.1875 6.6452,0.38214 83.9063,86.86157 83.9063,92.59375 0.8343,2.28003 -4.7337,20.10972 -10.3126,36.8125 l 413.8438,-0.15625 19.4688,-50.9375 h 167.6562 l 24.875,48 c 138.4966,-12.04874 280.4462,1.04669 421.9375,2.6875 -6.2068,-18.27639 -13.5112,-40.84586 -12.5625,-43.4375 0,-5.73218 77.2613,-92.2115 83.9062,-92.59375 3.9008,-0.2244 14.2878,14.03822 27.6457,20.82488 -15.993,-231.44411 2.6324,-494.32261 4.1669,-713.79363 -13.3579,6.786659 -27.9118,13.599401 -31.8126,13.375 -6.6449,-0.382246 -83.9062,-86.86157 -83.9062,-92.59375 -0.9487,-2.59164 6.3557,-25.16111 12.5625,-43.4375 -141.4913,1.64081 -283.4409,14.73624 -421.9375,2.6875 l -24.875,48 h -167.6562 l -19.4688,-50.9375 z"
           id="path6705"
           inkscape:connector-curvature="0"
           sodipodi:nodetypes="ccccccccccccccsccsccccccc" />
        <path
           inkscape:connector-curvature="0"
           style="opacity:0.07000002;fill:#ffffff;fill-opacity:1;stroke:none"
           d="m -3938.7188,-222.0625 c 5.5789,16.70278 11.1468,34.53247 10.3126,36.8125 0,5.73218 -77.2611,92.211612 -83.9063,92.59375 -4.6383,0.266873 -24.2839,-9.45109 -39.125,-17.1875 10.8183,157.897762 7.6937,318.10911 4.0937,479.65625 168.3073,72.79584 387.7436,116.84375 627.75,116.84375 238.4228,0 456.5094,-43.46842 624.375,-115.40625 -0.3754,-160.88583 6.4121,-323.590841 7.4376,-470.25 -13.3579,6.786659 -27.9117,13.599401 -31.8126,13.375 -6.6448,-0.382246 -83.9062,-86.86157 -83.9062,-92.59375 -0.9487,-2.59164 6.3557,-25.16111 12.5625,-43.4375 -141.4913,1.64081 -283.4409,14.73624 -421.9375,2.6875 l -24.875,48 h -167.6562 l -19.4688,-50.9375 z"
           id="path7126" />
        <path
           style="opacity:0.19026549;fill:#000000;fill-opacity:1;stroke:none"
           d="m -3295.7188,-199.03125 -25.4062,58 -193.4688,5.4375 -23.875,-62.96875 -369.4687,0.875 9.1563,36.53125 -92.7365,114.823445 -39.2635,-12.354695 c -5.7382,199.8007 -5.3526,418.66979 -5e-4,625.71875 l 39.1874,-10.08929 92.8126,112.55804 -9.1563,36.53125 369.4687,0.875 23.875,-69.02967 193.4688,5.4375 25.4062,64.06092 374.4376,-10.3125 -5.8438,-31.8125 73.2812,-82.15625 39.125,3.0625 c 1.0019,-221.34143 2.0797,-442.74457 0,-663.96875 l -41.9821,1.276786 -70.4241,-80.370536 5.8438,-31.8125 z m -258.2812,17.9375 21.8125,71.5625 222.1875,1 25.8125,-58.1875 332.4687,-1.78125 -1.9866,25.04018 95.5692,107.406699 20.0871,-5.692415 1.4286,590.406246 -13.442,-6.31696 -106.5,108.03125 4.8437,26.46875 -332.4687,-1.78125 -25.8125,-64.24842 -222.1875,1 -21.8125,77.62342 -324.0938,-9.03125 11.2813,-31.75 -111.1324,-115.19478 -31.0283,1.28853 c -0.202,-187.03855 -1.4348,-375.60773 -2.8569,-562.584821 l 29.661,4.31898 108.214,-119.653799 -9.8527,-36.03572 z"
           id="path6711"
           inkscape:connector-curvature="0"
           sodipodi:nodetypes="cccccccccccccccccccccccccccccccccccccccccccccccccc" />
        <path
           style="fill:#2b2200;fill-opacity:1;stroke:none"
           d="m -3938.7188,-222.0625 c 5.5789,16.70278 11.1469,34.53247 10.3126,36.8125 0,5.73218 -77.2611,92.211612 -83.9063,92.59375 -1.7817,0.102147 -5.7895,-1.268647 -10.875,-3.4375 l -22.5,29.375 c 5.1815,213.80596 0.999,427.90536 0,641.78125 l 30,33.66071 c 5.0855,-2.16885 9.0933,-3.53965 10.875,-3.4375 6.6452,0.38214 76.4063,82.57586 76.4063,88.30804 0.8343,2.28003 -4.7337,20.10972 -10.3126,36.8125 l 413.8438,-0.15625 19.4688,-56.99842 h 167.6562 l 24.3438,51.18592 c 142.6003,-7.35589 281.5912,4.41136 422.4687,5.5625 -6.2066,-18.27639 -13.5112,-40.84586 -12.5625,-43.4375 0,-5.73218 74.4174,-80.05526 81.0625,-80.4375 3.9006,-0.2244 15.0458,3.81096 28.4032,10.59708 -7.207,-239.40048 -1.5028,-499.66271 3.4093,-727.87833 -13.3574,6.78612 -30.769,11.813687 -34.6696,11.589286 -6.6451,-0.382246 -78.2054,-72.919606 -78.2054,-78.651786 -0.9487,-2.59164 6.3559,-25.16111 12.5625,-43.4375 -140.8775,1.15114 -279.8684,12.91839 -422.4687,5.5625 l -24.3438,45.125 h -167.6562 l -19.4688,-50.9375 z m 395.1563,27.15625 23.9687,64.40625 199.5313,-1.71875 23.5,-49.5 371.5625,-3.9375 -6.4375,31.6875 82.8929,92.683036 29.7946,-10.026786 c 2.6042,216.97726 0.4404,433.98356 0,650.96875 l -26.9375,-11.8125 -85.75,94.46875 L -2925,694 l -371.5625,-3.9375 -23.5,-55.56092 -199.5313,-1.71875 -23.9687,70.46717 -360.25,-3.4375 9.6875,-32.65625 c 0,0 -95.684,-108.67965 -99.7188,-113.08929 l -33.5,7.37054 c 0.01,-204.84377 0.1461,-409.68752 0,-614.53125 l 33.5761,9.635945 c 4.0348,-4.40964 99.6427,-115.354695 99.6427,-115.354695 l -9.6875,-32.65625 z"
           id="path6714"
           inkscape:connector-curvature="0"
           sodipodi:nodetypes="ccccccccccccccccsccscccccccccccccccccccccccccccccccc" />
        <path
           style="fill:#48541e;fill-opacity:1;stroke:none"
           d="m -3589.5688,-214.46335 11.0548,3.62891 42.7405,2.15047 24.5624,65.28678 184.7555,-0.76965 25.0522,-48.32777 394.8509,-10.39568 -14.1118,42.88895 77.1965,82.359686 33.6915,-7.9698 c 1.9793,-5.453692 16.0929,-17.510606 16.1047,-22.440876 -14.3426,2.10918 -30.9065,3.98041 -34.6191,5.68573 -6.3245,-0.3329 -75.1679,-70.03383 -75.1679,-75.02593 -0.9024,-2.25584 9.9853,-29.74655 15.8905,-45.65839 -140.9146,6.3132 -281.8012,12.78008 -425.3422,4.64769 l -23.8264,45.76786 -168.1577,2.5254 -18.5477,-44.31973 z"
           id="path6716"
           inkscape:connector-curvature="0"
           sodipodi:nodetypes="ccccccccccccccccccc" />
        <path
           sodipodi:nodetypes="cccccccccccc"
           inkscape:connector-curvature="0"
           style="fill:#48541e;fill-opacity:1;stroke:none"
           d="m -3938.7262,-222.00934 c 5.575,16.69257 11.1427,34.49015 10.3086,36.76857 0,5.73218 -77.2719,92.214829 -83.917,92.596967 -4.6457,0.267303 -24.3384,-9.503987 -39.1872,-17.246207 -1e-4,0.37644 0,0.7418 0,1.11899 l 14.5804,37.000079 38.9612,14.801509 91.1333,-107.128368 -10.8029,-37.03879 397.8033,-1.23458 -5.7545,-19.48388 z"
           id="path6718" />
        <path
           inkscape:connector-curvature="0"
           style="fill:#8ea43b;fill-opacity:1;stroke:none"
           d="m -4014.0172,-257.1183 c -0.1654,0.0387 -0.3449,0.1 -0.5376,0.16795 -0.1722,0.0602 -0.3085,0.11806 -0.504,0.20172 -0.1991,0.086 -0.4509,0.19225 -0.672,0.30235 -0.2892,0.14172 -0.5799,0.28935 -0.9073,0.47042 -0.031,0.0183 -0.069,0.0484 -0.1011,0.0667 -15.7232,9.00573 -71.4234,62.56236 -75.9383,72.98148 v 0.16795 l 16.611,7.36247 67.9627,-66.0971 -5.8465,-15.62444 c -0.023,0 -0.044,-0.0108 -0.067,0 z"
           id="path6720"
           sodipodi:nodetypes="ccccccccccccc" />
        <path
           style="fill:#a8c04f;fill-opacity:1;stroke:none"
           d="m -3736.9093,-258.09267 c -158.5475,-0.028 -274.4678,0.18709 -276.2678,0.90717 -0.201,-0.0452 -0.4726,0 -0.7729,0.0667 l 5.8592,15.63971 1169.5709,-3.61838 4.5043,-11.65166 c -2.2091,0 -554.7859,-1.28329 -902.8937,-1.34404 z m -278.8552,1.67994 c -0.4774,0.23946 -1.0061,0.52783 -1.5792,0.87374 0.5887,-0.35526 1.0905,-0.62934 1.5792,-0.87374 z"
           id="path6722"
           inkscape:connector-curvature="0"
           sodipodi:nodetypes="ccccccscccc" />
        <path
           style="fill:#8ea43b;fill-opacity:1;stroke:none"
           d="m -2834.0156,-256.74863 -4.5091,11.66607 h -0.7392 c 0.2573,0.17547 0.6721,0.4703 0.6721,0.4703 l 71.8111,70.56457 c 0,0 3.6464,-3.98804 10.7195,-7.30019 v -0.84008 l -76.9464,-74.56067 c 0,0 -0.8712,3.2e-4 -1.008,0 z m -1181.7489,0.3359 c -0.4887,0.24451 -0.9905,0.51837 -1.5792,0.87374 0.5731,-0.34591 1.1018,-0.63418 1.5792,-0.87374 z"
           id="path6724"
           inkscape:connector-curvature="0"
           sodipodi:nodetypes="cccccccccccc" />
        <path
           style="opacity:0.25663715;fill:#000000;fill-opacity:1;stroke:none"
           d="m -4092.6562,-182.75 c 0.7254,282.185925 0.019,578.37121 0,873.84375 8.2747,-1.94037 9.1451,-6.11008 13.1116,-6.29018 1.3879,-0.37171 5.8437,-1.5625 5.8437,-1.5625 -1.9011,-288.42741 -11.4565,-570.2112 -2.3656,-858.63833 z"
           id="path6726"
           inkscape:connector-curvature="0"
           sodipodi:nodetypes="cccccc" />
        <path
           style="fill:#48541e;fill-opacity:1;stroke:none"
           d="m -4015.75,-256.40625 c -0.4774,0.23978 -1.0204,0.52888 -1.5938,0.875 0.5887,-0.35569 1.1051,-0.63049 1.5938,-0.875 z m 1259.6875,75.0625 c -7.0731,3.31193 -10.7187,7.28125 -10.7187,7.28125 3.8287,281.70514 -0.2105,565.08899 0,856.46875 0,0 3.6456,3.96932 10.7187,7.28125 0,-290.34375 0,-580.6875 0,-871.03125 z M -4017.3438,763.875 c 0.5887,0.35569 1.1051,0.63049 1.5938,0.875 -0.4774,-0.23978 -1.0204,-0.52888 -1.5938,-0.875 z"
           id="path6730"
           inkscape:connector-curvature="0"
           sodipodi:nodetypes="ccccccccccc" />
        <path
           sodipodi:nodetypes="cscscc"
           style="fill:#b5c967;fill-opacity:1;stroke:none"
           d="m -3464.1453,-243.28983 c 51.101,-2.39766 406.0779,-1.30426 424.5105,-1.30426 18.4325,0 116.4557,-1.21071 116.4557,-1.21071 0,0 -294.7448,4.3018 -301.657,4.3018 -6.9122,0 -205.469,0.48568 -205.469,0.48568 z"
           id="path6732"
           inkscape:connector-curvature="0" />
        <path
           inkscape:connector-curvature="0"
           style="opacity:0.0442478;fill:#803300;fill-opacity:1;stroke:none"
           d="m -3730.3907,-258.09267 c 11.264,2.33723 22.9494,4.67049 22.9494,4.67049 l 21.1352,4.60339 31.4841,-1.91531 8.8371,4.6034 12.6675,5.37617 -17.2709,9.60979 -19.2198,8.43391 0.4032,12.29799 0.7729,10.34912 16.4981,4.63694 5.0066,-11.92842 13.4404,-2.68808 1.9152,-9.97946 23.0168,-1.91521 17.3045,11.1219 10.3491,-8.06426 -3.0577,-12.26443 12.6676,0.36966 11.8947,-3.83052 -7.2913,-7.69469 -21.8744,-6.88816 40.3213,-1.94886 -1.9152,5.37617 8.8035,4.63694 3.864,12.66754 19.1863,4.97296 7.2914,-9.57625 12.6676,6.51861 -8.4339,16.49806 9.2067,6.55225 16.9014,-10.75233 c 0,0 8.0594,-1.92478 9.9794,-3.46096 1.9201,-1.53597 -6.1489,-11.52511 -6.1489,-11.52511 l 14.6164,-3.83052 -3.8641,-7.69458 -43.379,-9.61001 18.8166,-4.60329 c 0,0 0.4876,-1.2219 1.1089,-2.92335 -84.0666,-0.0989 -167.2569,-0.1858 -240.6507,-0.20149 z"
           id="path6734" />
        <circle
           r="6.0609155"
           cy="1590.7734"
           cx="24.748737"
           transform="matrix(1.0752335,0,0,1.0752335,-3388.3178,-1922.1942)"
           style="opacity:0.08653846;fill:#000000;fill-opacity:1;stroke:none"
           id="path6736" />
        <circle
           r="2.2728431"
           cy="1577.894"
           cx="68.942909"
           transform="matrix(1.0752335,0,0,1.0752335,-3950.5112,-1929.1064)"
           style="opacity:0.12980772;fill:#000000;fill-opacity:1;stroke:none"
           id="path6740" />
        <path
           sodipodi:nodetypes="ccccccc"
           inkscape:connector-curvature="0"
           id="path6744"
           d="m -2984.3572,-221.99919 c -104.5923,12.75084 -217.135,2.82215 -325.9376,3.5624 l 7.7768,22.4197 1.1295,3.5179 394.5313,-10.4063 c 9.0158,-10.0617 15.0243,-18.1476 15.5312,-18.7187 -30.907,-0.069 -61.9538,-0.209 -93.0312,-0.375 z"
           style="opacity:0.3539823;fill:#000000;fill-opacity:1;stroke:none" />
        <path
           sodipodi:nodetypes="ccccccc"
           id="path6746"
           d="m -3938.1537,-222.00934 21.1117,20.87275 383.6112,-1.19609 5.5428,-18.21069 -161.2326,-1.38899 -249.0331,-0.0763 z"
           style="opacity:0.3539823;fill:#000000;fill-opacity:1;stroke:none"
           inkscape:connector-curvature="0" />
        <path
           inkscape:connector-curvature="0"
           id="path6748"
           d="m -3506.076,-171.81179 -5.3125,27.9376 0.1875,0.4687 184.75,-0.75 -12.5312,-26.8125 h -109.1563 l -56.75,0.8438 -0.3437,-0.8438 h -0.1563 l -0.3437,-0.8438 z"
           style="opacity:0.40707966;fill:#000000;fill-opacity:1;stroke:none" />
        <path
           style="fill:#48541e;fill-opacity:1;stroke:none"
           d="m -4051.4375,-109.84375 c 6.8276,241.42706 2.006,485.37431 -3e-4,728.03125 5.2339,-2.72841 11.0662,-5.67509 16.625,-8.375 v -0.0312 c 0.4422,-1.08825 0.6875,-1.71875 0.6875,-1.71875 l -2.4062,-30.40625 c 0.6347,-212.55956 3.2042,-442.12334 -3e-4,-646.96875 l 2.4062,-30.40625 c 0,0 -0.2453,-0.63051 -0.6875,-1.71875 v -0.0312 c -5.5588,-2.69991 -11.3911,-5.64659 -16.625,-8.375 z"
           id="path6752"
           inkscape:connector-curvature="0"
           sodipodi:nodetypes="cccccccccccc" />
        <path
           sodipodi:nodetypes="cccccccc"
           id="path6754"
           d="m -4051.5142,-109.89001 c -2e-4,0.37655 0,0.7418 0,1.11899 l 10.4147,26.428706 c 1.8462,4.084275 3.3982,7.405563 5.0837,11.073077 l 37.7255,14.106908 c -0.6136,-5.498852 -10.8014,-26.269734 -12.6245,-36.137259 -0.6066,0.37902 -1.1006,0.637936 -1.4123,0.655785 -4.6456,0.267303 -24.3383,-9.503887 -39.1871,-17.246207 z"
           style="opacity:0.47345132;fill:#000000;fill-opacity:1;stroke:none"
           inkscape:connector-curvature="0" />
        <path
           style="fill:#48541e;fill-opacity:1;stroke:none"
           d="m -2787.8125,-112.59375 -22.5313,27.03125 c 3.3814,226.47102 0.6014,452.98545 0,679.46875 l 17.8593,23.36945 c -11.5164,-239.58902 -1.251,-497.93254 4.672,-729.86945 z"
           id="path6758"
           inkscape:connector-curvature="0"
           sodipodi:nodetypes="ccccc" />
        <path
           inkscape:connector-curvature="0"
           id="path6760"
           d="m -2793.6698,-107.81179 -6.8124,0.7188 c -5.0506,0.7013 -10.0945,1.3808 -14.5,2.0312 -1.0525,0.1609 -5.034,-1.47481 -5.9821,-1.31691 -3.829,0.6376 -6.7585,1.276 -8.0626,1.875 -0.1471,-0.01 -0.3475,-0.072 -0.5624,-0.1562 -0.6323,0.1779 -1.1829,0.3256 -1.5626,0.5 -0.1283,-0.01 -0.29,-0.062 -0.4687,-0.125 -1.4378,3.3083 -8.5126,18.9237 -11.9375,26.7812 l 0.031,0.031 33.7634,-8.151686 c 1.9485,-5.3689 15.6562,-17.118904 16.0937,-22.187604 z"
           style="opacity:0.47345132;fill:#000000;fill-opacity:1;stroke:none"
           sodipodi:nodetypes="ccccccccccccc" />
        <ellipse
           ry="8.0812206"
           rx="13.075689"
           cy="1594.8141"
           cx="5057.7773"
           transform="matrix(0.53530219,0,0,0.90332245,-6047.0519,-1656.3294)"
           id="path6802"
           style="opacity:0.13942309;fill:#000000;fill-opacity:1;stroke:none" />
        <circle
           r="10.101525"
           cy="1617.0375"
           cx="4959.8491"
           id="path6804"
           style="opacity:0.13942309;fill:#000000;fill-opacity:1;stroke:none"
           transform="matrix(1.0752335,0,0,1.0752335,-8690.4692,-1929.1064)" />
        <circle
           r="7.0710678"
           cy="1590.7734"
           cx="4690.1382"
           id="path6806"
           style="opacity:0.13942309;fill:#000000;fill-opacity:1;stroke:none"
           transform="matrix(1.0752335,0,0,1.0752335,-8690.4692,-1929.1064)" />
        <path
           sodipodi:nodetypes="ccccccccccccccccccc"
           inkscape:connector-curvature="0"
           id="path6947"
           d="m -3589.5688,722.81578 11.0548,-3.62891 42.7405,-2.15047 24.5624,-65.28678 184.7555,0.76965 25.0522,48.32777 394.8509,10.39568 -13.1016,-41.62626 78.9822,-85.57397 30.8956,9.9214 c 1.9793,5.45369 16.0929,17.5106 16.1047,22.44087 -14.3426,-2.10918 -30.9065,-3.98041 -34.6191,-5.68573 -6.3245,0.33289 -75.1679,70.03383 -75.1679,75.02593 -0.9024,2.25584 9.9853,29.74655 15.8905,45.65839 l -425.3422,-4.64769 -25.3416,-50.31355 -166.6425,2.02029 -18.5477,44.31973 z"
           style="fill:#48541e;fill-opacity:1;stroke:none" />
        <path
           id="path6949"
           d="m -3938.7262,730.36177 c 5.575,-16.69257 11.1427,-34.49015 10.3086,-36.76857 0,-5.73218 -69.7719,-87.92912 -76.417,-88.31126 -4.6457,-0.2673 -31.8384,5.21828 -46.6872,12.9605 -1e-4,-0.37644 0,-0.7418 0,-1.11899 l 14.5804,-37.00008 38.8851,-12.5361 91.2094,104.86296 -10.8029,37.03879 397.8033,1.23458 -5.7545,19.48388 z"
           style="fill:#48541e;fill-opacity:1;stroke:none"
           inkscape:connector-curvature="0"
           sodipodi:nodetypes="cccccccccccc" />
        <path
           id="path6951"
           d="m -4014.0172,765.47073 c -0.1654,-0.0387 -0.3449,-0.1 -0.5376,-0.16795 -0.1722,-0.0602 -0.3085,-0.11806 -0.504,-0.20172 -0.1991,-0.086 -0.4509,-0.19225 -0.672,-0.30235 -0.2892,-0.14172 -0.5799,-0.28935 -0.9073,-0.47042 -0.031,-0.0183 -0.069,-0.0484 -0.1011,-0.0667 -15.7232,-9.00573 -71.4234,-62.56236 -75.9383,-72.98148 0,-0.0559 0,-0.11204 0,-0.16795 14.796,-3.46892 17.9955,-6.32682 17.9955,-6.32682 l 66.5782,65.06145 -5.8465,15.62444 c -0.023,0 -0.044,0.0108 -0.067,0 z"
           style="fill:#4c581f;fill-opacity:1;stroke:none"
           inkscape:connector-curvature="0"
           sodipodi:nodetypes="ccccccccccccc" />
        <path
           sodipodi:nodetypes="ccccccscccc"
           inkscape:connector-curvature="0"
           id="path6953"
           d="m -3736.9093,766.4451 c -158.5475,0.028 -274.4678,-0.18709 -276.2678,-0.90717 -0.201,0.0452 -0.4726,0 -0.7729,-0.0667 l 5.8592,-15.63971 1169.5709,3.61838 4.5043,11.65166 c -2.2091,0 -554.7859,1.28329 -902.8937,1.34404 z m -278.8552,-1.67994 c -0.4774,-0.23946 -1.0061,-0.52783 -1.5792,-0.87374 0.5887,0.35526 1.0905,0.62934 1.5792,0.87374 z"
           style="opacity:0.43805315;fill:#000000;fill-opacity:1;stroke:none" />
        <path
           sodipodi:nodetypes="cccccccccccc"
           inkscape:connector-curvature="0"
           id="path6955"
           d="m -2834.0156,765.10106 -4.5091,-11.66607 h -0.7392 c 0.2573,-0.17547 0.6721,-0.4703 0.6721,-0.4703 l 71.8111,-70.56457 c 0,0 3.6464,3.98804 10.7195,7.30019 v 0.84008 l -76.9464,74.56067 c 0,0 -0.8712,-3.2e-4 -1.008,0 z m -1181.7489,-0.3359 c -0.4887,-0.24451 -0.9905,-0.51837 -1.5792,-0.87374 0.5731,0.34591 1.1018,0.63418 1.5792,0.87374 z"
           style="fill:#48541e;fill-opacity:1;stroke:none" />
        <path
           inkscape:connector-curvature="0"
           id="path6963"
           d="m -3464.1453,751.64226 c 51.101,2.39766 406.0779,1.30426 424.5105,1.30426 18.4325,0 116.4557,1.21071 116.4557,1.21071 0,0 -294.7448,-4.3018 -301.657,-4.3018 -6.9122,0 -205.469,-0.48568 -205.469,-0.48568 z"
           style="fill:#b5c967;fill-opacity:1;stroke:none"
           sodipodi:nodetypes="cscscc" />
        <circle
           r="6.0609155"
           cy="1590.7734"
           cx="24.748737"
           id="path6967"
           style="opacity:0.08653846;fill:#000000;fill-opacity:1;stroke:none"
           transform="matrix(1.0752335,0,0,-1.0752335,-3388.3178,2430.5467)" />
        <circle
           r="2.2728431"
           cy="1577.894"
           cx="68.942909"
           id="path6969"
           style="opacity:0.12980772;fill:#000000;fill-opacity:1;stroke:none"
           transform="matrix(1.0752335,0,0,-1.0752335,-3950.5112,2437.4589)" />
        <path
           inkscape:connector-curvature="0"
           style="opacity:0.47345132;fill:#000000;fill-opacity:1;stroke:none"
           d="m -4051.5142,618.24244 c -2e-4,-0.37655 0,-0.7418 0,-1.11899 l 10.4147,-26.4287 c 1.8462,-4.08428 3.3982,-7.40557 5.0837,-11.07308 l 37.6494,-11.8415 c -0.6136,5.49885 -3.2253,28.29004 -5.0484,38.15756 -0.6066,-0.37902 -1.1006,-0.63794 -1.4123,-0.65579 -4.6456,-0.2673 -31.8383,5.21817 -46.6871,12.9605 z"
           id="path6983"
           sodipodi:nodetypes="cccccccc" />
        <path
           inkscape:connector-curvature="0"
           style="fill:#a6be47;fill-opacity:1;stroke:none"
           d="m -3938.1537,730.36177 21.1117,-20.87275 383.6112,1.19609 5.5428,18.21069 -161.2326,1.38899 -249.0331,0.0763 z"
           id="path6975"
           sodipodi:nodetypes="ccccccc" />
        <path
           style="fill:#a6be47;fill-opacity:1;stroke:none"
           d="m -4048.5312,176.375 c 1.3609,51.79208 -5.1341,160.11915 -3.1774,185.55742 2.0204,26.26397 2.0211,76.25508 2.0211,76.25508 0,0 5.0413,-166.67115 4.0313,-183.84375 -0.9399,-15.97665 -2.6269,-69.97527 -2.875,-77.96875 z M -4077,289.3125 l 1.125,391.78125 -16.7812,10.25 c 0.087,0.19655 0.2217,0.46192 0.3437,0.6875 l 17.8125,-6.34375 61.5312,63.3125 -3.4062,15.46875 c 0.4373,0.23988 0.8477,0.42849 1.2188,0.59375 0.4378,0.19451 0.7941,0.32885 1.125,0.40625 0.04,0.0108 0.1172,-0.0108 0.1562,0 0.1134,0.0204 0.2447,0.0517 0.3438,0.0625 0.1338,0.0108 0.2394,0.0237 0.3437,0 0.06,0.0226 0.3054,0.0399 0.6563,0.0625 0.3079,0.0247 0.7319,0.0378 1.3437,0.0625 0.013,5.4e-4 0.017,-5.4e-4 0.031,0 l 7.9687,-12.0625 144.0625,-3.71875 -145.9688,-5.75 -65.3437,-64.40625 c -4.2589,-104.94146 -1.4634,-186.70466 -6.5625,-390.40625 z m 26.4554,178.17411 -6.9866,165.70089 52.2812,-19.96429 73.1875,83.02679 -9.6563,36.21875 162.5938,-3.15625 -153.7188,-1.3125 16.125,-19.84375 -14.9374,11.03125 6.875,-26.03125 18.1562,-21.15625 -22.1875,15.875 -73.5937,-83.90179 5.625,-35.71875 -9.5313,35.15625 -43.1563,13.46429 z"
           id="path6959"
           inkscape:connector-curvature="0"
           sodipodi:nodetypes="csccccccccccccccccccccccccccccccccccccccccc" />
        <path
           sodipodi:nodetypes="cccccccccccccccccccccccccccccccccccccccccccccccccccccccc"
           inkscape:connector-curvature="0"
           id="path6971"
           d="m -3069.7941,765.57158 15.3556,-4.90586 9.2403,-4.87209 16.2965,-1.07524 8.6691,-6.5186 -11.3908,-7.08977 c -0.1792,-3.79697 -0.3584,-7.59383 -0.5376,-11.39081 -0.3696,-2.35207 -0.7392,-4.70414 -1.1089,-7.05622 -9.957,-1.99369 -19.9141,-3.98728 -29.8712,-5.98098 0,-3.08012 0,-6.16023 0,-9.24034 7.4257,-0.53762 14.8516,-1.07524 22.2774,-1.61285 1.9937,2.71055 3.9873,5.421 5.981,8.13156 2.8897,0.36955 5.7794,0.73922 8.6691,1.10878 4.5362,0.17924 9.0722,0.35837 13.6084,0.53761 -1.0865,-1.99369 -2.1729,-3.98728 -3.2593,-5.98098 3.2481,-0.17924 6.4962,-0.35838 9.7443,-0.53762 2.9009,5.25295 5.8017,10.506 8.7027,15.75895 -5.6114,0.53761 -11.2227,1.07523 -16.8342,1.61285 1.2657,2.90087 2.5314,5.80174 3.797,8.70261 2.5312,-0.90728 5.0625,-1.81445 7.5938,-2.72174 0.1904,3.08012 0.3808,6.16023 0.5712,9.24035 5.421,0.17924 10.8419,0.35837 16.2629,0.53761 1.8145,-3.98729 3.6289,-7.97468 5.4434,-11.96197 5.6114,2.90087 11.2227,5.80185 16.8342,8.70273 -2.5314,1.80327 -5.0627,3.60644 -7.5939,5.40971 l 7.5939,4.90575 33.1306,-5.98098 c -2.3521,-4.16653 -4.7042,-8.33306 -7.0562,-12.49959 -4.525,-0.71686 -9.0499,-1.43361 -13.5748,-2.15047 1.9935,-2.90087 3.9872,-5.80185 5.9809,-8.70272 6.5186,1.81445 13.0372,3.62902 19.5558,5.44347 5.0626,0.17924 10.1251,0.35838 15.1877,0.53762 0.1792,-3.98729 0.3584,-7.97469 0.5376,-11.96197 4.8945,-0.17925 9.7891,-0.35838 14.6836,-0.53762 -1.2768,3.80815 -2.5536,7.6162 -3.8305,11.42436 2.9009,2.5312 5.8018,5.06252 8.7027,7.59372 1.4448,3.43849 2.8897,6.87709 4.3345,10.31558 -4.3457,0.53762 -8.6914,1.07523 -13.0372,1.61285 l 1.1089,5.44337 21.1687,2.18412 9.2402,7.59373 -16.8341,1.61285 -27.1496,-1.07523 v -7.05612 l -20.0934,0.53762 -19.5558,4.36803 10.853,3.2257 -2.8897,4.13298 c -13.7753,0.0301 -16.7155,0.0312 -33.7354,0.0667 l -13.3396,-3.0913 2.184,-5.98098 -16.834,-1.61286 -0.5376,6.48495 -11.962,2.72174 c 0,0 0.156,0.77525 0.3023,1.54565 -15.4027,0.0312 -35.8503,0.0688 -52.5855,0.10107 z"
           style="opacity:0.0442478;fill:#803300;fill-opacity:1;stroke:none" />
        <path
           style="fill:#a9c051;fill-opacity:1;stroke:none"
           d="m -2984.3572,730.35162 -325.9376,-3.5624 7.7768,-22.4197 1.1295,-3.5179 394.5313,10.4063 c 9.0158,10.0617 15.0243,18.1476 15.5312,18.7187 -30.907,0.069 -61.9538,0.209 -93.0312,0.375 z"
           id="path6973"
           inkscape:connector-curvature="0"
           sodipodi:nodetypes="ccccccc" />
        <path
           style="fill:#a9c051;fill-opacity:1;stroke:none"
           d="m -3506.076,674.1033 -5.3125,-27.9376 0.1875,-0.4687 184.75,0.75 -12.5312,26.8125 h -109.1563 l -56.75,-0.8438 -0.3437,0.8438 h -0.1563 l -0.3437,0.8438 z"
           id="path6977"
           inkscape:connector-curvature="0"
           sodipodi:nodetypes="ccccccccccc" />
        <path
           style="opacity:0.47345132;fill:#000000;fill-opacity:1;stroke:none"
           d="m -2793.6698,616.16422 -6.8124,-0.7188 c -5.0506,-0.7013 -10.0945,-1.3808 -14.5,-2.0312 -1.0525,-0.1609 -2.1769,-0.3109 -3.125,-0.4688 -3.829,-0.6376 -6.7585,-1.276 -8.0626,-1.875 -0.1471,0.01 -0.3475,0.072 -0.5624,0.1562 -0.6323,-0.1779 -1.1829,-0.3256 -1.5626,-0.5 -0.1283,0.01 -0.29,0.062 -0.4687,0.125 -1.4378,-3.3083 -8.5126,-18.9237 -11.9375,-26.7812 l 0.031,-0.031 30.9063,9.9374 c 1.9485,5.3689 15.6562,17.1189 16.0937,22.1876 z"
           id="path6989"
           inkscape:connector-curvature="0" />
        <ellipse
           ry="8.0812206"
           rx="13.075689"
           cy="1594.8141"
           cx="5057.7773"
           style="opacity:0.13942309;fill:#000000;fill-opacity:1;stroke:none"
           id="path6993"
           transform="matrix(0.53530219,0,0,-0.90332245,-6047.0519,2164.6819)" />
        <circle
           r="10.101525"
           cy="1617.0375"
           cx="4959.8491"
           transform="matrix(1.0752335,0,0,-1.0752335,-8690.4692,2437.4589)"
           style="opacity:0.13942309;fill:#000000;fill-opacity:1;stroke:none"
           id="path6995" />
        <path
           sodipodi:nodetypes="ccccccccccccccccccc"
           inkscape:connector-curvature="0"
           id="path6979"
           d="m -3877.702,729.80158 c 11.9825,1.24705 352.5839,2.80603 352.5839,2.80603 0,0 18.6912,-50.89235 22.3224,-53.97891 4.0347,-2.64551 164.7064,-1.8393 164.7064,-1.8393 l 23.8104,52.0778 159.8343,-0.51106 -150.9942,-2.29616 4.0974,-25.12047 -10.3739,20.75545 -21.6827,-49.71153 6.8471,-26.19033 -12.3167,25.09456 -165.7091,0.47224 -6.8471,-27.12578 3.4235,30.24364 -18.8297,50.9588 -5.7058,-14.34243 1.1411,14.96585 z"
           style="fill:#adc847;fill-opacity:1;stroke:none" />
        <circle
           r="7.0710678"
           cy="1590.7734"
           cx="4690.1382"
           transform="matrix(1.0752335,0,0,-1.0752335,-8690.4692,2437.4589)"
           style="opacity:0.13942309;fill:#000000;fill-opacity:1;stroke:none"
           id="path6997" />
        <path
           sodipodi:nodetypes="ccccccccccccccccc"
           inkscape:connector-curvature="0"
           id="path6991"
           d="m -3042.9648,731.04863 159.7669,3.74149 -15.9768,-46.14483 73.0322,-72.04054 34.4466,1.94256 -3.926,-133.26862 0.2915,126.33741 -15.3368,-18.15951 10.0056,19.88537 -27.5614,-4.99511 -12.4091,-24.1706 7.6425,28.6869 c -27.2252,24.78457 -45.2063,42.21658 -69.038,69.54622 l -18.2591,-14.03051 14.8355,19.6428 9.7002,38.66195 z"
           style="fill:#8fa63b;fill-opacity:1;stroke:none" />
        <g
           id="g7016"
           transform="matrix(0.51592087,0.49698497,-0.49698497,0.51592087,-4233.066,-3222.6103)">
          <path
             style="opacity:0.23893804;fill:#000000;fill-opacity:1;stroke:none"
             d="m 4357.9688,1657.1875 c -29.1545,-0.5519 -53.3918,30.2758 -45.9688,58.5 5.533,26.1236 35.2646,43.8491 60.8125,35.2187 24.4565,-7.2875 40.3169,-36.0002 31.5625,-60.4687 -6.2586,-19.4027 -25.7714,-34.076 -46.4062,-33.25 z"
             id="path7018"
             inkscape:connector-curvature="0" />
          <circle
             r="31.071428"
             cy="1709.8622"
             cx="4366.7856"
             transform="matrix(1.1778539,0,0,1.1778539,-784.74817,-310.06103)"
             id="path7020"
             style="fill:#2b2200;fill-opacity:1;stroke:none" />
          <path
             id="path7022"
             d="m 4358.5625,1675.5625 c -13.8832,0 -25.3982,10.0426 -27.75,23.25 h 55.5313 c -2.3519,-13.2074 -13.8981,-23.25 -27.7813,-23.25 z m -27.75,33.1875 c 2.3455,13.2151 13.8613,23.25 27.75,23.25 13.8887,0 25.4358,-10.0349 27.7813,-23.25 z"
             style="fill:#989898;fill-opacity:1;stroke:none"
             inkscape:connector-curvature="0" />
          <path
             sodipodi:nodetypes="ccccccccc"
             inkscape:connector-curvature="0"
             id="path7024"
             d="m 4330.8125,1708.75 c 0.5769,3.2504 1.6965,6.3015 3.2813,9.0625 0.8094,0.4387 1.6056,0.8616 2.4062,1.25 -2.6165,-3.35 -2.7589,-7.7589 -2.7589,-7.7589 h 50.3527 c 0,0 -1.9827,4.0711 -3.0938,7.7947 0.6445,-0.3151 1.2305,-0.6554 1.8125,-0.9688 1.6919,-2.8483 2.9309,-5.9924 3.5313,-9.375 z"
             style="fill:#ffffff;fill-opacity:1;stroke:none" />
          <path
             id="path7026"
             d="m 4336.3125,1686.4688 c -2.7491,3.5386 -4.682,7.75 -5.5,12.3437 h 55.5313 c -0.577,-3.2401 -1.6989,-6.3049 -3.2813,-9.0625 0.2189,2.6724 0.1563,5.8125 0.1563,5.8125 0,0 -48.4018,0.9063 -48.9376,-0.3437 -0.4017,-0.9376 1.2026,-6.1803 2.0313,-8.75 z"
             style="opacity:0.28846154;fill:#000000;fill-opacity:1;stroke:none"
             inkscape:connector-curvature="0" />
          <path
             id="path7028"
             d="m 4358.5625,1675.5625 c -10.6072,0 -19.8444,5.8429 -24.6563,14.5 16.1615,-15.6894 42.4703,-6.6547 49.5313,0.375 -4.7614,-8.8581 -14.1186,-14.875 -24.875,-14.875 z"
             style="opacity:0.53539824;fill:#ffffff;fill-opacity:1;stroke:none"
             inkscape:connector-curvature="0" />
          <path
             id="path7030"
             d="m 4334.0938,1717.8125 c 4.8569,8.4842 13.9872,14.1875 24.4687,14.1875 10.3664,0 19.4388,-5.5757 24.3437,-13.9062 -9.5331,5.1552 -27.7289,11.1457 -48.8124,-0.2813 z"
             style="opacity:0.39380529;fill:#000000;fill-opacity:1;stroke:none"
             inkscape:connector-curvature="0" />
          <circle
             r="2.8571429"
             cy="1716.6479"
             cx="4341.9644"
             id="path7032"
             style="opacity:0.39380529;fill:#000000;fill-opacity:1;stroke:none" />
        </g>
        <g
           transform="matrix(-0.52640652,0.48586478,-0.48586478,-0.52640652,-300.18034,-1428.3155)"
           id="g7034">
          <path
             inkscape:connector-curvature="0"
             id="path7036"
             d="m 4357.9688,1657.1875 c -29.1545,-0.5519 -53.3918,30.2758 -45.9688,58.5 5.533,26.1236 35.2646,43.8491 60.8125,35.2187 24.4565,-7.2875 40.3169,-36.0002 31.5625,-60.4687 -6.2586,-19.4027 -25.7714,-34.076 -46.4062,-33.25 z"
             style="opacity:0.23893804;fill:#000000;fill-opacity:1;stroke:none" />
          <circle
             r="31.071428"
             cy="1709.8622"
             cx="4366.7856"
             style="fill:#2b2200;fill-opacity:1;stroke:none"
             id="path7038"
             transform="matrix(1.1778539,0,0,1.1778539,-784.74817,-310.06103)" />
          <path
             inkscape:connector-curvature="0"
             style="fill:#989898;fill-opacity:1;stroke:none"
             d="m 4358.5625,1675.5625 c -13.8832,0 -25.3982,10.0426 -27.75,23.25 h 55.5313 c -2.3519,-13.2074 -13.8981,-23.25 -27.7813,-23.25 z m -27.75,33.1875 c 2.3455,13.2151 13.8613,23.25 27.75,23.25 13.8887,0 25.4358,-10.0349 27.7813,-23.25 z"
             id="path7040" />
          <path
             style="fill:#ffffff;fill-opacity:1;stroke:none"
             d="m 4330.8125,1708.75 c 0.5769,3.2504 1.6965,6.3015 3.2813,9.0625 0.8094,0.4387 1.6056,0.8616 2.4062,1.25 -2.6165,-3.35 -2.7589,-7.7589 -2.7589,-7.7589 h 50.3527 c 0,0 -1.9827,4.0711 -3.0938,7.7947 0.6445,-0.3151 1.2305,-0.6554 1.8125,-0.9688 1.6919,-2.8483 2.9309,-5.9924 3.5313,-9.375 z"
             id="path7042"
             inkscape:connector-curvature="0"
             sodipodi:nodetypes="ccccccccc" />
          <path
             inkscape:connector-curvature="0"
             style="opacity:0.28846154;fill:#000000;fill-opacity:1;stroke:none"
             d="m 4336.3125,1686.4688 c -2.7491,3.5386 -4.682,7.75 -5.5,12.3437 h 55.5313 c -0.577,-3.2401 -1.6989,-6.3049 -3.2813,-9.0625 0.2189,2.6724 0.1563,5.8125 0.1563,5.8125 0,0 -48.4018,0.9063 -48.9376,-0.3437 -0.4017,-0.9376 1.2026,-6.1803 2.0313,-8.75 z"
             id="path7044" />
          <path
             inkscape:connector-curvature="0"
             style="opacity:0.53539824;fill:#ffffff;fill-opacity:1;stroke:none"
             d="m 4358.5625,1675.5625 c -10.6072,0 -19.8444,5.8429 -24.6563,14.5 16.1615,-15.6894 42.4703,-6.6547 49.5313,0.375 -4.7614,-8.8581 -14.1186,-14.875 -24.875,-14.875 z"
             id="path7046" />
          <path
             inkscape:connector-curvature="0"
             style="opacity:0.39380529;fill:#000000;fill-opacity:1;stroke:none"
             d="m 4334.0938,1717.8125 c 4.8569,8.4842 13.9872,14.1875 24.4687,14.1875 10.3664,0 19.4388,-5.5757 24.3437,-13.9062 -9.5331,5.1552 -27.7289,11.1457 -48.8124,-0.2813 z"
             id="path7048" />
          <circle
             r="2.8571429"
             cy="1716.6479"
             cx="4341.9644"
             style="opacity:0.39380529;fill:#000000;fill-opacity:1;stroke:none"
             id="path7050" />
        </g>
        <g
           id="g7052"
           transform="matrix(0.68516879,-0.20907448,0.20907448,0.68516879,-7351.812,-429.34871)">
          <path
             style="opacity:0.23893804;fill:#000000;fill-opacity:1;stroke:none"
             d="m 4357.9688,1657.1875 c -29.1545,-0.5519 -53.3918,30.2758 -45.9688,58.5 5.533,26.1236 35.2646,43.8491 60.8125,35.2187 24.4565,-7.2875 40.3169,-36.0002 31.5625,-60.4687 -6.2586,-19.4027 -25.7714,-34.076 -46.4062,-33.25 z"
             id="path7054"
             inkscape:connector-curvature="0" />
          <circle
             r="31.071428"
             cy="1709.8622"
             cx="4366.7856"
             transform="matrix(1.1778539,0,0,1.1778539,-784.74817,-310.06103)"
             id="path7056"
             style="fill:#2b2200;fill-opacity:1;stroke:none" />
          <path
             id="path7058"
             d="m 4358.5625,1675.5625 c -13.8832,0 -25.3982,10.0426 -27.75,23.25 h 55.5313 c -2.3519,-13.2074 -13.8981,-23.25 -27.7813,-23.25 z m -27.75,33.1875 c 2.3455,13.2151 13.8613,23.25 27.75,23.25 13.8887,0 25.4358,-10.0349 27.7813,-23.25 z"
             style="fill:#989898;fill-opacity:1;stroke:none"
             inkscape:connector-curvature="0" />
          <path
             sodipodi:nodetypes="ccccccccc"
             inkscape:connector-curvature="0"
             id="path7060"
             d="m 4330.8125,1708.75 c 0.5769,3.2504 1.6965,6.3015 3.2813,9.0625 0.8094,0.4387 1.6056,0.8616 2.4062,1.25 -2.6165,-3.35 -2.7589,-7.7589 -2.7589,-7.7589 h 50.3527 c 0,0 -1.9827,4.0711 -3.0938,7.7947 0.6445,-0.3151 1.2305,-0.6554 1.8125,-0.9688 1.6919,-2.8483 2.9309,-5.9924 3.5313,-9.375 z"
             style="fill:#ffffff;fill-opacity:1;stroke:none" />
          <path
             id="path7062"
             d="m 4336.3125,1686.4688 c -2.7491,3.5386 -4.682,7.75 -5.5,12.3437 h 55.5313 c -0.577,-3.2401 -1.6989,-6.3049 -3.2813,-9.0625 0.2189,2.6724 0.1563,5.8125 0.1563,5.8125 0,0 -48.4018,0.9063 -48.9376,-0.3437 -0.4017,-0.9376 1.2026,-6.1803 2.0313,-8.75 z"
             style="opacity:0.28846154;fill:#000000;fill-opacity:1;stroke:none"
             inkscape:connector-curvature="0" />
          <path
             id="path7064"
             d="m 4358.5625,1675.5625 c -10.6072,0 -19.8444,5.8429 -24.6563,14.5 16.1615,-15.6894 42.4703,-6.6547 49.5313,0.375 -4.7614,-8.8581 -14.1186,-14.875 -24.875,-14.875 z"
             style="opacity:0.53539824;fill:#ffffff;fill-opacity:1;stroke:none"
             inkscape:connector-curvature="0" />
          <path
             id="path7066"
             d="m 4334.0938,1717.8125 c 4.8569,8.4842 13.9872,14.1875 24.4687,14.1875 10.3664,0 19.4388,-5.5757 24.3437,-13.9062 -9.5331,5.1552 -27.7289,11.1457 -48.8124,-0.2813 z"
             style="opacity:0.39380529;fill:#000000;fill-opacity:1;stroke:none"
             inkscape:connector-curvature="0" />
          <circle
             r="2.8571429"
             cy="1716.6479"
             cx="4341.9644"
             id="path7068"
             style="opacity:0.39380529;fill:#000000;fill-opacity:1;stroke:none" />
        </g>
        <path
           style="fill:#859a37;fill-opacity:1;stroke:none"
           d="m -2883.1875,-226.4375 -162.8118,8.29569 150.2493,-0.20194 -9.6875,38.6875 -14.8437,19.625 18.25,-14.03125 c 23.8317,27.32964 38.9489,42.99222 66.1741,67.77679 l -7.625,28.687496 14.9316,-24.692576 27.8943,-2.70921 -10,19.90625 15.3124,-18.15625 1.1607,294.54464 c 1.9186,-100.336752 4.8669,-203.666373 7.4019,-305.79464 l -42.2321,4.46429 -70.1742,-70.24554 z m -641.9375,2.1875 c 0,0 -224.4013,1.03996 -315.3125,2.09375 h -0.2813 l -101,-1.96875 9.6563,36.21875 -80.6875,87.3125 -44.7812,-24.25 9.8945,153.986678 -1.8321,-137.674178 35.6563,17.78125 17.1074,33.104695 -13.2011,-33.698445 81.0937,-88.1875 22.1875,15.875 -18.1562,-21.15625 -6.875,-26.03125 14.9374,11.03125 -16.125,-19.84375 123.125,-1.0625 278.3126,3 -1.125,14.96875 5.6874,-14.34375 18.8438,44.90625 -3.4375,30.25 6.875,-27.125 165.6875,0.46875 12.3125,25.09375 -6.8437,-26.1875 21.6874,-43.65625 10.375,20.75 -4.0937,-25.125 154.0305,1.75936 -162.8742,-4.54061 -23.8126,46 c 0,0 -160.6527,0.80176 -164.6874,-1.84375 -3.6312,-3.08656 -22.3438,-47.90625 -22.3438,-47.90625 z"
           id="path6750"
           inkscape:connector-curvature="0"
           sodipodi:nodetypes="ccccccccccccccccccccccccccccccccccccccccccccccccccccc" />
        <g
           id="g7070"
           transform="matrix(-0.52640652,0.48586478,-0.48586478,-0.52640652,-884.46605,-539.74407)">
          <path
             style="opacity:0.23893804;fill:#000000;fill-opacity:1;stroke:none"
             d="m 4357.9688,1657.1875 c -29.1545,-0.5519 -53.3918,30.2758 -45.9688,58.5 5.533,26.1236 35.2646,43.8491 60.8125,35.2187 24.4565,-7.2875 40.3169,-36.0002 31.5625,-60.4687 -6.2586,-19.4027 -25.7714,-34.076 -46.4062,-33.25 z"
             id="path7072"
             inkscape:connector-curvature="0" />
          <circle
             r="31.071428"
             cy="1709.8622"
             cx="4366.7856"
             transform="matrix(1.1778539,0,0,1.1778539,-784.74817,-310.06103)"
             id="path7074"
             style="fill:#2b2200;fill-opacity:1;stroke:none" />
          <path
             id="path7076"
             d="m 4358.5625,1675.5625 c -13.8832,0 -25.3982,10.0426 -27.75,23.25 h 55.5313 c -2.3519,-13.2074 -13.8981,-23.25 -27.7813,-23.25 z m -27.75,33.1875 c 2.3455,13.2151 13.8613,23.25 27.75,23.25 13.8887,0 25.4358,-10.0349 27.7813,-23.25 z"
             style="fill:#989898;fill-opacity:1;stroke:none"
             inkscape:connector-curvature="0" />
          <path
             sodipodi:nodetypes="ccccccccc"
             inkscape:connector-curvature="0"
             id="path7078"
             d="m 4330.8125,1708.75 c 0.5769,3.2504 1.6965,6.3015 3.2813,9.0625 0.8094,0.4387 1.6056,0.8616 2.4062,1.25 -2.6165,-3.35 -2.7589,-7.7589 -2.7589,-7.7589 h 50.3527 c 0,0 -1.9827,4.0711 -3.0938,7.7947 0.6445,-0.3151 1.2305,-0.6554 1.8125,-0.9688 1.6919,-2.8483 2.9309,-5.9924 3.5313,-9.375 z"
             style="fill:#ffffff;fill-opacity:1;stroke:none" />
          <path
             id="path7080"
             d="m 4336.3125,1686.4688 c -2.7491,3.5386 -4.682,7.75 -5.5,12.3437 h 55.5313 c -0.577,-3.2401 -1.6989,-6.3049 -3.2813,-9.0625 0.2189,2.6724 0.1563,5.8125 0.1563,5.8125 0,0 -48.4018,0.9063 -48.9376,-0.3437 -0.4017,-0.9376 1.2026,-6.1803 2.0313,-8.75 z"
             style="opacity:0.28846154;fill:#000000;fill-opacity:1;stroke:none"
             inkscape:connector-curvature="0" />
          <path
             id="path7082"
             d="m 4358.5625,1675.5625 c -10.6072,0 -19.8444,5.8429 -24.6563,14.5 16.1615,-15.6894 42.4703,-6.6547 49.5313,0.375 -4.7614,-8.8581 -14.1186,-14.875 -24.875,-14.875 z"
             style="opacity:0.53539824;fill:#ffffff;fill-opacity:1;stroke:none"
             inkscape:connector-curvature="0" />
          <path
             id="path7084"
             d="m 4334.0938,1717.8125 c 4.8569,8.4842 13.9872,14.1875 24.4687,14.1875 10.3664,0 19.4388,-5.5757 24.3437,-13.9062 -9.5331,5.1552 -27.7289,11.1457 -48.8124,-0.2813 z"
             style="opacity:0.39380529;fill:#000000;fill-opacity:1;stroke:none"
             inkscape:connector-curvature="0" />
          <circle
             r="2.8571429"
             cy="1716.6479"
             cx="4341.9644"
             id="path7086"
             style="opacity:0.39380529;fill:#000000;fill-opacity:1;stroke:none" />
        </g>
        <g
           transform="matrix(-0.43841416,0.40464924,-0.40464924,-0.43841416,-816.48389,-302.9183)"
           id="g7088">
          <path
             inkscape:connector-curvature="0"
             id="path7090"
             d="m 4357.9688,1657.1875 c -29.1545,-0.5519 -53.3918,30.2758 -45.9688,58.5 5.533,26.1236 35.2646,43.8491 60.8125,35.2187 24.4565,-7.2875 40.3169,-36.0002 31.5625,-60.4687 -6.2586,-19.4027 -25.7714,-34.076 -46.4062,-33.25 z"
             style="opacity:0.23893804;fill:#000000;fill-opacity:1;stroke:none" />
          <circle
             r="31.071428"
             cy="1709.8622"
             cx="4366.7856"
             style="fill:#2b2200;fill-opacity:1;stroke:none"
             id="path7092"
             transform="matrix(1.1778539,0,0,1.1778539,-784.74817,-310.06103)" />
          <path
             inkscape:connector-curvature="0"
             style="fill:#989898;fill-opacity:1;stroke:none"
             d="m 4358.5625,1675.5625 c -13.8832,0 -25.3982,10.0426 -27.75,23.25 h 55.5313 c -2.3519,-13.2074 -13.8981,-23.25 -27.7813,-23.25 z m -27.75,33.1875 c 2.3455,13.2151 13.8613,23.25 27.75,23.25 13.8887,0 25.4358,-10.0349 27.7813,-23.25 z"
             id="path7094" />
          <path
             style="fill:#ffffff;fill-opacity:1;stroke:none"
             d="m 4330.8125,1708.75 c 0.5769,3.2504 1.6965,6.3015 3.2813,9.0625 0.8094,0.4387 1.6056,0.8616 2.4062,1.25 -2.6165,-3.35 -2.7589,-7.7589 -2.7589,-7.7589 h 50.3527 c 0,0 -1.9827,4.0711 -3.0938,7.7947 0.6445,-0.3151 1.2305,-0.6554 1.8125,-0.9688 1.6919,-2.8483 2.9309,-5.9924 3.5313,-9.375 z"
             id="path7096"
             inkscape:connector-curvature="0"
             sodipodi:nodetypes="ccccccccc" />
          <path
             inkscape:connector-curvature="0"
             style="opacity:0.28846154;fill:#000000;fill-opacity:1;stroke:none"
             d="m 4336.3125,1686.4688 c -2.7491,3.5386 -4.682,7.75 -5.5,12.3437 h 55.5313 c -0.577,-3.2401 -1.6989,-6.3049 -3.2813,-9.0625 0.2189,2.6724 0.1563,5.8125 0.1563,5.8125 0,0 -48.4018,0.9063 -48.9376,-0.3437 -0.4017,-0.9376 1.2026,-6.1803 2.0313,-8.75 z"
             id="path7098" />
          <path
             inkscape:connector-curvature="0"
             style="opacity:0.53539824;fill:#ffffff;fill-opacity:1;stroke:none"
             d="m 4358.5625,1675.5625 c -10.6072,0 -19.8444,5.8429 -24.6563,14.5 16.1615,-15.6894 42.4703,-6.6547 49.5313,0.375 -4.7614,-8.8581 -14.1186,-14.875 -24.875,-14.875 z"
             id="path7100" />
          <path
             inkscape:connector-curvature="0"
             style="opacity:0.39380529;fill:#000000;fill-opacity:1;stroke:none"
             d="m 4334.0938,1717.8125 c 4.8569,8.4842 13.9872,14.1875 24.4687,14.1875 10.3664,0 19.4388,-5.5757 24.3437,-13.9062 -9.5331,5.1552 -27.7289,11.1457 -48.8124,-0.2813 z"
             id="path7102" />
          <circle
             r="2.8571429"
             cy="1716.6479"
             cx="4341.9644"
             style="opacity:0.39380529;fill:#000000;fill-opacity:1;stroke:none"
             id="path7104" />
        </g>
        <g
           id="g7106"
           transform="matrix(0.02691122,0.62597155,-0.62597155,0.02691122,-1881.6545,-2091.0255)"
           inkscape:transform-center-x="15.714286"
           inkscape:transform-center-y="11.428571">
          <path
             style="opacity:0.23893804;fill:#000000;fill-opacity:1;stroke:none"
             d="m 4357.9688,1657.1875 c -29.1545,-0.5519 -53.3918,30.2758 -45.9688,58.5 5.533,26.1236 35.2646,43.8491 60.8125,35.2187 24.4565,-7.2875 40.3169,-36.0002 31.5625,-60.4687 -6.2586,-19.4027 -25.7714,-34.076 -46.4062,-33.25 z"
             id="path7108"
             inkscape:connector-curvature="0" />
          <circle
             r="31.071428"
             cy="1709.8622"
             cx="4366.7856"
             transform="matrix(1.1778539,0,0,1.1778539,-784.74817,-310.06103)"
             id="path7110"
             style="fill:#2b2200;fill-opacity:1;stroke:none" />
          <path
             id="path7112"
             d="m 4358.5625,1675.5625 c -13.8832,0 -25.3982,10.0426 -27.75,23.25 h 55.5313 c -2.3519,-13.2074 -13.8981,-23.25 -27.7813,-23.25 z m -27.75,33.1875 c 2.3455,13.2151 13.8613,23.25 27.75,23.25 13.8887,0 25.4358,-10.0349 27.7813,-23.25 z"
             style="fill:#989898;fill-opacity:1;stroke:none"
             inkscape:connector-curvature="0" />
          <path
             sodipodi:nodetypes="ccccccccc"
             inkscape:connector-curvature="0"
             id="path7114"
             d="m 4330.8125,1708.75 c 0.5769,3.2504 1.6965,6.3015 3.2813,9.0625 0.8094,0.4387 1.6056,0.8616 2.4062,1.25 -2.6165,-3.35 -2.7589,-7.7589 -2.7589,-7.7589 h 50.3527 c 0,0 -1.9827,4.0711 -3.0938,7.7947 0.6445,-0.3151 1.2305,-0.6554 1.8125,-0.9688 1.6919,-2.8483 2.9309,-5.9924 3.5313,-9.375 z"
             style="fill:#ffffff;fill-opacity:1;stroke:none" />
          <path
             id="path7116"
             d="m 4336.3125,1686.4688 c -2.7491,3.5386 -4.682,7.75 -5.5,12.3437 h 55.5313 c -0.577,-3.2401 -1.6989,-6.3049 -3.2813,-9.0625 0.2189,2.6724 0.1563,5.8125 0.1563,5.8125 0,0 -48.4018,0.9063 -48.9376,-0.3437 -0.4017,-0.9376 1.2026,-6.1803 2.0313,-8.75 z"
             style="opacity:0.28846154;fill:#000000;fill-opacity:1;stroke:none"
             inkscape:connector-curvature="0" />
          <path
             id="path7118"
             d="m 4358.5625,1675.5625 c -10.6072,0 -19.8444,5.8429 -24.6563,14.5 16.1615,-15.6894 42.4703,-6.6547 49.5313,0.375 -4.7614,-8.8581 -14.1186,-14.875 -24.875,-14.875 z"
             style="opacity:0.53539824;fill:#ffffff;fill-opacity:1;stroke:none"
             inkscape:connector-curvature="0" />
          <path
             id="path7120"
             d="m 4334.0938,1717.8125 c 4.8569,8.4842 13.9872,14.1875 24.4687,14.1875 10.3664,0 19.4388,-5.5757 24.3437,-13.9062 -9.5331,5.1552 -27.7289,11.1457 -48.8124,-0.2813 z"
             style="opacity:0.39380529;fill:#000000;fill-opacity:1;stroke:none"
             inkscape:connector-curvature="0" />
          <circle
             r="2.8571429"
             cy="1716.6479"
             cx="4341.9644"
             id="path7122"
             style="opacity:0.39380529;fill:#000000;fill-opacity:1;stroke:none" />
        </g>
        <path
           style="fill:#859a37;fill-opacity:1;stroke:none"
           d="m -2767.1429,45.93361 c -1.157,21.444946 -0.7142,215 -0.7142,226.42857 0,11.42857 2.1428,40 2.1428,40 0,0 1.4286,-117.14286 0.7143,-124.28571 -0.7143,-7.14286 0,-181.8618611 0,-181.8618611 z"
           id="path7124"
           inkscape:connector-curvature="0"
           sodipodi:nodetypes="sscscs" />
      </g>
      <circle
         r="8.5714283"
         cy="-494.06638"
         cx="-6597.8569"
         id="path7237"
         style="opacity:0.07000002;fill:#000000;fill-opacity:1;stroke:none" />
      <path
         inkscape:connector-curvature="0"
         id="path7239"
         d="m -6618.5714,-212.63782 0.7143,-301.42857 -12.8572,-14.28571 17.8572,2.14285 62.8571,-60.71428 -1.4286,-15.71429 8.5715,11.42857 c 0,0 400.7142,2.85715 397.8571,3.57143 -2.8571,0.71429 -399.2857,3.57143 -399.2857,3.57143 l -67.1429,64.28571 z"
         style="fill:#bdd368;fill-opacity:1;stroke:none" />
      <path
         sodipodi:nodetypes="ccccccccccc"
         inkscape:connector-curvature="0"
         id="path7241"
         d="m -5578.5715,-588.35211 199.2858,-1.42857 7.1428,-10.71428 -1.4285,11.42857 67.8571,66.42857 12.1429,-5 -8.5715,11.42857 -0.7142,167.85715 -6.4286,-167.14286 -70,-68.57143 z"
         style="fill:#bdd368;fill-opacity:1;stroke:none" />
    </g>
  </g>
</svg>
